%TF.GenerationSoftware,KiCad,Pcbnew,6.0.11-2627ca5db0~126~ubuntu22.04.1*%
%TF.CreationDate,2023-04-21T14:54:41-05:00*%
%TF.ProjectId,xc2c128_breakout,78633263-3132-4385-9f62-7265616b6f75,rev?*%
%TF.SameCoordinates,Original*%
%TF.FileFunction,Copper,L2,Bot*%
%TF.FilePolarity,Positive*%
%FSLAX46Y46*%
G04 Gerber Fmt 4.6, Leading zero omitted, Abs format (unit mm)*
G04 Created by KiCad (PCBNEW 6.0.11-2627ca5db0~126~ubuntu22.04.1) date 2023-04-21 14:54:41*
%MOMM*%
%LPD*%
G01*
G04 APERTURE LIST*
%TA.AperFunction,ComponentPad*%
%ADD10C,1.600000*%
%TD*%
%TA.AperFunction,ComponentPad*%
%ADD11R,1.700000X1.700000*%
%TD*%
%TA.AperFunction,ComponentPad*%
%ADD12O,1.700000X1.700000*%
%TD*%
%TA.AperFunction,ComponentPad*%
%ADD13O,1.600000X1.600000*%
%TD*%
%TA.AperFunction,ComponentPad*%
%ADD14R,1.600000X1.600000*%
%TD*%
%TA.AperFunction,ViaPad*%
%ADD15C,0.800000*%
%TD*%
%TA.AperFunction,Conductor*%
%ADD16C,0.180000*%
%TD*%
G04 APERTURE END LIST*
D10*
%TO.P,C7,1*%
%TO.N,GND*%
X67056000Y-110276000D03*
%TO.P,C7,2*%
%TO.N,CPLD_1.8V*%
X67056000Y-115276000D03*
%TD*%
%TO.P,C8,1*%
%TO.N,+3.3V*%
X76668000Y-111252000D03*
%TO.P,C8,2*%
%TO.N,GND*%
X71668000Y-111252000D03*
%TD*%
%TO.P,C11,1*%
%TO.N,GND*%
X105116000Y-150368000D03*
%TO.P,C11,2*%
%TO.N,CPLD_1.8V*%
X100116000Y-150368000D03*
%TD*%
%TO.P,C4,1*%
%TO.N,+3.3V*%
X67564000Y-130088000D03*
%TO.P,C4,2*%
%TO.N,GND*%
X67564000Y-135088000D03*
%TD*%
%TO.P,C5,1*%
%TO.N,GND*%
X100076000Y-124500000D03*
%TO.P,C5,2*%
%TO.N,CPLD_1.8V*%
X100076000Y-129500000D03*
%TD*%
%TO.P,C2,1*%
%TO.N,CPLD_1.8V*%
X79248000Y-145836000D03*
%TO.P,C2,2*%
%TO.N,GND*%
X79248000Y-150836000D03*
%TD*%
D11*
%TO.P,J3,1,Pin_1*%
%TO.N,+3.3V*%
X96520000Y-158750000D03*
D12*
%TO.P,J3,2,Pin_2*%
%TO.N,GND*%
X93980000Y-158750000D03*
%TO.P,J3,3,Pin_3*%
%TO.N,Net-(J3-Pad3)*%
X91440000Y-158750000D03*
%TO.P,J3,4,Pin_4*%
%TO.N,Net-(J3-Pad4)*%
X88900000Y-158750000D03*
%TO.P,J3,5,Pin_5*%
%TO.N,Net-(J3-Pad5)*%
X86360000Y-158750000D03*
%TO.P,J3,6,Pin_6*%
%TO.N,Net-(J3-Pad6)*%
X83820000Y-158750000D03*
%TD*%
D10*
%TO.P,R1,1*%
%TO.N,Net-(R1-Pad1)*%
X77216000Y-157988000D03*
D13*
%TO.P,R1,2*%
%TO.N,+3.3V*%
X77216000Y-168148000D03*
%TD*%
D12*
%TO.P,J6,40,Pin_40*%
%TO.N,P128*%
X56896000Y-85852000D03*
%TO.P,J6,39,Pin_39*%
%TO.N,P126*%
X56896000Y-88392000D03*
%TO.P,J6,38,Pin_38*%
%TO.N,P125*%
X56896000Y-90932000D03*
%TO.P,J6,37,Pin_37*%
%TO.N,P124*%
X56896000Y-93472000D03*
%TO.P,J6,36,Pin_36*%
%TO.N,P121*%
X56896000Y-96012000D03*
%TO.P,J6,35,Pin_35*%
%TO.N,P120*%
X56896000Y-98552000D03*
%TO.P,J6,34,Pin_34*%
%TO.N,P119*%
X56896000Y-101092000D03*
%TO.P,J6,33,Pin_33*%
%TO.N,P118*%
X56896000Y-103632000D03*
%TO.P,J6,32,Pin_32*%
%TO.N,P117*%
X56896000Y-106172000D03*
%TO.P,J6,31,Pin_31*%
%TO.N,P116*%
X56896000Y-108712000D03*
%TO.P,J6,30,Pin_30*%
%TO.N,P115*%
X56896000Y-111252000D03*
%TO.P,J6,29,Pin_29*%
%TO.N,P113*%
X56896000Y-113792000D03*
%TO.P,J6,28,Pin_28*%
%TO.N,P112*%
X56896000Y-116332000D03*
%TO.P,J6,27,Pin_27*%
%TO.N,P111*%
X56896000Y-118872000D03*
%TO.P,J6,26,Pin_26*%
%TO.N,P110*%
X56896000Y-121412000D03*
%TO.P,J6,25,Pin_25*%
%TO.N,P105*%
X56896000Y-123952000D03*
%TO.P,J6,24,Pin_24*%
%TO.N,P104*%
X56896000Y-126492000D03*
%TO.P,J6,23,Pin_23*%
%TO.N,P103*%
X56896000Y-129032000D03*
%TO.P,J6,22,Pin_22*%
%TO.N,P102*%
X56896000Y-131572000D03*
%TO.P,J6,21,Pin_21*%
%TO.N,P101*%
X56896000Y-134112000D03*
%TO.P,J6,20,Pin_20*%
%TO.N,P100*%
X56896000Y-136652000D03*
%TO.P,J6,19,Pin_19*%
%TO.N,P98*%
X56896000Y-139192000D03*
%TO.P,J6,18,Pin_18*%
%TO.N,P97*%
X56896000Y-141732000D03*
%TO.P,J6,17,Pin_17*%
%TO.N,P96*%
X56896000Y-144272000D03*
%TO.P,J6,16,Pin_16*%
%TO.N,P95*%
X56896000Y-146812000D03*
%TO.P,J6,15,Pin_15*%
%TO.N,P94*%
X56896000Y-149352000D03*
%TO.P,J6,14,Pin_14*%
%TO.N,P92*%
X56896000Y-151892000D03*
%TO.P,J6,13,Pin_13*%
%TO.N,P91*%
X56896000Y-154432000D03*
%TO.P,J6,12,Pin_12*%
%TO.N,P88*%
X56896000Y-156972000D03*
%TO.P,J6,11,Pin_11*%
%TO.N,P87*%
X56896000Y-159512000D03*
%TO.P,J6,10,Pin_10*%
%TO.N,P86*%
X56896000Y-162052000D03*
%TO.P,J6,9,Pin_9*%
%TO.N,P85*%
X56896000Y-164592000D03*
%TO.P,J6,8,Pin_8*%
%TO.N,P83*%
X56896000Y-167132000D03*
%TO.P,J6,7,Pin_7*%
%TO.N,P82*%
X56896000Y-169672000D03*
%TO.P,J6,6,Pin_6*%
%TO.N,P81*%
X56896000Y-172212000D03*
%TO.P,J6,5,Pin_5*%
%TO.N,P80*%
X56896000Y-174752000D03*
%TO.P,J6,4,Pin_4*%
%TO.N,P79*%
X56896000Y-177292000D03*
%TO.P,J6,3,Pin_3*%
%TO.N,P78*%
X56896000Y-179832000D03*
%TO.P,J6,2,Pin_2*%
%TO.N,P77*%
X56896000Y-182372000D03*
D11*
%TO.P,J6,1,Pin_1*%
%TO.N,P76*%
X56896000Y-184912000D03*
%TD*%
D10*
%TO.P,C6,1*%
%TO.N,+3.3V*%
X97068000Y-142240000D03*
%TO.P,C6,2*%
%TO.N,GND*%
X92068000Y-142240000D03*
%TD*%
D11*
%TO.P,J4,1,Pin_1*%
%TO.N,+3.3V*%
X66289000Y-161036000D03*
D12*
%TO.P,J4,2,Pin_2*%
%TO.N,GND*%
X68829000Y-161036000D03*
%TD*%
D11*
%TO.P,J2,1,Pin_1*%
%TO.N,P2*%
X112776000Y-60457000D03*
D12*
%TO.P,J2,2,Pin_2*%
%TO.N,P3*%
X112776000Y-62997000D03*
%TO.P,J2,3,Pin_3*%
%TO.N,P4*%
X112776000Y-65537000D03*
%TO.P,J2,4,Pin_4*%
%TO.N,P5*%
X112776000Y-68077000D03*
%TO.P,J2,5,Pin_5*%
%TO.N,P6*%
X112776000Y-70617000D03*
%TO.P,J2,6,Pin_6*%
%TO.N,P7*%
X112776000Y-73157000D03*
%TO.P,J2,7,Pin_7*%
%TO.N,P9*%
X112776000Y-75697000D03*
%TO.P,J2,8,Pin_8*%
%TO.N,P10*%
X112776000Y-78237000D03*
%TO.P,J2,9,Pin_9*%
%TO.N,P11*%
X112776000Y-80777000D03*
%TO.P,J2,10,Pin_10*%
%TO.N,P12*%
X112776000Y-83317000D03*
%TO.P,J2,11,Pin_11*%
%TO.N,P13*%
X112776000Y-85857000D03*
%TO.P,J2,12,Pin_12*%
%TO.N,P14*%
X112776000Y-88397000D03*
%TO.P,J2,13,Pin_13*%
%TO.N,P15*%
X112776000Y-90937000D03*
%TO.P,J2,14,Pin_14*%
%TO.N,P16*%
X112776000Y-93477000D03*
%TO.P,J2,15,Pin_15*%
%TO.N,P17*%
X112776000Y-96017000D03*
%TO.P,J2,16,Pin_16*%
%TO.N,P19*%
X112776000Y-98557000D03*
%TO.P,J2,17,Pin_17*%
%TO.N,P21*%
X112776000Y-101097000D03*
%TO.P,J2,18,Pin_18*%
%TO.N,P22*%
X112776000Y-103637000D03*
%TO.P,J2,19,Pin_19*%
%TO.N,P23*%
X112776000Y-106177000D03*
%TO.P,J2,20,Pin_20*%
%TO.N,P24*%
X112776000Y-108717000D03*
%TO.P,J2,21,Pin_21*%
%TO.N,P25*%
X112776000Y-111257000D03*
%TO.P,J2,22,Pin_22*%
%TO.N,P26*%
X112776000Y-113797000D03*
%TO.P,J2,23,Pin_23*%
%TO.N,P28*%
X112776000Y-116337000D03*
%TO.P,J2,24,Pin_24*%
%TO.N,P30*%
X112776000Y-118877000D03*
%TO.P,J2,25,Pin_25*%
%TO.N,P32*%
X112776000Y-121417000D03*
%TO.P,J2,26,Pin_26*%
%TO.N,P35*%
X112776000Y-123957000D03*
%TO.P,J2,27,Pin_27*%
%TO.N,P38*%
X112776000Y-126497000D03*
%TO.P,J2,28,Pin_28*%
%TO.N,P39*%
X112776000Y-129037000D03*
%TO.P,J2,29,Pin_29*%
%TO.N,P40*%
X112776000Y-131577000D03*
%TO.P,J2,30,Pin_30*%
%TO.N,P41*%
X112776000Y-134117000D03*
%TO.P,J2,31,Pin_31*%
%TO.N,P43*%
X112776000Y-136657000D03*
%TO.P,J2,32,Pin_32*%
%TO.N,P45*%
X112776000Y-139197000D03*
%TO.P,J2,33,Pin_33*%
%TO.N,P49*%
X112776000Y-141737000D03*
%TO.P,J2,34,Pin_34*%
%TO.N,P50*%
X112776000Y-144277000D03*
%TO.P,J2,35,Pin_35*%
%TO.N,P51*%
X112776000Y-146817000D03*
%TO.P,J2,36,Pin_36*%
%TO.N,P52*%
X112776000Y-149357000D03*
%TO.P,J2,37,Pin_37*%
%TO.N,P53*%
X112776000Y-151897000D03*
%TO.P,J2,38,Pin_38*%
%TO.N,P54*%
X112776000Y-154437000D03*
%TO.P,J2,39,Pin_39*%
%TO.N,P56*%
X112776000Y-156977000D03*
%TO.P,J2,40,Pin_40*%
%TO.N,P57*%
X112776000Y-159517000D03*
%TD*%
D10*
%TO.P,C9,1*%
%TO.N,GND*%
X67564000Y-123912000D03*
%TO.P,C9,2*%
%TO.N,CPLD_1.8V*%
X67564000Y-118912000D03*
%TD*%
D14*
%TO.P,C3,1*%
%TO.N,CPLD_1.8V*%
X70064000Y-141732000D03*
D10*
%TO.P,C3,2*%
%TO.N,GND*%
X67564000Y-141732000D03*
%TD*%
D14*
%TO.P,C12,1*%
%TO.N,+3.3V*%
X98552000Y-114260000D03*
D10*
%TO.P,C12,2*%
%TO.N,GND*%
X98552000Y-111760000D03*
%TD*%
D12*
%TO.P,J1,10,Pin_10*%
%TO.N,P74*%
X112776000Y-184912000D03*
%TO.P,J1,9,Pin_9*%
%TO.N,P71*%
X112776000Y-182372000D03*
%TO.P,J1,8,Pin_8*%
%TO.N,P70*%
X112776000Y-179832000D03*
%TO.P,J1,7,Pin_7*%
%TO.N,P69*%
X112776000Y-177292000D03*
%TO.P,J1,6,Pin_6*%
%TO.N,P68*%
X112776000Y-174752000D03*
%TO.P,J1,5,Pin_5*%
%TO.N,P64*%
X112776000Y-172212000D03*
%TO.P,J1,4,Pin_4*%
%TO.N,P61*%
X112776000Y-169672000D03*
%TO.P,J1,3,Pin_3*%
%TO.N,P60*%
X112776000Y-167132000D03*
%TO.P,J1,2,Pin_2*%
%TO.N,P59*%
X112776000Y-164592000D03*
D11*
%TO.P,J1,1,Pin_1*%
%TO.N,P58*%
X112776000Y-162052000D03*
%TD*%
D10*
%TO.P,C1,2*%
%TO.N,GND*%
X88860000Y-143764000D03*
%TO.P,C1,1*%
%TO.N,+3.3V*%
X83860000Y-143764000D03*
%TD*%
D12*
%TO.P,J5,10,Pin_10*%
%TO.N,P129*%
X56896000Y-83317000D03*
%TO.P,J5,9,Pin_9*%
%TO.N,P130*%
X56896000Y-80777000D03*
%TO.P,J5,8,Pin_8*%
%TO.N,P131*%
X56896000Y-78237000D03*
%TO.P,J5,7,Pin_7*%
%TO.N,P132*%
X56896000Y-75697000D03*
%TO.P,J5,6,Pin_6*%
%TO.N,P133*%
X56896000Y-73157000D03*
%TO.P,J5,5,Pin_5*%
%TO.N,P134*%
X56896000Y-70617000D03*
%TO.P,J5,4,Pin_4*%
%TO.N,P136*%
X56896000Y-68077000D03*
%TO.P,J5,3,Pin_3*%
%TO.N,P138*%
X56896000Y-65537000D03*
%TO.P,J5,2,Pin_2*%
%TO.N,P140*%
X56896000Y-62997000D03*
D11*
%TO.P,J5,1,Pin_1*%
%TO.N,P143*%
X56896000Y-60457000D03*
%TD*%
D10*
%TO.P,C10,1*%
%TO.N,+3.3V*%
X85892000Y-109728000D03*
%TO.P,C10,2*%
%TO.N,GND*%
X90892000Y-109728000D03*
%TD*%
D15*
%TO.N,P128*%
X78170200Y-102109900D03*
%TO.N,P126*%
X78603500Y-103020500D03*
%TO.N,P125*%
X61205600Y-137114100D03*
X67233700Y-137114100D03*
X75631100Y-133329100D03*
%TO.N,P124*%
X84562000Y-120866900D03*
%TO.N,P121*%
X65866900Y-128312400D03*
X85882600Y-120866800D03*
%TO.N,P120*%
X86832800Y-120685000D03*
%TO.N,P119*%
X62819200Y-122196700D03*
X86043400Y-114111700D03*
%TO.N,P118*%
X80390800Y-102677600D03*
%TO.N,P117*%
X80594000Y-103627800D03*
%TO.N,P116*%
X87828200Y-108334500D03*
%TO.N,P115*%
X88103600Y-109349800D03*
%TO.N,P113*%
X90062000Y-119881800D03*
%TO.N,P112*%
X89341800Y-114083900D03*
%TO.N,P111*%
X90875900Y-112872700D03*
%TO.N,P110*%
X91826100Y-113121800D03*
%TO.N,P105*%
X59548100Y-127387800D03*
X93722900Y-116027900D03*
%TO.N,P104*%
X58675600Y-128271600D03*
X95262500Y-119418700D03*
%TO.N,P103*%
X92768700Y-115697800D03*
%TO.N,P102*%
X60464800Y-126930700D03*
X92675800Y-120384500D03*
%TO.N,P101*%
X91987000Y-121042700D03*
%TO.N,P100*%
X59896500Y-129467400D03*
X91112400Y-119646700D03*
%TO.N,P98*%
X61209200Y-139415600D03*
X65563000Y-139218700D03*
X103751200Y-129948100D03*
X110026200Y-116671800D03*
X95817900Y-122333900D03*
%TO.N,P97*%
X101798400Y-118411200D03*
X63533300Y-125085400D03*
%TO.N,P96*%
X60084800Y-134625000D03*
X60958000Y-129130600D03*
X90451600Y-121059000D03*
%TO.N,P95*%
X65893100Y-141716500D03*
X72738300Y-146689200D03*
X72738300Y-137793600D03*
X102526000Y-130245900D03*
X108326700Y-119855200D03*
X95277700Y-124076800D03*
%TO.N,P94*%
X92372400Y-125350400D03*
%TO.N,P92*%
X90071900Y-122400100D03*
%TO.N,P91*%
X62891600Y-129617700D03*
X89111800Y-120301800D03*
%TO.N,P88*%
X95285400Y-126945100D03*
%TO.N,P87*%
X60890200Y-143087400D03*
X88791600Y-123108600D03*
%TO.N,P86*%
X61592100Y-143759100D03*
X96235500Y-126945100D03*
%TO.N,P85*%
X63208700Y-141674100D03*
X86040600Y-124184700D03*
%TO.N,P83*%
X68157300Y-157820200D03*
X96527800Y-130542500D03*
%TO.N,P82*%
X95298800Y-130552400D03*
%TO.N,P81*%
X110198100Y-178623700D03*
%TO.N,P80*%
X67057100Y-158921700D03*
X92640800Y-131060400D03*
%TO.N,P79*%
X82478600Y-176283500D03*
X82478600Y-146071100D03*
X96469000Y-135790100D03*
%TO.N,P78*%
X89114300Y-126039400D03*
%TO.N,P77*%
X95910400Y-134760100D03*
%TO.N,P76*%
X89984500Y-129630400D03*
%TO.N,P129*%
X82572700Y-101139600D03*
X86257600Y-112055100D03*
X81982200Y-112722100D03*
%TO.N,P130*%
X78766300Y-100043600D03*
%TO.N,P131*%
X77875400Y-100497500D03*
%TO.N,P132*%
X78521300Y-98923500D03*
%TO.N,P133*%
X78863000Y-97650800D03*
%TO.N,P134*%
X76123000Y-92147000D03*
%TO.N,Net-(J3-Pad6)*%
X88862400Y-138919400D03*
%TO.N,Net-(J3-Pad5)*%
X88467600Y-141072700D03*
%TO.N,Net-(J3-Pad4)*%
X85484500Y-131406900D03*
%TO.N,Net-(J3-Pad3)*%
X89562000Y-140192100D03*
%TO.N,P57*%
X110757000Y-157739600D03*
X102647700Y-148470600D03*
%TO.N,P54*%
X83591900Y-135597600D03*
%TO.N,P53*%
X82980500Y-138210000D03*
%TO.N,P52*%
X82781700Y-142265900D03*
%TO.N,P51*%
X81251600Y-135207300D03*
%TO.N,P50*%
X81251600Y-134257100D03*
%TO.N,P49*%
X73848400Y-136490100D03*
X74099700Y-141238800D03*
X79659000Y-140989100D03*
%TO.N,P45*%
X83033100Y-132439300D03*
%TO.N,P43*%
X110253300Y-139179700D03*
X77562000Y-138192500D03*
%TO.N,P41*%
X108630000Y-136768600D03*
X83705000Y-131767400D03*
%TO.N,P40*%
X111366800Y-131577000D03*
X76000000Y-135263500D03*
%TO.N,P39*%
X106089200Y-135149500D03*
X84541600Y-132274600D03*
%TO.N,P38*%
X106195600Y-132863800D03*
X86434700Y-131568500D03*
%TO.N,P35*%
X70604000Y-132088300D03*
%TO.N,P32*%
X71357100Y-132679000D03*
%TO.N,P30*%
X107083100Y-118263500D03*
X106713600Y-119785000D03*
X69086900Y-129422400D03*
%TO.N,P28*%
X70735000Y-135668800D03*
X70896400Y-133959300D03*
X71915800Y-85138600D03*
X98166100Y-87264100D03*
X103516200Y-119848000D03*
%TO.N,P26*%
X86990800Y-124127800D03*
X87811400Y-120789700D03*
X75526300Y-124850600D03*
%TO.N,P25*%
X85736300Y-111088500D03*
X82345200Y-102336700D03*
X63300300Y-106305500D03*
%TO.N,P24*%
X90809600Y-107086000D03*
X87023800Y-98584000D03*
X64372000Y-107593200D03*
%TO.N,P23*%
X97567400Y-126841300D03*
X80435300Y-125480700D03*
X78306100Y-123569000D03*
X74182700Y-127032000D03*
%TO.N,P22*%
X111250500Y-107636200D03*
X64344500Y-105224500D03*
%TO.N,P21*%
X104837000Y-81977200D03*
X64370900Y-110195300D03*
%TO.N,P19*%
X99297800Y-87052000D03*
X71780200Y-89877100D03*
%TO.N,P17*%
X67367600Y-112161600D03*
X75762400Y-107793500D03*
X75716800Y-113857000D03*
%TO.N,P16*%
X68454000Y-111596100D03*
%TO.N,P15*%
X106095700Y-86752800D03*
X69098500Y-108776500D03*
%TO.N,P14*%
X76557600Y-124286400D03*
X79029100Y-122853800D03*
X81110700Y-124795600D03*
X106479600Y-122935900D03*
X103993200Y-93245100D03*
%TO.N,P13*%
X66924200Y-113924600D03*
X89234700Y-96651700D03*
X93255900Y-101933300D03*
%TO.N,P12*%
X109052500Y-83831900D03*
X71221100Y-108453700D03*
%TO.N,P11*%
X110863300Y-82478600D03*
X69231100Y-118150800D03*
%TO.N,P10*%
X109262000Y-81845900D03*
X69844900Y-109840700D03*
%TO.N,P9*%
X70029200Y-116653600D03*
%TO.N,P7*%
X72426900Y-85971400D03*
%TO.N,P6*%
X70775600Y-113785900D03*
%TO.N,P5*%
X77377800Y-118438300D03*
X113671200Y-117525400D03*
%TO.N,P4*%
X105550100Y-110174100D03*
X74904700Y-118720100D03*
%TO.N,P3*%
X70326800Y-84364000D03*
%TO.N,P2*%
X71031200Y-83723900D03*
%TO.N,P70*%
X92151900Y-138658300D03*
%TO.N,P69*%
X90802900Y-138243100D03*
%TO.N,P61*%
X114108600Y-178418000D03*
X86562000Y-135595600D03*
%TO.N,P60*%
X86672100Y-138199900D03*
%TO.N,P58*%
X85062000Y-153477300D03*
%TO.N,CPLD_1.8V*%
X82944900Y-139987500D03*
X70020900Y-137460400D03*
X66027500Y-136095400D03*
X61685100Y-117659600D03*
X70750800Y-122778300D03*
X75414200Y-117885900D03*
%TO.N,GND*%
X74562000Y-109974400D03*
X84833300Y-114264600D03*
X95337000Y-115194100D03*
X86418200Y-139174000D03*
X62575100Y-124822700D03*
X74562000Y-111810400D03*
X87430800Y-105102900D03*
X101347600Y-126154100D03*
X79562000Y-138190400D03*
%TO.N,+3.3V*%
X92672600Y-134792600D03*
X71872400Y-136282200D03*
X69946200Y-133954400D03*
X85367600Y-105395300D03*
X83751000Y-138783300D03*
X82920800Y-123797700D03*
X97301600Y-124565000D03*
%TD*%
D16*
%TO.N,P128*%
X56896000Y-85852000D02*
X56896000Y-86942100D01*
X78600700Y-102109900D02*
X78170200Y-102109900D01*
X79243600Y-102752800D02*
X78600700Y-102109900D01*
X79243600Y-103285700D02*
X79243600Y-102752800D01*
X78868700Y-103660600D02*
X79243600Y-103285700D01*
X75853800Y-103660600D02*
X78868700Y-103660600D01*
X61855200Y-89662000D02*
X75853800Y-103660600D01*
X56598800Y-89662000D02*
X61855200Y-89662000D01*
X55790000Y-88853200D02*
X56598800Y-89662000D01*
X55790000Y-87911800D02*
X55790000Y-88853200D01*
X56759700Y-86942100D02*
X55790000Y-87911800D01*
X56896000Y-86942100D02*
X56759700Y-86942100D01*
%TO.N,P126*%
X77276300Y-103020500D02*
X78603500Y-103020500D01*
X62647800Y-88392000D02*
X77276300Y-103020500D01*
X56896000Y-88392000D02*
X62647800Y-88392000D01*
%TO.N,P125*%
X56896000Y-90932000D02*
X56896000Y-92022100D01*
X75631100Y-133434400D02*
X75631100Y-133329100D01*
X72086300Y-136979200D02*
X75631100Y-133434400D01*
X71181300Y-136979200D02*
X72086300Y-136979200D01*
X70997200Y-136795100D02*
X71181300Y-136979200D01*
X67552700Y-136795100D02*
X70997200Y-136795100D01*
X67233700Y-137114100D02*
X67552700Y-136795100D01*
X59473500Y-135382000D02*
X61205600Y-137114100D01*
X56617300Y-135382000D02*
X59473500Y-135382000D01*
X54057700Y-132822400D02*
X56617300Y-135382000D01*
X54057700Y-94724100D02*
X54057700Y-132822400D01*
X56759700Y-92022100D02*
X54057700Y-94724100D01*
X56896000Y-92022100D02*
X56759700Y-92022100D01*
%TO.N,P124*%
X56896000Y-93472000D02*
X56896000Y-94562100D01*
X84339100Y-121089800D02*
X84562000Y-120866900D01*
X80223400Y-121089800D02*
X84339100Y-121089800D01*
X79820600Y-121492600D02*
X80223400Y-121089800D01*
X77955100Y-121492600D02*
X79820600Y-121492600D01*
X77398300Y-122049400D02*
X77955100Y-121492600D01*
X76955300Y-122049400D02*
X77398300Y-122049400D01*
X71332500Y-127672200D02*
X76955300Y-122049400D01*
X65554500Y-127672200D02*
X71332500Y-127672200D01*
X64755800Y-128470900D02*
X65554500Y-127672200D01*
X64755800Y-129125700D02*
X64755800Y-128470900D01*
X61191300Y-132690200D02*
X64755800Y-129125700D01*
X56462800Y-132690200D02*
X61191300Y-132690200D01*
X54387900Y-130615300D02*
X56462800Y-132690200D01*
X54387900Y-96957200D02*
X54387900Y-130615300D01*
X56783000Y-94562100D02*
X54387900Y-96957200D01*
X56896000Y-94562100D02*
X56783000Y-94562100D01*
%TO.N,P121*%
X85242400Y-121507000D02*
X85882600Y-120866800D01*
X80273100Y-121507000D02*
X85242400Y-121507000D01*
X79957400Y-121822700D02*
X80273100Y-121507000D01*
X78091900Y-121822700D02*
X79957400Y-121822700D01*
X77535100Y-122379500D02*
X78091900Y-121822700D01*
X77092100Y-122379500D02*
X77535100Y-122379500D01*
X71469300Y-128002300D02*
X77092100Y-122379500D01*
X66177000Y-128002300D02*
X71469300Y-128002300D01*
X65866900Y-128312400D02*
X66177000Y-128002300D01*
%TO.N,P120*%
X56896000Y-98552000D02*
X56896000Y-99642100D01*
X86374500Y-120226700D02*
X86832800Y-120685000D01*
X81038200Y-120226700D02*
X86374500Y-120226700D01*
X80505200Y-120759700D02*
X81038200Y-120226700D01*
X80086600Y-120759700D02*
X80505200Y-120759700D01*
X79787200Y-121059100D02*
X80086600Y-120759700D01*
X77921700Y-121059100D02*
X79787200Y-121059100D01*
X77261500Y-121719300D02*
X77921700Y-121059100D01*
X76818500Y-121719300D02*
X77261500Y-121719300D01*
X71195700Y-127342100D02*
X76818500Y-121719300D01*
X65397800Y-127342100D02*
X71195700Y-127342100D01*
X63531700Y-129208200D02*
X65397800Y-127342100D01*
X63531700Y-129882900D02*
X63531700Y-129208200D01*
X62962000Y-130452600D02*
X63531700Y-129882900D01*
X56231100Y-130452600D02*
X62962000Y-130452600D01*
X54755700Y-128977200D02*
X56231100Y-130452600D01*
X54755700Y-101631600D02*
X54755700Y-128977200D01*
X56745200Y-99642100D02*
X54755700Y-101631600D01*
X56896000Y-99642100D02*
X56745200Y-99642100D01*
%TO.N,P119*%
X63408200Y-121607700D02*
X62819200Y-122196700D01*
X69615300Y-121607700D02*
X63408200Y-121607700D01*
X72944200Y-118278800D02*
X69615300Y-121607700D01*
X72944200Y-117907800D02*
X72944200Y-118278800D01*
X74704300Y-116147700D02*
X72944200Y-117907800D01*
X78457200Y-116147700D02*
X74704300Y-116147700D01*
X79329700Y-115275200D02*
X78457200Y-116147700D01*
X84879900Y-115275200D02*
X79329700Y-115275200D01*
X86043400Y-114111700D02*
X84879900Y-115275200D01*
%TO.N,P118*%
X56896000Y-103632000D02*
X57986100Y-103632000D01*
X79064100Y-104004300D02*
X80390800Y-102677600D01*
X58358400Y-104004300D02*
X79064100Y-104004300D01*
X57986100Y-103632000D02*
X58358400Y-104004300D01*
%TO.N,P117*%
X56896000Y-106172000D02*
X57986100Y-106172000D01*
X79709200Y-104512600D02*
X80594000Y-103627800D01*
X59645500Y-104512600D02*
X79709200Y-104512600D01*
X57986100Y-106172000D02*
X59645500Y-104512600D01*
%TO.N,P116*%
X56896000Y-108712000D02*
X56896000Y-109802100D01*
X57016900Y-109802100D02*
X56896000Y-109802100D01*
X59917900Y-112703100D02*
X57016900Y-109802100D01*
X59917900Y-117303800D02*
X59917900Y-112703100D01*
X62901400Y-120287300D02*
X59917900Y-117303800D01*
X69068100Y-120287300D02*
X62901400Y-120287300D01*
X71623800Y-117731600D02*
X69068100Y-120287300D01*
X71623800Y-117360600D02*
X71623800Y-117731600D01*
X74157100Y-114827300D02*
X71623800Y-117360600D01*
X77571100Y-114827300D02*
X74157100Y-114827300D01*
X84712400Y-107686000D02*
X77571100Y-114827300D01*
X87179700Y-107686000D02*
X84712400Y-107686000D01*
X87828200Y-108334500D02*
X87179700Y-107686000D01*
%TO.N,P115*%
X56896000Y-111252000D02*
X57986100Y-111252000D01*
X57986100Y-115838900D02*
X57986100Y-111252000D01*
X62764600Y-120617400D02*
X57986100Y-115838900D01*
X69204900Y-120617400D02*
X62764600Y-120617400D01*
X71953900Y-117868400D02*
X69204900Y-120617400D01*
X71953900Y-117497400D02*
X71953900Y-117868400D01*
X74293900Y-115157400D02*
X71953900Y-117497400D01*
X77707900Y-115157400D02*
X74293900Y-115157400D01*
X84849200Y-108016100D02*
X77707900Y-115157400D01*
X86604600Y-108016100D02*
X84849200Y-108016100D01*
X87563100Y-108974600D02*
X86604600Y-108016100D01*
X87728400Y-108974600D02*
X87563100Y-108974600D01*
X88103600Y-109349800D02*
X87728400Y-108974600D01*
%TO.N,P113*%
X56896000Y-113792000D02*
X56896000Y-114882100D01*
X89746700Y-119566500D02*
X90062000Y-119881800D01*
X80764600Y-119566500D02*
X89746700Y-119566500D01*
X80231600Y-120099500D02*
X80764600Y-119566500D01*
X79813000Y-120099500D02*
X80231600Y-120099500D01*
X79513600Y-120398900D02*
X79813000Y-120099500D01*
X77648100Y-120398900D02*
X79513600Y-120398900D01*
X76987900Y-121059100D02*
X77648100Y-120398900D01*
X76544900Y-121059100D02*
X76987900Y-121059100D01*
X70922100Y-126681900D02*
X76544900Y-121059100D01*
X64922000Y-126681900D02*
X70922100Y-126681900D01*
X61481600Y-130122300D02*
X64922000Y-126681900D01*
X56380700Y-130122300D02*
X61481600Y-130122300D01*
X55086000Y-128827600D02*
X56380700Y-130122300D01*
X55086000Y-116555900D02*
X55086000Y-128827600D01*
X56759800Y-114882100D02*
X55086000Y-116555900D01*
X56896000Y-114882100D02*
X56759800Y-114882100D01*
%TO.N,P112*%
X56896000Y-116332000D02*
X56896000Y-117422100D01*
X56759700Y-117422100D02*
X56896000Y-117422100D01*
X55447100Y-118734700D02*
X56759700Y-117422100D01*
X55447100Y-122050500D02*
X55447100Y-118734700D01*
X56252100Y-122855500D02*
X55447100Y-122050500D01*
X63132600Y-122855500D02*
X56252100Y-122855500D01*
X64050300Y-121937800D02*
X63132600Y-122855500D01*
X69752100Y-121937800D02*
X64050300Y-121937800D01*
X73274300Y-118415600D02*
X69752100Y-121937800D01*
X73274300Y-118044600D02*
X73274300Y-118415600D01*
X74841100Y-116477800D02*
X73274300Y-118044600D01*
X78815600Y-116477800D02*
X74841100Y-116477800D01*
X79688100Y-115605300D02*
X78815600Y-116477800D01*
X87820400Y-115605300D02*
X79688100Y-115605300D01*
X89341800Y-114083900D02*
X87820400Y-115605300D01*
%TO.N,P111*%
X56896000Y-118872000D02*
X56896000Y-119962100D01*
X56759700Y-119962100D02*
X56896000Y-119962100D01*
X55781500Y-120940300D02*
X56759700Y-119962100D01*
X55781500Y-121846200D02*
X55781500Y-120940300D01*
X56460500Y-122525200D02*
X55781500Y-121846200D01*
X61554900Y-122525200D02*
X56460500Y-122525200D01*
X62802500Y-121277600D02*
X61554900Y-122525200D01*
X69478500Y-121277600D02*
X62802500Y-121277600D01*
X72614100Y-118142000D02*
X69478500Y-121277600D01*
X72614100Y-117771000D02*
X72614100Y-118142000D01*
X74567500Y-115817600D02*
X72614100Y-117771000D01*
X77981500Y-115817600D02*
X74567500Y-115817600D01*
X85122800Y-108676300D02*
X77981500Y-115817600D01*
X86321900Y-108676300D02*
X85122800Y-108676300D01*
X87133400Y-109487800D02*
X86321900Y-108676300D01*
X87133400Y-109763700D02*
X87133400Y-109487800D01*
X89508100Y-112138400D02*
X87133400Y-109763700D01*
X90141600Y-112138400D02*
X89508100Y-112138400D01*
X90875900Y-112872700D02*
X90141600Y-112138400D01*
%TO.N,P110*%
X56896000Y-121412000D02*
X57986100Y-121412000D01*
X58450600Y-120947500D02*
X57986100Y-121412000D01*
X69341700Y-120947500D02*
X58450600Y-120947500D01*
X72284000Y-118005200D02*
X69341700Y-120947500D01*
X72284000Y-117634200D02*
X72284000Y-118005200D01*
X74430700Y-115487500D02*
X72284000Y-117634200D01*
X77844700Y-115487500D02*
X74430700Y-115487500D01*
X84986000Y-108346200D02*
X77844700Y-115487500D01*
X86467800Y-108346200D02*
X84986000Y-108346200D01*
X87463400Y-109341800D02*
X86467800Y-108346200D01*
X87463500Y-109341800D02*
X87463400Y-109341800D01*
X87463500Y-109621400D02*
X87463500Y-109341800D01*
X87956300Y-110114200D02*
X87463500Y-109621400D01*
X89022700Y-110114200D02*
X87956300Y-110114200D01*
X91826100Y-112917600D02*
X89022700Y-110114200D01*
X91826100Y-113121800D02*
X91826100Y-112917600D01*
%TO.N,P105*%
X59548200Y-127387800D02*
X59548100Y-127387800D01*
X59548200Y-126942100D02*
X59548200Y-127387800D01*
X62830300Y-123660000D02*
X59548200Y-126942100D01*
X63461500Y-123660000D02*
X62830300Y-123660000D01*
X64498300Y-122623200D02*
X63461500Y-123660000D01*
X70000500Y-122623200D02*
X64498300Y-122623200D01*
X73934500Y-118689200D02*
X70000500Y-122623200D01*
X73934500Y-118318200D02*
X73934500Y-118689200D01*
X75114700Y-117138000D02*
X73934500Y-118318200D01*
X79089200Y-117138000D02*
X75114700Y-117138000D01*
X79889300Y-116337900D02*
X79089200Y-117138000D01*
X93412900Y-116337900D02*
X79889300Y-116337900D01*
X93722900Y-116027900D02*
X93412900Y-116337900D01*
%TO.N,P104*%
X61931600Y-128271600D02*
X58675600Y-128271600D01*
X64511600Y-125691600D02*
X61931600Y-128271600D01*
X70143500Y-125691600D02*
X64511600Y-125691600D01*
X75766300Y-120068800D02*
X70143500Y-125691600D01*
X76412500Y-120068800D02*
X75766300Y-120068800D01*
X77072700Y-119408600D02*
X76412500Y-120068800D01*
X79054900Y-119408600D02*
X77072700Y-119408600D01*
X79471100Y-118992400D02*
X79054900Y-119408600D01*
X79938000Y-118992400D02*
X79471100Y-118992400D01*
X80354200Y-118576200D02*
X79938000Y-118992400D01*
X94420000Y-118576200D02*
X80354200Y-118576200D01*
X95262500Y-119418700D02*
X94420000Y-118576200D01*
%TO.N,P103*%
X56896000Y-129032000D02*
X57986100Y-129032000D01*
X57986100Y-128037300D02*
X57986100Y-129032000D01*
X62693500Y-123329900D02*
X57986100Y-128037300D01*
X63125200Y-123329900D02*
X62693500Y-123329900D01*
X64162000Y-122293100D02*
X63125200Y-123329900D01*
X69863700Y-122293100D02*
X64162000Y-122293100D01*
X73604400Y-118552400D02*
X69863700Y-122293100D01*
X73604400Y-118181400D02*
X73604400Y-118552400D01*
X74977900Y-116807900D02*
X73604400Y-118181400D01*
X78952400Y-116807900D02*
X74977900Y-116807900D01*
X79824900Y-115935400D02*
X78952400Y-116807900D01*
X92531100Y-115935400D02*
X79824900Y-115935400D01*
X92768700Y-115697800D02*
X92531100Y-115935400D01*
%TO.N,P102*%
X60464800Y-126930600D02*
X60464800Y-126930700D01*
X62805700Y-126930600D02*
X60464800Y-126930600D01*
X64374800Y-125361500D02*
X62805700Y-126930600D01*
X70006700Y-125361500D02*
X64374800Y-125361500D01*
X75629500Y-119738700D02*
X70006700Y-125361500D01*
X76275600Y-119738700D02*
X75629500Y-119738700D01*
X76935800Y-119078500D02*
X76275600Y-119738700D01*
X78918100Y-119078500D02*
X76935800Y-119078500D01*
X79334300Y-118662300D02*
X78918100Y-119078500D01*
X79801200Y-118662300D02*
X79334300Y-118662300D01*
X80217400Y-118246100D02*
X79801200Y-118662300D01*
X95045700Y-118246100D02*
X80217400Y-118246100D01*
X95922000Y-119122400D02*
X95045700Y-118246100D01*
X95922000Y-119664500D02*
X95922000Y-119122400D01*
X95202000Y-120384500D02*
X95922000Y-119664500D01*
X92675800Y-120384500D02*
X95202000Y-120384500D01*
%TO.N,P101*%
X91330600Y-121699100D02*
X91987000Y-121042700D01*
X87191100Y-121699100D02*
X91330600Y-121699100D01*
X86723000Y-122167200D02*
X87191100Y-121699100D01*
X80621000Y-122167200D02*
X86723000Y-122167200D01*
X74455800Y-128332400D02*
X80621000Y-122167200D01*
X66752100Y-128332400D02*
X74455800Y-128332400D01*
X66752100Y-128332500D02*
X66752100Y-128332400D01*
X61099700Y-133984900D02*
X66752100Y-128332500D01*
X58113200Y-133984900D02*
X61099700Y-133984900D01*
X57986100Y-134112000D02*
X58113200Y-133984900D01*
X56896000Y-134112000D02*
X57986100Y-134112000D01*
%TO.N,P100*%
X90702100Y-119236400D02*
X91112400Y-119646700D01*
X80627800Y-119236400D02*
X90702100Y-119236400D01*
X80094900Y-119769300D02*
X80627800Y-119236400D01*
X79628000Y-119769300D02*
X80094900Y-119769300D01*
X79328500Y-120068800D02*
X79628000Y-119769300D01*
X77511300Y-120068800D02*
X79328500Y-120068800D01*
X76851100Y-120729000D02*
X77511300Y-120068800D01*
X76408100Y-120729000D02*
X76851100Y-120729000D01*
X70785300Y-126351800D02*
X76408100Y-120729000D01*
X64785200Y-126351800D02*
X70785300Y-126351800D01*
X61366300Y-129770700D02*
X64785200Y-126351800D01*
X60199800Y-129770700D02*
X61366300Y-129770700D01*
X59896500Y-129467400D02*
X60199800Y-129770700D01*
%TO.N,P98*%
X56896000Y-139192000D02*
X57986100Y-139192000D01*
X102812900Y-130886400D02*
X103751200Y-129948100D01*
X99229400Y-130886400D02*
X102812900Y-130886400D01*
X97908900Y-129565900D02*
X99229400Y-130886400D01*
X93662300Y-129565900D02*
X97908900Y-129565900D01*
X93086600Y-128990200D02*
X93662300Y-129565900D01*
X89341100Y-128990200D02*
X93086600Y-128990200D01*
X89264400Y-129066900D02*
X89341100Y-128990200D01*
X82623800Y-129066900D02*
X89264400Y-129066900D01*
X78583400Y-133107300D02*
X82623800Y-129066900D01*
X78583400Y-134986200D02*
X78583400Y-133107300D01*
X75135900Y-138433700D02*
X78583400Y-134986200D01*
X66348000Y-138433700D02*
X75135900Y-138433700D01*
X65563000Y-139218700D02*
X66348000Y-138433700D01*
X99606500Y-122333900D02*
X95817900Y-122333900D01*
X105268600Y-116671800D02*
X99606500Y-122333900D01*
X110026200Y-116671800D02*
X105268600Y-116671800D01*
X58209700Y-139415600D02*
X61209200Y-139415600D01*
X57986100Y-139192000D02*
X58209700Y-139415600D01*
%TO.N,P97*%
X63666600Y-124952100D02*
X63533300Y-125085400D01*
X69482300Y-124952100D02*
X63666600Y-124952100D01*
X75074100Y-119360300D02*
X69482300Y-124952100D01*
X75669000Y-119360300D02*
X75074100Y-119360300D01*
X76737700Y-118291600D02*
X75669000Y-119360300D01*
X76737700Y-118173200D02*
X76737700Y-118291600D01*
X77112700Y-117798200D02*
X76737700Y-118173200D01*
X79362800Y-117798200D02*
X77112700Y-117798200D01*
X79575100Y-117585900D02*
X79362800Y-117798200D01*
X100973100Y-117585900D02*
X79575100Y-117585900D01*
X101798400Y-118411200D02*
X100973100Y-117585900D01*
%TO.N,P96*%
X61863800Y-136404000D02*
X60084800Y-134625000D01*
X61863800Y-140394300D02*
X61863800Y-136404000D01*
X57986100Y-144272000D02*
X61863800Y-140394300D01*
X90654900Y-121059000D02*
X90451600Y-121059000D01*
X91777600Y-119936300D02*
X90654900Y-121059000D01*
X91777600Y-119394200D02*
X91777600Y-119936300D01*
X91289700Y-118906300D02*
X91777600Y-119394200D01*
X80491000Y-118906300D02*
X91289700Y-118906300D01*
X80074500Y-119322800D02*
X80491000Y-118906300D01*
X79607600Y-119322800D02*
X80074500Y-119322800D01*
X79191700Y-119738700D02*
X79607600Y-119322800D01*
X77374300Y-119738700D02*
X79191700Y-119738700D01*
X76714100Y-120398900D02*
X77374300Y-119738700D01*
X76271300Y-120398900D02*
X76714100Y-120398900D01*
X70648500Y-126021700D02*
X76271300Y-120398900D01*
X64648400Y-126021700D02*
X70648500Y-126021700D01*
X61539500Y-129130600D02*
X64648400Y-126021700D01*
X60958000Y-129130600D02*
X61539500Y-129130600D01*
X56896000Y-144272000D02*
X57986100Y-144272000D01*
%TO.N,P95*%
X70865800Y-146689200D02*
X65893100Y-141716500D01*
X72738300Y-146689200D02*
X70865800Y-146689200D01*
X95400000Y-124076800D02*
X95277700Y-124076800D01*
X96574600Y-125251400D02*
X95400000Y-124076800D01*
X97795400Y-125251400D02*
X96574600Y-125251400D01*
X99927300Y-123119500D02*
X97795400Y-125251400D01*
X104284400Y-123119500D02*
X99927300Y-123119500D01*
X107548600Y-119855300D02*
X104284400Y-123119500D01*
X107548600Y-119855200D02*
X107548600Y-119855300D01*
X108326700Y-119855200D02*
X107548600Y-119855200D01*
X102215600Y-130556300D02*
X102526000Y-130245900D01*
X99531100Y-130556300D02*
X102215600Y-130556300D01*
X98210600Y-129235800D02*
X99531100Y-130556300D01*
X93799100Y-129235800D02*
X98210600Y-129235800D01*
X93223400Y-128660100D02*
X93799100Y-129235800D01*
X89204300Y-128660100D02*
X93223400Y-128660100D01*
X89127600Y-128736800D02*
X89204300Y-128660100D01*
X82487000Y-128736800D02*
X89127600Y-128736800D01*
X78253300Y-132970500D02*
X82487000Y-128736800D01*
X78253300Y-134849400D02*
X78253300Y-132970500D01*
X75309100Y-137793600D02*
X78253300Y-134849400D01*
X72738300Y-137793600D02*
X75309100Y-137793600D01*
%TO.N,P94*%
X56896000Y-149352000D02*
X56896000Y-148261900D01*
X92323600Y-125399200D02*
X92372400Y-125350400D01*
X88467800Y-125399200D02*
X92323600Y-125399200D01*
X87771000Y-126096000D02*
X88467800Y-125399200D01*
X81392600Y-126096000D02*
X87771000Y-126096000D01*
X77175600Y-130313000D02*
X81392600Y-126096000D01*
X70502500Y-130313000D02*
X77175600Y-130313000D01*
X68264700Y-132550800D02*
X70502500Y-130313000D01*
X68264700Y-132550900D02*
X68264700Y-132550800D01*
X67741300Y-133074300D02*
X68264700Y-132550900D01*
X67209600Y-133074300D02*
X67741300Y-133074300D01*
X64262600Y-136021300D02*
X67209600Y-133074300D01*
X64262600Y-142024100D02*
X64262600Y-136021300D01*
X58024800Y-148261900D02*
X64262600Y-142024100D01*
X56896000Y-148261900D02*
X58024800Y-148261900D01*
%TO.N,P92*%
X56896000Y-151892000D02*
X56896000Y-150801900D01*
X89761900Y-122090100D02*
X90071900Y-122400100D01*
X87734000Y-122090100D02*
X89761900Y-122090100D01*
X87326800Y-122497300D02*
X87734000Y-122090100D01*
X81103100Y-122497300D02*
X87326800Y-122497300D01*
X74937900Y-128662500D02*
X81103100Y-122497300D01*
X67462500Y-128662500D02*
X74937900Y-128662500D01*
X62193900Y-133931100D02*
X67462500Y-128662500D01*
X62193900Y-140589800D02*
X62193900Y-133931100D01*
X57241700Y-145542000D02*
X62193900Y-140589800D01*
X56602100Y-145542000D02*
X57241700Y-145542000D01*
X55805600Y-146338500D02*
X56602100Y-145542000D01*
X55805600Y-149847800D02*
X55805600Y-146338500D01*
X56759700Y-150801900D02*
X55805600Y-149847800D01*
X56896000Y-150801900D02*
X56759700Y-150801900D01*
%TO.N,P91*%
X88706600Y-119896600D02*
X89111800Y-120301800D01*
X80901400Y-119896600D02*
X88706600Y-119896600D01*
X80368400Y-120429600D02*
X80901400Y-119896600D01*
X79949800Y-120429600D02*
X80368400Y-120429600D01*
X79650400Y-120729000D02*
X79949800Y-120429600D01*
X77784900Y-120729000D02*
X79650400Y-120729000D01*
X77124700Y-121389200D02*
X77784900Y-120729000D01*
X76681700Y-121389200D02*
X77124700Y-121389200D01*
X71058900Y-127012000D02*
X76681700Y-121389200D01*
X65247800Y-127012000D02*
X71058900Y-127012000D01*
X62891600Y-129368200D02*
X65247800Y-127012000D01*
X62891600Y-129617700D02*
X62891600Y-129368200D01*
%TO.N,P88*%
X56896000Y-156972000D02*
X56896000Y-155881900D01*
X95019800Y-126679500D02*
X95285400Y-126945100D01*
X88383500Y-126679500D02*
X95019800Y-126679500D01*
X88306800Y-126756200D02*
X88383500Y-126679500D01*
X81666200Y-126756200D02*
X88306800Y-126756200D01*
X77012300Y-131410100D02*
X81666200Y-126756200D01*
X70339200Y-131410100D02*
X77012300Y-131410100D01*
X68924900Y-132824400D02*
X70339200Y-131410100D01*
X68924900Y-135232100D02*
X68924900Y-132824400D01*
X68005900Y-136151100D02*
X68924900Y-135232100D01*
X66988500Y-136151100D02*
X68005900Y-136151100D01*
X66292700Y-135455300D02*
X66988500Y-136151100D01*
X65762400Y-135455300D02*
X66292700Y-135455300D01*
X64922800Y-136294900D02*
X65762400Y-135455300D01*
X64922800Y-147991400D02*
X64922800Y-136294900D01*
X57032300Y-155881900D02*
X64922800Y-147991400D01*
X56896000Y-155881900D02*
X57032300Y-155881900D01*
%TO.N,P87*%
X88742700Y-123157500D02*
X88791600Y-123108600D01*
X81376700Y-123157500D02*
X88742700Y-123157500D01*
X75211500Y-129322700D02*
X81376700Y-123157500D01*
X70092100Y-129322700D02*
X75211500Y-129322700D01*
X67660900Y-131753900D02*
X70092100Y-129322700D01*
X67129300Y-131753900D02*
X67660900Y-131753900D01*
X62943700Y-135939500D02*
X67129300Y-131753900D01*
X62943700Y-141034000D02*
X62943700Y-135939500D01*
X62943600Y-141034000D02*
X62943700Y-141034000D01*
X60890200Y-143087400D02*
X62943600Y-141034000D01*
%TO.N,P86*%
X95595400Y-126305000D02*
X96235500Y-126945100D01*
X94232500Y-126305000D02*
X95595400Y-126305000D01*
X92618300Y-124690800D02*
X94232500Y-126305000D01*
X89982300Y-124690800D02*
X92618300Y-124690800D01*
X89604000Y-125069100D02*
X89982300Y-124690800D01*
X88331000Y-125069100D02*
X89604000Y-125069100D01*
X87634200Y-125765900D02*
X88331000Y-125069100D01*
X81255800Y-125765900D02*
X87634200Y-125765900D01*
X77038800Y-129982900D02*
X81255800Y-125765900D01*
X70365700Y-129982900D02*
X77038800Y-129982900D01*
X67934600Y-132414000D02*
X70365700Y-129982900D01*
X67934600Y-132414100D02*
X67934600Y-132414000D01*
X67402900Y-132414100D02*
X67934600Y-132414100D01*
X63932500Y-135884500D02*
X67402900Y-132414100D01*
X63932500Y-141855600D02*
X63932500Y-135884500D01*
X62029000Y-143759100D02*
X63932500Y-141855600D01*
X61592100Y-143759100D02*
X62029000Y-143759100D01*
%TO.N,P85*%
X85787500Y-124437800D02*
X86040600Y-124184700D01*
X82655700Y-124437800D02*
X85787500Y-124437800D01*
X82373400Y-124155500D02*
X82655700Y-124437800D01*
X80845600Y-124155500D02*
X82373400Y-124155500D01*
X75348300Y-129652800D02*
X80845600Y-124155500D01*
X70228900Y-129652800D02*
X75348300Y-129652800D01*
X67797700Y-132084000D02*
X70228900Y-129652800D01*
X67266100Y-132084000D02*
X67797700Y-132084000D01*
X63602400Y-135747700D02*
X67266100Y-132084000D01*
X63602400Y-141280400D02*
X63602400Y-135747700D01*
X63208700Y-141674100D02*
X63602400Y-141280400D01*
%TO.N,P83*%
X95877800Y-131192500D02*
X96527800Y-130542500D01*
X93723000Y-131192500D02*
X95877800Y-131192500D01*
X92950800Y-130420300D02*
X93723000Y-131192500D01*
X92375700Y-130420300D02*
X92950800Y-130420300D01*
X91865300Y-130930700D02*
X92375700Y-130420300D01*
X89445800Y-130930700D02*
X91865300Y-130930700D01*
X88902400Y-130387300D02*
X89445800Y-130930700D01*
X83171000Y-130387300D02*
X88902400Y-130387300D01*
X79903800Y-133654500D02*
X83171000Y-130387300D01*
X79903800Y-136620500D02*
X79903800Y-133654500D01*
X80654200Y-137370900D02*
X79903800Y-136620500D01*
X80654200Y-146446400D02*
X80654200Y-137370900D01*
X69280400Y-157820200D02*
X80654200Y-146446400D01*
X68157300Y-157820200D02*
X69280400Y-157820200D01*
%TO.N,P82*%
X56896000Y-169672000D02*
X56896000Y-168581900D01*
X93715000Y-130552400D02*
X95298800Y-130552400D01*
X93252800Y-130090200D02*
X93715000Y-130552400D01*
X90896900Y-130090200D02*
X93252800Y-130090200D01*
X90386500Y-130600600D02*
X90896900Y-130090200D01*
X89582600Y-130600600D02*
X90386500Y-130600600D01*
X89039200Y-130057200D02*
X89582600Y-130600600D01*
X83034200Y-130057200D02*
X89039200Y-130057200D01*
X79573700Y-133517700D02*
X83034200Y-130057200D01*
X79573700Y-137272200D02*
X79573700Y-133517700D01*
X80299200Y-137997700D02*
X79573700Y-137272200D01*
X80299200Y-146334500D02*
X80299200Y-137997700D01*
X78856600Y-147777100D02*
X80299200Y-146334500D01*
X77295200Y-147777100D02*
X78856600Y-147777100D01*
X57986100Y-167086200D02*
X77295200Y-147777100D01*
X57986100Y-167628200D02*
X57986100Y-167086200D01*
X57032400Y-168581900D02*
X57986100Y-167628200D01*
X56896000Y-168581900D02*
X57032400Y-168581900D01*
%TO.N,P81*%
X56896000Y-172212000D02*
X56896000Y-173302100D01*
X56782900Y-173302100D02*
X56896000Y-173302100D01*
X55757100Y-174327900D02*
X56782900Y-173302100D01*
X55757100Y-175154900D02*
X55757100Y-174327900D01*
X56444400Y-175842200D02*
X55757100Y-175154900D01*
X78146600Y-175842200D02*
X56444400Y-175842200D01*
X78345400Y-175643400D02*
X78146600Y-175842200D01*
X107217800Y-175643400D02*
X78345400Y-175643400D01*
X110198100Y-178623700D02*
X107217800Y-175643400D01*
%TO.N,P80*%
X92440400Y-131260800D02*
X92640800Y-131060400D01*
X87453100Y-131260800D02*
X92440400Y-131260800D01*
X86909700Y-130717400D02*
X87453100Y-131260800D01*
X83307800Y-130717400D02*
X86909700Y-130717400D01*
X80233900Y-133791300D02*
X83307800Y-130717400D01*
X80233900Y-136367100D02*
X80233900Y-133791300D01*
X80984300Y-137117500D02*
X80233900Y-136367100D01*
X80984300Y-146583200D02*
X80984300Y-137117500D01*
X68645800Y-158921700D02*
X80984300Y-146583200D01*
X67057100Y-158921700D02*
X68645800Y-158921700D01*
%TO.N,P79*%
X81470100Y-177292000D02*
X82478600Y-176283500D01*
X56896000Y-177292000D02*
X81470100Y-177292000D01*
X95812300Y-135790100D02*
X96469000Y-135790100D01*
X94169400Y-134147200D02*
X95812300Y-135790100D01*
X87562700Y-134147200D02*
X94169400Y-134147200D01*
X87474800Y-134235100D02*
X87562700Y-134147200D01*
X83112700Y-134235100D02*
X87474800Y-134235100D01*
X82291300Y-135056500D02*
X83112700Y-134235100D01*
X82291300Y-135539800D02*
X82291300Y-135056500D01*
X81974600Y-135856500D02*
X82291300Y-135539800D01*
X81974600Y-140509300D02*
X81974600Y-135856500D01*
X83434400Y-141969100D02*
X81974600Y-140509300D01*
X83434400Y-142693500D02*
X83434400Y-141969100D01*
X82478600Y-143649300D02*
X83434400Y-142693500D01*
X82478600Y-146071100D02*
X82478600Y-143649300D01*
%TO.N,P78*%
X56896000Y-179832000D02*
X56896000Y-178741900D01*
X88556700Y-126039400D02*
X89114300Y-126039400D01*
X88170000Y-126426100D02*
X88556700Y-126039400D01*
X81529400Y-126426100D02*
X88170000Y-126426100D01*
X77312400Y-130643100D02*
X81529400Y-126426100D01*
X70639300Y-130643100D02*
X77312400Y-130643100D01*
X68594800Y-132687600D02*
X70639300Y-130643100D01*
X68594800Y-132687700D02*
X68594800Y-132687600D01*
X67878100Y-133404400D02*
X68594800Y-132687700D01*
X67346400Y-133404400D02*
X67878100Y-133404400D01*
X64592700Y-136158100D02*
X67346400Y-133404400D01*
X64592700Y-145777000D02*
X64592700Y-136158100D01*
X57207700Y-153162000D02*
X64592700Y-145777000D01*
X56602100Y-153162000D02*
X57207700Y-153162000D01*
X55096900Y-154667200D02*
X56602100Y-153162000D01*
X55096900Y-177546000D02*
X55096900Y-154667200D01*
X56292800Y-178741900D02*
X55096900Y-177546000D01*
X56896000Y-178741900D02*
X56292800Y-178741900D01*
%TO.N,P77*%
X56896000Y-182372000D02*
X56896000Y-183462100D01*
X96344300Y-134760100D02*
X95910400Y-134760100D01*
X112218800Y-150634600D02*
X96344300Y-134760100D01*
X113080200Y-150634600D02*
X112218800Y-150634600D01*
X115237000Y-152791400D02*
X113080200Y-150634600D01*
X115237000Y-178913600D02*
X115237000Y-152791400D01*
X113080200Y-181070400D02*
X115237000Y-178913600D01*
X112227600Y-181070400D02*
X113080200Y-181070400D01*
X107281200Y-186016800D02*
X112227600Y-181070400D01*
X55921700Y-186016800D02*
X107281200Y-186016800D01*
X55805800Y-185900900D02*
X55921700Y-186016800D01*
X55805800Y-183956200D02*
X55805800Y-185900900D01*
X56299900Y-183462100D02*
X55805800Y-183956200D01*
X56896000Y-183462100D02*
X56299900Y-183462100D01*
%TO.N,P76*%
X56896000Y-184912000D02*
X56896000Y-183821900D01*
X89751100Y-129397000D02*
X89984500Y-129630400D01*
X82760600Y-129397000D02*
X89751100Y-129397000D01*
X78913500Y-133244100D02*
X82760600Y-129397000D01*
X78913500Y-135123000D02*
X78913500Y-133244100D01*
X75272700Y-138763800D02*
X78913500Y-135123000D01*
X67888900Y-138763800D02*
X75272700Y-138763800D01*
X65252900Y-141399800D02*
X67888900Y-138763800D01*
X65252900Y-155289300D02*
X65252900Y-141399800D01*
X57220200Y-163322000D02*
X65252900Y-155289300D01*
X56624200Y-163322000D02*
X57220200Y-163322000D01*
X55427000Y-164519200D02*
X56624200Y-163322000D01*
X55427000Y-177409200D02*
X55427000Y-164519200D01*
X56414800Y-178397000D02*
X55427000Y-177409200D01*
X57039400Y-178397000D02*
X56414800Y-178397000D01*
X58006600Y-179364200D02*
X57039400Y-178397000D01*
X58006600Y-182847600D02*
X58006600Y-179364200D01*
X57032300Y-183821900D02*
X58006600Y-182847600D01*
X56896000Y-183821900D02*
X57032300Y-183821900D01*
%TO.N,P129*%
X85590600Y-112722100D02*
X81982200Y-112722100D01*
X86257600Y-112055100D02*
X85590600Y-112722100D01*
X56896000Y-83317000D02*
X56896000Y-82226900D01*
X82242600Y-101469700D02*
X82572700Y-101139600D01*
X77475400Y-101469700D02*
X82242600Y-101469700D01*
X75693200Y-99687500D02*
X77475400Y-101469700D01*
X75693200Y-97957400D02*
X75693200Y-99687500D01*
X57402500Y-79666700D02*
X75693200Y-97957400D01*
X56446600Y-79666700D02*
X57402500Y-79666700D01*
X55754400Y-80358900D02*
X56446600Y-79666700D01*
X55754400Y-81221600D02*
X55754400Y-80358900D01*
X56759700Y-82226900D02*
X55754400Y-81221600D01*
X56896000Y-82226900D02*
X56759700Y-82226900D01*
%TO.N,P130*%
X56896000Y-80777000D02*
X56896000Y-81867100D01*
X78766300Y-100558700D02*
X78766300Y-100043600D01*
X78185500Y-101139500D02*
X78766300Y-100558700D01*
X77612200Y-101139500D02*
X78185500Y-101139500D01*
X76139700Y-99667000D02*
X77612200Y-101139500D01*
X76139700Y-97911800D02*
X76139700Y-99667000D01*
X57555100Y-79327200D02*
X76139700Y-97911800D01*
X56242100Y-79327200D02*
X57555100Y-79327200D01*
X55422900Y-80146400D02*
X56242100Y-79327200D01*
X55422900Y-83392600D02*
X55422900Y-80146400D01*
X56517500Y-84487200D02*
X55422900Y-83392600D01*
X57341400Y-84487200D02*
X56517500Y-84487200D01*
X58022100Y-83806500D02*
X57341400Y-84487200D01*
X58022100Y-82856900D02*
X58022100Y-83806500D01*
X57032300Y-81867100D02*
X58022100Y-82856900D01*
X56896000Y-81867100D02*
X57032300Y-81867100D01*
%TO.N,P131*%
X56896000Y-78237000D02*
X57986100Y-78237000D01*
X77875400Y-98126300D02*
X77875400Y-100497500D01*
X57986100Y-78237000D02*
X77875400Y-98126300D01*
%TO.N,P132*%
X56896000Y-75697000D02*
X57986100Y-75697000D01*
X78521300Y-98215900D02*
X78521300Y-98923500D01*
X57986100Y-77680700D02*
X78521300Y-98215900D01*
X57986100Y-75697000D02*
X57986100Y-77680700D01*
%TO.N,P133*%
X56896000Y-73157000D02*
X57986100Y-73157000D01*
X78612700Y-97650800D02*
X78863000Y-97650800D01*
X59841200Y-78879300D02*
X78612700Y-97650800D01*
X59841200Y-75012100D02*
X59841200Y-78879300D01*
X57986100Y-73157000D02*
X59841200Y-75012100D01*
%TO.N,P134*%
X56896000Y-70617000D02*
X57986100Y-70617000D01*
X69409700Y-85433700D02*
X76123000Y-92147000D01*
X69409700Y-82040600D02*
X69409700Y-85433700D01*
X57986100Y-70617000D02*
X69409700Y-82040600D01*
%TO.N,Net-(J3-Pad6)*%
X83820000Y-158750000D02*
X83820000Y-157659900D01*
X87827500Y-139954300D02*
X88862400Y-138919400D01*
X87827500Y-141313700D02*
X87827500Y-139954300D01*
X83714400Y-145426800D02*
X87827500Y-141313700D01*
X83714400Y-157554300D02*
X83714400Y-145426800D01*
X83820000Y-157659900D02*
X83714400Y-157554300D01*
%TO.N,Net-(J3-Pad5)*%
X86360000Y-158750000D02*
X86360000Y-157659900D01*
X84044500Y-155344400D02*
X86360000Y-157659900D01*
X84044500Y-145953400D02*
X84044500Y-155344400D01*
X88467600Y-141530300D02*
X84044500Y-145953400D01*
X88467600Y-141072700D02*
X88467600Y-141530300D01*
%TO.N,Net-(J3-Pad4)*%
X88900000Y-158750000D02*
X87809900Y-158750000D01*
X85174400Y-131096800D02*
X85484500Y-131406900D01*
X83470200Y-131096800D02*
X85174400Y-131096800D01*
X80611500Y-133955500D02*
X83470200Y-131096800D01*
X80611500Y-136157800D02*
X80611500Y-133955500D01*
X81314400Y-136860700D02*
X80611500Y-136157800D01*
X81314400Y-157823200D02*
X81314400Y-136860700D01*
X83339700Y-159848500D02*
X81314400Y-157823200D01*
X86847700Y-159848500D02*
X83339700Y-159848500D01*
X87809900Y-158886300D02*
X86847700Y-159848500D01*
X87809900Y-158750000D02*
X87809900Y-158886300D01*
%TO.N,Net-(J3-Pad3)*%
X91440000Y-158750000D02*
X90349900Y-158750000D01*
X90349900Y-158613600D02*
X90349900Y-158750000D01*
X89396200Y-157659900D02*
X90349900Y-158613600D01*
X88315500Y-157659900D02*
X89396200Y-157659900D01*
X84374600Y-153719000D02*
X88315500Y-157659900D01*
X84374600Y-146227000D02*
X84374600Y-153719000D01*
X89562000Y-141039600D02*
X84374600Y-146227000D01*
X89562000Y-140192100D02*
X89562000Y-141039600D01*
%TO.N,P57*%
X102647700Y-149630300D02*
X110757000Y-157739600D01*
X102647700Y-148470600D02*
X102647700Y-149630300D01*
%TO.N,P54*%
X112776000Y-154437000D02*
X111685900Y-154437000D01*
X93484600Y-136235700D02*
X111685900Y-154437000D01*
X84230000Y-136235700D02*
X93484600Y-136235700D01*
X83591900Y-135597600D02*
X84230000Y-136235700D01*
%TO.N,P53*%
X112776000Y-151897000D02*
X111685900Y-151897000D01*
X110644700Y-151897000D02*
X111685900Y-151897000D01*
X94180400Y-135432700D02*
X110644700Y-151897000D01*
X92212100Y-135432700D02*
X94180400Y-135432700D01*
X91734800Y-134955400D02*
X92212100Y-135432700D01*
X83326200Y-134955400D02*
X91734800Y-134955400D01*
X82951700Y-135329900D02*
X83326200Y-134955400D01*
X82951700Y-138181200D02*
X82951700Y-135329900D01*
X82980500Y-138210000D02*
X82951700Y-138181200D01*
%TO.N,P52*%
X112776000Y-149357000D02*
X111685900Y-149357000D01*
X96146000Y-133817100D02*
X111685900Y-149357000D01*
X87425900Y-133817100D02*
X96146000Y-133817100D01*
X87338000Y-133905000D02*
X87425900Y-133817100D01*
X82975900Y-133905000D02*
X87338000Y-133905000D01*
X81891700Y-134989200D02*
X82975900Y-133905000D01*
X81891700Y-135472500D02*
X81891700Y-134989200D01*
X81644500Y-135719700D02*
X81891700Y-135472500D01*
X81644500Y-141128700D02*
X81644500Y-135719700D01*
X82781700Y-142265900D02*
X81644500Y-141128700D01*
%TO.N,P51*%
X112776000Y-146817000D02*
X111685900Y-146817000D01*
X81251600Y-135162400D02*
X81251600Y-135207300D01*
X82839100Y-133574900D02*
X81251600Y-135162400D01*
X87201200Y-133574900D02*
X82839100Y-133574900D01*
X87289100Y-133487000D02*
X87201200Y-133574900D01*
X98355900Y-133487000D02*
X87289100Y-133487000D01*
X111685900Y-146817000D02*
X98355900Y-133487000D01*
%TO.N,P50*%
X112776000Y-144277000D02*
X111685900Y-144277000D01*
X82263900Y-133244800D02*
X81251600Y-134257100D01*
X87064400Y-133244800D02*
X82263900Y-133244800D01*
X87152300Y-133156900D02*
X87064400Y-133244800D01*
X100565800Y-133156900D02*
X87152300Y-133156900D01*
X111685900Y-144277000D02*
X100565800Y-133156900D01*
%TO.N,P49*%
X112776000Y-141737000D02*
X112776000Y-140646900D01*
X79409300Y-141238800D02*
X79659000Y-140989100D01*
X74099700Y-141238800D02*
X79409300Y-141238800D01*
X112630600Y-140646900D02*
X112776000Y-140646900D01*
X109600200Y-137616500D02*
X112630600Y-140646900D01*
X109600200Y-134877600D02*
X109600200Y-137616500D01*
X103178900Y-128456300D02*
X109600200Y-134877600D01*
X98258400Y-128456300D02*
X103178900Y-128456300D01*
X98139100Y-128575600D02*
X98258400Y-128456300D01*
X94072700Y-128575600D02*
X98139100Y-128575600D01*
X93497000Y-127999900D02*
X94072700Y-128575600D01*
X88930700Y-127999900D02*
X93497000Y-127999900D01*
X88854000Y-128076600D02*
X88930700Y-127999900D01*
X82213400Y-128076600D02*
X88854000Y-128076600D01*
X77593100Y-132696900D02*
X82213400Y-128076600D01*
X77593100Y-134575800D02*
X77593100Y-132696900D01*
X75678800Y-136490100D02*
X77593100Y-134575800D01*
X73848400Y-136490100D02*
X75678800Y-136490100D01*
%TO.N,P45*%
X112776000Y-139197000D02*
X112776000Y-140287100D01*
X112912300Y-140287100D02*
X112776000Y-140287100D01*
X113873600Y-141248400D02*
X112912300Y-140287100D01*
X113873600Y-142227000D02*
X113873600Y-141248400D01*
X113242000Y-142858600D02*
X113873600Y-142227000D01*
X112228900Y-142858600D02*
X113242000Y-142858600D01*
X102197100Y-132826800D02*
X112228900Y-142858600D01*
X87015500Y-132826800D02*
X102197100Y-132826800D01*
X86927600Y-132914700D02*
X87015500Y-132826800D01*
X83508500Y-132914700D02*
X86927600Y-132914700D01*
X83033100Y-132439300D02*
X83508500Y-132914700D01*
%TO.N,P43*%
X109270100Y-138196500D02*
X110253300Y-139179700D01*
X109270100Y-135014400D02*
X109270100Y-138196500D01*
X105472200Y-131216500D02*
X109270100Y-135014400D01*
X99092600Y-131216500D02*
X105472200Y-131216500D01*
X97772100Y-129896000D02*
X99092600Y-131216500D01*
X93525500Y-129896000D02*
X97772100Y-129896000D01*
X93389600Y-129760100D02*
X93525500Y-129896000D01*
X90760100Y-129760100D02*
X93389600Y-129760100D01*
X90249700Y-130270500D02*
X90760100Y-129760100D01*
X89719400Y-130270500D02*
X90249700Y-130270500D01*
X89176000Y-129727100D02*
X89719400Y-130270500D01*
X82897400Y-129727100D02*
X89176000Y-129727100D01*
X79243600Y-133380900D02*
X82897400Y-129727100D01*
X79243600Y-136510900D02*
X79243600Y-133380900D01*
X77562000Y-138192500D02*
X79243600Y-136510900D01*
%TO.N,P41*%
X104014000Y-132152600D02*
X108630000Y-136768600D01*
X86755900Y-132152600D02*
X104014000Y-132152600D01*
X86699900Y-132208600D02*
X86755900Y-132152600D01*
X85381000Y-132208600D02*
X86699900Y-132208600D01*
X84769600Y-131597200D02*
X85381000Y-132208600D01*
X83875200Y-131597200D02*
X84769600Y-131597200D01*
X83705000Y-131767400D02*
X83875200Y-131597200D01*
%TO.N,P40*%
X107916000Y-128126200D02*
X111366800Y-131577000D01*
X98121600Y-128126200D02*
X107916000Y-128126200D01*
X98002300Y-128245500D02*
X98121600Y-128126200D01*
X94209500Y-128245500D02*
X98002300Y-128245500D01*
X93633800Y-127669800D02*
X94209500Y-128245500D01*
X88793900Y-127669800D02*
X93633800Y-127669800D01*
X88717200Y-127746500D02*
X88793900Y-127669800D01*
X82076600Y-127746500D02*
X88717200Y-127746500D01*
X77263000Y-132560100D02*
X82076600Y-127746500D01*
X77263000Y-134000500D02*
X77263000Y-132560100D01*
X76000000Y-135263500D02*
X77263000Y-134000500D01*
%TO.N,P39*%
X84805700Y-132538700D02*
X84541600Y-132274600D01*
X86836700Y-132538700D02*
X84805700Y-132538700D01*
X86892700Y-132482700D02*
X86836700Y-132538700D01*
X103422400Y-132482700D02*
X86892700Y-132482700D01*
X106089200Y-135149500D02*
X103422400Y-132482700D01*
%TO.N,P38*%
X105032300Y-131700500D02*
X106195600Y-132863800D01*
X86566700Y-131700500D02*
X105032300Y-131700500D01*
X86434700Y-131568500D02*
X86566700Y-131700500D01*
%TO.N,P35*%
X112776000Y-123957000D02*
X111685900Y-123957000D01*
X108176900Y-127466000D02*
X111685900Y-123957000D01*
X97848000Y-127466000D02*
X108176900Y-127466000D01*
X97728700Y-127585300D02*
X97848000Y-127466000D01*
X94483100Y-127585300D02*
X97728700Y-127585300D01*
X93907400Y-127009600D02*
X94483100Y-127585300D01*
X88520300Y-127009600D02*
X93907400Y-127009600D01*
X88443600Y-127086300D02*
X88520300Y-127009600D01*
X81803000Y-127086300D02*
X88443600Y-127086300D01*
X76850400Y-132038900D02*
X81803000Y-127086300D01*
X70653400Y-132038900D02*
X76850400Y-132038900D01*
X70604000Y-132088300D02*
X70653400Y-132038900D01*
%TO.N,P32*%
X112776000Y-121417000D02*
X112776000Y-122507100D01*
X112912300Y-122507100D02*
X112776000Y-122507100D01*
X113888700Y-123483500D02*
X112912300Y-122507100D01*
X113888700Y-124411000D02*
X113888700Y-123483500D01*
X113189500Y-125110200D02*
X113888700Y-124411000D01*
X111875100Y-125110200D02*
X113189500Y-125110200D01*
X109189200Y-127796100D02*
X111875100Y-125110200D01*
X97984800Y-127796100D02*
X109189200Y-127796100D01*
X97865500Y-127915400D02*
X97984800Y-127796100D01*
X94346300Y-127915400D02*
X97865500Y-127915400D01*
X93770600Y-127339700D02*
X94346300Y-127915400D01*
X88657100Y-127339700D02*
X93770600Y-127339700D01*
X88580400Y-127416400D02*
X88657100Y-127339700D01*
X81939800Y-127416400D02*
X88580400Y-127416400D01*
X76677300Y-132678900D02*
X81939800Y-127416400D01*
X76677300Y-132679000D02*
X76677300Y-132678900D01*
X71357100Y-132679000D02*
X76677300Y-132679000D01*
%TO.N,P30*%
X107696600Y-118877000D02*
X107083100Y-118263500D01*
X112776000Y-118877000D02*
X107696600Y-118877000D01*
X103709200Y-122789400D02*
X106713600Y-119785000D01*
X96888700Y-122789400D02*
X103709200Y-122789400D01*
X96637800Y-123040300D02*
X96888700Y-122789400D01*
X89681300Y-123040300D02*
X96637800Y-123040300D01*
X89061200Y-122420200D02*
X89681300Y-123040300D01*
X88337600Y-122420200D02*
X89061200Y-122420200D01*
X87930400Y-122827400D02*
X88337600Y-122420200D01*
X81239900Y-122827400D02*
X87930400Y-122827400D01*
X75074700Y-128992600D02*
X81239900Y-122827400D01*
X69516700Y-128992600D02*
X75074700Y-128992600D01*
X69086900Y-129422400D02*
X69516700Y-128992600D01*
%TO.N,P28*%
X96040600Y-85138600D02*
X71915800Y-85138600D01*
X98166100Y-87264100D02*
X96040600Y-85138600D01*
X112776000Y-116337000D02*
X111685900Y-116337000D01*
X69305900Y-134239700D02*
X70735000Y-135668800D01*
X69305900Y-133660900D02*
X69305900Y-134239700D01*
X69657000Y-133309800D02*
X69305900Y-133660900D01*
X70246900Y-133309800D02*
X69657000Y-133309800D01*
X70896400Y-133959300D02*
X70246900Y-133309800D01*
X110711000Y-117311900D02*
X111685900Y-116337000D01*
X106052300Y-117311900D02*
X110711000Y-117311900D01*
X103516200Y-119848000D02*
X106052300Y-117311900D01*
%TO.N,P26*%
X112776000Y-113797000D02*
X112776000Y-114887100D01*
X113457300Y-114887100D02*
X112776000Y-114887100D01*
X114311300Y-115741100D02*
X113457300Y-114887100D01*
X114311300Y-118893300D02*
X114311300Y-115741100D01*
X113026400Y-120178200D02*
X114311300Y-118893300D01*
X108909000Y-120178200D02*
X113026400Y-120178200D01*
X108591900Y-120495300D02*
X108909000Y-120178200D01*
X107956100Y-120495300D02*
X108591900Y-120495300D01*
X101645600Y-126805800D02*
X107956100Y-120495300D01*
X100545000Y-126805800D02*
X101645600Y-126805800D01*
X99320700Y-125581500D02*
X100545000Y-126805800D01*
X96437800Y-125581500D02*
X99320700Y-125581500D01*
X96171000Y-125314700D02*
X96437800Y-125581500D01*
X94642900Y-125314700D02*
X96171000Y-125314700D01*
X93028700Y-123700500D02*
X94642900Y-125314700D01*
X89571900Y-123700500D02*
X93028700Y-123700500D01*
X89193600Y-124078800D02*
X89571900Y-123700500D01*
X87039800Y-124078800D02*
X89193600Y-124078800D01*
X86990800Y-124127800D02*
X87039800Y-124078800D01*
X75526400Y-124850600D02*
X75526300Y-124850600D01*
X75526400Y-124412100D02*
X75526400Y-124850600D01*
X77228900Y-122709600D02*
X75526400Y-124412100D01*
X77671900Y-122709600D02*
X77228900Y-122709600D01*
X78228700Y-122152800D02*
X77671900Y-122709600D01*
X80094200Y-122152800D02*
X78228700Y-122152800D01*
X80409900Y-121837100D02*
X80094200Y-122152800D01*
X86586200Y-121837100D02*
X80409900Y-121837100D01*
X87633600Y-120789700D02*
X86586200Y-121837100D01*
X87811400Y-120789700D02*
X87633600Y-120789700D01*
%TO.N,P25*%
X112776000Y-111257000D02*
X111685900Y-111257000D01*
X82345200Y-102781900D02*
X82345200Y-102336700D01*
X79541800Y-105585300D02*
X82345200Y-102781900D01*
X64889000Y-105585300D02*
X79541800Y-105585300D01*
X64168800Y-106305500D02*
X64889000Y-105585300D01*
X63300300Y-106305500D02*
X64168800Y-106305500D01*
X86196300Y-111088500D02*
X85736300Y-111088500D01*
X88023200Y-112915400D02*
X86196300Y-111088500D01*
X89546300Y-112915400D02*
X88023200Y-112915400D01*
X90890900Y-114260000D02*
X89546300Y-112915400D01*
X96342400Y-114260000D02*
X90890900Y-114260000D01*
X97382500Y-115300100D02*
X96342400Y-114260000D01*
X99472600Y-115300100D02*
X97382500Y-115300100D01*
X99592200Y-115180500D02*
X99472600Y-115300100D01*
X99592200Y-113255000D02*
X99592200Y-115180500D01*
X99463800Y-113126600D02*
X99592200Y-113255000D01*
X92755600Y-113126600D02*
X99463800Y-113126600D01*
X89811800Y-110182800D02*
X92755600Y-113126600D01*
X89811800Y-109337200D02*
X89811800Y-110182800D01*
X90480000Y-108669000D02*
X89811800Y-109337200D01*
X109097900Y-108669000D02*
X90480000Y-108669000D01*
X111685900Y-111257000D02*
X109097900Y-108669000D01*
%TO.N,P24*%
X112776000Y-108717000D02*
X112776000Y-107626900D01*
X97904100Y-99991500D02*
X90809600Y-107086000D01*
X113282500Y-99991500D02*
X97904100Y-99991500D01*
X113893300Y-100602300D02*
X113282500Y-99991500D01*
X113893300Y-106622500D02*
X113893300Y-100602300D01*
X112888900Y-107626900D02*
X113893300Y-106622500D01*
X112776000Y-107626900D02*
X112888900Y-107626900D01*
X65494900Y-106470300D02*
X64372000Y-107593200D01*
X79590600Y-106470300D02*
X65494900Y-106470300D01*
X87023800Y-99037100D02*
X79590600Y-106470300D01*
X87023800Y-98584000D02*
X87023800Y-99037100D01*
%TO.N,P23*%
X74843100Y-127032000D02*
X78306100Y-123569000D01*
X74182700Y-127032000D02*
X74843100Y-127032000D01*
X80480200Y-125435800D02*
X80435300Y-125480700D01*
X87497400Y-125435800D02*
X80480200Y-125435800D01*
X88194200Y-124739000D02*
X87497400Y-125435800D01*
X89467200Y-124739000D02*
X88194200Y-124739000D01*
X89845500Y-124360700D02*
X89467200Y-124739000D01*
X92755100Y-124360700D02*
X89845500Y-124360700D01*
X94369300Y-125974900D02*
X92755100Y-124360700D01*
X95897400Y-125974900D02*
X94369300Y-125974900D01*
X96227500Y-126305000D02*
X95897400Y-125974900D01*
X97031100Y-126305000D02*
X96227500Y-126305000D01*
X97567400Y-126841300D02*
X97031100Y-126305000D01*
%TO.N,P22*%
X63435300Y-105224500D02*
X64344500Y-105224500D01*
X61030000Y-107629800D02*
X63435300Y-105224500D01*
X61030000Y-117949000D02*
X61030000Y-107629800D01*
X63038200Y-119957200D02*
X61030000Y-117949000D01*
X68838600Y-119957200D02*
X63038200Y-119957200D01*
X71293700Y-117502100D02*
X68838600Y-119957200D01*
X71293700Y-117223800D02*
X71293700Y-117502100D01*
X74020300Y-114497200D02*
X71293700Y-117223800D01*
X77434300Y-114497200D02*
X74020300Y-114497200D01*
X84597000Y-107334500D02*
X77434300Y-114497200D01*
X88913900Y-107334500D02*
X84597000Y-107334500D01*
X89374300Y-107794900D02*
X88913900Y-107334500D01*
X111091800Y-107794900D02*
X89374300Y-107794900D01*
X111250500Y-107636200D02*
X111091800Y-107794900D01*
%TO.N,P21*%
X67765800Y-106800400D02*
X64370900Y-110195300D01*
X79727400Y-106800400D02*
X67765800Y-106800400D01*
X88432900Y-98094900D02*
X79727400Y-106800400D01*
X89174500Y-98094900D02*
X88432900Y-98094900D01*
X104837000Y-82432400D02*
X89174500Y-98094900D01*
X104837000Y-81977200D02*
X104837000Y-82432400D01*
%TO.N,P19*%
X93552400Y-92797400D02*
X99297800Y-87052000D01*
X74700500Y-92797400D02*
X93552400Y-92797400D01*
X71780200Y-89877100D02*
X74700500Y-92797400D01*
%TO.N,P17*%
X112776000Y-96017000D02*
X111685900Y-96017000D01*
X75452300Y-107483400D02*
X75762400Y-107793500D01*
X68305500Y-107483400D02*
X75452300Y-107483400D01*
X65962700Y-109826200D02*
X68305500Y-107483400D01*
X65962700Y-110756700D02*
X65962700Y-109826200D01*
X67367600Y-112161600D02*
X65962700Y-110756700D01*
X77607600Y-113857000D02*
X75716800Y-113857000D01*
X84521300Y-106943300D02*
X77607600Y-113857000D01*
X90032800Y-106943300D02*
X84521300Y-106943300D01*
X100959100Y-96017000D02*
X90032800Y-106943300D01*
X111685900Y-96017000D02*
X100959100Y-96017000D01*
%TO.N,P16*%
X69497400Y-111596100D02*
X68454000Y-111596100D01*
X71457200Y-113555900D02*
X69497400Y-111596100D01*
X71457200Y-114028900D02*
X71457200Y-113555900D01*
X70242700Y-115243400D02*
X71457200Y-114028900D01*
X70032300Y-115243400D02*
X70242700Y-115243400D01*
X68560400Y-116715300D02*
X70032300Y-115243400D01*
X68560400Y-118414500D02*
X68560400Y-116715300D01*
X68988900Y-118843000D02*
X68560400Y-118414500D01*
X69470800Y-118843000D02*
X68988900Y-118843000D01*
X70963600Y-117350200D02*
X69470800Y-118843000D01*
X70963600Y-117087000D02*
X70963600Y-117350200D01*
X75059800Y-112990800D02*
X70963600Y-117087000D01*
X78006900Y-112990800D02*
X75059800Y-112990800D01*
X84632100Y-106365600D02*
X78006900Y-112990800D01*
X90143600Y-106365600D02*
X84632100Y-106365600D01*
X102624000Y-93885200D02*
X90143600Y-106365600D01*
X104258400Y-93885200D02*
X102624000Y-93885200D01*
X104666500Y-93477100D02*
X104258400Y-93885200D01*
X104666500Y-93477000D02*
X104666500Y-93477100D01*
X112776000Y-93477000D02*
X104666500Y-93477000D01*
%TO.N,P15*%
X69098500Y-110020400D02*
X69098500Y-108776500D01*
X69598900Y-110520800D02*
X69098500Y-110020400D01*
X70694000Y-110520800D02*
X69598900Y-110520800D01*
X72121000Y-109093800D02*
X70694000Y-110520800D01*
X79301600Y-109093800D02*
X72121000Y-109093800D01*
X88980100Y-99415300D02*
X79301600Y-109093800D01*
X93433200Y-99415300D02*
X88980100Y-99415300D01*
X106095700Y-86752800D02*
X93433200Y-99415300D01*
%TO.N,P14*%
X108841300Y-88397000D02*
X112776000Y-88397000D01*
X103993200Y-93245100D02*
X108841300Y-88397000D01*
X102279600Y-127135900D02*
X106479600Y-122935900D01*
X99460500Y-127135900D02*
X102279600Y-127135900D01*
X98299500Y-125974900D02*
X99460500Y-127135900D01*
X96364300Y-125974900D02*
X98299500Y-125974900D01*
X96034200Y-125644800D02*
X96364300Y-125974900D01*
X94506100Y-125644800D02*
X96034200Y-125644800D01*
X92891900Y-124030600D02*
X94506100Y-125644800D01*
X89708700Y-124030600D02*
X92891900Y-124030600D01*
X89330400Y-124408900D02*
X89708700Y-124030600D01*
X88057400Y-124408900D02*
X89330400Y-124408900D01*
X87638600Y-124827700D02*
X88057400Y-124408900D01*
X81142800Y-124827700D02*
X87638600Y-124827700D01*
X81110700Y-124795600D02*
X81142800Y-124827700D01*
X77994600Y-122853800D02*
X79029100Y-122853800D01*
X76562000Y-124286400D02*
X77994600Y-122853800D01*
X76557600Y-124286400D02*
X76562000Y-124286400D01*
%TO.N,P13*%
X109332200Y-85857000D02*
X93255900Y-101933300D01*
X112776000Y-85857000D02*
X109332200Y-85857000D01*
X63730800Y-110731200D02*
X66924200Y-113924600D01*
X63730800Y-107270000D02*
X63730800Y-110731200D01*
X64860600Y-106140200D02*
X63730800Y-107270000D01*
X79453800Y-106140200D02*
X64860600Y-106140200D01*
X82985300Y-102608700D02*
X79453800Y-106140200D01*
X82985300Y-101663900D02*
X82985300Y-102608700D01*
X87997500Y-96651700D02*
X82985300Y-101663900D01*
X89234700Y-96651700D02*
X87997500Y-96651700D01*
%TO.N,P12*%
X71531100Y-108763700D02*
X71221100Y-108453700D01*
X79164800Y-108763700D02*
X71531100Y-108763700D01*
X88843300Y-99085200D02*
X79164800Y-108763700D01*
X89584900Y-99085200D02*
X88843300Y-99085200D01*
X104838200Y-83831900D02*
X89584900Y-99085200D01*
X109052500Y-83831900D02*
X104838200Y-83831900D01*
%TO.N,P11*%
X69231100Y-116546100D02*
X69231100Y-118150800D01*
X70034000Y-115743200D02*
X69231100Y-116546100D01*
X70275000Y-115743200D02*
X70034000Y-115743200D01*
X73915100Y-112103100D02*
X70275000Y-115743200D01*
X73915100Y-111552000D02*
X73915100Y-112103100D01*
X75713100Y-109754000D02*
X73915100Y-111552000D01*
X79376100Y-109754000D02*
X75713100Y-109754000D01*
X84999900Y-104130200D02*
X79376100Y-109754000D01*
X89659500Y-104130200D02*
X84999900Y-104130200D01*
X110863300Y-82926400D02*
X89659500Y-104130200D01*
X110863300Y-82478600D02*
X110863300Y-82926400D01*
%TO.N,P10*%
X69845000Y-109840700D02*
X69844900Y-109840700D01*
X69845000Y-108907200D02*
X69845000Y-109840700D01*
X70938700Y-107813500D02*
X69845000Y-108907200D01*
X74877200Y-107813500D02*
X70938700Y-107813500D01*
X75497300Y-108433600D02*
X74877200Y-107813500D01*
X79028000Y-108433600D02*
X75497300Y-108433600D01*
X88706500Y-98755100D02*
X79028000Y-108433600D01*
X89448100Y-98755100D02*
X88706500Y-98755100D01*
X106357300Y-81845900D02*
X89448100Y-98755100D01*
X109262000Y-81845900D02*
X106357300Y-81845900D01*
%TO.N,P9*%
X112776000Y-75697000D02*
X112776000Y-76787100D01*
X70819800Y-116653600D02*
X70029200Y-116653600D01*
X75142800Y-112330600D02*
X70819800Y-116653600D01*
X78200200Y-112330600D02*
X75142800Y-112330600D01*
X84495300Y-106035500D02*
X78200200Y-112330600D01*
X88221100Y-106035500D02*
X84495300Y-106035500D01*
X111506300Y-82750300D02*
X88221100Y-106035500D01*
X111506300Y-80472600D02*
X111506300Y-82750300D01*
X112446000Y-79532900D02*
X111506300Y-80472600D01*
X113073500Y-79532900D02*
X112446000Y-79532900D01*
X113883300Y-78723100D02*
X113073500Y-79532900D01*
X113883300Y-77758100D02*
X113883300Y-78723100D01*
X112912300Y-76787100D02*
X113883300Y-77758100D01*
X112776000Y-76787100D02*
X112912300Y-76787100D01*
%TO.N,P7*%
X112776000Y-73157000D02*
X112776000Y-72066900D01*
X112888900Y-72066900D02*
X112776000Y-72066900D01*
X113876400Y-71079400D02*
X112888900Y-72066900D01*
X113876400Y-70131100D02*
X113876400Y-71079400D01*
X113257400Y-69512100D02*
X113876400Y-70131100D01*
X86637000Y-69512100D02*
X113257400Y-69512100D01*
X71232500Y-84916600D02*
X86637000Y-69512100D01*
X71232500Y-85394600D02*
X71232500Y-84916600D01*
X71809300Y-85971400D02*
X71232500Y-85394600D01*
X72426900Y-85971400D02*
X71809300Y-85971400D01*
%TO.N,P6*%
X112776000Y-70617000D02*
X112776000Y-71707100D01*
X68071100Y-113785900D02*
X70775600Y-113785900D01*
X65613700Y-111328500D02*
X68071100Y-113785900D01*
X65613700Y-109691000D02*
X65613700Y-111328500D01*
X68174200Y-107130500D02*
X65613700Y-109691000D01*
X79864200Y-107130500D02*
X68174200Y-107130500D01*
X88569700Y-98425000D02*
X79864200Y-107130500D01*
X89311300Y-98425000D02*
X88569700Y-98425000D01*
X105477100Y-82259200D02*
X89311300Y-98425000D01*
X105477100Y-78869500D02*
X105477100Y-82259200D01*
X112639500Y-71707100D02*
X105477100Y-78869500D01*
X112776000Y-71707100D02*
X112639500Y-71707100D01*
%TO.N,P5*%
X77483900Y-118332200D02*
X77377800Y-118438300D01*
X79295700Y-118332200D02*
X77483900Y-118332200D01*
X79711900Y-117916000D02*
X79295700Y-118332200D01*
X96429000Y-117916000D02*
X79711900Y-117916000D01*
X97567200Y-119054200D02*
X96429000Y-117916000D01*
X102254100Y-119054200D02*
X97567200Y-119054200D01*
X106061500Y-115246800D02*
X102254100Y-119054200D01*
X113301700Y-115246800D02*
X106061500Y-115246800D01*
X113866200Y-115811300D02*
X113301700Y-115246800D01*
X113866200Y-117330400D02*
X113866200Y-115811300D01*
X113671200Y-117525400D02*
X113866200Y-117330400D01*
%TO.N,P4*%
X75724000Y-118720100D02*
X74904700Y-118720100D01*
X75724000Y-118720000D02*
X75724000Y-118720100D01*
X76975900Y-117468100D02*
X75724000Y-118720000D01*
X79226000Y-117468100D02*
X76975900Y-117468100D01*
X80026000Y-116668100D02*
X79226000Y-117468100D01*
X99056100Y-116668100D02*
X80026000Y-116668100D01*
X105550100Y-110174100D02*
X99056100Y-116668100D01*
%TO.N,P3*%
X92685100Y-62997000D02*
X112776000Y-62997000D01*
X71318100Y-84364000D02*
X92685100Y-62997000D01*
X70326800Y-84364000D02*
X71318100Y-84364000D01*
%TO.N,P2*%
X94298100Y-60457000D02*
X71031200Y-83723900D01*
X112776000Y-60457000D02*
X94298100Y-60457000D01*
%TO.N,P70*%
X112776000Y-179832000D02*
X112776000Y-178741900D01*
X112879600Y-178741900D02*
X112776000Y-178741900D01*
X112879600Y-178741800D02*
X112879600Y-178741900D01*
X114567200Y-177054200D02*
X112879600Y-178741800D01*
X114567200Y-157200200D02*
X114567200Y-177054200D01*
X113074000Y-155707000D02*
X114567200Y-157200200D01*
X112229400Y-155707000D02*
X113074000Y-155707000D01*
X95180700Y-138658300D02*
X112229400Y-155707000D01*
X92151900Y-138658300D02*
X95180700Y-138658300D01*
%TO.N,P69*%
X112776000Y-177292000D02*
X112776000Y-176201900D01*
X90802900Y-138681600D02*
X90802900Y-138243100D01*
X92513000Y-140391700D02*
X90802900Y-138681600D01*
X92513000Y-140468200D02*
X92513000Y-140391700D01*
X110453700Y-158408900D02*
X92513000Y-140468200D01*
X113236000Y-158408900D02*
X110453700Y-158408900D01*
X114221300Y-159394200D02*
X113236000Y-158408900D01*
X114221300Y-167272900D02*
X114221300Y-159394200D01*
X113257200Y-168237000D02*
X114221300Y-167272900D01*
X112621100Y-168237000D02*
X113257200Y-168237000D01*
X111651600Y-169206500D02*
X112621100Y-168237000D01*
X111651600Y-175213800D02*
X111651600Y-169206500D01*
X112639700Y-176201900D02*
X111651600Y-175213800D01*
X112776000Y-176201900D02*
X112639700Y-176201900D01*
%TO.N,P61*%
X86729200Y-135762800D02*
X86562000Y-135595600D01*
X94043600Y-135762800D02*
X86729200Y-135762800D01*
X111572200Y-153291400D02*
X94043600Y-135762800D01*
X113197000Y-153291400D02*
X111572200Y-153291400D01*
X114906700Y-155001100D02*
X113197000Y-153291400D01*
X114906700Y-177619900D02*
X114906700Y-155001100D01*
X114108600Y-178418000D02*
X114906700Y-177619900D01*
%TO.N,P60*%
X112776000Y-167132000D02*
X112776000Y-166041900D01*
X87258300Y-137613700D02*
X86672100Y-138199900D01*
X89395800Y-137613700D02*
X87258300Y-137613700D01*
X90162700Y-138380600D02*
X89395800Y-137613700D01*
X90162700Y-138508300D02*
X90162700Y-138380600D01*
X92182900Y-140528500D02*
X90162700Y-138508300D01*
X92182900Y-140616600D02*
X92182900Y-140528500D01*
X112467600Y-160901300D02*
X92182900Y-140616600D01*
X113686500Y-160901300D02*
X112467600Y-160901300D01*
X113866200Y-161081000D02*
X113686500Y-160901300D01*
X113866200Y-165088000D02*
X113866200Y-161081000D01*
X112912300Y-166041900D02*
X113866200Y-165088000D01*
X112776000Y-166041900D02*
X112912300Y-166041900D01*
%TO.N,P58*%
X103111200Y-153477300D02*
X85062000Y-153477300D01*
X111685900Y-162052000D02*
X103111200Y-153477300D01*
X112776000Y-162052000D02*
X111685900Y-162052000D01*
%TO.N,CPLD_1.8V*%
X62937500Y-118912000D02*
X61685100Y-117659600D01*
X67564000Y-118912000D02*
X62937500Y-118912000D01*
X70064000Y-141732000D02*
X71104100Y-141732000D01*
X75208100Y-145836000D02*
X71104100Y-141732000D01*
X79248000Y-145836000D02*
X75208100Y-145836000D01*
X74833700Y-117885900D02*
X75414200Y-117885900D01*
X74264600Y-118455000D02*
X74833700Y-117885900D01*
X74264600Y-119264500D02*
X74264600Y-118455000D01*
X70750800Y-122778300D02*
X74264600Y-119264500D01*
X69727100Y-137754200D02*
X70020900Y-137460400D01*
X66968600Y-137754200D02*
X69727100Y-137754200D01*
X66027500Y-136813100D02*
X66968600Y-137754200D01*
X66027500Y-136095400D02*
X66027500Y-136813100D01*
X86510000Y-139987500D02*
X82944900Y-139987500D01*
X88223600Y-138273900D02*
X86510000Y-139987500D01*
X89122200Y-138273900D02*
X88223600Y-138273900D01*
X89502500Y-138654200D02*
X89122200Y-138273900D01*
X89502500Y-138781900D02*
X89502500Y-138654200D01*
X90259000Y-139538400D02*
X89502500Y-138781900D01*
X90259000Y-140876900D02*
X90259000Y-139538400D01*
X87806900Y-143329000D02*
X90259000Y-140876900D01*
X87806900Y-144257400D02*
X87806900Y-143329000D01*
X93917500Y-150368000D02*
X87806900Y-144257400D01*
X100116000Y-150368000D02*
X93917500Y-150368000D01*
X99481700Y-128905700D02*
X100076000Y-129500000D01*
X93935900Y-128905700D02*
X99481700Y-128905700D01*
X93360200Y-128330000D02*
X93935900Y-128905700D01*
X89067500Y-128330000D02*
X93360200Y-128330000D01*
X88990800Y-128406700D02*
X89067500Y-128330000D01*
X82350200Y-128406700D02*
X88990800Y-128406700D01*
X77923200Y-132833700D02*
X82350200Y-128406700D01*
X77923200Y-134712600D02*
X77923200Y-132833700D01*
X75482300Y-137153500D02*
X77923200Y-134712600D01*
X72473200Y-137153500D02*
X75482300Y-137153500D01*
X72166300Y-137460400D02*
X72473200Y-137153500D01*
X70020900Y-137460400D02*
X72166300Y-137460400D01*
%TO.N,GND*%
X90544000Y-143764000D02*
X92068000Y-142240000D01*
X88860000Y-143764000D02*
X90544000Y-143764000D01*
X96520000Y-109728000D02*
X90892000Y-109728000D01*
X98552000Y-111760000D02*
X96520000Y-109728000D01*
X93980000Y-158750000D02*
X92889900Y-158750000D01*
X91546300Y-160229900D02*
X79829200Y-160229900D01*
X92889900Y-158886300D02*
X91546300Y-160229900D01*
X92889900Y-158750000D02*
X92889900Y-158886300D01*
X79829200Y-151417200D02*
X79829200Y-160229900D01*
X79248000Y-150836000D02*
X79829200Y-151417200D01*
X79023100Y-161036000D02*
X68829000Y-161036000D01*
X79829200Y-160229900D02*
X79023100Y-161036000D01*
X86627900Y-139174000D02*
X86418200Y-139174000D01*
X87858100Y-137943800D02*
X86627900Y-139174000D01*
X89259000Y-137943800D02*
X87858100Y-137943800D01*
X89832600Y-138517400D02*
X89259000Y-137943800D01*
X89832600Y-138645100D02*
X89832600Y-138517400D01*
X91852800Y-140665300D02*
X89832600Y-138645100D01*
X91852800Y-142024800D02*
X91852800Y-140665300D01*
X92068000Y-142240000D02*
X91852800Y-142024800D01*
X67714300Y-110934300D02*
X71668000Y-110934300D01*
X67056000Y-110276000D02*
X67714300Y-110934300D01*
X71668000Y-110934300D02*
X71668000Y-111252000D01*
X98692500Y-111760000D02*
X98552000Y-111760000D01*
X99922300Y-112989800D02*
X98692500Y-111760000D01*
X99922300Y-115317300D02*
X99922300Y-112989800D01*
X99609300Y-115630300D02*
X99922300Y-115317300D01*
X95773200Y-115630300D02*
X99609300Y-115630300D01*
X95337000Y-115194100D02*
X95773200Y-115630300D01*
X100076000Y-124882500D02*
X101347600Y-126154100D01*
X100076000Y-124500000D02*
X100076000Y-124882500D01*
X78395600Y-139356800D02*
X79562000Y-138190400D01*
X69939200Y-139356800D02*
X78395600Y-139356800D01*
X67564000Y-141732000D02*
X69939200Y-139356800D01*
X85660000Y-113437900D02*
X84833300Y-114264600D01*
X89601900Y-113437900D02*
X85660000Y-113437900D01*
X91221700Y-115057700D02*
X89601900Y-113437900D01*
X95200600Y-115057700D02*
X91221700Y-115057700D01*
X95337000Y-115194100D02*
X95200600Y-115057700D01*
X76216000Y-110156400D02*
X74562000Y-111810400D01*
X79440600Y-110156400D02*
X76216000Y-110156400D01*
X84841800Y-104755200D02*
X79440600Y-110156400D01*
X87083100Y-104755200D02*
X84841800Y-104755200D01*
X87430800Y-105102900D02*
X87083100Y-104755200D01*
X63407700Y-123990100D02*
X62575100Y-124822700D01*
X67485900Y-123990100D02*
X63407700Y-123990100D01*
X67564000Y-123912000D02*
X67485900Y-123990100D01*
X73602100Y-110934300D02*
X74562000Y-109974400D01*
X71668000Y-110934300D02*
X73602100Y-110934300D01*
%TO.N,+3.3V*%
X66289000Y-161036000D02*
X67379100Y-161036000D01*
X98552000Y-114260000D02*
X97511900Y-114260000D01*
X74354800Y-168148000D02*
X77216000Y-168148000D01*
X67379100Y-161172300D02*
X74354800Y-168148000D01*
X67379100Y-161036000D02*
X67379100Y-161172300D01*
X95429900Y-158886300D02*
X95429900Y-158750000D01*
X86168200Y-168148000D02*
X95429900Y-158886300D01*
X77216000Y-168148000D02*
X86168200Y-168148000D01*
X96520000Y-158750000D02*
X95429900Y-158750000D01*
X88632500Y-112468500D02*
X85892000Y-109728000D01*
X89566300Y-112468500D02*
X88632500Y-112468500D01*
X91027700Y-113929900D02*
X89566300Y-112468500D01*
X97181800Y-113929900D02*
X91027700Y-113929900D01*
X97511900Y-114260000D02*
X97181800Y-113929900D01*
X71707500Y-135715700D02*
X69946200Y-133954400D01*
X71707500Y-136117400D02*
X71707500Y-135715700D01*
X71707600Y-136117400D02*
X71707500Y-136117400D01*
X71872400Y-136282200D02*
X71707600Y-136117400D01*
X85250700Y-137283600D02*
X83751000Y-138783300D01*
X90748700Y-137283600D02*
X85250700Y-137283600D01*
X91466800Y-138001700D02*
X90748700Y-137283600D01*
X91466800Y-138878600D02*
X91466800Y-138001700D01*
X94828200Y-142240000D02*
X91466800Y-138878600D01*
X97068000Y-142240000D02*
X94828200Y-142240000D01*
X92505300Y-134625300D02*
X92672600Y-134792600D01*
X83189400Y-134625300D02*
X92505300Y-134625300D01*
X82621600Y-135193100D02*
X83189400Y-134625300D01*
X82621600Y-135676400D02*
X82621600Y-135193100D01*
X82304700Y-135993300D02*
X82621600Y-135676400D01*
X82304700Y-140372500D02*
X82304700Y-135993300D01*
X83860000Y-141927800D02*
X82304700Y-140372500D01*
X83860000Y-143764000D02*
X83860000Y-141927800D01*
X78811900Y-111252000D02*
X76668000Y-111252000D01*
X84668600Y-105395300D02*
X78811900Y-111252000D01*
X85367600Y-105395300D02*
X84668600Y-105395300D01*
X96107000Y-123370400D02*
X97301600Y-124565000D01*
X89435000Y-123370400D02*
X96107000Y-123370400D01*
X89435000Y-123370500D02*
X89435000Y-123370400D01*
X89056800Y-123748700D02*
X89435000Y-123370500D01*
X88526500Y-123748700D02*
X89056800Y-123748700D01*
X88265400Y-123487600D02*
X88526500Y-123748700D01*
X83230900Y-123487600D02*
X88265400Y-123487600D01*
X82920800Y-123797700D02*
X83230900Y-123487600D01*
%TD*%
M02*
