%TF.GenerationSoftware,KiCad,Pcbnew,6.0.11-2627ca5db0~126~ubuntu22.04.1*%
%TF.CreationDate,2023-04-21T14:54:41-05:00*%
%TF.ProjectId,xc2c128_breakout,78633263-3132-4385-9f62-7265616b6f75,rev?*%
%TF.SameCoordinates,Original*%
%TF.FileFunction,Legend,Top*%
%TF.FilePolarity,Positive*%
%FSLAX46Y46*%
G04 Gerber Fmt 4.6, Leading zero omitted, Abs format (unit mm)*
G04 Created by KiCad (PCBNEW 6.0.11-2627ca5db0~126~ubuntu22.04.1) date 2023-04-21 14:54:41*
%MOMM*%
%LPD*%
G01*
G04 APERTURE LIST*
%ADD10C,0.150000*%
%ADD11C,0.120000*%
G04 APERTURE END LIST*
D10*
X68873714Y-165282476D02*
X69683238Y-165282476D01*
X69778476Y-165330095D01*
X69826095Y-165377714D01*
X69873714Y-165472952D01*
X69873714Y-165615809D01*
X69826095Y-165711047D01*
X69492761Y-165282476D02*
X69540380Y-165377714D01*
X69540380Y-165568190D01*
X69492761Y-165663428D01*
X69445142Y-165711047D01*
X69349904Y-165758666D01*
X69064190Y-165758666D01*
X68968952Y-165711047D01*
X68921333Y-165663428D01*
X68873714Y-165568190D01*
X68873714Y-165377714D01*
X68921333Y-165282476D01*
X68873714Y-164806285D02*
X69540380Y-164806285D01*
X68968952Y-164806285D02*
X68921333Y-164758666D01*
X68873714Y-164663428D01*
X68873714Y-164520571D01*
X68921333Y-164425333D01*
X69016571Y-164377714D01*
X69540380Y-164377714D01*
X69540380Y-163472952D02*
X68540380Y-163472952D01*
X69492761Y-163472952D02*
X69540380Y-163568190D01*
X69540380Y-163758666D01*
X69492761Y-163853904D01*
X69445142Y-163901523D01*
X69349904Y-163949142D01*
X69064190Y-163949142D01*
X68968952Y-163901523D01*
X68921333Y-163853904D01*
X68873714Y-163758666D01*
X68873714Y-163568190D01*
X68921333Y-163472952D01*
X65492380Y-166020571D02*
X65492380Y-165401523D01*
X65873333Y-165734857D01*
X65873333Y-165592000D01*
X65920952Y-165496761D01*
X65968571Y-165449142D01*
X66063809Y-165401523D01*
X66301904Y-165401523D01*
X66397142Y-165449142D01*
X66444761Y-165496761D01*
X66492380Y-165592000D01*
X66492380Y-165877714D01*
X66444761Y-165972952D01*
X66397142Y-166020571D01*
X66397142Y-164972952D02*
X66444761Y-164925333D01*
X66492380Y-164972952D01*
X66444761Y-165020571D01*
X66397142Y-164972952D01*
X66492380Y-164972952D01*
X65492380Y-164592000D02*
X65492380Y-163972952D01*
X65873333Y-164306285D01*
X65873333Y-164163428D01*
X65920952Y-164068190D01*
X65968571Y-164020571D01*
X66063809Y-163972952D01*
X66301904Y-163972952D01*
X66397142Y-164020571D01*
X66444761Y-164068190D01*
X66492380Y-164163428D01*
X66492380Y-164449142D01*
X66444761Y-164544380D01*
X66397142Y-164592000D01*
X65825714Y-163639619D02*
X66492380Y-163401523D01*
X65825714Y-163163428D01*
X109442285Y-59999619D02*
X109489904Y-59952000D01*
X109585142Y-59904380D01*
X109823238Y-59904380D01*
X109918476Y-59952000D01*
X109966095Y-59999619D01*
X110013714Y-60094857D01*
X110013714Y-60190095D01*
X109966095Y-60332952D01*
X109394666Y-60904380D01*
X110013714Y-60904380D01*
X109394666Y-62444380D02*
X110013714Y-62444380D01*
X109680380Y-62825333D01*
X109823238Y-62825333D01*
X109918476Y-62872952D01*
X109966095Y-62920571D01*
X110013714Y-63015809D01*
X110013714Y-63253904D01*
X109966095Y-63349142D01*
X109918476Y-63396761D01*
X109823238Y-63444380D01*
X109537523Y-63444380D01*
X109442285Y-63396761D01*
X109394666Y-63349142D01*
X109918476Y-65825714D02*
X109918476Y-66492380D01*
X109680380Y-65444761D02*
X109442285Y-66159047D01*
X110061333Y-66159047D01*
X109966095Y-67524380D02*
X109489904Y-67524380D01*
X109442285Y-68000571D01*
X109489904Y-67952952D01*
X109585142Y-67905333D01*
X109823238Y-67905333D01*
X109918476Y-67952952D01*
X109966095Y-68000571D01*
X110013714Y-68095809D01*
X110013714Y-68333904D01*
X109966095Y-68429142D01*
X109918476Y-68476761D01*
X109823238Y-68524380D01*
X109585142Y-68524380D01*
X109489904Y-68476761D01*
X109442285Y-68429142D01*
X109918476Y-70064380D02*
X109728000Y-70064380D01*
X109632761Y-70112000D01*
X109585142Y-70159619D01*
X109489904Y-70302476D01*
X109442285Y-70492952D01*
X109442285Y-70873904D01*
X109489904Y-70969142D01*
X109537523Y-71016761D01*
X109632761Y-71064380D01*
X109823238Y-71064380D01*
X109918476Y-71016761D01*
X109966095Y-70969142D01*
X110013714Y-70873904D01*
X110013714Y-70635809D01*
X109966095Y-70540571D01*
X109918476Y-70492952D01*
X109823238Y-70445333D01*
X109632761Y-70445333D01*
X109537523Y-70492952D01*
X109489904Y-70540571D01*
X109442285Y-70635809D01*
X109394666Y-73112380D02*
X110061333Y-73112380D01*
X109632761Y-74112380D01*
X109537523Y-76144380D02*
X109728000Y-76144380D01*
X109823238Y-76096761D01*
X109870857Y-76049142D01*
X109966095Y-75906285D01*
X110013714Y-75715809D01*
X110013714Y-75334857D01*
X109966095Y-75239619D01*
X109918476Y-75192000D01*
X109823238Y-75144380D01*
X109632761Y-75144380D01*
X109537523Y-75192000D01*
X109489904Y-75239619D01*
X109442285Y-75334857D01*
X109442285Y-75572952D01*
X109489904Y-75668190D01*
X109537523Y-75715809D01*
X109632761Y-75763428D01*
X109823238Y-75763428D01*
X109918476Y-75715809D01*
X109966095Y-75668190D01*
X110013714Y-75572952D01*
X109537523Y-79192380D02*
X108966095Y-79192380D01*
X109251809Y-79192380D02*
X109251809Y-78192380D01*
X109156571Y-78335238D01*
X109061333Y-78430476D01*
X108966095Y-78478095D01*
X110156571Y-78192380D02*
X110251809Y-78192380D01*
X110347047Y-78240000D01*
X110394666Y-78287619D01*
X110442285Y-78382857D01*
X110489904Y-78573333D01*
X110489904Y-78811428D01*
X110442285Y-79001904D01*
X110394666Y-79097142D01*
X110347047Y-79144761D01*
X110251809Y-79192380D01*
X110156571Y-79192380D01*
X110061333Y-79144761D01*
X110013714Y-79097142D01*
X109966095Y-79001904D01*
X109918476Y-78811428D01*
X109918476Y-78573333D01*
X109966095Y-78382857D01*
X110013714Y-78287619D01*
X110061333Y-78240000D01*
X110156571Y-78192380D01*
X109537523Y-81224380D02*
X108966095Y-81224380D01*
X109251809Y-81224380D02*
X109251809Y-80224380D01*
X109156571Y-80367238D01*
X109061333Y-80462476D01*
X108966095Y-80510095D01*
X110489904Y-81224380D02*
X109918476Y-81224380D01*
X110204190Y-81224380D02*
X110204190Y-80224380D01*
X110108952Y-80367238D01*
X110013714Y-80462476D01*
X109918476Y-80510095D01*
X109537523Y-83764380D02*
X108966095Y-83764380D01*
X109251809Y-83764380D02*
X109251809Y-82764380D01*
X109156571Y-82907238D01*
X109061333Y-83002476D01*
X108966095Y-83050095D01*
X109918476Y-82859619D02*
X109966095Y-82812000D01*
X110061333Y-82764380D01*
X110299428Y-82764380D01*
X110394666Y-82812000D01*
X110442285Y-82859619D01*
X110489904Y-82954857D01*
X110489904Y-83050095D01*
X110442285Y-83192952D01*
X109870857Y-83764380D01*
X110489904Y-83764380D01*
X109537523Y-86304380D02*
X108966095Y-86304380D01*
X109251809Y-86304380D02*
X109251809Y-85304380D01*
X109156571Y-85447238D01*
X109061333Y-85542476D01*
X108966095Y-85590095D01*
X109870857Y-85304380D02*
X110489904Y-85304380D01*
X110156571Y-85685333D01*
X110299428Y-85685333D01*
X110394666Y-85732952D01*
X110442285Y-85780571D01*
X110489904Y-85875809D01*
X110489904Y-86113904D01*
X110442285Y-86209142D01*
X110394666Y-86256761D01*
X110299428Y-86304380D01*
X110013714Y-86304380D01*
X109918476Y-86256761D01*
X109870857Y-86209142D01*
X109537523Y-88844380D02*
X108966095Y-88844380D01*
X109251809Y-88844380D02*
X109251809Y-87844380D01*
X109156571Y-87987238D01*
X109061333Y-88082476D01*
X108966095Y-88130095D01*
X110394666Y-88177714D02*
X110394666Y-88844380D01*
X110156571Y-87796761D02*
X109918476Y-88511047D01*
X110537523Y-88511047D01*
X109537523Y-91384380D02*
X108966095Y-91384380D01*
X109251809Y-91384380D02*
X109251809Y-90384380D01*
X109156571Y-90527238D01*
X109061333Y-90622476D01*
X108966095Y-90670095D01*
X110442285Y-90384380D02*
X109966095Y-90384380D01*
X109918476Y-90860571D01*
X109966095Y-90812952D01*
X110061333Y-90765333D01*
X110299428Y-90765333D01*
X110394666Y-90812952D01*
X110442285Y-90860571D01*
X110489904Y-90955809D01*
X110489904Y-91193904D01*
X110442285Y-91289142D01*
X110394666Y-91336761D01*
X110299428Y-91384380D01*
X110061333Y-91384380D01*
X109966095Y-91336761D01*
X109918476Y-91289142D01*
X109537523Y-93924380D02*
X108966095Y-93924380D01*
X109251809Y-93924380D02*
X109251809Y-92924380D01*
X109156571Y-93067238D01*
X109061333Y-93162476D01*
X108966095Y-93210095D01*
X110394666Y-92924380D02*
X110204190Y-92924380D01*
X110108952Y-92972000D01*
X110061333Y-93019619D01*
X109966095Y-93162476D01*
X109918476Y-93352952D01*
X109918476Y-93733904D01*
X109966095Y-93829142D01*
X110013714Y-93876761D01*
X110108952Y-93924380D01*
X110299428Y-93924380D01*
X110394666Y-93876761D01*
X110442285Y-93829142D01*
X110489904Y-93733904D01*
X110489904Y-93495809D01*
X110442285Y-93400571D01*
X110394666Y-93352952D01*
X110299428Y-93305333D01*
X110108952Y-93305333D01*
X110013714Y-93352952D01*
X109966095Y-93400571D01*
X109918476Y-93495809D01*
X109537523Y-96464380D02*
X108966095Y-96464380D01*
X109251809Y-96464380D02*
X109251809Y-95464380D01*
X109156571Y-95607238D01*
X109061333Y-95702476D01*
X108966095Y-95750095D01*
X109870857Y-95464380D02*
X110537523Y-95464380D01*
X110108952Y-96464380D01*
X109537523Y-99004380D02*
X108966095Y-99004380D01*
X109251809Y-99004380D02*
X109251809Y-98004380D01*
X109156571Y-98147238D01*
X109061333Y-98242476D01*
X108966095Y-98290095D01*
X110013714Y-99004380D02*
X110204190Y-99004380D01*
X110299428Y-98956761D01*
X110347047Y-98909142D01*
X110442285Y-98766285D01*
X110489904Y-98575809D01*
X110489904Y-98194857D01*
X110442285Y-98099619D01*
X110394666Y-98052000D01*
X110299428Y-98004380D01*
X110108952Y-98004380D01*
X110013714Y-98052000D01*
X109966095Y-98099619D01*
X109918476Y-98194857D01*
X109918476Y-98432952D01*
X109966095Y-98528190D01*
X110013714Y-98575809D01*
X110108952Y-98623428D01*
X110299428Y-98623428D01*
X110394666Y-98575809D01*
X110442285Y-98528190D01*
X110489904Y-98432952D01*
X108966095Y-100639619D02*
X109013714Y-100592000D01*
X109108952Y-100544380D01*
X109347047Y-100544380D01*
X109442285Y-100592000D01*
X109489904Y-100639619D01*
X109537523Y-100734857D01*
X109537523Y-100830095D01*
X109489904Y-100972952D01*
X108918476Y-101544380D01*
X109537523Y-101544380D01*
X110489904Y-101544380D02*
X109918476Y-101544380D01*
X110204190Y-101544380D02*
X110204190Y-100544380D01*
X110108952Y-100687238D01*
X110013714Y-100782476D01*
X109918476Y-100830095D01*
X108966095Y-103179619D02*
X109013714Y-103132000D01*
X109108952Y-103084380D01*
X109347047Y-103084380D01*
X109442285Y-103132000D01*
X109489904Y-103179619D01*
X109537523Y-103274857D01*
X109537523Y-103370095D01*
X109489904Y-103512952D01*
X108918476Y-104084380D01*
X109537523Y-104084380D01*
X109918476Y-103179619D02*
X109966095Y-103132000D01*
X110061333Y-103084380D01*
X110299428Y-103084380D01*
X110394666Y-103132000D01*
X110442285Y-103179619D01*
X110489904Y-103274857D01*
X110489904Y-103370095D01*
X110442285Y-103512952D01*
X109870857Y-104084380D01*
X110489904Y-104084380D01*
X108966095Y-105719619D02*
X109013714Y-105672000D01*
X109108952Y-105624380D01*
X109347047Y-105624380D01*
X109442285Y-105672000D01*
X109489904Y-105719619D01*
X109537523Y-105814857D01*
X109537523Y-105910095D01*
X109489904Y-106052952D01*
X108918476Y-106624380D01*
X109537523Y-106624380D01*
X109870857Y-105624380D02*
X110489904Y-105624380D01*
X110156571Y-106005333D01*
X110299428Y-106005333D01*
X110394666Y-106052952D01*
X110442285Y-106100571D01*
X110489904Y-106195809D01*
X110489904Y-106433904D01*
X110442285Y-106529142D01*
X110394666Y-106576761D01*
X110299428Y-106624380D01*
X110013714Y-106624380D01*
X109918476Y-106576761D01*
X109870857Y-106529142D01*
X108966095Y-108259619D02*
X109013714Y-108212000D01*
X109108952Y-108164380D01*
X109347047Y-108164380D01*
X109442285Y-108212000D01*
X109489904Y-108259619D01*
X109537523Y-108354857D01*
X109537523Y-108450095D01*
X109489904Y-108592952D01*
X108918476Y-109164380D01*
X109537523Y-109164380D01*
X110394666Y-108497714D02*
X110394666Y-109164380D01*
X110156571Y-108116761D02*
X109918476Y-108831047D01*
X110537523Y-108831047D01*
X108966095Y-110799619D02*
X109013714Y-110752000D01*
X109108952Y-110704380D01*
X109347047Y-110704380D01*
X109442285Y-110752000D01*
X109489904Y-110799619D01*
X109537523Y-110894857D01*
X109537523Y-110990095D01*
X109489904Y-111132952D01*
X108918476Y-111704380D01*
X109537523Y-111704380D01*
X110442285Y-110704380D02*
X109966095Y-110704380D01*
X109918476Y-111180571D01*
X109966095Y-111132952D01*
X110061333Y-111085333D01*
X110299428Y-111085333D01*
X110394666Y-111132952D01*
X110442285Y-111180571D01*
X110489904Y-111275809D01*
X110489904Y-111513904D01*
X110442285Y-111609142D01*
X110394666Y-111656761D01*
X110299428Y-111704380D01*
X110061333Y-111704380D01*
X109966095Y-111656761D01*
X109918476Y-111609142D01*
X108966095Y-113339619D02*
X109013714Y-113292000D01*
X109108952Y-113244380D01*
X109347047Y-113244380D01*
X109442285Y-113292000D01*
X109489904Y-113339619D01*
X109537523Y-113434857D01*
X109537523Y-113530095D01*
X109489904Y-113672952D01*
X108918476Y-114244380D01*
X109537523Y-114244380D01*
X110394666Y-113244380D02*
X110204190Y-113244380D01*
X110108952Y-113292000D01*
X110061333Y-113339619D01*
X109966095Y-113482476D01*
X109918476Y-113672952D01*
X109918476Y-114053904D01*
X109966095Y-114149142D01*
X110013714Y-114196761D01*
X110108952Y-114244380D01*
X110299428Y-114244380D01*
X110394666Y-114196761D01*
X110442285Y-114149142D01*
X110489904Y-114053904D01*
X110489904Y-113815809D01*
X110442285Y-113720571D01*
X110394666Y-113672952D01*
X110299428Y-113625333D01*
X110108952Y-113625333D01*
X110013714Y-113672952D01*
X109966095Y-113720571D01*
X109918476Y-113815809D01*
X108966095Y-115879619D02*
X109013714Y-115832000D01*
X109108952Y-115784380D01*
X109347047Y-115784380D01*
X109442285Y-115832000D01*
X109489904Y-115879619D01*
X109537523Y-115974857D01*
X109537523Y-116070095D01*
X109489904Y-116212952D01*
X108918476Y-116784380D01*
X109537523Y-116784380D01*
X110108952Y-116212952D02*
X110013714Y-116165333D01*
X109966095Y-116117714D01*
X109918476Y-116022476D01*
X109918476Y-115974857D01*
X109966095Y-115879619D01*
X110013714Y-115832000D01*
X110108952Y-115784380D01*
X110299428Y-115784380D01*
X110394666Y-115832000D01*
X110442285Y-115879619D01*
X110489904Y-115974857D01*
X110489904Y-116022476D01*
X110442285Y-116117714D01*
X110394666Y-116165333D01*
X110299428Y-116212952D01*
X110108952Y-116212952D01*
X110013714Y-116260571D01*
X109966095Y-116308190D01*
X109918476Y-116403428D01*
X109918476Y-116593904D01*
X109966095Y-116689142D01*
X110013714Y-116736761D01*
X110108952Y-116784380D01*
X110299428Y-116784380D01*
X110394666Y-116736761D01*
X110442285Y-116689142D01*
X110489904Y-116593904D01*
X110489904Y-116403428D01*
X110442285Y-116308190D01*
X110394666Y-116260571D01*
X110299428Y-116212952D01*
X108918476Y-118324380D02*
X109537523Y-118324380D01*
X109204190Y-118705333D01*
X109347047Y-118705333D01*
X109442285Y-118752952D01*
X109489904Y-118800571D01*
X109537523Y-118895809D01*
X109537523Y-119133904D01*
X109489904Y-119229142D01*
X109442285Y-119276761D01*
X109347047Y-119324380D01*
X109061333Y-119324380D01*
X108966095Y-119276761D01*
X108918476Y-119229142D01*
X110156571Y-118324380D02*
X110251809Y-118324380D01*
X110347047Y-118372000D01*
X110394666Y-118419619D01*
X110442285Y-118514857D01*
X110489904Y-118705333D01*
X110489904Y-118943428D01*
X110442285Y-119133904D01*
X110394666Y-119229142D01*
X110347047Y-119276761D01*
X110251809Y-119324380D01*
X110156571Y-119324380D01*
X110061333Y-119276761D01*
X110013714Y-119229142D01*
X109966095Y-119133904D01*
X109918476Y-118943428D01*
X109918476Y-118705333D01*
X109966095Y-118514857D01*
X110013714Y-118419619D01*
X110061333Y-118372000D01*
X110156571Y-118324380D01*
X108918476Y-121372380D02*
X109537523Y-121372380D01*
X109204190Y-121753333D01*
X109347047Y-121753333D01*
X109442285Y-121800952D01*
X109489904Y-121848571D01*
X109537523Y-121943809D01*
X109537523Y-122181904D01*
X109489904Y-122277142D01*
X109442285Y-122324761D01*
X109347047Y-122372380D01*
X109061333Y-122372380D01*
X108966095Y-122324761D01*
X108918476Y-122277142D01*
X109918476Y-121467619D02*
X109966095Y-121420000D01*
X110061333Y-121372380D01*
X110299428Y-121372380D01*
X110394666Y-121420000D01*
X110442285Y-121467619D01*
X110489904Y-121562857D01*
X110489904Y-121658095D01*
X110442285Y-121800952D01*
X109870857Y-122372380D01*
X110489904Y-122372380D01*
X108918476Y-123912380D02*
X109537523Y-123912380D01*
X109204190Y-124293333D01*
X109347047Y-124293333D01*
X109442285Y-124340952D01*
X109489904Y-124388571D01*
X109537523Y-124483809D01*
X109537523Y-124721904D01*
X109489904Y-124817142D01*
X109442285Y-124864761D01*
X109347047Y-124912380D01*
X109061333Y-124912380D01*
X108966095Y-124864761D01*
X108918476Y-124817142D01*
X110442285Y-123912380D02*
X109966095Y-123912380D01*
X109918476Y-124388571D01*
X109966095Y-124340952D01*
X110061333Y-124293333D01*
X110299428Y-124293333D01*
X110394666Y-124340952D01*
X110442285Y-124388571D01*
X110489904Y-124483809D01*
X110489904Y-124721904D01*
X110442285Y-124817142D01*
X110394666Y-124864761D01*
X110299428Y-124912380D01*
X110061333Y-124912380D01*
X109966095Y-124864761D01*
X109918476Y-124817142D01*
X108918476Y-126452380D02*
X109537523Y-126452380D01*
X109204190Y-126833333D01*
X109347047Y-126833333D01*
X109442285Y-126880952D01*
X109489904Y-126928571D01*
X109537523Y-127023809D01*
X109537523Y-127261904D01*
X109489904Y-127357142D01*
X109442285Y-127404761D01*
X109347047Y-127452380D01*
X109061333Y-127452380D01*
X108966095Y-127404761D01*
X108918476Y-127357142D01*
X110108952Y-126880952D02*
X110013714Y-126833333D01*
X109966095Y-126785714D01*
X109918476Y-126690476D01*
X109918476Y-126642857D01*
X109966095Y-126547619D01*
X110013714Y-126500000D01*
X110108952Y-126452380D01*
X110299428Y-126452380D01*
X110394666Y-126500000D01*
X110442285Y-126547619D01*
X110489904Y-126642857D01*
X110489904Y-126690476D01*
X110442285Y-126785714D01*
X110394666Y-126833333D01*
X110299428Y-126880952D01*
X110108952Y-126880952D01*
X110013714Y-126928571D01*
X109966095Y-126976190D01*
X109918476Y-127071428D01*
X109918476Y-127261904D01*
X109966095Y-127357142D01*
X110013714Y-127404761D01*
X110108952Y-127452380D01*
X110299428Y-127452380D01*
X110394666Y-127404761D01*
X110442285Y-127357142D01*
X110489904Y-127261904D01*
X110489904Y-127071428D01*
X110442285Y-126976190D01*
X110394666Y-126928571D01*
X110299428Y-126880952D01*
X108918476Y-128992380D02*
X109537523Y-128992380D01*
X109204190Y-129373333D01*
X109347047Y-129373333D01*
X109442285Y-129420952D01*
X109489904Y-129468571D01*
X109537523Y-129563809D01*
X109537523Y-129801904D01*
X109489904Y-129897142D01*
X109442285Y-129944761D01*
X109347047Y-129992380D01*
X109061333Y-129992380D01*
X108966095Y-129944761D01*
X108918476Y-129897142D01*
X110013714Y-129992380D02*
X110204190Y-129992380D01*
X110299428Y-129944761D01*
X110347047Y-129897142D01*
X110442285Y-129754285D01*
X110489904Y-129563809D01*
X110489904Y-129182857D01*
X110442285Y-129087619D01*
X110394666Y-129040000D01*
X110299428Y-128992380D01*
X110108952Y-128992380D01*
X110013714Y-129040000D01*
X109966095Y-129087619D01*
X109918476Y-129182857D01*
X109918476Y-129420952D01*
X109966095Y-129516190D01*
X110013714Y-129563809D01*
X110108952Y-129611428D01*
X110299428Y-129611428D01*
X110394666Y-129563809D01*
X110442285Y-129516190D01*
X110489904Y-129420952D01*
X109442285Y-131865714D02*
X109442285Y-132532380D01*
X109204190Y-131484761D02*
X108966095Y-132199047D01*
X109585142Y-132199047D01*
X110156571Y-131532380D02*
X110251809Y-131532380D01*
X110347047Y-131580000D01*
X110394666Y-131627619D01*
X110442285Y-131722857D01*
X110489904Y-131913333D01*
X110489904Y-132151428D01*
X110442285Y-132341904D01*
X110394666Y-132437142D01*
X110347047Y-132484761D01*
X110251809Y-132532380D01*
X110156571Y-132532380D01*
X110061333Y-132484761D01*
X110013714Y-132437142D01*
X109966095Y-132341904D01*
X109918476Y-132151428D01*
X109918476Y-131913333D01*
X109966095Y-131722857D01*
X110013714Y-131627619D01*
X110061333Y-131580000D01*
X110156571Y-131532380D01*
X109442285Y-133897714D02*
X109442285Y-134564380D01*
X109204190Y-133516761D02*
X108966095Y-134231047D01*
X109585142Y-134231047D01*
X110489904Y-134564380D02*
X109918476Y-134564380D01*
X110204190Y-134564380D02*
X110204190Y-133564380D01*
X110108952Y-133707238D01*
X110013714Y-133802476D01*
X109918476Y-133850095D01*
X109442285Y-136437714D02*
X109442285Y-137104380D01*
X109204190Y-136056761D02*
X108966095Y-136771047D01*
X109585142Y-136771047D01*
X109870857Y-136104380D02*
X110489904Y-136104380D01*
X110156571Y-136485333D01*
X110299428Y-136485333D01*
X110394666Y-136532952D01*
X110442285Y-136580571D01*
X110489904Y-136675809D01*
X110489904Y-136913904D01*
X110442285Y-137009142D01*
X110394666Y-137056761D01*
X110299428Y-137104380D01*
X110013714Y-137104380D01*
X109918476Y-137056761D01*
X109870857Y-137009142D01*
X109442285Y-138977714D02*
X109442285Y-139644380D01*
X109204190Y-138596761D02*
X108966095Y-139311047D01*
X109585142Y-139311047D01*
X110442285Y-138644380D02*
X109966095Y-138644380D01*
X109918476Y-139120571D01*
X109966095Y-139072952D01*
X110061333Y-139025333D01*
X110299428Y-139025333D01*
X110394666Y-139072952D01*
X110442285Y-139120571D01*
X110489904Y-139215809D01*
X110489904Y-139453904D01*
X110442285Y-139549142D01*
X110394666Y-139596761D01*
X110299428Y-139644380D01*
X110061333Y-139644380D01*
X109966095Y-139596761D01*
X109918476Y-139549142D01*
X109442285Y-141517714D02*
X109442285Y-142184380D01*
X109204190Y-141136761D02*
X108966095Y-141851047D01*
X109585142Y-141851047D01*
X110013714Y-142184380D02*
X110204190Y-142184380D01*
X110299428Y-142136761D01*
X110347047Y-142089142D01*
X110442285Y-141946285D01*
X110489904Y-141755809D01*
X110489904Y-141374857D01*
X110442285Y-141279619D01*
X110394666Y-141232000D01*
X110299428Y-141184380D01*
X110108952Y-141184380D01*
X110013714Y-141232000D01*
X109966095Y-141279619D01*
X109918476Y-141374857D01*
X109918476Y-141612952D01*
X109966095Y-141708190D01*
X110013714Y-141755809D01*
X110108952Y-141803428D01*
X110299428Y-141803428D01*
X110394666Y-141755809D01*
X110442285Y-141708190D01*
X110489904Y-141612952D01*
X109489904Y-143724380D02*
X109013714Y-143724380D01*
X108966095Y-144200571D01*
X109013714Y-144152952D01*
X109108952Y-144105333D01*
X109347047Y-144105333D01*
X109442285Y-144152952D01*
X109489904Y-144200571D01*
X109537523Y-144295809D01*
X109537523Y-144533904D01*
X109489904Y-144629142D01*
X109442285Y-144676761D01*
X109347047Y-144724380D01*
X109108952Y-144724380D01*
X109013714Y-144676761D01*
X108966095Y-144629142D01*
X110156571Y-143724380D02*
X110251809Y-143724380D01*
X110347047Y-143772000D01*
X110394666Y-143819619D01*
X110442285Y-143914857D01*
X110489904Y-144105333D01*
X110489904Y-144343428D01*
X110442285Y-144533904D01*
X110394666Y-144629142D01*
X110347047Y-144676761D01*
X110251809Y-144724380D01*
X110156571Y-144724380D01*
X110061333Y-144676761D01*
X110013714Y-144629142D01*
X109966095Y-144533904D01*
X109918476Y-144343428D01*
X109918476Y-144105333D01*
X109966095Y-143914857D01*
X110013714Y-143819619D01*
X110061333Y-143772000D01*
X110156571Y-143724380D01*
X109489904Y-146264380D02*
X109013714Y-146264380D01*
X108966095Y-146740571D01*
X109013714Y-146692952D01*
X109108952Y-146645333D01*
X109347047Y-146645333D01*
X109442285Y-146692952D01*
X109489904Y-146740571D01*
X109537523Y-146835809D01*
X109537523Y-147073904D01*
X109489904Y-147169142D01*
X109442285Y-147216761D01*
X109347047Y-147264380D01*
X109108952Y-147264380D01*
X109013714Y-147216761D01*
X108966095Y-147169142D01*
X110489904Y-147264380D02*
X109918476Y-147264380D01*
X110204190Y-147264380D02*
X110204190Y-146264380D01*
X110108952Y-146407238D01*
X110013714Y-146502476D01*
X109918476Y-146550095D01*
X109489904Y-148804380D02*
X109013714Y-148804380D01*
X108966095Y-149280571D01*
X109013714Y-149232952D01*
X109108952Y-149185333D01*
X109347047Y-149185333D01*
X109442285Y-149232952D01*
X109489904Y-149280571D01*
X109537523Y-149375809D01*
X109537523Y-149613904D01*
X109489904Y-149709142D01*
X109442285Y-149756761D01*
X109347047Y-149804380D01*
X109108952Y-149804380D01*
X109013714Y-149756761D01*
X108966095Y-149709142D01*
X109918476Y-148899619D02*
X109966095Y-148852000D01*
X110061333Y-148804380D01*
X110299428Y-148804380D01*
X110394666Y-148852000D01*
X110442285Y-148899619D01*
X110489904Y-148994857D01*
X110489904Y-149090095D01*
X110442285Y-149232952D01*
X109870857Y-149804380D01*
X110489904Y-149804380D01*
X109489904Y-151344380D02*
X109013714Y-151344380D01*
X108966095Y-151820571D01*
X109013714Y-151772952D01*
X109108952Y-151725333D01*
X109347047Y-151725333D01*
X109442285Y-151772952D01*
X109489904Y-151820571D01*
X109537523Y-151915809D01*
X109537523Y-152153904D01*
X109489904Y-152249142D01*
X109442285Y-152296761D01*
X109347047Y-152344380D01*
X109108952Y-152344380D01*
X109013714Y-152296761D01*
X108966095Y-152249142D01*
X109870857Y-151344380D02*
X110489904Y-151344380D01*
X110156571Y-151725333D01*
X110299428Y-151725333D01*
X110394666Y-151772952D01*
X110442285Y-151820571D01*
X110489904Y-151915809D01*
X110489904Y-152153904D01*
X110442285Y-152249142D01*
X110394666Y-152296761D01*
X110299428Y-152344380D01*
X110013714Y-152344380D01*
X109918476Y-152296761D01*
X109870857Y-152249142D01*
X109489904Y-153884380D02*
X109013714Y-153884380D01*
X108966095Y-154360571D01*
X109013714Y-154312952D01*
X109108952Y-154265333D01*
X109347047Y-154265333D01*
X109442285Y-154312952D01*
X109489904Y-154360571D01*
X109537523Y-154455809D01*
X109537523Y-154693904D01*
X109489904Y-154789142D01*
X109442285Y-154836761D01*
X109347047Y-154884380D01*
X109108952Y-154884380D01*
X109013714Y-154836761D01*
X108966095Y-154789142D01*
X110394666Y-154217714D02*
X110394666Y-154884380D01*
X110156571Y-153836761D02*
X109918476Y-154551047D01*
X110537523Y-154551047D01*
X109489904Y-156424380D02*
X109013714Y-156424380D01*
X108966095Y-156900571D01*
X109013714Y-156852952D01*
X109108952Y-156805333D01*
X109347047Y-156805333D01*
X109442285Y-156852952D01*
X109489904Y-156900571D01*
X109537523Y-156995809D01*
X109537523Y-157233904D01*
X109489904Y-157329142D01*
X109442285Y-157376761D01*
X109347047Y-157424380D01*
X109108952Y-157424380D01*
X109013714Y-157376761D01*
X108966095Y-157329142D01*
X110394666Y-156424380D02*
X110204190Y-156424380D01*
X110108952Y-156472000D01*
X110061333Y-156519619D01*
X109966095Y-156662476D01*
X109918476Y-156852952D01*
X109918476Y-157233904D01*
X109966095Y-157329142D01*
X110013714Y-157376761D01*
X110108952Y-157424380D01*
X110299428Y-157424380D01*
X110394666Y-157376761D01*
X110442285Y-157329142D01*
X110489904Y-157233904D01*
X110489904Y-156995809D01*
X110442285Y-156900571D01*
X110394666Y-156852952D01*
X110299428Y-156805333D01*
X110108952Y-156805333D01*
X110013714Y-156852952D01*
X109966095Y-156900571D01*
X109918476Y-156995809D01*
X109489904Y-158964380D02*
X109013714Y-158964380D01*
X108966095Y-159440571D01*
X109013714Y-159392952D01*
X109108952Y-159345333D01*
X109347047Y-159345333D01*
X109442285Y-159392952D01*
X109489904Y-159440571D01*
X109537523Y-159535809D01*
X109537523Y-159773904D01*
X109489904Y-159869142D01*
X109442285Y-159916761D01*
X109347047Y-159964380D01*
X109108952Y-159964380D01*
X109013714Y-159916761D01*
X108966095Y-159869142D01*
X109870857Y-158964380D02*
X110537523Y-158964380D01*
X110108952Y-159964380D01*
X109489904Y-161504380D02*
X109013714Y-161504380D01*
X108966095Y-161980571D01*
X109013714Y-161932952D01*
X109108952Y-161885333D01*
X109347047Y-161885333D01*
X109442285Y-161932952D01*
X109489904Y-161980571D01*
X109537523Y-162075809D01*
X109537523Y-162313904D01*
X109489904Y-162409142D01*
X109442285Y-162456761D01*
X109347047Y-162504380D01*
X109108952Y-162504380D01*
X109013714Y-162456761D01*
X108966095Y-162409142D01*
X110108952Y-161932952D02*
X110013714Y-161885333D01*
X109966095Y-161837714D01*
X109918476Y-161742476D01*
X109918476Y-161694857D01*
X109966095Y-161599619D01*
X110013714Y-161552000D01*
X110108952Y-161504380D01*
X110299428Y-161504380D01*
X110394666Y-161552000D01*
X110442285Y-161599619D01*
X110489904Y-161694857D01*
X110489904Y-161742476D01*
X110442285Y-161837714D01*
X110394666Y-161885333D01*
X110299428Y-161932952D01*
X110108952Y-161932952D01*
X110013714Y-161980571D01*
X109966095Y-162028190D01*
X109918476Y-162123428D01*
X109918476Y-162313904D01*
X109966095Y-162409142D01*
X110013714Y-162456761D01*
X110108952Y-162504380D01*
X110299428Y-162504380D01*
X110394666Y-162456761D01*
X110442285Y-162409142D01*
X110489904Y-162313904D01*
X110489904Y-162123428D01*
X110442285Y-162028190D01*
X110394666Y-161980571D01*
X110299428Y-161932952D01*
X109489904Y-164044380D02*
X109013714Y-164044380D01*
X108966095Y-164520571D01*
X109013714Y-164472952D01*
X109108952Y-164425333D01*
X109347047Y-164425333D01*
X109442285Y-164472952D01*
X109489904Y-164520571D01*
X109537523Y-164615809D01*
X109537523Y-164853904D01*
X109489904Y-164949142D01*
X109442285Y-164996761D01*
X109347047Y-165044380D01*
X109108952Y-165044380D01*
X109013714Y-164996761D01*
X108966095Y-164949142D01*
X110013714Y-165044380D02*
X110204190Y-165044380D01*
X110299428Y-164996761D01*
X110347047Y-164949142D01*
X110442285Y-164806285D01*
X110489904Y-164615809D01*
X110489904Y-164234857D01*
X110442285Y-164139619D01*
X110394666Y-164092000D01*
X110299428Y-164044380D01*
X110108952Y-164044380D01*
X110013714Y-164092000D01*
X109966095Y-164139619D01*
X109918476Y-164234857D01*
X109918476Y-164472952D01*
X109966095Y-164568190D01*
X110013714Y-164615809D01*
X110108952Y-164663428D01*
X110299428Y-164663428D01*
X110394666Y-164615809D01*
X110442285Y-164568190D01*
X110489904Y-164472952D01*
X109442285Y-166584380D02*
X109251809Y-166584380D01*
X109156571Y-166632000D01*
X109108952Y-166679619D01*
X109013714Y-166822476D01*
X108966095Y-167012952D01*
X108966095Y-167393904D01*
X109013714Y-167489142D01*
X109061333Y-167536761D01*
X109156571Y-167584380D01*
X109347047Y-167584380D01*
X109442285Y-167536761D01*
X109489904Y-167489142D01*
X109537523Y-167393904D01*
X109537523Y-167155809D01*
X109489904Y-167060571D01*
X109442285Y-167012952D01*
X109347047Y-166965333D01*
X109156571Y-166965333D01*
X109061333Y-167012952D01*
X109013714Y-167060571D01*
X108966095Y-167155809D01*
X110156571Y-166584380D02*
X110251809Y-166584380D01*
X110347047Y-166632000D01*
X110394666Y-166679619D01*
X110442285Y-166774857D01*
X110489904Y-166965333D01*
X110489904Y-167203428D01*
X110442285Y-167393904D01*
X110394666Y-167489142D01*
X110347047Y-167536761D01*
X110251809Y-167584380D01*
X110156571Y-167584380D01*
X110061333Y-167536761D01*
X110013714Y-167489142D01*
X109966095Y-167393904D01*
X109918476Y-167203428D01*
X109918476Y-166965333D01*
X109966095Y-166774857D01*
X110013714Y-166679619D01*
X110061333Y-166632000D01*
X110156571Y-166584380D01*
X109442285Y-169124380D02*
X109251809Y-169124380D01*
X109156571Y-169172000D01*
X109108952Y-169219619D01*
X109013714Y-169362476D01*
X108966095Y-169552952D01*
X108966095Y-169933904D01*
X109013714Y-170029142D01*
X109061333Y-170076761D01*
X109156571Y-170124380D01*
X109347047Y-170124380D01*
X109442285Y-170076761D01*
X109489904Y-170029142D01*
X109537523Y-169933904D01*
X109537523Y-169695809D01*
X109489904Y-169600571D01*
X109442285Y-169552952D01*
X109347047Y-169505333D01*
X109156571Y-169505333D01*
X109061333Y-169552952D01*
X109013714Y-169600571D01*
X108966095Y-169695809D01*
X110489904Y-170124380D02*
X109918476Y-170124380D01*
X110204190Y-170124380D02*
X110204190Y-169124380D01*
X110108952Y-169267238D01*
X110013714Y-169362476D01*
X109918476Y-169410095D01*
X109442285Y-171664380D02*
X109251809Y-171664380D01*
X109156571Y-171712000D01*
X109108952Y-171759619D01*
X109013714Y-171902476D01*
X108966095Y-172092952D01*
X108966095Y-172473904D01*
X109013714Y-172569142D01*
X109061333Y-172616761D01*
X109156571Y-172664380D01*
X109347047Y-172664380D01*
X109442285Y-172616761D01*
X109489904Y-172569142D01*
X109537523Y-172473904D01*
X109537523Y-172235809D01*
X109489904Y-172140571D01*
X109442285Y-172092952D01*
X109347047Y-172045333D01*
X109156571Y-172045333D01*
X109061333Y-172092952D01*
X109013714Y-172140571D01*
X108966095Y-172235809D01*
X110394666Y-171997714D02*
X110394666Y-172664380D01*
X110156571Y-171616761D02*
X109918476Y-172331047D01*
X110537523Y-172331047D01*
X109442285Y-174204380D02*
X109251809Y-174204380D01*
X109156571Y-174252000D01*
X109108952Y-174299619D01*
X109013714Y-174442476D01*
X108966095Y-174632952D01*
X108966095Y-175013904D01*
X109013714Y-175109142D01*
X109061333Y-175156761D01*
X109156571Y-175204380D01*
X109347047Y-175204380D01*
X109442285Y-175156761D01*
X109489904Y-175109142D01*
X109537523Y-175013904D01*
X109537523Y-174775809D01*
X109489904Y-174680571D01*
X109442285Y-174632952D01*
X109347047Y-174585333D01*
X109156571Y-174585333D01*
X109061333Y-174632952D01*
X109013714Y-174680571D01*
X108966095Y-174775809D01*
X110108952Y-174632952D02*
X110013714Y-174585333D01*
X109966095Y-174537714D01*
X109918476Y-174442476D01*
X109918476Y-174394857D01*
X109966095Y-174299619D01*
X110013714Y-174252000D01*
X110108952Y-174204380D01*
X110299428Y-174204380D01*
X110394666Y-174252000D01*
X110442285Y-174299619D01*
X110489904Y-174394857D01*
X110489904Y-174442476D01*
X110442285Y-174537714D01*
X110394666Y-174585333D01*
X110299428Y-174632952D01*
X110108952Y-174632952D01*
X110013714Y-174680571D01*
X109966095Y-174728190D01*
X109918476Y-174823428D01*
X109918476Y-175013904D01*
X109966095Y-175109142D01*
X110013714Y-175156761D01*
X110108952Y-175204380D01*
X110299428Y-175204380D01*
X110394666Y-175156761D01*
X110442285Y-175109142D01*
X110489904Y-175013904D01*
X110489904Y-174823428D01*
X110442285Y-174728190D01*
X110394666Y-174680571D01*
X110299428Y-174632952D01*
X109442285Y-176744380D02*
X109251809Y-176744380D01*
X109156571Y-176792000D01*
X109108952Y-176839619D01*
X109013714Y-176982476D01*
X108966095Y-177172952D01*
X108966095Y-177553904D01*
X109013714Y-177649142D01*
X109061333Y-177696761D01*
X109156571Y-177744380D01*
X109347047Y-177744380D01*
X109442285Y-177696761D01*
X109489904Y-177649142D01*
X109537523Y-177553904D01*
X109537523Y-177315809D01*
X109489904Y-177220571D01*
X109442285Y-177172952D01*
X109347047Y-177125333D01*
X109156571Y-177125333D01*
X109061333Y-177172952D01*
X109013714Y-177220571D01*
X108966095Y-177315809D01*
X110013714Y-177744380D02*
X110204190Y-177744380D01*
X110299428Y-177696761D01*
X110347047Y-177649142D01*
X110442285Y-177506285D01*
X110489904Y-177315809D01*
X110489904Y-176934857D01*
X110442285Y-176839619D01*
X110394666Y-176792000D01*
X110299428Y-176744380D01*
X110108952Y-176744380D01*
X110013714Y-176792000D01*
X109966095Y-176839619D01*
X109918476Y-176934857D01*
X109918476Y-177172952D01*
X109966095Y-177268190D01*
X110013714Y-177315809D01*
X110108952Y-177363428D01*
X110299428Y-177363428D01*
X110394666Y-177315809D01*
X110442285Y-177268190D01*
X110489904Y-177172952D01*
X108918476Y-179284380D02*
X109585142Y-179284380D01*
X109156571Y-180284380D01*
X110156571Y-179284380D02*
X110251809Y-179284380D01*
X110347047Y-179332000D01*
X110394666Y-179379619D01*
X110442285Y-179474857D01*
X110489904Y-179665333D01*
X110489904Y-179903428D01*
X110442285Y-180093904D01*
X110394666Y-180189142D01*
X110347047Y-180236761D01*
X110251809Y-180284380D01*
X110156571Y-180284380D01*
X110061333Y-180236761D01*
X110013714Y-180189142D01*
X109966095Y-180093904D01*
X109918476Y-179903428D01*
X109918476Y-179665333D01*
X109966095Y-179474857D01*
X110013714Y-179379619D01*
X110061333Y-179332000D01*
X110156571Y-179284380D01*
X108918476Y-181824380D02*
X109585142Y-181824380D01*
X109156571Y-182824380D01*
X110489904Y-182824380D02*
X109918476Y-182824380D01*
X110204190Y-182824380D02*
X110204190Y-181824380D01*
X110108952Y-181967238D01*
X110013714Y-182062476D01*
X109918476Y-182110095D01*
X108918476Y-184364380D02*
X109585142Y-184364380D01*
X109156571Y-185364380D01*
X110394666Y-184697714D02*
X110394666Y-185364380D01*
X110156571Y-184316761D02*
X109918476Y-185031047D01*
X110537523Y-185031047D01*
X59134476Y-184364380D02*
X59801142Y-184364380D01*
X59372571Y-185364380D01*
X60610666Y-184364380D02*
X60420190Y-184364380D01*
X60324952Y-184412000D01*
X60277333Y-184459619D01*
X60182095Y-184602476D01*
X60134476Y-184792952D01*
X60134476Y-185173904D01*
X60182095Y-185269142D01*
X60229714Y-185316761D01*
X60324952Y-185364380D01*
X60515428Y-185364380D01*
X60610666Y-185316761D01*
X60658285Y-185269142D01*
X60705904Y-185173904D01*
X60705904Y-184935809D01*
X60658285Y-184840571D01*
X60610666Y-184792952D01*
X60515428Y-184745333D01*
X60324952Y-184745333D01*
X60229714Y-184792952D01*
X60182095Y-184840571D01*
X60134476Y-184935809D01*
X59134476Y-181824380D02*
X59801142Y-181824380D01*
X59372571Y-182824380D01*
X60086857Y-181824380D02*
X60753523Y-181824380D01*
X60324952Y-182824380D01*
X59134476Y-179284380D02*
X59801142Y-179284380D01*
X59372571Y-180284380D01*
X60324952Y-179712952D02*
X60229714Y-179665333D01*
X60182095Y-179617714D01*
X60134476Y-179522476D01*
X60134476Y-179474857D01*
X60182095Y-179379619D01*
X60229714Y-179332000D01*
X60324952Y-179284380D01*
X60515428Y-179284380D01*
X60610666Y-179332000D01*
X60658285Y-179379619D01*
X60705904Y-179474857D01*
X60705904Y-179522476D01*
X60658285Y-179617714D01*
X60610666Y-179665333D01*
X60515428Y-179712952D01*
X60324952Y-179712952D01*
X60229714Y-179760571D01*
X60182095Y-179808190D01*
X60134476Y-179903428D01*
X60134476Y-180093904D01*
X60182095Y-180189142D01*
X60229714Y-180236761D01*
X60324952Y-180284380D01*
X60515428Y-180284380D01*
X60610666Y-180236761D01*
X60658285Y-180189142D01*
X60705904Y-180093904D01*
X60705904Y-179903428D01*
X60658285Y-179808190D01*
X60610666Y-179760571D01*
X60515428Y-179712952D01*
X59134476Y-176744380D02*
X59801142Y-176744380D01*
X59372571Y-177744380D01*
X60229714Y-177744380D02*
X60420190Y-177744380D01*
X60515428Y-177696761D01*
X60563047Y-177649142D01*
X60658285Y-177506285D01*
X60705904Y-177315809D01*
X60705904Y-176934857D01*
X60658285Y-176839619D01*
X60610666Y-176792000D01*
X60515428Y-176744380D01*
X60324952Y-176744380D01*
X60229714Y-176792000D01*
X60182095Y-176839619D01*
X60134476Y-176934857D01*
X60134476Y-177172952D01*
X60182095Y-177268190D01*
X60229714Y-177315809D01*
X60324952Y-177363428D01*
X60515428Y-177363428D01*
X60610666Y-177315809D01*
X60658285Y-177268190D01*
X60705904Y-177172952D01*
X59372571Y-174632952D02*
X59277333Y-174585333D01*
X59229714Y-174537714D01*
X59182095Y-174442476D01*
X59182095Y-174394857D01*
X59229714Y-174299619D01*
X59277333Y-174252000D01*
X59372571Y-174204380D01*
X59563047Y-174204380D01*
X59658285Y-174252000D01*
X59705904Y-174299619D01*
X59753523Y-174394857D01*
X59753523Y-174442476D01*
X59705904Y-174537714D01*
X59658285Y-174585333D01*
X59563047Y-174632952D01*
X59372571Y-174632952D01*
X59277333Y-174680571D01*
X59229714Y-174728190D01*
X59182095Y-174823428D01*
X59182095Y-175013904D01*
X59229714Y-175109142D01*
X59277333Y-175156761D01*
X59372571Y-175204380D01*
X59563047Y-175204380D01*
X59658285Y-175156761D01*
X59705904Y-175109142D01*
X59753523Y-175013904D01*
X59753523Y-174823428D01*
X59705904Y-174728190D01*
X59658285Y-174680571D01*
X59563047Y-174632952D01*
X60372571Y-174204380D02*
X60467809Y-174204380D01*
X60563047Y-174252000D01*
X60610666Y-174299619D01*
X60658285Y-174394857D01*
X60705904Y-174585333D01*
X60705904Y-174823428D01*
X60658285Y-175013904D01*
X60610666Y-175109142D01*
X60563047Y-175156761D01*
X60467809Y-175204380D01*
X60372571Y-175204380D01*
X60277333Y-175156761D01*
X60229714Y-175109142D01*
X60182095Y-175013904D01*
X60134476Y-174823428D01*
X60134476Y-174585333D01*
X60182095Y-174394857D01*
X60229714Y-174299619D01*
X60277333Y-174252000D01*
X60372571Y-174204380D01*
X59372571Y-172092952D02*
X59277333Y-172045333D01*
X59229714Y-171997714D01*
X59182095Y-171902476D01*
X59182095Y-171854857D01*
X59229714Y-171759619D01*
X59277333Y-171712000D01*
X59372571Y-171664380D01*
X59563047Y-171664380D01*
X59658285Y-171712000D01*
X59705904Y-171759619D01*
X59753523Y-171854857D01*
X59753523Y-171902476D01*
X59705904Y-171997714D01*
X59658285Y-172045333D01*
X59563047Y-172092952D01*
X59372571Y-172092952D01*
X59277333Y-172140571D01*
X59229714Y-172188190D01*
X59182095Y-172283428D01*
X59182095Y-172473904D01*
X59229714Y-172569142D01*
X59277333Y-172616761D01*
X59372571Y-172664380D01*
X59563047Y-172664380D01*
X59658285Y-172616761D01*
X59705904Y-172569142D01*
X59753523Y-172473904D01*
X59753523Y-172283428D01*
X59705904Y-172188190D01*
X59658285Y-172140571D01*
X59563047Y-172092952D01*
X60705904Y-172664380D02*
X60134476Y-172664380D01*
X60420190Y-172664380D02*
X60420190Y-171664380D01*
X60324952Y-171807238D01*
X60229714Y-171902476D01*
X60134476Y-171950095D01*
X59372571Y-169552952D02*
X59277333Y-169505333D01*
X59229714Y-169457714D01*
X59182095Y-169362476D01*
X59182095Y-169314857D01*
X59229714Y-169219619D01*
X59277333Y-169172000D01*
X59372571Y-169124380D01*
X59563047Y-169124380D01*
X59658285Y-169172000D01*
X59705904Y-169219619D01*
X59753523Y-169314857D01*
X59753523Y-169362476D01*
X59705904Y-169457714D01*
X59658285Y-169505333D01*
X59563047Y-169552952D01*
X59372571Y-169552952D01*
X59277333Y-169600571D01*
X59229714Y-169648190D01*
X59182095Y-169743428D01*
X59182095Y-169933904D01*
X59229714Y-170029142D01*
X59277333Y-170076761D01*
X59372571Y-170124380D01*
X59563047Y-170124380D01*
X59658285Y-170076761D01*
X59705904Y-170029142D01*
X59753523Y-169933904D01*
X59753523Y-169743428D01*
X59705904Y-169648190D01*
X59658285Y-169600571D01*
X59563047Y-169552952D01*
X60134476Y-169219619D02*
X60182095Y-169172000D01*
X60277333Y-169124380D01*
X60515428Y-169124380D01*
X60610666Y-169172000D01*
X60658285Y-169219619D01*
X60705904Y-169314857D01*
X60705904Y-169410095D01*
X60658285Y-169552952D01*
X60086857Y-170124380D01*
X60705904Y-170124380D01*
X59372571Y-167012952D02*
X59277333Y-166965333D01*
X59229714Y-166917714D01*
X59182095Y-166822476D01*
X59182095Y-166774857D01*
X59229714Y-166679619D01*
X59277333Y-166632000D01*
X59372571Y-166584380D01*
X59563047Y-166584380D01*
X59658285Y-166632000D01*
X59705904Y-166679619D01*
X59753523Y-166774857D01*
X59753523Y-166822476D01*
X59705904Y-166917714D01*
X59658285Y-166965333D01*
X59563047Y-167012952D01*
X59372571Y-167012952D01*
X59277333Y-167060571D01*
X59229714Y-167108190D01*
X59182095Y-167203428D01*
X59182095Y-167393904D01*
X59229714Y-167489142D01*
X59277333Y-167536761D01*
X59372571Y-167584380D01*
X59563047Y-167584380D01*
X59658285Y-167536761D01*
X59705904Y-167489142D01*
X59753523Y-167393904D01*
X59753523Y-167203428D01*
X59705904Y-167108190D01*
X59658285Y-167060571D01*
X59563047Y-167012952D01*
X60086857Y-166584380D02*
X60705904Y-166584380D01*
X60372571Y-166965333D01*
X60515428Y-166965333D01*
X60610666Y-167012952D01*
X60658285Y-167060571D01*
X60705904Y-167155809D01*
X60705904Y-167393904D01*
X60658285Y-167489142D01*
X60610666Y-167536761D01*
X60515428Y-167584380D01*
X60229714Y-167584380D01*
X60134476Y-167536761D01*
X60086857Y-167489142D01*
X59372571Y-164472952D02*
X59277333Y-164425333D01*
X59229714Y-164377714D01*
X59182095Y-164282476D01*
X59182095Y-164234857D01*
X59229714Y-164139619D01*
X59277333Y-164092000D01*
X59372571Y-164044380D01*
X59563047Y-164044380D01*
X59658285Y-164092000D01*
X59705904Y-164139619D01*
X59753523Y-164234857D01*
X59753523Y-164282476D01*
X59705904Y-164377714D01*
X59658285Y-164425333D01*
X59563047Y-164472952D01*
X59372571Y-164472952D01*
X59277333Y-164520571D01*
X59229714Y-164568190D01*
X59182095Y-164663428D01*
X59182095Y-164853904D01*
X59229714Y-164949142D01*
X59277333Y-164996761D01*
X59372571Y-165044380D01*
X59563047Y-165044380D01*
X59658285Y-164996761D01*
X59705904Y-164949142D01*
X59753523Y-164853904D01*
X59753523Y-164663428D01*
X59705904Y-164568190D01*
X59658285Y-164520571D01*
X59563047Y-164472952D01*
X60658285Y-164044380D02*
X60182095Y-164044380D01*
X60134476Y-164520571D01*
X60182095Y-164472952D01*
X60277333Y-164425333D01*
X60515428Y-164425333D01*
X60610666Y-164472952D01*
X60658285Y-164520571D01*
X60705904Y-164615809D01*
X60705904Y-164853904D01*
X60658285Y-164949142D01*
X60610666Y-164996761D01*
X60515428Y-165044380D01*
X60277333Y-165044380D01*
X60182095Y-164996761D01*
X60134476Y-164949142D01*
X59372571Y-161932952D02*
X59277333Y-161885333D01*
X59229714Y-161837714D01*
X59182095Y-161742476D01*
X59182095Y-161694857D01*
X59229714Y-161599619D01*
X59277333Y-161552000D01*
X59372571Y-161504380D01*
X59563047Y-161504380D01*
X59658285Y-161552000D01*
X59705904Y-161599619D01*
X59753523Y-161694857D01*
X59753523Y-161742476D01*
X59705904Y-161837714D01*
X59658285Y-161885333D01*
X59563047Y-161932952D01*
X59372571Y-161932952D01*
X59277333Y-161980571D01*
X59229714Y-162028190D01*
X59182095Y-162123428D01*
X59182095Y-162313904D01*
X59229714Y-162409142D01*
X59277333Y-162456761D01*
X59372571Y-162504380D01*
X59563047Y-162504380D01*
X59658285Y-162456761D01*
X59705904Y-162409142D01*
X59753523Y-162313904D01*
X59753523Y-162123428D01*
X59705904Y-162028190D01*
X59658285Y-161980571D01*
X59563047Y-161932952D01*
X60610666Y-161504380D02*
X60420190Y-161504380D01*
X60324952Y-161552000D01*
X60277333Y-161599619D01*
X60182095Y-161742476D01*
X60134476Y-161932952D01*
X60134476Y-162313904D01*
X60182095Y-162409142D01*
X60229714Y-162456761D01*
X60324952Y-162504380D01*
X60515428Y-162504380D01*
X60610666Y-162456761D01*
X60658285Y-162409142D01*
X60705904Y-162313904D01*
X60705904Y-162075809D01*
X60658285Y-161980571D01*
X60610666Y-161932952D01*
X60515428Y-161885333D01*
X60324952Y-161885333D01*
X60229714Y-161932952D01*
X60182095Y-161980571D01*
X60134476Y-162075809D01*
X59372571Y-159392952D02*
X59277333Y-159345333D01*
X59229714Y-159297714D01*
X59182095Y-159202476D01*
X59182095Y-159154857D01*
X59229714Y-159059619D01*
X59277333Y-159012000D01*
X59372571Y-158964380D01*
X59563047Y-158964380D01*
X59658285Y-159012000D01*
X59705904Y-159059619D01*
X59753523Y-159154857D01*
X59753523Y-159202476D01*
X59705904Y-159297714D01*
X59658285Y-159345333D01*
X59563047Y-159392952D01*
X59372571Y-159392952D01*
X59277333Y-159440571D01*
X59229714Y-159488190D01*
X59182095Y-159583428D01*
X59182095Y-159773904D01*
X59229714Y-159869142D01*
X59277333Y-159916761D01*
X59372571Y-159964380D01*
X59563047Y-159964380D01*
X59658285Y-159916761D01*
X59705904Y-159869142D01*
X59753523Y-159773904D01*
X59753523Y-159583428D01*
X59705904Y-159488190D01*
X59658285Y-159440571D01*
X59563047Y-159392952D01*
X60086857Y-158964380D02*
X60753523Y-158964380D01*
X60324952Y-159964380D01*
X59372571Y-156852952D02*
X59277333Y-156805333D01*
X59229714Y-156757714D01*
X59182095Y-156662476D01*
X59182095Y-156614857D01*
X59229714Y-156519619D01*
X59277333Y-156472000D01*
X59372571Y-156424380D01*
X59563047Y-156424380D01*
X59658285Y-156472000D01*
X59705904Y-156519619D01*
X59753523Y-156614857D01*
X59753523Y-156662476D01*
X59705904Y-156757714D01*
X59658285Y-156805333D01*
X59563047Y-156852952D01*
X59372571Y-156852952D01*
X59277333Y-156900571D01*
X59229714Y-156948190D01*
X59182095Y-157043428D01*
X59182095Y-157233904D01*
X59229714Y-157329142D01*
X59277333Y-157376761D01*
X59372571Y-157424380D01*
X59563047Y-157424380D01*
X59658285Y-157376761D01*
X59705904Y-157329142D01*
X59753523Y-157233904D01*
X59753523Y-157043428D01*
X59705904Y-156948190D01*
X59658285Y-156900571D01*
X59563047Y-156852952D01*
X60324952Y-156852952D02*
X60229714Y-156805333D01*
X60182095Y-156757714D01*
X60134476Y-156662476D01*
X60134476Y-156614857D01*
X60182095Y-156519619D01*
X60229714Y-156472000D01*
X60324952Y-156424380D01*
X60515428Y-156424380D01*
X60610666Y-156472000D01*
X60658285Y-156519619D01*
X60705904Y-156614857D01*
X60705904Y-156662476D01*
X60658285Y-156757714D01*
X60610666Y-156805333D01*
X60515428Y-156852952D01*
X60324952Y-156852952D01*
X60229714Y-156900571D01*
X60182095Y-156948190D01*
X60134476Y-157043428D01*
X60134476Y-157233904D01*
X60182095Y-157329142D01*
X60229714Y-157376761D01*
X60324952Y-157424380D01*
X60515428Y-157424380D01*
X60610666Y-157376761D01*
X60658285Y-157329142D01*
X60705904Y-157233904D01*
X60705904Y-157043428D01*
X60658285Y-156948190D01*
X60610666Y-156900571D01*
X60515428Y-156852952D01*
X59277333Y-154884380D02*
X59467809Y-154884380D01*
X59563047Y-154836761D01*
X59610666Y-154789142D01*
X59705904Y-154646285D01*
X59753523Y-154455809D01*
X59753523Y-154074857D01*
X59705904Y-153979619D01*
X59658285Y-153932000D01*
X59563047Y-153884380D01*
X59372571Y-153884380D01*
X59277333Y-153932000D01*
X59229714Y-153979619D01*
X59182095Y-154074857D01*
X59182095Y-154312952D01*
X59229714Y-154408190D01*
X59277333Y-154455809D01*
X59372571Y-154503428D01*
X59563047Y-154503428D01*
X59658285Y-154455809D01*
X59705904Y-154408190D01*
X59753523Y-154312952D01*
X60705904Y-154884380D02*
X60134476Y-154884380D01*
X60420190Y-154884380D02*
X60420190Y-153884380D01*
X60324952Y-154027238D01*
X60229714Y-154122476D01*
X60134476Y-154170095D01*
X59277333Y-152344380D02*
X59467809Y-152344380D01*
X59563047Y-152296761D01*
X59610666Y-152249142D01*
X59705904Y-152106285D01*
X59753523Y-151915809D01*
X59753523Y-151534857D01*
X59705904Y-151439619D01*
X59658285Y-151392000D01*
X59563047Y-151344380D01*
X59372571Y-151344380D01*
X59277333Y-151392000D01*
X59229714Y-151439619D01*
X59182095Y-151534857D01*
X59182095Y-151772952D01*
X59229714Y-151868190D01*
X59277333Y-151915809D01*
X59372571Y-151963428D01*
X59563047Y-151963428D01*
X59658285Y-151915809D01*
X59705904Y-151868190D01*
X59753523Y-151772952D01*
X60134476Y-151439619D02*
X60182095Y-151392000D01*
X60277333Y-151344380D01*
X60515428Y-151344380D01*
X60610666Y-151392000D01*
X60658285Y-151439619D01*
X60705904Y-151534857D01*
X60705904Y-151630095D01*
X60658285Y-151772952D01*
X60086857Y-152344380D01*
X60705904Y-152344380D01*
X59277333Y-149804380D02*
X59467809Y-149804380D01*
X59563047Y-149756761D01*
X59610666Y-149709142D01*
X59705904Y-149566285D01*
X59753523Y-149375809D01*
X59753523Y-148994857D01*
X59705904Y-148899619D01*
X59658285Y-148852000D01*
X59563047Y-148804380D01*
X59372571Y-148804380D01*
X59277333Y-148852000D01*
X59229714Y-148899619D01*
X59182095Y-148994857D01*
X59182095Y-149232952D01*
X59229714Y-149328190D01*
X59277333Y-149375809D01*
X59372571Y-149423428D01*
X59563047Y-149423428D01*
X59658285Y-149375809D01*
X59705904Y-149328190D01*
X59753523Y-149232952D01*
X60610666Y-149137714D02*
X60610666Y-149804380D01*
X60372571Y-148756761D02*
X60134476Y-149471047D01*
X60753523Y-149471047D01*
X59277333Y-147264380D02*
X59467809Y-147264380D01*
X59563047Y-147216761D01*
X59610666Y-147169142D01*
X59705904Y-147026285D01*
X59753523Y-146835809D01*
X59753523Y-146454857D01*
X59705904Y-146359619D01*
X59658285Y-146312000D01*
X59563047Y-146264380D01*
X59372571Y-146264380D01*
X59277333Y-146312000D01*
X59229714Y-146359619D01*
X59182095Y-146454857D01*
X59182095Y-146692952D01*
X59229714Y-146788190D01*
X59277333Y-146835809D01*
X59372571Y-146883428D01*
X59563047Y-146883428D01*
X59658285Y-146835809D01*
X59705904Y-146788190D01*
X59753523Y-146692952D01*
X60658285Y-146264380D02*
X60182095Y-146264380D01*
X60134476Y-146740571D01*
X60182095Y-146692952D01*
X60277333Y-146645333D01*
X60515428Y-146645333D01*
X60610666Y-146692952D01*
X60658285Y-146740571D01*
X60705904Y-146835809D01*
X60705904Y-147073904D01*
X60658285Y-147169142D01*
X60610666Y-147216761D01*
X60515428Y-147264380D01*
X60277333Y-147264380D01*
X60182095Y-147216761D01*
X60134476Y-147169142D01*
X59277333Y-144724380D02*
X59467809Y-144724380D01*
X59563047Y-144676761D01*
X59610666Y-144629142D01*
X59705904Y-144486285D01*
X59753523Y-144295809D01*
X59753523Y-143914857D01*
X59705904Y-143819619D01*
X59658285Y-143772000D01*
X59563047Y-143724380D01*
X59372571Y-143724380D01*
X59277333Y-143772000D01*
X59229714Y-143819619D01*
X59182095Y-143914857D01*
X59182095Y-144152952D01*
X59229714Y-144248190D01*
X59277333Y-144295809D01*
X59372571Y-144343428D01*
X59563047Y-144343428D01*
X59658285Y-144295809D01*
X59705904Y-144248190D01*
X59753523Y-144152952D01*
X60610666Y-143724380D02*
X60420190Y-143724380D01*
X60324952Y-143772000D01*
X60277333Y-143819619D01*
X60182095Y-143962476D01*
X60134476Y-144152952D01*
X60134476Y-144533904D01*
X60182095Y-144629142D01*
X60229714Y-144676761D01*
X60324952Y-144724380D01*
X60515428Y-144724380D01*
X60610666Y-144676761D01*
X60658285Y-144629142D01*
X60705904Y-144533904D01*
X60705904Y-144295809D01*
X60658285Y-144200571D01*
X60610666Y-144152952D01*
X60515428Y-144105333D01*
X60324952Y-144105333D01*
X60229714Y-144152952D01*
X60182095Y-144200571D01*
X60134476Y-144295809D01*
X59277333Y-142184380D02*
X59467809Y-142184380D01*
X59563047Y-142136761D01*
X59610666Y-142089142D01*
X59705904Y-141946285D01*
X59753523Y-141755809D01*
X59753523Y-141374857D01*
X59705904Y-141279619D01*
X59658285Y-141232000D01*
X59563047Y-141184380D01*
X59372571Y-141184380D01*
X59277333Y-141232000D01*
X59229714Y-141279619D01*
X59182095Y-141374857D01*
X59182095Y-141612952D01*
X59229714Y-141708190D01*
X59277333Y-141755809D01*
X59372571Y-141803428D01*
X59563047Y-141803428D01*
X59658285Y-141755809D01*
X59705904Y-141708190D01*
X59753523Y-141612952D01*
X60086857Y-141184380D02*
X60753523Y-141184380D01*
X60324952Y-142184380D01*
X59277333Y-139644380D02*
X59467809Y-139644380D01*
X59563047Y-139596761D01*
X59610666Y-139549142D01*
X59705904Y-139406285D01*
X59753523Y-139215809D01*
X59753523Y-138834857D01*
X59705904Y-138739619D01*
X59658285Y-138692000D01*
X59563047Y-138644380D01*
X59372571Y-138644380D01*
X59277333Y-138692000D01*
X59229714Y-138739619D01*
X59182095Y-138834857D01*
X59182095Y-139072952D01*
X59229714Y-139168190D01*
X59277333Y-139215809D01*
X59372571Y-139263428D01*
X59563047Y-139263428D01*
X59658285Y-139215809D01*
X59705904Y-139168190D01*
X59753523Y-139072952D01*
X60324952Y-139072952D02*
X60229714Y-139025333D01*
X60182095Y-138977714D01*
X60134476Y-138882476D01*
X60134476Y-138834857D01*
X60182095Y-138739619D01*
X60229714Y-138692000D01*
X60324952Y-138644380D01*
X60515428Y-138644380D01*
X60610666Y-138692000D01*
X60658285Y-138739619D01*
X60705904Y-138834857D01*
X60705904Y-138882476D01*
X60658285Y-138977714D01*
X60610666Y-139025333D01*
X60515428Y-139072952D01*
X60324952Y-139072952D01*
X60229714Y-139120571D01*
X60182095Y-139168190D01*
X60134476Y-139263428D01*
X60134476Y-139453904D01*
X60182095Y-139549142D01*
X60229714Y-139596761D01*
X60324952Y-139644380D01*
X60515428Y-139644380D01*
X60610666Y-139596761D01*
X60658285Y-139549142D01*
X60705904Y-139453904D01*
X60705904Y-139263428D01*
X60658285Y-139168190D01*
X60610666Y-139120571D01*
X60515428Y-139072952D01*
X59785333Y-137104380D02*
X59213904Y-137104380D01*
X59499619Y-137104380D02*
X59499619Y-136104380D01*
X59404380Y-136247238D01*
X59309142Y-136342476D01*
X59213904Y-136390095D01*
X60404380Y-136104380D02*
X60499619Y-136104380D01*
X60594857Y-136152000D01*
X60642476Y-136199619D01*
X60690095Y-136294857D01*
X60737714Y-136485333D01*
X60737714Y-136723428D01*
X60690095Y-136913904D01*
X60642476Y-137009142D01*
X60594857Y-137056761D01*
X60499619Y-137104380D01*
X60404380Y-137104380D01*
X60309142Y-137056761D01*
X60261523Y-137009142D01*
X60213904Y-136913904D01*
X60166285Y-136723428D01*
X60166285Y-136485333D01*
X60213904Y-136294857D01*
X60261523Y-136199619D01*
X60309142Y-136152000D01*
X60404380Y-136104380D01*
X61356761Y-136104380D02*
X61452000Y-136104380D01*
X61547238Y-136152000D01*
X61594857Y-136199619D01*
X61642476Y-136294857D01*
X61690095Y-136485333D01*
X61690095Y-136723428D01*
X61642476Y-136913904D01*
X61594857Y-137009142D01*
X61547238Y-137056761D01*
X61452000Y-137104380D01*
X61356761Y-137104380D01*
X61261523Y-137056761D01*
X61213904Y-137009142D01*
X61166285Y-136913904D01*
X61118666Y-136723428D01*
X61118666Y-136485333D01*
X61166285Y-136294857D01*
X61213904Y-136199619D01*
X61261523Y-136152000D01*
X61356761Y-136104380D01*
X59785333Y-134564380D02*
X59213904Y-134564380D01*
X59499619Y-134564380D02*
X59499619Y-133564380D01*
X59404380Y-133707238D01*
X59309142Y-133802476D01*
X59213904Y-133850095D01*
X60404380Y-133564380D02*
X60499619Y-133564380D01*
X60594857Y-133612000D01*
X60642476Y-133659619D01*
X60690095Y-133754857D01*
X60737714Y-133945333D01*
X60737714Y-134183428D01*
X60690095Y-134373904D01*
X60642476Y-134469142D01*
X60594857Y-134516761D01*
X60499619Y-134564380D01*
X60404380Y-134564380D01*
X60309142Y-134516761D01*
X60261523Y-134469142D01*
X60213904Y-134373904D01*
X60166285Y-134183428D01*
X60166285Y-133945333D01*
X60213904Y-133754857D01*
X60261523Y-133659619D01*
X60309142Y-133612000D01*
X60404380Y-133564380D01*
X61690095Y-134564380D02*
X61118666Y-134564380D01*
X61404380Y-134564380D02*
X61404380Y-133564380D01*
X61309142Y-133707238D01*
X61213904Y-133802476D01*
X61118666Y-133850095D01*
X59785333Y-132024380D02*
X59213904Y-132024380D01*
X59499619Y-132024380D02*
X59499619Y-131024380D01*
X59404380Y-131167238D01*
X59309142Y-131262476D01*
X59213904Y-131310095D01*
X60404380Y-131024380D02*
X60499619Y-131024380D01*
X60594857Y-131072000D01*
X60642476Y-131119619D01*
X60690095Y-131214857D01*
X60737714Y-131405333D01*
X60737714Y-131643428D01*
X60690095Y-131833904D01*
X60642476Y-131929142D01*
X60594857Y-131976761D01*
X60499619Y-132024380D01*
X60404380Y-132024380D01*
X60309142Y-131976761D01*
X60261523Y-131929142D01*
X60213904Y-131833904D01*
X60166285Y-131643428D01*
X60166285Y-131405333D01*
X60213904Y-131214857D01*
X60261523Y-131119619D01*
X60309142Y-131072000D01*
X60404380Y-131024380D01*
X61118666Y-131119619D02*
X61166285Y-131072000D01*
X61261523Y-131024380D01*
X61499619Y-131024380D01*
X61594857Y-131072000D01*
X61642476Y-131119619D01*
X61690095Y-131214857D01*
X61690095Y-131310095D01*
X61642476Y-131452952D01*
X61071047Y-132024380D01*
X61690095Y-132024380D01*
X59785333Y-129484380D02*
X59213904Y-129484380D01*
X59499619Y-129484380D02*
X59499619Y-128484380D01*
X59404380Y-128627238D01*
X59309142Y-128722476D01*
X59213904Y-128770095D01*
X60404380Y-128484380D02*
X60499619Y-128484380D01*
X60594857Y-128532000D01*
X60642476Y-128579619D01*
X60690095Y-128674857D01*
X60737714Y-128865333D01*
X60737714Y-129103428D01*
X60690095Y-129293904D01*
X60642476Y-129389142D01*
X60594857Y-129436761D01*
X60499619Y-129484380D01*
X60404380Y-129484380D01*
X60309142Y-129436761D01*
X60261523Y-129389142D01*
X60213904Y-129293904D01*
X60166285Y-129103428D01*
X60166285Y-128865333D01*
X60213904Y-128674857D01*
X60261523Y-128579619D01*
X60309142Y-128532000D01*
X60404380Y-128484380D01*
X61071047Y-128484380D02*
X61690095Y-128484380D01*
X61356761Y-128865333D01*
X61499619Y-128865333D01*
X61594857Y-128912952D01*
X61642476Y-128960571D01*
X61690095Y-129055809D01*
X61690095Y-129293904D01*
X61642476Y-129389142D01*
X61594857Y-129436761D01*
X61499619Y-129484380D01*
X61213904Y-129484380D01*
X61118666Y-129436761D01*
X61071047Y-129389142D01*
X59785333Y-126944380D02*
X59213904Y-126944380D01*
X59499619Y-126944380D02*
X59499619Y-125944380D01*
X59404380Y-126087238D01*
X59309142Y-126182476D01*
X59213904Y-126230095D01*
X60404380Y-125944380D02*
X60499619Y-125944380D01*
X60594857Y-125992000D01*
X60642476Y-126039619D01*
X60690095Y-126134857D01*
X60737714Y-126325333D01*
X60737714Y-126563428D01*
X60690095Y-126753904D01*
X60642476Y-126849142D01*
X60594857Y-126896761D01*
X60499619Y-126944380D01*
X60404380Y-126944380D01*
X60309142Y-126896761D01*
X60261523Y-126849142D01*
X60213904Y-126753904D01*
X60166285Y-126563428D01*
X60166285Y-126325333D01*
X60213904Y-126134857D01*
X60261523Y-126039619D01*
X60309142Y-125992000D01*
X60404380Y-125944380D01*
X61594857Y-126277714D02*
X61594857Y-126944380D01*
X61356761Y-125896761D02*
X61118666Y-126611047D01*
X61737714Y-126611047D01*
X59785333Y-124404380D02*
X59213904Y-124404380D01*
X59499619Y-124404380D02*
X59499619Y-123404380D01*
X59404380Y-123547238D01*
X59309142Y-123642476D01*
X59213904Y-123690095D01*
X60404380Y-123404380D02*
X60499619Y-123404380D01*
X60594857Y-123452000D01*
X60642476Y-123499619D01*
X60690095Y-123594857D01*
X60737714Y-123785333D01*
X60737714Y-124023428D01*
X60690095Y-124213904D01*
X60642476Y-124309142D01*
X60594857Y-124356761D01*
X60499619Y-124404380D01*
X60404380Y-124404380D01*
X60309142Y-124356761D01*
X60261523Y-124309142D01*
X60213904Y-124213904D01*
X60166285Y-124023428D01*
X60166285Y-123785333D01*
X60213904Y-123594857D01*
X60261523Y-123499619D01*
X60309142Y-123452000D01*
X60404380Y-123404380D01*
X61642476Y-123404380D02*
X61166285Y-123404380D01*
X61118666Y-123880571D01*
X61166285Y-123832952D01*
X61261523Y-123785333D01*
X61499619Y-123785333D01*
X61594857Y-123832952D01*
X61642476Y-123880571D01*
X61690095Y-123975809D01*
X61690095Y-124213904D01*
X61642476Y-124309142D01*
X61594857Y-124356761D01*
X61499619Y-124404380D01*
X61261523Y-124404380D01*
X61166285Y-124356761D01*
X61118666Y-124309142D01*
X59785333Y-121864380D02*
X59213904Y-121864380D01*
X59499619Y-121864380D02*
X59499619Y-120864380D01*
X59404380Y-121007238D01*
X59309142Y-121102476D01*
X59213904Y-121150095D01*
X60737714Y-121864380D02*
X60166285Y-121864380D01*
X60452000Y-121864380D02*
X60452000Y-120864380D01*
X60356761Y-121007238D01*
X60261523Y-121102476D01*
X60166285Y-121150095D01*
X61356761Y-120864380D02*
X61452000Y-120864380D01*
X61547238Y-120912000D01*
X61594857Y-120959619D01*
X61642476Y-121054857D01*
X61690095Y-121245333D01*
X61690095Y-121483428D01*
X61642476Y-121673904D01*
X61594857Y-121769142D01*
X61547238Y-121816761D01*
X61452000Y-121864380D01*
X61356761Y-121864380D01*
X61261523Y-121816761D01*
X61213904Y-121769142D01*
X61166285Y-121673904D01*
X61118666Y-121483428D01*
X61118666Y-121245333D01*
X61166285Y-121054857D01*
X61213904Y-120959619D01*
X61261523Y-120912000D01*
X61356761Y-120864380D01*
X59785333Y-119324380D02*
X59213904Y-119324380D01*
X59499619Y-119324380D02*
X59499619Y-118324380D01*
X59404380Y-118467238D01*
X59309142Y-118562476D01*
X59213904Y-118610095D01*
X60737714Y-119324380D02*
X60166285Y-119324380D01*
X60452000Y-119324380D02*
X60452000Y-118324380D01*
X60356761Y-118467238D01*
X60261523Y-118562476D01*
X60166285Y-118610095D01*
X61690095Y-119324380D02*
X61118666Y-119324380D01*
X61404380Y-119324380D02*
X61404380Y-118324380D01*
X61309142Y-118467238D01*
X61213904Y-118562476D01*
X61118666Y-118610095D01*
X59785333Y-116784380D02*
X59213904Y-116784380D01*
X59499619Y-116784380D02*
X59499619Y-115784380D01*
X59404380Y-115927238D01*
X59309142Y-116022476D01*
X59213904Y-116070095D01*
X60737714Y-116784380D02*
X60166285Y-116784380D01*
X60452000Y-116784380D02*
X60452000Y-115784380D01*
X60356761Y-115927238D01*
X60261523Y-116022476D01*
X60166285Y-116070095D01*
X61118666Y-115879619D02*
X61166285Y-115832000D01*
X61261523Y-115784380D01*
X61499619Y-115784380D01*
X61594857Y-115832000D01*
X61642476Y-115879619D01*
X61690095Y-115974857D01*
X61690095Y-116070095D01*
X61642476Y-116212952D01*
X61071047Y-116784380D01*
X61690095Y-116784380D01*
X59785333Y-114244380D02*
X59213904Y-114244380D01*
X59499619Y-114244380D02*
X59499619Y-113244380D01*
X59404380Y-113387238D01*
X59309142Y-113482476D01*
X59213904Y-113530095D01*
X60737714Y-114244380D02*
X60166285Y-114244380D01*
X60452000Y-114244380D02*
X60452000Y-113244380D01*
X60356761Y-113387238D01*
X60261523Y-113482476D01*
X60166285Y-113530095D01*
X61071047Y-113244380D02*
X61690095Y-113244380D01*
X61356761Y-113625333D01*
X61499619Y-113625333D01*
X61594857Y-113672952D01*
X61642476Y-113720571D01*
X61690095Y-113815809D01*
X61690095Y-114053904D01*
X61642476Y-114149142D01*
X61594857Y-114196761D01*
X61499619Y-114244380D01*
X61213904Y-114244380D01*
X61118666Y-114196761D01*
X61071047Y-114149142D01*
X59785333Y-111704380D02*
X59213904Y-111704380D01*
X59499619Y-111704380D02*
X59499619Y-110704380D01*
X59404380Y-110847238D01*
X59309142Y-110942476D01*
X59213904Y-110990095D01*
X60737714Y-111704380D02*
X60166285Y-111704380D01*
X60452000Y-111704380D02*
X60452000Y-110704380D01*
X60356761Y-110847238D01*
X60261523Y-110942476D01*
X60166285Y-110990095D01*
X61642476Y-110704380D02*
X61166285Y-110704380D01*
X61118666Y-111180571D01*
X61166285Y-111132952D01*
X61261523Y-111085333D01*
X61499619Y-111085333D01*
X61594857Y-111132952D01*
X61642476Y-111180571D01*
X61690095Y-111275809D01*
X61690095Y-111513904D01*
X61642476Y-111609142D01*
X61594857Y-111656761D01*
X61499619Y-111704380D01*
X61261523Y-111704380D01*
X61166285Y-111656761D01*
X61118666Y-111609142D01*
X59785333Y-109164380D02*
X59213904Y-109164380D01*
X59499619Y-109164380D02*
X59499619Y-108164380D01*
X59404380Y-108307238D01*
X59309142Y-108402476D01*
X59213904Y-108450095D01*
X60737714Y-109164380D02*
X60166285Y-109164380D01*
X60452000Y-109164380D02*
X60452000Y-108164380D01*
X60356761Y-108307238D01*
X60261523Y-108402476D01*
X60166285Y-108450095D01*
X61594857Y-108164380D02*
X61404380Y-108164380D01*
X61309142Y-108212000D01*
X61261523Y-108259619D01*
X61166285Y-108402476D01*
X61118666Y-108592952D01*
X61118666Y-108973904D01*
X61166285Y-109069142D01*
X61213904Y-109116761D01*
X61309142Y-109164380D01*
X61499619Y-109164380D01*
X61594857Y-109116761D01*
X61642476Y-109069142D01*
X61690095Y-108973904D01*
X61690095Y-108735809D01*
X61642476Y-108640571D01*
X61594857Y-108592952D01*
X61499619Y-108545333D01*
X61309142Y-108545333D01*
X61213904Y-108592952D01*
X61166285Y-108640571D01*
X61118666Y-108735809D01*
X59785333Y-106624380D02*
X59213904Y-106624380D01*
X59499619Y-106624380D02*
X59499619Y-105624380D01*
X59404380Y-105767238D01*
X59309142Y-105862476D01*
X59213904Y-105910095D01*
X60737714Y-106624380D02*
X60166285Y-106624380D01*
X60452000Y-106624380D02*
X60452000Y-105624380D01*
X60356761Y-105767238D01*
X60261523Y-105862476D01*
X60166285Y-105910095D01*
X61071047Y-105624380D02*
X61737714Y-105624380D01*
X61309142Y-106624380D01*
X59785333Y-104084380D02*
X59213904Y-104084380D01*
X59499619Y-104084380D02*
X59499619Y-103084380D01*
X59404380Y-103227238D01*
X59309142Y-103322476D01*
X59213904Y-103370095D01*
X60737714Y-104084380D02*
X60166285Y-104084380D01*
X60452000Y-104084380D02*
X60452000Y-103084380D01*
X60356761Y-103227238D01*
X60261523Y-103322476D01*
X60166285Y-103370095D01*
X61309142Y-103512952D02*
X61213904Y-103465333D01*
X61166285Y-103417714D01*
X61118666Y-103322476D01*
X61118666Y-103274857D01*
X61166285Y-103179619D01*
X61213904Y-103132000D01*
X61309142Y-103084380D01*
X61499619Y-103084380D01*
X61594857Y-103132000D01*
X61642476Y-103179619D01*
X61690095Y-103274857D01*
X61690095Y-103322476D01*
X61642476Y-103417714D01*
X61594857Y-103465333D01*
X61499619Y-103512952D01*
X61309142Y-103512952D01*
X61213904Y-103560571D01*
X61166285Y-103608190D01*
X61118666Y-103703428D01*
X61118666Y-103893904D01*
X61166285Y-103989142D01*
X61213904Y-104036761D01*
X61309142Y-104084380D01*
X61499619Y-104084380D01*
X61594857Y-104036761D01*
X61642476Y-103989142D01*
X61690095Y-103893904D01*
X61690095Y-103703428D01*
X61642476Y-103608190D01*
X61594857Y-103560571D01*
X61499619Y-103512952D01*
X59785333Y-101544380D02*
X59213904Y-101544380D01*
X59499619Y-101544380D02*
X59499619Y-100544380D01*
X59404380Y-100687238D01*
X59309142Y-100782476D01*
X59213904Y-100830095D01*
X60737714Y-101544380D02*
X60166285Y-101544380D01*
X60452000Y-101544380D02*
X60452000Y-100544380D01*
X60356761Y-100687238D01*
X60261523Y-100782476D01*
X60166285Y-100830095D01*
X61213904Y-101544380D02*
X61404380Y-101544380D01*
X61499619Y-101496761D01*
X61547238Y-101449142D01*
X61642476Y-101306285D01*
X61690095Y-101115809D01*
X61690095Y-100734857D01*
X61642476Y-100639619D01*
X61594857Y-100592000D01*
X61499619Y-100544380D01*
X61309142Y-100544380D01*
X61213904Y-100592000D01*
X61166285Y-100639619D01*
X61118666Y-100734857D01*
X61118666Y-100972952D01*
X61166285Y-101068190D01*
X61213904Y-101115809D01*
X61309142Y-101163428D01*
X61499619Y-101163428D01*
X61594857Y-101115809D01*
X61642476Y-101068190D01*
X61690095Y-100972952D01*
X59785333Y-99004380D02*
X59213904Y-99004380D01*
X59499619Y-99004380D02*
X59499619Y-98004380D01*
X59404380Y-98147238D01*
X59309142Y-98242476D01*
X59213904Y-98290095D01*
X60166285Y-98099619D02*
X60213904Y-98052000D01*
X60309142Y-98004380D01*
X60547238Y-98004380D01*
X60642476Y-98052000D01*
X60690095Y-98099619D01*
X60737714Y-98194857D01*
X60737714Y-98290095D01*
X60690095Y-98432952D01*
X60118666Y-99004380D01*
X60737714Y-99004380D01*
X61356761Y-98004380D02*
X61452000Y-98004380D01*
X61547238Y-98052000D01*
X61594857Y-98099619D01*
X61642476Y-98194857D01*
X61690095Y-98385333D01*
X61690095Y-98623428D01*
X61642476Y-98813904D01*
X61594857Y-98909142D01*
X61547238Y-98956761D01*
X61452000Y-99004380D01*
X61356761Y-99004380D01*
X61261523Y-98956761D01*
X61213904Y-98909142D01*
X61166285Y-98813904D01*
X61118666Y-98623428D01*
X61118666Y-98385333D01*
X61166285Y-98194857D01*
X61213904Y-98099619D01*
X61261523Y-98052000D01*
X61356761Y-98004380D01*
X59785333Y-96464380D02*
X59213904Y-96464380D01*
X59499619Y-96464380D02*
X59499619Y-95464380D01*
X59404380Y-95607238D01*
X59309142Y-95702476D01*
X59213904Y-95750095D01*
X60166285Y-95559619D02*
X60213904Y-95512000D01*
X60309142Y-95464380D01*
X60547238Y-95464380D01*
X60642476Y-95512000D01*
X60690095Y-95559619D01*
X60737714Y-95654857D01*
X60737714Y-95750095D01*
X60690095Y-95892952D01*
X60118666Y-96464380D01*
X60737714Y-96464380D01*
X61690095Y-96464380D02*
X61118666Y-96464380D01*
X61404380Y-96464380D02*
X61404380Y-95464380D01*
X61309142Y-95607238D01*
X61213904Y-95702476D01*
X61118666Y-95750095D01*
X59785333Y-93924380D02*
X59213904Y-93924380D01*
X59499619Y-93924380D02*
X59499619Y-92924380D01*
X59404380Y-93067238D01*
X59309142Y-93162476D01*
X59213904Y-93210095D01*
X60166285Y-93019619D02*
X60213904Y-92972000D01*
X60309142Y-92924380D01*
X60547238Y-92924380D01*
X60642476Y-92972000D01*
X60690095Y-93019619D01*
X60737714Y-93114857D01*
X60737714Y-93210095D01*
X60690095Y-93352952D01*
X60118666Y-93924380D01*
X60737714Y-93924380D01*
X61594857Y-93257714D02*
X61594857Y-93924380D01*
X61356761Y-92876761D02*
X61118666Y-93591047D01*
X61737714Y-93591047D01*
X59785333Y-91384380D02*
X59213904Y-91384380D01*
X59499619Y-91384380D02*
X59499619Y-90384380D01*
X59404380Y-90527238D01*
X59309142Y-90622476D01*
X59213904Y-90670095D01*
X60166285Y-90479619D02*
X60213904Y-90432000D01*
X60309142Y-90384380D01*
X60547238Y-90384380D01*
X60642476Y-90432000D01*
X60690095Y-90479619D01*
X60737714Y-90574857D01*
X60737714Y-90670095D01*
X60690095Y-90812952D01*
X60118666Y-91384380D01*
X60737714Y-91384380D01*
X61642476Y-90384380D02*
X61166285Y-90384380D01*
X61118666Y-90860571D01*
X61166285Y-90812952D01*
X61261523Y-90765333D01*
X61499619Y-90765333D01*
X61594857Y-90812952D01*
X61642476Y-90860571D01*
X61690095Y-90955809D01*
X61690095Y-91193904D01*
X61642476Y-91289142D01*
X61594857Y-91336761D01*
X61499619Y-91384380D01*
X61261523Y-91384380D01*
X61166285Y-91336761D01*
X61118666Y-91289142D01*
X59785333Y-88844380D02*
X59213904Y-88844380D01*
X59499619Y-88844380D02*
X59499619Y-87844380D01*
X59404380Y-87987238D01*
X59309142Y-88082476D01*
X59213904Y-88130095D01*
X60166285Y-87939619D02*
X60213904Y-87892000D01*
X60309142Y-87844380D01*
X60547238Y-87844380D01*
X60642476Y-87892000D01*
X60690095Y-87939619D01*
X60737714Y-88034857D01*
X60737714Y-88130095D01*
X60690095Y-88272952D01*
X60118666Y-88844380D01*
X60737714Y-88844380D01*
X61594857Y-87844380D02*
X61404380Y-87844380D01*
X61309142Y-87892000D01*
X61261523Y-87939619D01*
X61166285Y-88082476D01*
X61118666Y-88272952D01*
X61118666Y-88653904D01*
X61166285Y-88749142D01*
X61213904Y-88796761D01*
X61309142Y-88844380D01*
X61499619Y-88844380D01*
X61594857Y-88796761D01*
X61642476Y-88749142D01*
X61690095Y-88653904D01*
X61690095Y-88415809D01*
X61642476Y-88320571D01*
X61594857Y-88272952D01*
X61499619Y-88225333D01*
X61309142Y-88225333D01*
X61213904Y-88272952D01*
X61166285Y-88320571D01*
X61118666Y-88415809D01*
X59785333Y-86304380D02*
X59213904Y-86304380D01*
X59499619Y-86304380D02*
X59499619Y-85304380D01*
X59404380Y-85447238D01*
X59309142Y-85542476D01*
X59213904Y-85590095D01*
X60166285Y-85399619D02*
X60213904Y-85352000D01*
X60309142Y-85304380D01*
X60547238Y-85304380D01*
X60642476Y-85352000D01*
X60690095Y-85399619D01*
X60737714Y-85494857D01*
X60737714Y-85590095D01*
X60690095Y-85732952D01*
X60118666Y-86304380D01*
X60737714Y-86304380D01*
X61309142Y-85732952D02*
X61213904Y-85685333D01*
X61166285Y-85637714D01*
X61118666Y-85542476D01*
X61118666Y-85494857D01*
X61166285Y-85399619D01*
X61213904Y-85352000D01*
X61309142Y-85304380D01*
X61499619Y-85304380D01*
X61594857Y-85352000D01*
X61642476Y-85399619D01*
X61690095Y-85494857D01*
X61690095Y-85542476D01*
X61642476Y-85637714D01*
X61594857Y-85685333D01*
X61499619Y-85732952D01*
X61309142Y-85732952D01*
X61213904Y-85780571D01*
X61166285Y-85828190D01*
X61118666Y-85923428D01*
X61118666Y-86113904D01*
X61166285Y-86209142D01*
X61213904Y-86256761D01*
X61309142Y-86304380D01*
X61499619Y-86304380D01*
X61594857Y-86256761D01*
X61642476Y-86209142D01*
X61690095Y-86113904D01*
X61690095Y-85923428D01*
X61642476Y-85828190D01*
X61594857Y-85780571D01*
X61499619Y-85732952D01*
X59785333Y-83764380D02*
X59213904Y-83764380D01*
X59499619Y-83764380D02*
X59499619Y-82764380D01*
X59404380Y-82907238D01*
X59309142Y-83002476D01*
X59213904Y-83050095D01*
X60166285Y-82859619D02*
X60213904Y-82812000D01*
X60309142Y-82764380D01*
X60547238Y-82764380D01*
X60642476Y-82812000D01*
X60690095Y-82859619D01*
X60737714Y-82954857D01*
X60737714Y-83050095D01*
X60690095Y-83192952D01*
X60118666Y-83764380D01*
X60737714Y-83764380D01*
X61213904Y-83764380D02*
X61404380Y-83764380D01*
X61499619Y-83716761D01*
X61547238Y-83669142D01*
X61642476Y-83526285D01*
X61690095Y-83335809D01*
X61690095Y-82954857D01*
X61642476Y-82859619D01*
X61594857Y-82812000D01*
X61499619Y-82764380D01*
X61309142Y-82764380D01*
X61213904Y-82812000D01*
X61166285Y-82859619D01*
X61118666Y-82954857D01*
X61118666Y-83192952D01*
X61166285Y-83288190D01*
X61213904Y-83335809D01*
X61309142Y-83383428D01*
X61499619Y-83383428D01*
X61594857Y-83335809D01*
X61642476Y-83288190D01*
X61690095Y-83192952D01*
X59785333Y-81224380D02*
X59213904Y-81224380D01*
X59499619Y-81224380D02*
X59499619Y-80224380D01*
X59404380Y-80367238D01*
X59309142Y-80462476D01*
X59213904Y-80510095D01*
X60118666Y-80224380D02*
X60737714Y-80224380D01*
X60404380Y-80605333D01*
X60547238Y-80605333D01*
X60642476Y-80652952D01*
X60690095Y-80700571D01*
X60737714Y-80795809D01*
X60737714Y-81033904D01*
X60690095Y-81129142D01*
X60642476Y-81176761D01*
X60547238Y-81224380D01*
X60261523Y-81224380D01*
X60166285Y-81176761D01*
X60118666Y-81129142D01*
X61356761Y-80224380D02*
X61452000Y-80224380D01*
X61547238Y-80272000D01*
X61594857Y-80319619D01*
X61642476Y-80414857D01*
X61690095Y-80605333D01*
X61690095Y-80843428D01*
X61642476Y-81033904D01*
X61594857Y-81129142D01*
X61547238Y-81176761D01*
X61452000Y-81224380D01*
X61356761Y-81224380D01*
X61261523Y-81176761D01*
X61213904Y-81129142D01*
X61166285Y-81033904D01*
X61118666Y-80843428D01*
X61118666Y-80605333D01*
X61166285Y-80414857D01*
X61213904Y-80319619D01*
X61261523Y-80272000D01*
X61356761Y-80224380D01*
X59785333Y-78684380D02*
X59213904Y-78684380D01*
X59499619Y-78684380D02*
X59499619Y-77684380D01*
X59404380Y-77827238D01*
X59309142Y-77922476D01*
X59213904Y-77970095D01*
X60118666Y-77684380D02*
X60737714Y-77684380D01*
X60404380Y-78065333D01*
X60547238Y-78065333D01*
X60642476Y-78112952D01*
X60690095Y-78160571D01*
X60737714Y-78255809D01*
X60737714Y-78493904D01*
X60690095Y-78589142D01*
X60642476Y-78636761D01*
X60547238Y-78684380D01*
X60261523Y-78684380D01*
X60166285Y-78636761D01*
X60118666Y-78589142D01*
X61690095Y-78684380D02*
X61118666Y-78684380D01*
X61404380Y-78684380D02*
X61404380Y-77684380D01*
X61309142Y-77827238D01*
X61213904Y-77922476D01*
X61118666Y-77970095D01*
X59785333Y-76144380D02*
X59213904Y-76144380D01*
X59499619Y-76144380D02*
X59499619Y-75144380D01*
X59404380Y-75287238D01*
X59309142Y-75382476D01*
X59213904Y-75430095D01*
X60118666Y-75144380D02*
X60737714Y-75144380D01*
X60404380Y-75525333D01*
X60547238Y-75525333D01*
X60642476Y-75572952D01*
X60690095Y-75620571D01*
X60737714Y-75715809D01*
X60737714Y-75953904D01*
X60690095Y-76049142D01*
X60642476Y-76096761D01*
X60547238Y-76144380D01*
X60261523Y-76144380D01*
X60166285Y-76096761D01*
X60118666Y-76049142D01*
X61118666Y-75239619D02*
X61166285Y-75192000D01*
X61261523Y-75144380D01*
X61499619Y-75144380D01*
X61594857Y-75192000D01*
X61642476Y-75239619D01*
X61690095Y-75334857D01*
X61690095Y-75430095D01*
X61642476Y-75572952D01*
X61071047Y-76144380D01*
X61690095Y-76144380D01*
X59785333Y-73604380D02*
X59213904Y-73604380D01*
X59499619Y-73604380D02*
X59499619Y-72604380D01*
X59404380Y-72747238D01*
X59309142Y-72842476D01*
X59213904Y-72890095D01*
X60118666Y-72604380D02*
X60737714Y-72604380D01*
X60404380Y-72985333D01*
X60547238Y-72985333D01*
X60642476Y-73032952D01*
X60690095Y-73080571D01*
X60737714Y-73175809D01*
X60737714Y-73413904D01*
X60690095Y-73509142D01*
X60642476Y-73556761D01*
X60547238Y-73604380D01*
X60261523Y-73604380D01*
X60166285Y-73556761D01*
X60118666Y-73509142D01*
X61071047Y-72604380D02*
X61690095Y-72604380D01*
X61356761Y-72985333D01*
X61499619Y-72985333D01*
X61594857Y-73032952D01*
X61642476Y-73080571D01*
X61690095Y-73175809D01*
X61690095Y-73413904D01*
X61642476Y-73509142D01*
X61594857Y-73556761D01*
X61499619Y-73604380D01*
X61213904Y-73604380D01*
X61118666Y-73556761D01*
X61071047Y-73509142D01*
X59785333Y-71064380D02*
X59213904Y-71064380D01*
X59499619Y-71064380D02*
X59499619Y-70064380D01*
X59404380Y-70207238D01*
X59309142Y-70302476D01*
X59213904Y-70350095D01*
X60118666Y-70064380D02*
X60737714Y-70064380D01*
X60404380Y-70445333D01*
X60547238Y-70445333D01*
X60642476Y-70492952D01*
X60690095Y-70540571D01*
X60737714Y-70635809D01*
X60737714Y-70873904D01*
X60690095Y-70969142D01*
X60642476Y-71016761D01*
X60547238Y-71064380D01*
X60261523Y-71064380D01*
X60166285Y-71016761D01*
X60118666Y-70969142D01*
X61594857Y-70397714D02*
X61594857Y-71064380D01*
X61356761Y-70016761D02*
X61118666Y-70731047D01*
X61737714Y-70731047D01*
X59785333Y-68524380D02*
X59213904Y-68524380D01*
X59499619Y-68524380D02*
X59499619Y-67524380D01*
X59404380Y-67667238D01*
X59309142Y-67762476D01*
X59213904Y-67810095D01*
X60118666Y-67524380D02*
X60737714Y-67524380D01*
X60404380Y-67905333D01*
X60547238Y-67905333D01*
X60642476Y-67952952D01*
X60690095Y-68000571D01*
X60737714Y-68095809D01*
X60737714Y-68333904D01*
X60690095Y-68429142D01*
X60642476Y-68476761D01*
X60547238Y-68524380D01*
X60261523Y-68524380D01*
X60166285Y-68476761D01*
X60118666Y-68429142D01*
X61594857Y-67524380D02*
X61404380Y-67524380D01*
X61309142Y-67572000D01*
X61261523Y-67619619D01*
X61166285Y-67762476D01*
X61118666Y-67952952D01*
X61118666Y-68333904D01*
X61166285Y-68429142D01*
X61213904Y-68476761D01*
X61309142Y-68524380D01*
X61499619Y-68524380D01*
X61594857Y-68476761D01*
X61642476Y-68429142D01*
X61690095Y-68333904D01*
X61690095Y-68095809D01*
X61642476Y-68000571D01*
X61594857Y-67952952D01*
X61499619Y-67905333D01*
X61309142Y-67905333D01*
X61213904Y-67952952D01*
X61166285Y-68000571D01*
X61118666Y-68095809D01*
X59785333Y-65984380D02*
X59213904Y-65984380D01*
X59499619Y-65984380D02*
X59499619Y-64984380D01*
X59404380Y-65127238D01*
X59309142Y-65222476D01*
X59213904Y-65270095D01*
X60118666Y-64984380D02*
X60737714Y-64984380D01*
X60404380Y-65365333D01*
X60547238Y-65365333D01*
X60642476Y-65412952D01*
X60690095Y-65460571D01*
X60737714Y-65555809D01*
X60737714Y-65793904D01*
X60690095Y-65889142D01*
X60642476Y-65936761D01*
X60547238Y-65984380D01*
X60261523Y-65984380D01*
X60166285Y-65936761D01*
X60118666Y-65889142D01*
X61309142Y-65412952D02*
X61213904Y-65365333D01*
X61166285Y-65317714D01*
X61118666Y-65222476D01*
X61118666Y-65174857D01*
X61166285Y-65079619D01*
X61213904Y-65032000D01*
X61309142Y-64984380D01*
X61499619Y-64984380D01*
X61594857Y-65032000D01*
X61642476Y-65079619D01*
X61690095Y-65174857D01*
X61690095Y-65222476D01*
X61642476Y-65317714D01*
X61594857Y-65365333D01*
X61499619Y-65412952D01*
X61309142Y-65412952D01*
X61213904Y-65460571D01*
X61166285Y-65508190D01*
X61118666Y-65603428D01*
X61118666Y-65793904D01*
X61166285Y-65889142D01*
X61213904Y-65936761D01*
X61309142Y-65984380D01*
X61499619Y-65984380D01*
X61594857Y-65936761D01*
X61642476Y-65889142D01*
X61690095Y-65793904D01*
X61690095Y-65603428D01*
X61642476Y-65508190D01*
X61594857Y-65460571D01*
X61499619Y-65412952D01*
X59785333Y-63444380D02*
X59213904Y-63444380D01*
X59499619Y-63444380D02*
X59499619Y-62444380D01*
X59404380Y-62587238D01*
X59309142Y-62682476D01*
X59213904Y-62730095D01*
X60642476Y-62777714D02*
X60642476Y-63444380D01*
X60404380Y-62396761D02*
X60166285Y-63111047D01*
X60785333Y-63111047D01*
X61356761Y-62444380D02*
X61452000Y-62444380D01*
X61547238Y-62492000D01*
X61594857Y-62539619D01*
X61642476Y-62634857D01*
X61690095Y-62825333D01*
X61690095Y-63063428D01*
X61642476Y-63253904D01*
X61594857Y-63349142D01*
X61547238Y-63396761D01*
X61452000Y-63444380D01*
X61356761Y-63444380D01*
X61261523Y-63396761D01*
X61213904Y-63349142D01*
X61166285Y-63253904D01*
X61118666Y-63063428D01*
X61118666Y-62825333D01*
X61166285Y-62634857D01*
X61213904Y-62539619D01*
X61261523Y-62492000D01*
X61356761Y-62444380D01*
X59785333Y-60904380D02*
X59213904Y-60904380D01*
X59499619Y-60904380D02*
X59499619Y-59904380D01*
X59404380Y-60047238D01*
X59309142Y-60142476D01*
X59213904Y-60190095D01*
X60642476Y-60237714D02*
X60642476Y-60904380D01*
X60404380Y-59856761D02*
X60166285Y-60571047D01*
X60785333Y-60571047D01*
X61071047Y-59904380D02*
X61690095Y-59904380D01*
X61356761Y-60285333D01*
X61499619Y-60285333D01*
X61594857Y-60332952D01*
X61642476Y-60380571D01*
X61690095Y-60475809D01*
X61690095Y-60713904D01*
X61642476Y-60809142D01*
X61594857Y-60856761D01*
X61499619Y-60904380D01*
X61213904Y-60904380D01*
X61118666Y-60856761D01*
X61071047Y-60809142D01*
X67649428Y-80942571D02*
X68435142Y-79942571D01*
X67649428Y-79942571D02*
X68435142Y-80942571D01*
X69649428Y-80871142D02*
X69506571Y-80942571D01*
X69220857Y-80942571D01*
X69078000Y-80871142D01*
X69006571Y-80799714D01*
X68935142Y-80656857D01*
X68935142Y-80228285D01*
X69006571Y-80085428D01*
X69078000Y-80014000D01*
X69220857Y-79942571D01*
X69506571Y-79942571D01*
X69649428Y-80014000D01*
X70220857Y-79585428D02*
X70292285Y-79514000D01*
X70435142Y-79442571D01*
X70792285Y-79442571D01*
X70935142Y-79514000D01*
X71006571Y-79585428D01*
X71078000Y-79728285D01*
X71078000Y-79871142D01*
X71006571Y-80085428D01*
X70149428Y-80942571D01*
X71078000Y-80942571D01*
X72363714Y-80871142D02*
X72220857Y-80942571D01*
X71935142Y-80942571D01*
X71792285Y-80871142D01*
X71720857Y-80799714D01*
X71649428Y-80656857D01*
X71649428Y-80228285D01*
X71720857Y-80085428D01*
X71792285Y-80014000D01*
X71935142Y-79942571D01*
X72220857Y-79942571D01*
X72363714Y-80014000D01*
X73792285Y-80942571D02*
X72935142Y-80942571D01*
X73363714Y-80942571D02*
X73363714Y-79442571D01*
X73220857Y-79656857D01*
X73078000Y-79799714D01*
X72935142Y-79871142D01*
X74363714Y-79585428D02*
X74435142Y-79514000D01*
X74578000Y-79442571D01*
X74935142Y-79442571D01*
X75078000Y-79514000D01*
X75149428Y-79585428D01*
X75220857Y-79728285D01*
X75220857Y-79871142D01*
X75149428Y-80085428D01*
X74292285Y-80942571D01*
X75220857Y-80942571D01*
X76078000Y-80085428D02*
X75935142Y-80014000D01*
X75863714Y-79942571D01*
X75792285Y-79799714D01*
X75792285Y-79728285D01*
X75863714Y-79585428D01*
X75935142Y-79514000D01*
X76078000Y-79442571D01*
X76363714Y-79442571D01*
X76506571Y-79514000D01*
X76578000Y-79585428D01*
X76649428Y-79728285D01*
X76649428Y-79799714D01*
X76578000Y-79942571D01*
X76506571Y-80014000D01*
X76363714Y-80085428D01*
X76078000Y-80085428D01*
X75935142Y-80156857D01*
X75863714Y-80228285D01*
X75792285Y-80371142D01*
X75792285Y-80656857D01*
X75863714Y-80799714D01*
X75935142Y-80871142D01*
X76078000Y-80942571D01*
X76363714Y-80942571D01*
X76506571Y-80871142D01*
X76578000Y-80799714D01*
X76649428Y-80656857D01*
X76649428Y-80371142D01*
X76578000Y-80228285D01*
X76506571Y-80156857D01*
X76363714Y-80085428D01*
X79078000Y-80871142D02*
X78935142Y-80942571D01*
X78649428Y-80942571D01*
X78506571Y-80871142D01*
X78435142Y-80799714D01*
X78363714Y-80656857D01*
X78363714Y-80228285D01*
X78435142Y-80085428D01*
X78506571Y-80014000D01*
X78649428Y-79942571D01*
X78935142Y-79942571D01*
X79078000Y-80014000D01*
X79720857Y-79942571D02*
X79720857Y-81442571D01*
X79720857Y-80014000D02*
X79863714Y-79942571D01*
X80149428Y-79942571D01*
X80292285Y-80014000D01*
X80363714Y-80085428D01*
X80435142Y-80228285D01*
X80435142Y-80656857D01*
X80363714Y-80799714D01*
X80292285Y-80871142D01*
X80149428Y-80942571D01*
X79863714Y-80942571D01*
X79720857Y-80871142D01*
X81292285Y-80942571D02*
X81149428Y-80871142D01*
X81077999Y-80728285D01*
X81077999Y-79442571D01*
X82506571Y-80942571D02*
X82506571Y-79442571D01*
X82506571Y-80871142D02*
X82363714Y-80942571D01*
X82077999Y-80942571D01*
X81935142Y-80871142D01*
X81863714Y-80799714D01*
X81792285Y-80656857D01*
X81792285Y-80228285D01*
X81863714Y-80085428D01*
X81935142Y-80014000D01*
X82077999Y-79942571D01*
X82363714Y-79942571D01*
X82506571Y-80014000D01*
X84363714Y-80942571D02*
X84363714Y-79442571D01*
X84363714Y-80014000D02*
X84506571Y-79942571D01*
X84792285Y-79942571D01*
X84935142Y-80014000D01*
X85006571Y-80085428D01*
X85077999Y-80228285D01*
X85077999Y-80656857D01*
X85006571Y-80799714D01*
X84935142Y-80871142D01*
X84792285Y-80942571D01*
X84506571Y-80942571D01*
X84363714Y-80871142D01*
X85720857Y-80942571D02*
X85720857Y-79942571D01*
X85720857Y-80228285D02*
X85792285Y-80085428D01*
X85863714Y-80014000D01*
X86006571Y-79942571D01*
X86149428Y-79942571D01*
X87220857Y-80871142D02*
X87078000Y-80942571D01*
X86792285Y-80942571D01*
X86649428Y-80871142D01*
X86578000Y-80728285D01*
X86578000Y-80156857D01*
X86649428Y-80014000D01*
X86792285Y-79942571D01*
X87078000Y-79942571D01*
X87220857Y-80014000D01*
X87292285Y-80156857D01*
X87292285Y-80299714D01*
X86578000Y-80442571D01*
X88578000Y-80942571D02*
X88578000Y-80156857D01*
X88506571Y-80014000D01*
X88363714Y-79942571D01*
X88078000Y-79942571D01*
X87935142Y-80014000D01*
X88578000Y-80871142D02*
X88435142Y-80942571D01*
X88078000Y-80942571D01*
X87935142Y-80871142D01*
X87863714Y-80728285D01*
X87863714Y-80585428D01*
X87935142Y-80442571D01*
X88078000Y-80371142D01*
X88435142Y-80371142D01*
X88578000Y-80299714D01*
X89292285Y-80942571D02*
X89292285Y-79442571D01*
X89435142Y-80371142D02*
X89863714Y-80942571D01*
X89863714Y-79942571D02*
X89292285Y-80514000D01*
X90720857Y-80942571D02*
X90578000Y-80871142D01*
X90506571Y-80799714D01*
X90435142Y-80656857D01*
X90435142Y-80228285D01*
X90506571Y-80085428D01*
X90578000Y-80014000D01*
X90720857Y-79942571D01*
X90935142Y-79942571D01*
X91078000Y-80014000D01*
X91149428Y-80085428D01*
X91220857Y-80228285D01*
X91220857Y-80656857D01*
X91149428Y-80799714D01*
X91078000Y-80871142D01*
X90935142Y-80942571D01*
X90720857Y-80942571D01*
X92506571Y-79942571D02*
X92506571Y-80942571D01*
X91863714Y-79942571D02*
X91863714Y-80728285D01*
X91935142Y-80871142D01*
X92078000Y-80942571D01*
X92292285Y-80942571D01*
X92435142Y-80871142D01*
X92506571Y-80799714D01*
X93006571Y-79942571D02*
X93578000Y-79942571D01*
X93220857Y-79442571D02*
X93220857Y-80728285D01*
X93292285Y-80871142D01*
X93435142Y-80942571D01*
X93578000Y-80942571D01*
X95220857Y-80942571D02*
X95220857Y-79442571D01*
X95220857Y-80014000D02*
X95363714Y-79942571D01*
X95649428Y-79942571D01*
X95792285Y-80014000D01*
X95863714Y-80085428D01*
X95935142Y-80228285D01*
X95935142Y-80656857D01*
X95863714Y-80799714D01*
X95792285Y-80871142D01*
X95649428Y-80942571D01*
X95363714Y-80942571D01*
X95220857Y-80871142D01*
X96792285Y-80942571D02*
X96649428Y-80871142D01*
X96578000Y-80799714D01*
X96506571Y-80656857D01*
X96506571Y-80228285D01*
X96578000Y-80085428D01*
X96649428Y-80014000D01*
X96792285Y-79942571D01*
X97006571Y-79942571D01*
X97149428Y-80014000D01*
X97220857Y-80085428D01*
X97292285Y-80228285D01*
X97292285Y-80656857D01*
X97220857Y-80799714D01*
X97149428Y-80871142D01*
X97006571Y-80942571D01*
X96792285Y-80942571D01*
X98578000Y-80942571D02*
X98578000Y-80156857D01*
X98506571Y-80014000D01*
X98363714Y-79942571D01*
X98078000Y-79942571D01*
X97935142Y-80014000D01*
X98578000Y-80871142D02*
X98435142Y-80942571D01*
X98078000Y-80942571D01*
X97935142Y-80871142D01*
X97863714Y-80728285D01*
X97863714Y-80585428D01*
X97935142Y-80442571D01*
X98078000Y-80371142D01*
X98435142Y-80371142D01*
X98578000Y-80299714D01*
X99292285Y-80942571D02*
X99292285Y-79942571D01*
X99292285Y-80228285D02*
X99363714Y-80085428D01*
X99435142Y-80014000D01*
X99578000Y-79942571D01*
X99720857Y-79942571D01*
X100863714Y-80942571D02*
X100863714Y-79442571D01*
X100863714Y-80871142D02*
X100720857Y-80942571D01*
X100435142Y-80942571D01*
X100292285Y-80871142D01*
X100220857Y-80799714D01*
X100149428Y-80656857D01*
X100149428Y-80228285D01*
X100220857Y-80085428D01*
X100292285Y-80014000D01*
X100435142Y-79942571D01*
X100720857Y-79942571D01*
X100863714Y-80014000D01*
X83097714Y-163313904D02*
X83097714Y-162932952D01*
X82764380Y-163171047D02*
X83621523Y-163171047D01*
X83716761Y-163123428D01*
X83764380Y-163028190D01*
X83764380Y-162932952D01*
X83764380Y-162599619D02*
X83097714Y-162599619D01*
X83192952Y-162599619D02*
X83145333Y-162552000D01*
X83097714Y-162456761D01*
X83097714Y-162313904D01*
X83145333Y-162218666D01*
X83240571Y-162171047D01*
X83764380Y-162171047D01*
X83240571Y-162171047D02*
X83145333Y-162123428D01*
X83097714Y-162028190D01*
X83097714Y-161885333D01*
X83145333Y-161790095D01*
X83240571Y-161742476D01*
X83764380Y-161742476D01*
X83716761Y-161313904D02*
X83764380Y-161218666D01*
X83764380Y-161028190D01*
X83716761Y-160932952D01*
X83621523Y-160885333D01*
X83573904Y-160885333D01*
X83478666Y-160932952D01*
X83431047Y-161028190D01*
X83431047Y-161171047D01*
X83383428Y-161266285D01*
X83288190Y-161313904D01*
X83240571Y-161313904D01*
X83145333Y-161266285D01*
X83097714Y-161171047D01*
X83097714Y-161028190D01*
X83145333Y-160932952D01*
X86145714Y-162932952D02*
X86145714Y-162552000D01*
X85812380Y-162790095D02*
X86669523Y-162790095D01*
X86764761Y-162742476D01*
X86812380Y-162647238D01*
X86812380Y-162552000D01*
X86812380Y-161790095D02*
X85812380Y-161790095D01*
X86764761Y-161790095D02*
X86812380Y-161885333D01*
X86812380Y-162075809D01*
X86764761Y-162171047D01*
X86717142Y-162218666D01*
X86621904Y-162266285D01*
X86336190Y-162266285D01*
X86240952Y-162218666D01*
X86193333Y-162171047D01*
X86145714Y-162075809D01*
X86145714Y-161885333D01*
X86193333Y-161790095D01*
X86812380Y-161313904D02*
X86145714Y-161313904D01*
X85812380Y-161313904D02*
X85860000Y-161361523D01*
X85907619Y-161313904D01*
X85860000Y-161266285D01*
X85812380Y-161313904D01*
X85907619Y-161313904D01*
X88685714Y-163147238D02*
X88685714Y-162766285D01*
X88352380Y-163004380D02*
X89209523Y-163004380D01*
X89304761Y-162956761D01*
X89352380Y-162861523D01*
X89352380Y-162766285D01*
X89352380Y-162004380D02*
X88352380Y-162004380D01*
X89304761Y-162004380D02*
X89352380Y-162099619D01*
X89352380Y-162290095D01*
X89304761Y-162385333D01*
X89257142Y-162432952D01*
X89161904Y-162480571D01*
X88876190Y-162480571D01*
X88780952Y-162432952D01*
X88733333Y-162385333D01*
X88685714Y-162290095D01*
X88685714Y-162099619D01*
X88733333Y-162004380D01*
X89352380Y-161385333D02*
X89304761Y-161480571D01*
X89257142Y-161528190D01*
X89161904Y-161575809D01*
X88876190Y-161575809D01*
X88780952Y-161528190D01*
X88733333Y-161480571D01*
X88685714Y-161385333D01*
X88685714Y-161242476D01*
X88733333Y-161147238D01*
X88780952Y-161099619D01*
X88876190Y-161052000D01*
X89161904Y-161052000D01*
X89257142Y-161099619D01*
X89304761Y-161147238D01*
X89352380Y-161242476D01*
X89352380Y-161385333D01*
X91225714Y-163075809D02*
X91225714Y-162694857D01*
X90892380Y-162932952D02*
X91749523Y-162932952D01*
X91844761Y-162885333D01*
X91892380Y-162790095D01*
X91892380Y-162694857D01*
X91844761Y-161932952D02*
X91892380Y-162028190D01*
X91892380Y-162218666D01*
X91844761Y-162313904D01*
X91797142Y-162361523D01*
X91701904Y-162409142D01*
X91416190Y-162409142D01*
X91320952Y-162361523D01*
X91273333Y-162313904D01*
X91225714Y-162218666D01*
X91225714Y-162028190D01*
X91273333Y-161932952D01*
X91892380Y-161504380D02*
X90892380Y-161504380D01*
X91511428Y-161409142D02*
X91892380Y-161123428D01*
X91225714Y-161123428D02*
X91606666Y-161504380D01*
X93765714Y-162742476D02*
X94575238Y-162742476D01*
X94670476Y-162790095D01*
X94718095Y-162837714D01*
X94765714Y-162932952D01*
X94765714Y-163075809D01*
X94718095Y-163171047D01*
X94384761Y-162742476D02*
X94432380Y-162837714D01*
X94432380Y-163028190D01*
X94384761Y-163123428D01*
X94337142Y-163171047D01*
X94241904Y-163218666D01*
X93956190Y-163218666D01*
X93860952Y-163171047D01*
X93813333Y-163123428D01*
X93765714Y-163028190D01*
X93765714Y-162837714D01*
X93813333Y-162742476D01*
X93765714Y-162266285D02*
X94432380Y-162266285D01*
X93860952Y-162266285D02*
X93813333Y-162218666D01*
X93765714Y-162123428D01*
X93765714Y-161980571D01*
X93813333Y-161885333D01*
X93908571Y-161837714D01*
X94432380Y-161837714D01*
X94432380Y-160932952D02*
X93432380Y-160932952D01*
X94384761Y-160932952D02*
X94432380Y-161028190D01*
X94432380Y-161218666D01*
X94384761Y-161313904D01*
X94337142Y-161361523D01*
X94241904Y-161409142D01*
X93956190Y-161409142D01*
X93860952Y-161361523D01*
X93813333Y-161313904D01*
X93765714Y-161218666D01*
X93765714Y-161028190D01*
X93813333Y-160932952D01*
X96305714Y-163313904D02*
X96972380Y-163075809D01*
X96305714Y-162837714D01*
X96972380Y-162456761D02*
X96305714Y-162456761D01*
X96496190Y-162456761D02*
X96400952Y-162409142D01*
X96353333Y-162361523D01*
X96305714Y-162266285D01*
X96305714Y-162171047D01*
X96924761Y-161456761D02*
X96972380Y-161552000D01*
X96972380Y-161742476D01*
X96924761Y-161837714D01*
X96829523Y-161885333D01*
X96448571Y-161885333D01*
X96353333Y-161837714D01*
X96305714Y-161742476D01*
X96305714Y-161552000D01*
X96353333Y-161456761D01*
X96448571Y-161409142D01*
X96543809Y-161409142D01*
X96639047Y-161885333D01*
X96305714Y-161123428D02*
X96305714Y-160742476D01*
X96972380Y-160980571D02*
X96115238Y-160980571D01*
X96020000Y-160932952D01*
X95972380Y-160837714D01*
X95972380Y-160742476D01*
%TO.C,C7*%
X69913142Y-112942666D02*
X69960761Y-112990285D01*
X70008380Y-113133142D01*
X70008380Y-113228380D01*
X69960761Y-113371238D01*
X69865523Y-113466476D01*
X69770285Y-113514095D01*
X69579809Y-113561714D01*
X69436952Y-113561714D01*
X69246476Y-113514095D01*
X69151238Y-113466476D01*
X69056000Y-113371238D01*
X69008380Y-113228380D01*
X69008380Y-113133142D01*
X69056000Y-112990285D01*
X69103619Y-112942666D01*
X69008380Y-112609333D02*
X69008380Y-111942666D01*
X70008380Y-112371238D01*
%TO.C,C8*%
X74001333Y-114109142D02*
X73953714Y-114156761D01*
X73810857Y-114204380D01*
X73715619Y-114204380D01*
X73572761Y-114156761D01*
X73477523Y-114061523D01*
X73429904Y-113966285D01*
X73382285Y-113775809D01*
X73382285Y-113632952D01*
X73429904Y-113442476D01*
X73477523Y-113347238D01*
X73572761Y-113252000D01*
X73715619Y-113204380D01*
X73810857Y-113204380D01*
X73953714Y-113252000D01*
X74001333Y-113299619D01*
X74572761Y-113632952D02*
X74477523Y-113585333D01*
X74429904Y-113537714D01*
X74382285Y-113442476D01*
X74382285Y-113394857D01*
X74429904Y-113299619D01*
X74477523Y-113252000D01*
X74572761Y-113204380D01*
X74763238Y-113204380D01*
X74858476Y-113252000D01*
X74906095Y-113299619D01*
X74953714Y-113394857D01*
X74953714Y-113442476D01*
X74906095Y-113537714D01*
X74858476Y-113585333D01*
X74763238Y-113632952D01*
X74572761Y-113632952D01*
X74477523Y-113680571D01*
X74429904Y-113728190D01*
X74382285Y-113823428D01*
X74382285Y-114013904D01*
X74429904Y-114109142D01*
X74477523Y-114156761D01*
X74572761Y-114204380D01*
X74763238Y-114204380D01*
X74858476Y-114156761D01*
X74906095Y-114109142D01*
X74953714Y-114013904D01*
X74953714Y-113823428D01*
X74906095Y-113728190D01*
X74858476Y-113680571D01*
X74763238Y-113632952D01*
%TO.C,C11*%
X101973142Y-153225142D02*
X101925523Y-153272761D01*
X101782666Y-153320380D01*
X101687428Y-153320380D01*
X101544571Y-153272761D01*
X101449333Y-153177523D01*
X101401714Y-153082285D01*
X101354095Y-152891809D01*
X101354095Y-152748952D01*
X101401714Y-152558476D01*
X101449333Y-152463238D01*
X101544571Y-152368000D01*
X101687428Y-152320380D01*
X101782666Y-152320380D01*
X101925523Y-152368000D01*
X101973142Y-152415619D01*
X102925523Y-153320380D02*
X102354095Y-153320380D01*
X102639809Y-153320380D02*
X102639809Y-152320380D01*
X102544571Y-152463238D01*
X102449333Y-152558476D01*
X102354095Y-152606095D01*
X103877904Y-153320380D02*
X103306476Y-153320380D01*
X103592190Y-153320380D02*
X103592190Y-152320380D01*
X103496952Y-152463238D01*
X103401714Y-152558476D01*
X103306476Y-152606095D01*
%TO.C,C4*%
X70421142Y-132754666D02*
X70468761Y-132802285D01*
X70516380Y-132945142D01*
X70516380Y-133040380D01*
X70468761Y-133183238D01*
X70373523Y-133278476D01*
X70278285Y-133326095D01*
X70087809Y-133373714D01*
X69944952Y-133373714D01*
X69754476Y-133326095D01*
X69659238Y-133278476D01*
X69564000Y-133183238D01*
X69516380Y-133040380D01*
X69516380Y-132945142D01*
X69564000Y-132802285D01*
X69611619Y-132754666D01*
X69849714Y-131897523D02*
X70516380Y-131897523D01*
X69468761Y-132135619D02*
X70183047Y-132373714D01*
X70183047Y-131754666D01*
%TO.C,C5*%
X102933142Y-127166666D02*
X102980761Y-127214285D01*
X103028380Y-127357142D01*
X103028380Y-127452380D01*
X102980761Y-127595238D01*
X102885523Y-127690476D01*
X102790285Y-127738095D01*
X102599809Y-127785714D01*
X102456952Y-127785714D01*
X102266476Y-127738095D01*
X102171238Y-127690476D01*
X102076000Y-127595238D01*
X102028380Y-127452380D01*
X102028380Y-127357142D01*
X102076000Y-127214285D01*
X102123619Y-127166666D01*
X102028380Y-126261904D02*
X102028380Y-126738095D01*
X102504571Y-126785714D01*
X102456952Y-126738095D01*
X102409333Y-126642857D01*
X102409333Y-126404761D01*
X102456952Y-126309523D01*
X102504571Y-126261904D01*
X102599809Y-126214285D01*
X102837904Y-126214285D01*
X102933142Y-126261904D01*
X102980761Y-126309523D01*
X103028380Y-126404761D01*
X103028380Y-126642857D01*
X102980761Y-126738095D01*
X102933142Y-126785714D01*
%TO.C,C2*%
X82105142Y-148502666D02*
X82152761Y-148550285D01*
X82200380Y-148693142D01*
X82200380Y-148788380D01*
X82152761Y-148931238D01*
X82057523Y-149026476D01*
X81962285Y-149074095D01*
X81771809Y-149121714D01*
X81628952Y-149121714D01*
X81438476Y-149074095D01*
X81343238Y-149026476D01*
X81248000Y-148931238D01*
X81200380Y-148788380D01*
X81200380Y-148693142D01*
X81248000Y-148550285D01*
X81295619Y-148502666D01*
X81295619Y-148121714D02*
X81248000Y-148074095D01*
X81200380Y-147978857D01*
X81200380Y-147740761D01*
X81248000Y-147645523D01*
X81295619Y-147597904D01*
X81390857Y-147550285D01*
X81486095Y-147550285D01*
X81628952Y-147597904D01*
X82200380Y-148169333D01*
X82200380Y-147550285D01*
%TO.C,U2*%
X82550095Y-113340380D02*
X82550095Y-114149904D01*
X82597714Y-114245142D01*
X82645333Y-114292761D01*
X82740571Y-114340380D01*
X82931047Y-114340380D01*
X83026285Y-114292761D01*
X83073904Y-114245142D01*
X83121523Y-114149904D01*
X83121523Y-113340380D01*
X83550095Y-113435619D02*
X83597714Y-113388000D01*
X83692952Y-113340380D01*
X83931047Y-113340380D01*
X84026285Y-113388000D01*
X84073904Y-113435619D01*
X84121523Y-113530857D01*
X84121523Y-113626095D01*
X84073904Y-113768952D01*
X83502476Y-114340380D01*
X84121523Y-114340380D01*
X75907238Y-138040380D02*
X76573904Y-139040380D01*
X76573904Y-138040380D02*
X75907238Y-139040380D01*
X77526285Y-138945142D02*
X77478666Y-138992761D01*
X77335809Y-139040380D01*
X77240571Y-139040380D01*
X77097714Y-138992761D01*
X77002476Y-138897523D01*
X76954857Y-138802285D01*
X76907238Y-138611809D01*
X76907238Y-138468952D01*
X76954857Y-138278476D01*
X77002476Y-138183238D01*
X77097714Y-138088000D01*
X77240571Y-138040380D01*
X77335809Y-138040380D01*
X77478666Y-138088000D01*
X77526285Y-138135619D01*
X77907238Y-138135619D02*
X77954857Y-138088000D01*
X78050095Y-138040380D01*
X78288190Y-138040380D01*
X78383428Y-138088000D01*
X78431047Y-138135619D01*
X78478666Y-138230857D01*
X78478666Y-138326095D01*
X78431047Y-138468952D01*
X77859619Y-139040380D01*
X78478666Y-139040380D01*
X79478666Y-138945142D02*
X79431047Y-138992761D01*
X79288190Y-139040380D01*
X79192952Y-139040380D01*
X79050095Y-138992761D01*
X78954857Y-138897523D01*
X78907238Y-138802285D01*
X78859619Y-138611809D01*
X78859619Y-138468952D01*
X78907238Y-138278476D01*
X78954857Y-138183238D01*
X79050095Y-138088000D01*
X79192952Y-138040380D01*
X79288190Y-138040380D01*
X79431047Y-138088000D01*
X79478666Y-138135619D01*
X80431047Y-139040380D02*
X79859619Y-139040380D01*
X80145333Y-139040380D02*
X80145333Y-138040380D01*
X80050095Y-138183238D01*
X79954857Y-138278476D01*
X79859619Y-138326095D01*
X80812000Y-138135619D02*
X80859619Y-138088000D01*
X80954857Y-138040380D01*
X81192952Y-138040380D01*
X81288190Y-138088000D01*
X81335809Y-138135619D01*
X81383428Y-138230857D01*
X81383428Y-138326095D01*
X81335809Y-138468952D01*
X80764380Y-139040380D01*
X81383428Y-139040380D01*
X81954857Y-138468952D02*
X81859619Y-138421333D01*
X81812000Y-138373714D01*
X81764380Y-138278476D01*
X81764380Y-138230857D01*
X81812000Y-138135619D01*
X81859619Y-138088000D01*
X81954857Y-138040380D01*
X82145333Y-138040380D01*
X82240571Y-138088000D01*
X82288190Y-138135619D01*
X82335809Y-138230857D01*
X82335809Y-138278476D01*
X82288190Y-138373714D01*
X82240571Y-138421333D01*
X82145333Y-138468952D01*
X81954857Y-138468952D01*
X81859619Y-138516571D01*
X81812000Y-138564190D01*
X81764380Y-138659428D01*
X81764380Y-138849904D01*
X81812000Y-138945142D01*
X81859619Y-138992761D01*
X81954857Y-139040380D01*
X82145333Y-139040380D01*
X82240571Y-138992761D01*
X82288190Y-138945142D01*
X82335809Y-138849904D01*
X82335809Y-138659428D01*
X82288190Y-138564190D01*
X82240571Y-138516571D01*
X82145333Y-138468952D01*
X82764380Y-138659428D02*
X83526285Y-138659428D01*
X83907238Y-138040380D02*
X84573904Y-138040380D01*
X84145333Y-139040380D01*
X84812000Y-138040380D02*
X85383428Y-138040380D01*
X85097714Y-139040380D02*
X85097714Y-138040380D01*
X86383428Y-139135619D02*
X86288190Y-139088000D01*
X86192952Y-138992761D01*
X86050095Y-138849904D01*
X85954857Y-138802285D01*
X85859619Y-138802285D01*
X85907238Y-139040380D02*
X85812000Y-138992761D01*
X85716761Y-138897523D01*
X85669142Y-138707047D01*
X85669142Y-138373714D01*
X85716761Y-138183238D01*
X85812000Y-138088000D01*
X85907238Y-138040380D01*
X86097714Y-138040380D01*
X86192952Y-138088000D01*
X86288190Y-138183238D01*
X86335809Y-138373714D01*
X86335809Y-138707047D01*
X86288190Y-138897523D01*
X86192952Y-138992761D01*
X86097714Y-139040380D01*
X85907238Y-139040380D01*
X87288190Y-138088000D02*
X87192952Y-138040380D01*
X87050095Y-138040380D01*
X86907238Y-138088000D01*
X86812000Y-138183238D01*
X86764380Y-138278476D01*
X86716761Y-138468952D01*
X86716761Y-138611809D01*
X86764380Y-138802285D01*
X86812000Y-138897523D01*
X86907238Y-138992761D01*
X87050095Y-139040380D01*
X87145333Y-139040380D01*
X87288190Y-138992761D01*
X87335809Y-138945142D01*
X87335809Y-138611809D01*
X87145333Y-138611809D01*
X88288190Y-139040380D02*
X87716761Y-139040380D01*
X88002476Y-139040380D02*
X88002476Y-138040380D01*
X87907238Y-138183238D01*
X87812000Y-138278476D01*
X87716761Y-138326095D01*
X89145333Y-138373714D02*
X89145333Y-139040380D01*
X88907238Y-137992761D02*
X88669142Y-138707047D01*
X89288190Y-138707047D01*
X90097714Y-138373714D02*
X90097714Y-139040380D01*
X89859619Y-137992761D02*
X89621523Y-138707047D01*
X90240571Y-138707047D01*
X90621523Y-139040380D02*
X90621523Y-138040380D01*
%TO.C,J3*%
X98302380Y-159083333D02*
X99016666Y-159083333D01*
X99159523Y-159130952D01*
X99254761Y-159226190D01*
X99302380Y-159369047D01*
X99302380Y-159464285D01*
X98302380Y-158702380D02*
X98302380Y-158083333D01*
X98683333Y-158416666D01*
X98683333Y-158273809D01*
X98730952Y-158178571D01*
X98778571Y-158130952D01*
X98873809Y-158083333D01*
X99111904Y-158083333D01*
X99207142Y-158130952D01*
X99254761Y-158178571D01*
X99302380Y-158273809D01*
X99302380Y-158559523D01*
X99254761Y-158654761D01*
X99207142Y-158702380D01*
%TO.C,R1*%
X80038380Y-163234666D02*
X79562190Y-163568000D01*
X80038380Y-163806095D02*
X79038380Y-163806095D01*
X79038380Y-163425142D01*
X79086000Y-163329904D01*
X79133619Y-163282285D01*
X79228857Y-163234666D01*
X79371714Y-163234666D01*
X79466952Y-163282285D01*
X79514571Y-163329904D01*
X79562190Y-163425142D01*
X79562190Y-163806095D01*
X80038380Y-162282285D02*
X80038380Y-162853714D01*
X80038380Y-162568000D02*
X79038380Y-162568000D01*
X79181238Y-162663238D01*
X79276476Y-162758476D01*
X79324095Y-162853714D01*
X75298380Y-164020380D02*
X74822190Y-164353714D01*
X75298380Y-164591809D02*
X74298380Y-164591809D01*
X74298380Y-164210857D01*
X74346000Y-164115619D01*
X74393619Y-164068000D01*
X74488857Y-164020380D01*
X74631714Y-164020380D01*
X74726952Y-164068000D01*
X74774571Y-164115619D01*
X74822190Y-164210857D01*
X74822190Y-164591809D01*
X75298380Y-162306095D02*
X75298380Y-162877523D01*
X75298380Y-162591809D02*
X74298380Y-162591809D01*
X74441238Y-162687047D01*
X74536476Y-162782285D01*
X74584095Y-162877523D01*
X75298380Y-161877523D02*
X74298380Y-161877523D01*
X74917428Y-161782285D02*
X75298380Y-161496571D01*
X74631714Y-161496571D02*
X75012666Y-161877523D01*
%TO.C,J6*%
X56562666Y-186694380D02*
X56562666Y-187408666D01*
X56515047Y-187551523D01*
X56419809Y-187646761D01*
X56276952Y-187694380D01*
X56181714Y-187694380D01*
X57467428Y-186694380D02*
X57276952Y-186694380D01*
X57181714Y-186742000D01*
X57134095Y-186789619D01*
X57038857Y-186932476D01*
X56991238Y-187122952D01*
X56991238Y-187503904D01*
X57038857Y-187599142D01*
X57086476Y-187646761D01*
X57181714Y-187694380D01*
X57372190Y-187694380D01*
X57467428Y-187646761D01*
X57515047Y-187599142D01*
X57562666Y-187503904D01*
X57562666Y-187265809D01*
X57515047Y-187170571D01*
X57467428Y-187122952D01*
X57372190Y-187075333D01*
X57181714Y-187075333D01*
X57086476Y-187122952D01*
X57038857Y-187170571D01*
X56991238Y-187265809D01*
%TO.C,C6*%
X94401333Y-145097142D02*
X94353714Y-145144761D01*
X94210857Y-145192380D01*
X94115619Y-145192380D01*
X93972761Y-145144761D01*
X93877523Y-145049523D01*
X93829904Y-144954285D01*
X93782285Y-144763809D01*
X93782285Y-144620952D01*
X93829904Y-144430476D01*
X93877523Y-144335238D01*
X93972761Y-144240000D01*
X94115619Y-144192380D01*
X94210857Y-144192380D01*
X94353714Y-144240000D01*
X94401333Y-144287619D01*
X95258476Y-144192380D02*
X95068000Y-144192380D01*
X94972761Y-144240000D01*
X94925142Y-144287619D01*
X94829904Y-144430476D01*
X94782285Y-144620952D01*
X94782285Y-145001904D01*
X94829904Y-145097142D01*
X94877523Y-145144761D01*
X94972761Y-145192380D01*
X95163238Y-145192380D01*
X95258476Y-145144761D01*
X95306095Y-145097142D01*
X95353714Y-145001904D01*
X95353714Y-144763809D01*
X95306095Y-144668571D01*
X95258476Y-144620952D01*
X95163238Y-144573333D01*
X94972761Y-144573333D01*
X94877523Y-144620952D01*
X94829904Y-144668571D01*
X94782285Y-144763809D01*
%TO.C,J4*%
X63411380Y-161369333D02*
X64125666Y-161369333D01*
X64268523Y-161416952D01*
X64363761Y-161512190D01*
X64411380Y-161655047D01*
X64411380Y-161750285D01*
X63744714Y-160464571D02*
X64411380Y-160464571D01*
X63363761Y-160702666D02*
X64078047Y-160940761D01*
X64078047Y-160321714D01*
%TO.C,J2*%
X112442666Y-57579380D02*
X112442666Y-58293666D01*
X112395047Y-58436523D01*
X112299809Y-58531761D01*
X112156952Y-58579380D01*
X112061714Y-58579380D01*
X112871238Y-57674619D02*
X112918857Y-57627000D01*
X113014095Y-57579380D01*
X113252190Y-57579380D01*
X113347428Y-57627000D01*
X113395047Y-57674619D01*
X113442666Y-57769857D01*
X113442666Y-57865095D01*
X113395047Y-58007952D01*
X112823619Y-58579380D01*
X113442666Y-58579380D01*
%TO.C,C9*%
X65421142Y-121578666D02*
X65468761Y-121626285D01*
X65516380Y-121769142D01*
X65516380Y-121864380D01*
X65468761Y-122007238D01*
X65373523Y-122102476D01*
X65278285Y-122150095D01*
X65087809Y-122197714D01*
X64944952Y-122197714D01*
X64754476Y-122150095D01*
X64659238Y-122102476D01*
X64564000Y-122007238D01*
X64516380Y-121864380D01*
X64516380Y-121769142D01*
X64564000Y-121626285D01*
X64611619Y-121578666D01*
X65516380Y-121102476D02*
X65516380Y-120912000D01*
X65468761Y-120816761D01*
X65421142Y-120769142D01*
X65278285Y-120673904D01*
X65087809Y-120626285D01*
X64706857Y-120626285D01*
X64611619Y-120673904D01*
X64564000Y-120721523D01*
X64516380Y-120816761D01*
X64516380Y-121007238D01*
X64564000Y-121102476D01*
X64611619Y-121150095D01*
X64706857Y-121197714D01*
X64944952Y-121197714D01*
X65040190Y-121150095D01*
X65087809Y-121102476D01*
X65135428Y-121007238D01*
X65135428Y-120816761D01*
X65087809Y-120721523D01*
X65040190Y-120673904D01*
X64944952Y-120626285D01*
%TO.C,U1*%
X74230380Y-151129904D02*
X75039904Y-151129904D01*
X75135142Y-151082285D01*
X75182761Y-151034666D01*
X75230380Y-150939428D01*
X75230380Y-150748952D01*
X75182761Y-150653714D01*
X75135142Y-150606095D01*
X75039904Y-150558476D01*
X74230380Y-150558476D01*
X75230380Y-149558476D02*
X75230380Y-150129904D01*
X75230380Y-149844190D02*
X74230380Y-149844190D01*
X74373238Y-149939428D01*
X74468476Y-150034666D01*
X74516095Y-150129904D01*
X68215333Y-153582666D02*
X68691523Y-153582666D01*
X68120095Y-153868380D02*
X68453428Y-152868380D01*
X68786761Y-153868380D01*
X69120095Y-153868380D02*
X69120095Y-152868380D01*
X69501047Y-152868380D01*
X69596285Y-152916000D01*
X69643904Y-152963619D01*
X69691523Y-153058857D01*
X69691523Y-153201714D01*
X69643904Y-153296952D01*
X69596285Y-153344571D01*
X69501047Y-153392190D01*
X69120095Y-153392190D01*
X70024857Y-152868380D02*
X70691523Y-152868380D01*
X70262952Y-153868380D01*
X70977238Y-152868380D02*
X71596285Y-152868380D01*
X71262952Y-153249333D01*
X71405809Y-153249333D01*
X71501047Y-153296952D01*
X71548666Y-153344571D01*
X71596285Y-153439809D01*
X71596285Y-153677904D01*
X71548666Y-153773142D01*
X71501047Y-153820761D01*
X71405809Y-153868380D01*
X71120095Y-153868380D01*
X71024857Y-153820761D01*
X70977238Y-153773142D01*
X72453428Y-153201714D02*
X72453428Y-153868380D01*
X72215333Y-152820761D02*
X71977238Y-153535047D01*
X72596285Y-153535047D01*
X72882000Y-152868380D02*
X73548666Y-152868380D01*
X73120095Y-153868380D01*
X73929619Y-153868380D02*
X73929619Y-152868380D01*
X74167714Y-152868380D01*
X74310571Y-152916000D01*
X74405809Y-153011238D01*
X74453428Y-153106476D01*
X74501047Y-153296952D01*
X74501047Y-153439809D01*
X74453428Y-153630285D01*
X74405809Y-153725523D01*
X74310571Y-153820761D01*
X74167714Y-153868380D01*
X73929619Y-153868380D01*
X75596285Y-153963619D02*
X75501047Y-153916000D01*
X75405809Y-153820761D01*
X75262952Y-153677904D01*
X75167714Y-153630285D01*
X75072476Y-153630285D01*
X75120095Y-153868380D02*
X75024857Y-153820761D01*
X74929619Y-153725523D01*
X74882000Y-153535047D01*
X74882000Y-153201714D01*
X74929619Y-153011238D01*
X75024857Y-152916000D01*
X75120095Y-152868380D01*
X75310571Y-152868380D01*
X75405809Y-152916000D01*
X75501047Y-153011238D01*
X75548666Y-153201714D01*
X75548666Y-153535047D01*
X75501047Y-153725523D01*
X75405809Y-153820761D01*
X75310571Y-153868380D01*
X75120095Y-153868380D01*
%TO.C,C3*%
X68647333Y-145839142D02*
X68599714Y-145886761D01*
X68456857Y-145934380D01*
X68361619Y-145934380D01*
X68218761Y-145886761D01*
X68123523Y-145791523D01*
X68075904Y-145696285D01*
X68028285Y-145505809D01*
X68028285Y-145362952D01*
X68075904Y-145172476D01*
X68123523Y-145077238D01*
X68218761Y-144982000D01*
X68361619Y-144934380D01*
X68456857Y-144934380D01*
X68599714Y-144982000D01*
X68647333Y-145029619D01*
X68980666Y-144934380D02*
X69599714Y-144934380D01*
X69266380Y-145315333D01*
X69409238Y-145315333D01*
X69504476Y-145362952D01*
X69552095Y-145410571D01*
X69599714Y-145505809D01*
X69599714Y-145743904D01*
X69552095Y-145839142D01*
X69504476Y-145886761D01*
X69409238Y-145934380D01*
X69123523Y-145934380D01*
X69028285Y-145886761D01*
X68980666Y-145839142D01*
%TO.C,C12*%
X95159142Y-113652857D02*
X95206761Y-113700476D01*
X95254380Y-113843333D01*
X95254380Y-113938571D01*
X95206761Y-114081428D01*
X95111523Y-114176666D01*
X95016285Y-114224285D01*
X94825809Y-114271904D01*
X94682952Y-114271904D01*
X94492476Y-114224285D01*
X94397238Y-114176666D01*
X94302000Y-114081428D01*
X94254380Y-113938571D01*
X94254380Y-113843333D01*
X94302000Y-113700476D01*
X94349619Y-113652857D01*
X95254380Y-112700476D02*
X95254380Y-113271904D01*
X95254380Y-112986190D02*
X94254380Y-112986190D01*
X94397238Y-113081428D01*
X94492476Y-113176666D01*
X94540095Y-113271904D01*
X94349619Y-112319523D02*
X94302000Y-112271904D01*
X94254380Y-112176666D01*
X94254380Y-111938571D01*
X94302000Y-111843333D01*
X94349619Y-111795714D01*
X94444857Y-111748095D01*
X94540095Y-111748095D01*
X94682952Y-111795714D01*
X95254380Y-112367142D01*
X95254380Y-111748095D01*
%TO.C,J1*%
X112442666Y-159174380D02*
X112442666Y-159888666D01*
X112395047Y-160031523D01*
X112299809Y-160126761D01*
X112156952Y-160174380D01*
X112061714Y-160174380D01*
X113442666Y-160174380D02*
X112871238Y-160174380D01*
X113156952Y-160174380D02*
X113156952Y-159174380D01*
X113061714Y-159317238D01*
X112966476Y-159412476D01*
X112871238Y-159460095D01*
%TO.C,C1*%
X86193333Y-141621142D02*
X86145714Y-141668761D01*
X86002857Y-141716380D01*
X85907619Y-141716380D01*
X85764761Y-141668761D01*
X85669523Y-141573523D01*
X85621904Y-141478285D01*
X85574285Y-141287809D01*
X85574285Y-141144952D01*
X85621904Y-140954476D01*
X85669523Y-140859238D01*
X85764761Y-140764000D01*
X85907619Y-140716380D01*
X86002857Y-140716380D01*
X86145714Y-140764000D01*
X86193333Y-140811619D01*
X87145714Y-141716380D02*
X86574285Y-141716380D01*
X86860000Y-141716380D02*
X86860000Y-140716380D01*
X86764761Y-140859238D01*
X86669523Y-140954476D01*
X86574285Y-141002095D01*
%TO.C,J5*%
X56562666Y-57579380D02*
X56562666Y-58293666D01*
X56515047Y-58436523D01*
X56419809Y-58531761D01*
X56276952Y-58579380D01*
X56181714Y-58579380D01*
X57515047Y-57579380D02*
X57038857Y-57579380D01*
X56991238Y-58055571D01*
X57038857Y-58007952D01*
X57134095Y-57960333D01*
X57372190Y-57960333D01*
X57467428Y-58007952D01*
X57515047Y-58055571D01*
X57562666Y-58150809D01*
X57562666Y-58388904D01*
X57515047Y-58484142D01*
X57467428Y-58531761D01*
X57372190Y-58579380D01*
X57134095Y-58579380D01*
X57038857Y-58531761D01*
X56991238Y-58484142D01*
%TO.C,C10*%
X87749142Y-107585142D02*
X87701523Y-107632761D01*
X87558666Y-107680380D01*
X87463428Y-107680380D01*
X87320571Y-107632761D01*
X87225333Y-107537523D01*
X87177714Y-107442285D01*
X87130095Y-107251809D01*
X87130095Y-107108952D01*
X87177714Y-106918476D01*
X87225333Y-106823238D01*
X87320571Y-106728000D01*
X87463428Y-106680380D01*
X87558666Y-106680380D01*
X87701523Y-106728000D01*
X87749142Y-106775619D01*
X88701523Y-107680380D02*
X88130095Y-107680380D01*
X88415809Y-107680380D02*
X88415809Y-106680380D01*
X88320571Y-106823238D01*
X88225333Y-106918476D01*
X88130095Y-106966095D01*
X89320571Y-106680380D02*
X89415809Y-106680380D01*
X89511047Y-106728000D01*
X89558666Y-106775619D01*
X89606285Y-106870857D01*
X89653904Y-107061333D01*
X89653904Y-107299428D01*
X89606285Y-107489904D01*
X89558666Y-107585142D01*
X89511047Y-107632761D01*
X89415809Y-107680380D01*
X89320571Y-107680380D01*
X89225333Y-107632761D01*
X89177714Y-107585142D01*
X89130095Y-107489904D01*
X89082476Y-107299428D01*
X89082476Y-107061333D01*
X89130095Y-106870857D01*
X89177714Y-106775619D01*
X89225333Y-106728000D01*
X89320571Y-106680380D01*
D11*
%TO.C,C7*%
X66001000Y-115396000D02*
X65686000Y-115396000D01*
X68426000Y-110156000D02*
X68426000Y-115396000D01*
X65686000Y-110156000D02*
X65686000Y-115396000D01*
X68426000Y-115396000D02*
X68111000Y-115396000D01*
X66001000Y-110156000D02*
X65686000Y-110156000D01*
X68426000Y-110156000D02*
X68111000Y-110156000D01*
%TO.C,C8*%
X71548000Y-110197000D02*
X71548000Y-109882000D01*
X76788000Y-112622000D02*
X71548000Y-112622000D01*
X76788000Y-109882000D02*
X71548000Y-109882000D01*
X71548000Y-112622000D02*
X71548000Y-112307000D01*
X76788000Y-110197000D02*
X76788000Y-109882000D01*
X76788000Y-112622000D02*
X76788000Y-112307000D01*
%TO.C,C11*%
X99996000Y-149313000D02*
X99996000Y-148998000D01*
X105236000Y-151738000D02*
X99996000Y-151738000D01*
X105236000Y-148998000D02*
X99996000Y-148998000D01*
X99996000Y-151738000D02*
X99996000Y-151423000D01*
X105236000Y-149313000D02*
X105236000Y-148998000D01*
X105236000Y-151738000D02*
X105236000Y-151423000D01*
%TO.C,C4*%
X66509000Y-135208000D02*
X66194000Y-135208000D01*
X68934000Y-129968000D02*
X68934000Y-135208000D01*
X66194000Y-129968000D02*
X66194000Y-135208000D01*
X68934000Y-135208000D02*
X68619000Y-135208000D01*
X66509000Y-129968000D02*
X66194000Y-129968000D01*
X68934000Y-129968000D02*
X68619000Y-129968000D01*
%TO.C,C5*%
X99021000Y-129620000D02*
X98706000Y-129620000D01*
X101446000Y-124380000D02*
X101446000Y-129620000D01*
X98706000Y-124380000D02*
X98706000Y-129620000D01*
X101446000Y-129620000D02*
X101131000Y-129620000D01*
X99021000Y-124380000D02*
X98706000Y-124380000D01*
X101446000Y-124380000D02*
X101131000Y-124380000D01*
%TO.C,C2*%
X78193000Y-150956000D02*
X77878000Y-150956000D01*
X80618000Y-145716000D02*
X80618000Y-150956000D01*
X77878000Y-145716000D02*
X77878000Y-150956000D01*
X80618000Y-150956000D02*
X80303000Y-150956000D01*
X78193000Y-145716000D02*
X77878000Y-145716000D01*
X80618000Y-145716000D02*
X80303000Y-145716000D01*
%TO.C,U2*%
X92472000Y-136348000D02*
X93422000Y-136348000D01*
X74152000Y-136348000D02*
X73202000Y-136348000D01*
X92472000Y-116128000D02*
X93422000Y-116128000D01*
X74152000Y-116128000D02*
X73202000Y-116128000D01*
X73202000Y-116128000D02*
X73202000Y-117078000D01*
X93422000Y-136348000D02*
X93422000Y-135398000D01*
X73202000Y-136348000D02*
X73202000Y-135398000D01*
X93422000Y-116128000D02*
X93422000Y-117078000D01*
X73202000Y-117078000D02*
X71912000Y-117078000D01*
%TO.C,J3*%
X95250000Y-157420000D02*
X82490000Y-157420000D01*
X96520000Y-157420000D02*
X97850000Y-157420000D01*
X97850000Y-157420000D02*
X97850000Y-158750000D01*
X95250000Y-157420000D02*
X95250000Y-160080000D01*
X82490000Y-157420000D02*
X82490000Y-160080000D01*
X95250000Y-160080000D02*
X82490000Y-160080000D01*
%TO.C,R1*%
X77216000Y-167108000D02*
X77216000Y-166338000D01*
X77216000Y-159028000D02*
X77216000Y-159798000D01*
X78586000Y-159798000D02*
X75846000Y-159798000D01*
X75846000Y-166338000D02*
X78586000Y-166338000D01*
X75846000Y-159798000D02*
X75846000Y-166338000D01*
X78586000Y-166338000D02*
X78586000Y-159798000D01*
%TO.C,J6*%
X58226000Y-184912000D02*
X58226000Y-186242000D01*
X58226000Y-84522000D02*
X55566000Y-84522000D01*
X55566000Y-183642000D02*
X55566000Y-84522000D01*
X58226000Y-183642000D02*
X58226000Y-84522000D01*
X58226000Y-183642000D02*
X55566000Y-183642000D01*
X58226000Y-186242000D02*
X56896000Y-186242000D01*
%TO.C,C6*%
X91948000Y-141185000D02*
X91948000Y-140870000D01*
X97188000Y-143610000D02*
X91948000Y-143610000D01*
X97188000Y-140870000D02*
X91948000Y-140870000D01*
X91948000Y-143610000D02*
X91948000Y-143295000D01*
X97188000Y-141185000D02*
X97188000Y-140870000D01*
X97188000Y-143610000D02*
X97188000Y-143295000D01*
%TO.C,J4*%
X66289000Y-162366000D02*
X64959000Y-162366000D01*
X70159000Y-162366000D02*
X70159000Y-159706000D01*
X67559000Y-162366000D02*
X70159000Y-162366000D01*
X67559000Y-162366000D02*
X67559000Y-159706000D01*
X64959000Y-162366000D02*
X64959000Y-161036000D01*
X67559000Y-159706000D02*
X70159000Y-159706000D01*
%TO.C,J2*%
X111446000Y-59127000D02*
X112776000Y-59127000D01*
X111446000Y-61727000D02*
X114106000Y-61727000D01*
X111446000Y-61727000D02*
X111446000Y-160847000D01*
X114106000Y-61727000D02*
X114106000Y-160847000D01*
X111446000Y-160847000D02*
X114106000Y-160847000D01*
X111446000Y-60457000D02*
X111446000Y-59127000D01*
%TO.C,C9*%
X68619000Y-118792000D02*
X68934000Y-118792000D01*
X66194000Y-124032000D02*
X66194000Y-118792000D01*
X68934000Y-124032000D02*
X68934000Y-118792000D01*
X66194000Y-118792000D02*
X66509000Y-118792000D01*
X68619000Y-124032000D02*
X68934000Y-124032000D01*
X66194000Y-124032000D02*
X66509000Y-124032000D01*
%TO.C,U1*%
X69478000Y-152468000D02*
X69478000Y-148268000D01*
X73778000Y-149068000D02*
X73778000Y-152468000D01*
X73778000Y-152468000D02*
X69478000Y-152468000D01*
X69478000Y-148268000D02*
X72978000Y-148268000D01*
X72978000Y-148268000D02*
X73778000Y-149068000D01*
%TO.C,C3*%
X67733000Y-140692000D02*
X67733000Y-139384000D01*
X66853000Y-143431000D02*
X66853000Y-142772000D01*
X66573000Y-143051000D02*
X66573000Y-142772000D01*
X66613000Y-143115000D02*
X66613000Y-142772000D01*
X68334000Y-140692000D02*
X68334000Y-139196000D01*
X67533000Y-143979000D02*
X67533000Y-142772000D01*
X68814000Y-144312000D02*
X68814000Y-139152000D01*
X67653000Y-140692000D02*
X67653000Y-139422000D01*
X66973000Y-140692000D02*
X66973000Y-139906000D01*
X67373000Y-140692000D02*
X67373000Y-139583000D01*
X68093000Y-140692000D02*
X68093000Y-139252000D01*
X67333000Y-140692000D02*
X67333000Y-139610000D01*
X66653000Y-143175000D02*
X66653000Y-142772000D01*
X68734000Y-144311000D02*
X68734000Y-139153000D01*
X67213000Y-143767000D02*
X67213000Y-142772000D01*
X66253000Y-142250000D02*
X66253000Y-141214000D01*
X68013000Y-144187000D02*
X68013000Y-142772000D01*
X67493000Y-143956000D02*
X67493000Y-142772000D01*
X67693000Y-140692000D02*
X67693000Y-139403000D01*
X66893000Y-140692000D02*
X66893000Y-139989000D01*
X67173000Y-140692000D02*
X67173000Y-139728000D01*
X66573000Y-140692000D02*
X66573000Y-140413000D01*
X66533000Y-140692000D02*
X66533000Y-140481000D01*
X67013000Y-140692000D02*
X67013000Y-139868000D01*
X68254000Y-140692000D02*
X68254000Y-139212000D01*
X68334000Y-144268000D02*
X68334000Y-142772000D01*
X68093000Y-144212000D02*
X68093000Y-142772000D01*
X67893000Y-144146000D02*
X67893000Y-142772000D01*
X68134000Y-140692000D02*
X68134000Y-139241000D01*
X66293000Y-142409000D02*
X66293000Y-141055000D01*
X67413000Y-143907000D02*
X67413000Y-142772000D01*
X68053000Y-140692000D02*
X68053000Y-139264000D01*
X66933000Y-143517000D02*
X66933000Y-142772000D01*
X66653000Y-140692000D02*
X66653000Y-140289000D01*
X67093000Y-143669000D02*
X67093000Y-142772000D01*
X67373000Y-143881000D02*
X67373000Y-142772000D01*
X67693000Y-144061000D02*
X67693000Y-142772000D01*
X68454000Y-140692000D02*
X68454000Y-139176000D01*
X66613000Y-140692000D02*
X66613000Y-140349000D01*
X68214000Y-144243000D02*
X68214000Y-142772000D01*
X66453000Y-142830000D02*
X66453000Y-140634000D01*
X66893000Y-143475000D02*
X66893000Y-142772000D01*
X68574000Y-140692000D02*
X68574000Y-139163000D01*
X68294000Y-140692000D02*
X68294000Y-139204000D01*
X68374000Y-144275000D02*
X68374000Y-142772000D01*
X68654000Y-144308000D02*
X68654000Y-139156000D01*
X67293000Y-143827000D02*
X67293000Y-142772000D01*
X67573000Y-140692000D02*
X67573000Y-139464000D01*
X67813000Y-144114000D02*
X67813000Y-142772000D01*
X68174000Y-140692000D02*
X68174000Y-139231000D01*
X68294000Y-144260000D02*
X68294000Y-142772000D01*
X68774000Y-144312000D02*
X68774000Y-139152000D01*
X67773000Y-144097000D02*
X67773000Y-142772000D01*
X66813000Y-140692000D02*
X66813000Y-140079000D01*
X68174000Y-144233000D02*
X68174000Y-142772000D01*
X68494000Y-144293000D02*
X68494000Y-142772000D01*
X67453000Y-143932000D02*
X67453000Y-142772000D01*
X67213000Y-140692000D02*
X67213000Y-139697000D01*
X66973000Y-143558000D02*
X66973000Y-142772000D01*
X68414000Y-140692000D02*
X68414000Y-139182000D01*
X67973000Y-144174000D02*
X67973000Y-142772000D01*
X68254000Y-144252000D02*
X68254000Y-142772000D01*
X68414000Y-144282000D02*
X68414000Y-142772000D01*
X67413000Y-140692000D02*
X67413000Y-139557000D01*
X67853000Y-140692000D02*
X67853000Y-139334000D01*
X68694000Y-144310000D02*
X68694000Y-139154000D01*
X68614000Y-144305000D02*
X68614000Y-139159000D01*
X68574000Y-144301000D02*
X68574000Y-142772000D01*
X68214000Y-140692000D02*
X68214000Y-139221000D01*
X66933000Y-140692000D02*
X66933000Y-139947000D01*
X67613000Y-144022000D02*
X67613000Y-142772000D01*
X67253000Y-143797000D02*
X67253000Y-142772000D01*
X67773000Y-140692000D02*
X67773000Y-139367000D01*
X66813000Y-143385000D02*
X66813000Y-142772000D01*
X68454000Y-144288000D02*
X68454000Y-142772000D01*
X67093000Y-140692000D02*
X67093000Y-139795000D01*
X67973000Y-140692000D02*
X67973000Y-139290000D01*
X67253000Y-140692000D02*
X67253000Y-139667000D01*
X67533000Y-140692000D02*
X67533000Y-139485000D01*
X67053000Y-140692000D02*
X67053000Y-139831000D01*
X68013000Y-140692000D02*
X68013000Y-139277000D01*
X67493000Y-140692000D02*
X67493000Y-139508000D01*
X67853000Y-144130000D02*
X67853000Y-142772000D01*
X71618775Y-143207000D02*
X71118775Y-143207000D01*
X66773000Y-140692000D02*
X66773000Y-140127000D01*
X66333000Y-142537000D02*
X66333000Y-140927000D01*
X66533000Y-142983000D02*
X66533000Y-142772000D01*
X67933000Y-140692000D02*
X67933000Y-139304000D01*
X68534000Y-140692000D02*
X68534000Y-139167000D01*
X66213000Y-142016000D02*
X66213000Y-141448000D01*
X67933000Y-144160000D02*
X67933000Y-142772000D01*
X66413000Y-142743000D02*
X66413000Y-140721000D01*
X67813000Y-140692000D02*
X67813000Y-139350000D01*
X67173000Y-143736000D02*
X67173000Y-142772000D01*
X66693000Y-143232000D02*
X66693000Y-142772000D01*
X66493000Y-142910000D02*
X66493000Y-140554000D01*
X67333000Y-143854000D02*
X67333000Y-142772000D01*
X67453000Y-140692000D02*
X67453000Y-139532000D01*
X67893000Y-140692000D02*
X67893000Y-139318000D01*
X71368775Y-143457000D02*
X71368775Y-142957000D01*
X67733000Y-144080000D02*
X67733000Y-142772000D01*
X67133000Y-143703000D02*
X67133000Y-142772000D01*
X68134000Y-144223000D02*
X68134000Y-142772000D01*
X67293000Y-140692000D02*
X67293000Y-139637000D01*
X68494000Y-140692000D02*
X68494000Y-139171000D01*
X67613000Y-140692000D02*
X67613000Y-139442000D01*
X67573000Y-144000000D02*
X67573000Y-142772000D01*
X66733000Y-143286000D02*
X66733000Y-142772000D01*
X67653000Y-144042000D02*
X67653000Y-142772000D01*
X66733000Y-140692000D02*
X66733000Y-140178000D01*
X66373000Y-142647000D02*
X66373000Y-140817000D01*
X67133000Y-140692000D02*
X67133000Y-139761000D01*
X68534000Y-144297000D02*
X68534000Y-142772000D01*
X66693000Y-140692000D02*
X66693000Y-140232000D01*
X67053000Y-143633000D02*
X67053000Y-142772000D01*
X68374000Y-140692000D02*
X68374000Y-139189000D01*
X66773000Y-143337000D02*
X66773000Y-142772000D01*
X68053000Y-144200000D02*
X68053000Y-142772000D01*
X66853000Y-140692000D02*
X66853000Y-140033000D01*
X67013000Y-143596000D02*
X67013000Y-142772000D01*
X71434000Y-141732000D02*
G75*
G03*
X71434000Y-141732000I-2620000J0D01*
G01*
%TO.C,C12*%
X99592000Y-111929000D02*
X100900000Y-111929000D01*
X96853000Y-111049000D02*
X97512000Y-111049000D01*
X97233000Y-110769000D02*
X97512000Y-110769000D01*
X97169000Y-110809000D02*
X97512000Y-110809000D01*
X99592000Y-112530000D02*
X101088000Y-112530000D01*
X96305000Y-111729000D02*
X97512000Y-111729000D01*
X95972000Y-113010000D02*
X101132000Y-113010000D01*
X99592000Y-111849000D02*
X100862000Y-111849000D01*
X99592000Y-111169000D02*
X100378000Y-111169000D01*
X99592000Y-111569000D02*
X100701000Y-111569000D01*
X99592000Y-112289000D02*
X101032000Y-112289000D01*
X99592000Y-111529000D02*
X100674000Y-111529000D01*
X97109000Y-110849000D02*
X97512000Y-110849000D01*
X95973000Y-112930000D02*
X101131000Y-112930000D01*
X96517000Y-111409000D02*
X97512000Y-111409000D01*
X98034000Y-110449000D02*
X99070000Y-110449000D01*
X96097000Y-112209000D02*
X97512000Y-112209000D01*
X96328000Y-111689000D02*
X97512000Y-111689000D01*
X99592000Y-111889000D02*
X100881000Y-111889000D01*
X99592000Y-111089000D02*
X100295000Y-111089000D01*
X99592000Y-111369000D02*
X100556000Y-111369000D01*
X99592000Y-110769000D02*
X99871000Y-110769000D01*
X99592000Y-110729000D02*
X99803000Y-110729000D01*
X99592000Y-111209000D02*
X100416000Y-111209000D01*
X99592000Y-112450000D02*
X101072000Y-112450000D01*
X96016000Y-112530000D02*
X97512000Y-112530000D01*
X96072000Y-112289000D02*
X97512000Y-112289000D01*
X96138000Y-112089000D02*
X97512000Y-112089000D01*
X99592000Y-112330000D02*
X101043000Y-112330000D01*
X97875000Y-110489000D02*
X99229000Y-110489000D01*
X96377000Y-111609000D02*
X97512000Y-111609000D01*
X99592000Y-112249000D02*
X101020000Y-112249000D01*
X96767000Y-111129000D02*
X97512000Y-111129000D01*
X99592000Y-110849000D02*
X99995000Y-110849000D01*
X96615000Y-111289000D02*
X97512000Y-111289000D01*
X96403000Y-111569000D02*
X97512000Y-111569000D01*
X96223000Y-111889000D02*
X97512000Y-111889000D01*
X99592000Y-112650000D02*
X101108000Y-112650000D01*
X99592000Y-110809000D02*
X99935000Y-110809000D01*
X96041000Y-112410000D02*
X97512000Y-112410000D01*
X97454000Y-110649000D02*
X99650000Y-110649000D01*
X96809000Y-111089000D02*
X97512000Y-111089000D01*
X99592000Y-112770000D02*
X101121000Y-112770000D01*
X99592000Y-112490000D02*
X101080000Y-112490000D01*
X96009000Y-112570000D02*
X97512000Y-112570000D01*
X95976000Y-112850000D02*
X101128000Y-112850000D01*
X96457000Y-111489000D02*
X97512000Y-111489000D01*
X99592000Y-111769000D02*
X100820000Y-111769000D01*
X96170000Y-112009000D02*
X97512000Y-112009000D01*
X99592000Y-112370000D02*
X101053000Y-112370000D01*
X96024000Y-112490000D02*
X97512000Y-112490000D01*
X95972000Y-112970000D02*
X101132000Y-112970000D01*
X96187000Y-111969000D02*
X97512000Y-111969000D01*
X99592000Y-111009000D02*
X100205000Y-111009000D01*
X96051000Y-112370000D02*
X97512000Y-112370000D01*
X95991000Y-112690000D02*
X97512000Y-112690000D01*
X96352000Y-111649000D02*
X97512000Y-111649000D01*
X99592000Y-111409000D02*
X100587000Y-111409000D01*
X96726000Y-111169000D02*
X97512000Y-111169000D01*
X99592000Y-112610000D02*
X101102000Y-112610000D01*
X96110000Y-112169000D02*
X97512000Y-112169000D01*
X96032000Y-112450000D02*
X97512000Y-112450000D01*
X96002000Y-112610000D02*
X97512000Y-112610000D01*
X99592000Y-111609000D02*
X100727000Y-111609000D01*
X99592000Y-112049000D02*
X100950000Y-112049000D01*
X95974000Y-112890000D02*
X101130000Y-112890000D01*
X95979000Y-112810000D02*
X101125000Y-112810000D01*
X95983000Y-112770000D02*
X97512000Y-112770000D01*
X99592000Y-112410000D02*
X101063000Y-112410000D01*
X99592000Y-111129000D02*
X100337000Y-111129000D01*
X96262000Y-111809000D02*
X97512000Y-111809000D01*
X96487000Y-111449000D02*
X97512000Y-111449000D01*
X99592000Y-111969000D02*
X100917000Y-111969000D01*
X96899000Y-111009000D02*
X97512000Y-111009000D01*
X95996000Y-112650000D02*
X97512000Y-112650000D01*
X99592000Y-111289000D02*
X100489000Y-111289000D01*
X99592000Y-112169000D02*
X100994000Y-112169000D01*
X99592000Y-111449000D02*
X100617000Y-111449000D01*
X99592000Y-111729000D02*
X100799000Y-111729000D01*
X99592000Y-111249000D02*
X100453000Y-111249000D01*
X99592000Y-112209000D02*
X101007000Y-112209000D01*
X99592000Y-111689000D02*
X100776000Y-111689000D01*
X96154000Y-112049000D02*
X97512000Y-112049000D01*
X97077000Y-115814775D02*
X97077000Y-115314775D01*
X99592000Y-110969000D02*
X100157000Y-110969000D01*
X97747000Y-110529000D02*
X99357000Y-110529000D01*
X97301000Y-110729000D02*
X97512000Y-110729000D01*
X99592000Y-112129000D02*
X100980000Y-112129000D01*
X99592000Y-112730000D02*
X101117000Y-112730000D01*
X98268000Y-110409000D02*
X98836000Y-110409000D01*
X96124000Y-112129000D02*
X97512000Y-112129000D01*
X97541000Y-110609000D02*
X99563000Y-110609000D01*
X99592000Y-112009000D02*
X100934000Y-112009000D01*
X96548000Y-111369000D02*
X97512000Y-111369000D01*
X97052000Y-110889000D02*
X97512000Y-110889000D01*
X97374000Y-110689000D02*
X99730000Y-110689000D01*
X96430000Y-111529000D02*
X97512000Y-111529000D01*
X99592000Y-111649000D02*
X100752000Y-111649000D01*
X99592000Y-112089000D02*
X100966000Y-112089000D01*
X96827000Y-115564775D02*
X97327000Y-115564775D01*
X96204000Y-111929000D02*
X97512000Y-111929000D01*
X96581000Y-111329000D02*
X97512000Y-111329000D01*
X96061000Y-112330000D02*
X97512000Y-112330000D01*
X99592000Y-111489000D02*
X100647000Y-111489000D01*
X99592000Y-112690000D02*
X101113000Y-112690000D01*
X99592000Y-111809000D02*
X100842000Y-111809000D01*
X96284000Y-111769000D02*
X97512000Y-111769000D01*
X96998000Y-110929000D02*
X97512000Y-110929000D01*
X96242000Y-111849000D02*
X97512000Y-111849000D01*
X99592000Y-110929000D02*
X100106000Y-110929000D01*
X97637000Y-110569000D02*
X99467000Y-110569000D01*
X99592000Y-111329000D02*
X100523000Y-111329000D01*
X95987000Y-112730000D02*
X97512000Y-112730000D01*
X99592000Y-110889000D02*
X100052000Y-110889000D01*
X96651000Y-111249000D02*
X97512000Y-111249000D01*
X99592000Y-112570000D02*
X101095000Y-112570000D01*
X96947000Y-110969000D02*
X97512000Y-110969000D01*
X96084000Y-112249000D02*
X97512000Y-112249000D01*
X99592000Y-111049000D02*
X100251000Y-111049000D01*
X96688000Y-111209000D02*
X97512000Y-111209000D01*
X101172000Y-113010000D02*
G75*
G03*
X101172000Y-113010000I-2620000J0D01*
G01*
%TO.C,J1*%
X111446000Y-162052000D02*
X111446000Y-160722000D01*
X114106000Y-163322000D02*
X114106000Y-186242000D01*
X111446000Y-163322000D02*
X111446000Y-186242000D01*
X111446000Y-160722000D02*
X112776000Y-160722000D01*
X111446000Y-163322000D02*
X114106000Y-163322000D01*
X111446000Y-186242000D02*
X114106000Y-186242000D01*
%TO.C,C1*%
X83740000Y-142394000D02*
X83740000Y-142709000D01*
X83740000Y-144819000D02*
X83740000Y-145134000D01*
X88980000Y-142394000D02*
X88980000Y-142709000D01*
X83740000Y-145134000D02*
X88980000Y-145134000D01*
X83740000Y-142394000D02*
X88980000Y-142394000D01*
X88980000Y-144819000D02*
X88980000Y-145134000D01*
%TO.C,J5*%
X55566000Y-60457000D02*
X55566000Y-59127000D01*
X58226000Y-61727000D02*
X58226000Y-84647000D01*
X55566000Y-61727000D02*
X55566000Y-84647000D01*
X55566000Y-59127000D02*
X56896000Y-59127000D01*
X55566000Y-61727000D02*
X58226000Y-61727000D01*
X55566000Y-84647000D02*
X58226000Y-84647000D01*
%TO.C,C10*%
X91012000Y-110783000D02*
X91012000Y-111098000D01*
X85772000Y-108358000D02*
X91012000Y-108358000D01*
X85772000Y-111098000D02*
X91012000Y-111098000D01*
X91012000Y-108358000D02*
X91012000Y-108673000D01*
X85772000Y-110783000D02*
X85772000Y-111098000D01*
X85772000Y-108358000D02*
X85772000Y-108673000D01*
%TD*%
M02*
