%TF.GenerationSoftware,KiCad,Pcbnew,6.0.11-2627ca5db0~126~ubuntu22.04.1*%
%TF.CreationDate,2023-04-21T14:56:26-05:00*%
%TF.ProjectId,xc2c128_breakout,78633263-3132-4385-9f62-7265616b6f75,rev?*%
%TF.SameCoordinates,Original*%
%TF.FileFunction,Drillmap*%
%TF.FilePolarity,Positive*%
%FSLAX45Y45*%
G04 Gerber Fmt 4.5, Leading zero omitted, Abs format (unit mm)*
G04 Created by KiCad (PCBNEW 6.0.11-2627ca5db0~126~ubuntu22.04.1) date 2023-04-21 14:56:26*
%MOMM*%
%LPD*%
G01*
G04 APERTURE LIST*
%ADD10C,0.100000*%
%ADD11C,0.200000*%
%ADD12C,0.040000*%
%ADD13C,0.080000*%
G04 APERTURE END LIST*
D10*
X5283200Y-5740400D02*
X5435600Y-5740400D01*
X5283200Y-18846800D02*
X5283200Y-5740400D01*
X11633200Y-18846800D02*
X5283200Y-18846800D01*
X11633200Y-5740400D02*
X11633200Y-18846800D01*
X11531600Y-5740400D02*
X11633200Y-5740400D01*
X5435600Y-5740400D02*
X11531600Y-5740400D01*
D11*
D12*
X5847560Y-12807160D02*
X5887560Y-12847160D01*
X5887560Y-12807160D02*
X5847560Y-12847160D01*
X5934810Y-12718780D02*
X5974810Y-12758780D01*
X5974810Y-12718780D02*
X5934810Y-12758780D01*
X5969650Y-12926740D02*
X6009650Y-12966740D01*
X6009650Y-12926740D02*
X5969650Y-12966740D01*
X5988480Y-13442500D02*
X6028480Y-13482500D01*
X6028480Y-13442500D02*
X5988480Y-13482500D01*
X6026480Y-12673070D02*
X6066480Y-12713070D01*
X6066480Y-12673070D02*
X6026480Y-12713070D01*
X6069020Y-14288740D02*
X6109020Y-14328740D01*
X6109020Y-14288740D02*
X6069020Y-14328740D01*
X6075800Y-12893060D02*
X6115800Y-12933060D01*
X6115800Y-12893060D02*
X6075800Y-12933060D01*
X6100560Y-13691410D02*
X6140560Y-13731410D01*
X6140560Y-13691410D02*
X6100560Y-13731410D01*
X6100920Y-13921560D02*
X6140920Y-13961560D01*
X6140920Y-13921560D02*
X6100920Y-13961560D01*
X6139210Y-14355910D02*
X6179210Y-14395910D01*
X6179210Y-14355910D02*
X6139210Y-14395910D01*
X6148510Y-11745960D02*
X6188510Y-11785960D01*
X6188510Y-11745960D02*
X6148510Y-11785960D01*
X6237510Y-12462270D02*
X6277510Y-12502270D01*
X6277510Y-12462270D02*
X6237510Y-12502270D01*
X6261920Y-12199670D02*
X6301920Y-12239670D01*
X6301920Y-12199670D02*
X6261920Y-12239670D01*
X6269160Y-12941770D02*
X6309160Y-12981770D01*
X6309160Y-12941770D02*
X6269160Y-12981770D01*
X6300870Y-14147410D02*
X6340870Y-14187410D01*
X6340870Y-14147410D02*
X6300870Y-14187410D01*
X6310030Y-10610550D02*
X6350030Y-10650550D01*
X6350030Y-10610550D02*
X6310030Y-10650550D01*
X6333330Y-12488540D02*
X6373330Y-12528540D01*
X6373330Y-12488540D02*
X6333330Y-12528540D01*
X6414450Y-10502450D02*
X6454450Y-10542450D01*
X6454450Y-10502450D02*
X6414450Y-10542450D01*
X6417090Y-10999530D02*
X6457090Y-11039530D01*
X6457090Y-10999530D02*
X6417090Y-11039530D01*
X6417200Y-10739320D02*
X6457200Y-10779320D01*
X6457200Y-10739320D02*
X6417200Y-10779320D01*
X6536300Y-13901870D02*
X6576300Y-13941870D01*
X6576300Y-13901870D02*
X6536300Y-13941870D01*
X6566690Y-12811240D02*
X6606690Y-12851240D01*
X6606690Y-12811240D02*
X6566690Y-12851240D01*
X6569310Y-14151650D02*
X6609310Y-14191650D01*
X6609310Y-14151650D02*
X6569310Y-14191650D01*
X6582750Y-13589540D02*
X6622750Y-13629540D01*
X6622750Y-13589540D02*
X6582750Y-13629540D01*
X6672420Y-11372460D02*
X6712420Y-11412460D01*
X6712420Y-11372460D02*
X6672420Y-11412460D01*
X6685710Y-15872170D02*
X6725710Y-15912170D01*
X6725710Y-15872170D02*
X6685710Y-15912170D01*
X6703370Y-13691410D02*
X6743370Y-13731410D01*
X6743370Y-13691410D02*
X6703370Y-13731410D01*
X6716760Y-11196160D02*
X6756760Y-11236160D01*
X6756760Y-11196160D02*
X6716760Y-11236160D01*
X6795730Y-15762020D02*
X6835730Y-15802020D01*
X6835730Y-15762020D02*
X6795730Y-15802020D01*
X6825400Y-11139610D02*
X6865400Y-11179610D01*
X6865400Y-11139610D02*
X6825400Y-11179610D01*
X6888690Y-12922240D02*
X6928690Y-12962240D01*
X6928690Y-12922240D02*
X6888690Y-12962240D01*
X6889850Y-10857650D02*
X6929850Y-10897650D01*
X6929850Y-10857650D02*
X6889850Y-10897650D01*
X6903110Y-11795080D02*
X6943110Y-11835080D01*
X6943110Y-11795080D02*
X6903110Y-11835080D01*
X6964490Y-10964070D02*
X7004490Y-11004070D01*
X7004490Y-10964070D02*
X6964490Y-11004070D01*
X6974620Y-13375440D02*
X7014620Y-13415440D01*
X7014620Y-13375440D02*
X6974620Y-13415440D01*
X6982090Y-13726040D02*
X7022090Y-13766040D01*
X7022090Y-13726040D02*
X6982090Y-13766040D01*
X6982920Y-11645360D02*
X7022920Y-11685360D01*
X7022920Y-11645360D02*
X6982920Y-11685360D01*
X7012680Y-8416400D02*
X7052680Y-8456400D01*
X7052680Y-8416400D02*
X7012680Y-8456400D01*
X7040400Y-13188830D02*
X7080400Y-13228830D01*
X7080400Y-13188830D02*
X7040400Y-13228830D01*
X7053500Y-13546880D02*
X7093500Y-13586880D01*
X7093500Y-13546880D02*
X7053500Y-13586880D01*
X7055080Y-12257830D02*
X7095080Y-12297830D01*
X7095080Y-12257830D02*
X7055080Y-12297830D01*
X7057560Y-11358590D02*
X7097560Y-11398590D01*
X7097560Y-11358590D02*
X7057560Y-11398590D01*
X7069640Y-13375930D02*
X7109640Y-13415930D01*
X7109640Y-13375930D02*
X7069640Y-13415930D01*
X7083120Y-8352390D02*
X7123120Y-8392390D01*
X7123120Y-8352390D02*
X7083120Y-8392390D01*
X7102110Y-10825370D02*
X7142110Y-10865370D01*
X7142110Y-10825370D02*
X7102110Y-10865370D01*
X7115710Y-13247900D02*
X7155710Y-13287900D01*
X7155710Y-13247900D02*
X7115710Y-13287900D01*
X7158020Y-8967710D02*
X7198020Y-9007710D01*
X7198020Y-8967710D02*
X7158020Y-9007710D01*
X7167240Y-13608220D02*
X7207240Y-13648220D01*
X7207240Y-13608220D02*
X7167240Y-13648220D01*
X7171580Y-8493860D02*
X7211580Y-8533860D01*
X7211580Y-8493860D02*
X7171580Y-8533860D01*
X7222690Y-8577140D02*
X7262690Y-8617140D01*
X7262690Y-8577140D02*
X7222690Y-8617140D01*
X7253830Y-13759360D02*
X7293830Y-13799360D01*
X7293830Y-13759360D02*
X7253830Y-13799360D01*
X7253830Y-14648920D02*
X7293830Y-14688920D01*
X7293830Y-14648920D02*
X7253830Y-14688920D01*
X7364840Y-13629010D02*
X7404840Y-13669010D01*
X7404840Y-13629010D02*
X7364840Y-13669010D01*
X7389970Y-14103880D02*
X7429970Y-14143880D01*
X7429970Y-14103880D02*
X7389970Y-14143880D01*
X7398270Y-12683200D02*
X7438270Y-12723200D01*
X7438270Y-12683200D02*
X7398270Y-12723200D01*
X7436200Y-10977440D02*
X7476200Y-11017440D01*
X7476200Y-10977440D02*
X7436200Y-11017440D01*
X7436200Y-11161040D02*
X7476200Y-11201040D01*
X7476200Y-11161040D02*
X7436200Y-11201040D01*
X7470470Y-11852010D02*
X7510470Y-11892010D01*
X7510470Y-11852010D02*
X7470470Y-11892010D01*
X7521420Y-11768590D02*
X7561420Y-11808590D01*
X7561420Y-11768590D02*
X7521420Y-11808590D01*
X7532630Y-12465060D02*
X7572630Y-12505060D01*
X7572630Y-12465060D02*
X7532630Y-12505060D01*
X7543110Y-13312910D02*
X7583110Y-13352910D01*
X7583110Y-13312910D02*
X7543110Y-13352910D01*
X7551680Y-11365700D02*
X7591680Y-11405700D01*
X7591680Y-11365700D02*
X7551680Y-11405700D01*
X7556240Y-10759350D02*
X7596240Y-10799350D01*
X7596240Y-10759350D02*
X7556240Y-10799350D01*
X7580000Y-13506350D02*
X7620000Y-13546350D01*
X7620000Y-13506350D02*
X7580000Y-13546350D01*
X7592300Y-9194700D02*
X7632300Y-9234700D01*
X7632300Y-9194700D02*
X7592300Y-9234700D01*
X7635760Y-12408640D02*
X7675760Y-12448640D01*
X7675760Y-12408640D02*
X7635760Y-12448640D01*
X7717780Y-11823830D02*
X7757780Y-11863830D01*
X7757780Y-11823830D02*
X7717780Y-11863830D01*
X7736200Y-13799250D02*
X7776200Y-13839250D01*
X7776200Y-13799250D02*
X7736200Y-13839250D01*
X7767540Y-10029750D02*
X7807540Y-10069750D01*
X7807540Y-10029750D02*
X7767540Y-10069750D01*
X7797020Y-10190990D02*
X7837020Y-10230990D01*
X7837020Y-10190990D02*
X7797020Y-10230990D01*
X7810610Y-12336900D02*
X7850610Y-12376900D01*
X7850610Y-12336900D02*
X7810610Y-12376900D01*
X7832130Y-9872350D02*
X7872130Y-9912350D01*
X7872130Y-9872350D02*
X7832130Y-9912350D01*
X7840350Y-10282050D02*
X7880350Y-10322050D01*
X7880350Y-10282050D02*
X7840350Y-10322050D01*
X7856630Y-9984360D02*
X7896630Y-10024360D01*
X7896630Y-9984360D02*
X7856630Y-10024360D01*
X7866300Y-9745080D02*
X7906300Y-9785080D01*
X7906300Y-9745080D02*
X7866300Y-9785080D01*
X7882910Y-12265380D02*
X7922910Y-12305380D01*
X7922910Y-12265380D02*
X7882910Y-12305380D01*
X7936200Y-13799040D02*
X7976200Y-13839040D01*
X7976200Y-13799040D02*
X7936200Y-13839040D01*
X7945900Y-14078910D02*
X7985900Y-14118910D01*
X7985900Y-14078910D02*
X7945900Y-14118910D01*
X8019080Y-10247760D02*
X8059080Y-10287760D01*
X8059080Y-10247760D02*
X8019080Y-10287760D01*
X8023530Y-12528070D02*
X8063530Y-12568070D01*
X8063530Y-12528070D02*
X8023530Y-12568070D01*
X8039400Y-10342780D02*
X8079400Y-10382780D01*
X8079400Y-10342780D02*
X8039400Y-10382780D01*
X8091070Y-12459560D02*
X8131070Y-12499560D01*
X8131070Y-12459560D02*
X8091070Y-12499560D01*
X8105160Y-13405710D02*
X8145160Y-13445710D01*
X8145160Y-13405710D02*
X8105160Y-13445710D01*
X8105160Y-13500730D02*
X8145160Y-13540730D01*
X8145160Y-13500730D02*
X8105160Y-13540730D01*
X8178220Y-11252210D02*
X8218220Y-11292210D01*
X8218220Y-11252210D02*
X8178220Y-11292210D01*
X8214520Y-10213670D02*
X8254520Y-10253670D01*
X8254520Y-10213670D02*
X8214520Y-10253670D01*
X8227860Y-14587110D02*
X8267860Y-14627110D01*
X8267860Y-14587110D02*
X8227860Y-14627110D01*
X8227860Y-17608350D02*
X8267860Y-17648350D01*
X8267860Y-17608350D02*
X8227860Y-17648350D01*
X8237270Y-10093960D02*
X8277270Y-10133960D01*
X8277270Y-10093960D02*
X8237270Y-10133960D01*
X8258170Y-14206590D02*
X8298170Y-14246590D01*
X8298170Y-14206590D02*
X8258170Y-14246590D01*
X8272080Y-12359770D02*
X8312080Y-12399770D01*
X8312080Y-12359770D02*
X8272080Y-12399770D01*
X8274490Y-13978750D02*
X8314490Y-14018750D01*
X8314490Y-13978750D02*
X8274490Y-14018750D01*
X8278050Y-13801000D02*
X8318050Y-13841000D01*
X8318050Y-13801000D02*
X8278050Y-13841000D01*
X8283310Y-13223930D02*
X8323310Y-13263930D01*
X8323310Y-13223930D02*
X8283310Y-13263930D01*
X8339190Y-13539760D02*
X8379190Y-13579760D01*
X8379190Y-13539760D02*
X8339190Y-13579760D01*
X8350500Y-13156740D02*
X8390500Y-13196740D01*
X8390500Y-13156740D02*
X8350500Y-13196740D01*
X8355100Y-13858330D02*
X8395100Y-13898330D01*
X8395100Y-13858330D02*
X8355100Y-13898330D01*
X8434160Y-13207460D02*
X8474160Y-13247460D01*
X8474160Y-13207460D02*
X8434160Y-13247460D01*
X8436200Y-12066690D02*
X8476200Y-12106690D01*
X8476200Y-12066690D02*
X8436200Y-12106690D01*
X8463330Y-11406460D02*
X8503330Y-11446460D01*
X8503330Y-11406460D02*
X8463330Y-11446460D01*
X8486200Y-15327730D02*
X8526200Y-15367730D01*
X8526200Y-15327730D02*
X8486200Y-15367730D01*
X8516760Y-10519530D02*
X8556760Y-10559530D01*
X8556760Y-10519530D02*
X8516760Y-10559530D01*
X8528450Y-13120690D02*
X8568450Y-13160690D01*
X8568450Y-13120690D02*
X8528450Y-13160690D01*
X8553630Y-11088850D02*
X8593630Y-11128850D01*
X8593630Y-11088850D02*
X8553630Y-11128850D01*
X8568260Y-12066680D02*
X8608260Y-12106680D01*
X8608260Y-12066680D02*
X8568260Y-12106680D01*
X8584060Y-12398470D02*
X8624060Y-12438470D01*
X8624060Y-12398470D02*
X8584060Y-12438470D01*
X8584340Y-11391170D02*
X8624340Y-11431170D01*
X8624340Y-11391170D02*
X8584340Y-11431170D01*
X8605760Y-11185510D02*
X8645760Y-11225510D01*
X8645760Y-11185510D02*
X8605760Y-11225510D01*
X8621820Y-13897400D02*
X8661820Y-13937400D01*
X8661820Y-13897400D02*
X8621820Y-13937400D01*
X8623470Y-13136850D02*
X8663470Y-13176850D01*
X8663470Y-13136850D02*
X8623470Y-13176850D01*
X8636200Y-13539560D02*
X8676200Y-13579560D01*
X8676200Y-13539560D02*
X8636200Y-13579560D01*
X8647210Y-13799990D02*
X8687210Y-13839990D01*
X8687210Y-13799990D02*
X8647210Y-13839990D01*
X8663280Y-12048500D02*
X8703280Y-12088500D01*
X8703280Y-12048500D02*
X8663280Y-12088500D01*
X8679080Y-12392780D02*
X8719080Y-12432780D01*
X8719080Y-12392780D02*
X8679080Y-12432780D01*
X8682380Y-9838400D02*
X8722380Y-9878400D01*
X8722380Y-9838400D02*
X8682380Y-9878400D01*
X8723080Y-10490290D02*
X8763080Y-10530290D01*
X8763080Y-10490290D02*
X8723080Y-10530290D01*
X8761140Y-12058970D02*
X8801140Y-12098970D01*
X8801140Y-12058970D02*
X8761140Y-12098970D01*
X8762820Y-10813450D02*
X8802820Y-10853450D01*
X8802820Y-10813450D02*
X8762820Y-10853450D01*
X8790360Y-10914980D02*
X8830360Y-10954980D01*
X8830360Y-10914980D02*
X8790360Y-10954980D01*
X8826760Y-14087270D02*
X8866760Y-14127270D01*
X8866760Y-14087270D02*
X8826760Y-14127270D01*
X8859160Y-12290860D02*
X8899160Y-12330860D01*
X8899160Y-12290860D02*
X8859160Y-12330860D01*
X8866240Y-13871940D02*
X8906240Y-13911940D01*
X8906240Y-13871940D02*
X8866240Y-13911940D01*
X8891180Y-12010180D02*
X8931180Y-12050180D01*
X8931180Y-12010180D02*
X8891180Y-12050180D01*
X8891430Y-12583940D02*
X8931430Y-12623940D01*
X8931430Y-12583940D02*
X8891430Y-12623940D01*
X8903470Y-9645170D02*
X8943470Y-9685170D01*
X8943470Y-9645170D02*
X8903470Y-9685170D01*
X8914180Y-11388390D02*
X8954180Y-11428390D01*
X8954180Y-11388390D02*
X8914180Y-11428390D01*
X8936200Y-13999210D02*
X8976200Y-14039210D01*
X8976200Y-13999210D02*
X8936200Y-14039210D01*
X8978450Y-12943040D02*
X9018450Y-12983040D01*
X9018450Y-12943040D02*
X8978450Y-12983040D01*
X8986200Y-11968180D02*
X9026200Y-12008180D01*
X9026200Y-11968180D02*
X8986200Y-12008180D01*
X8987190Y-12220010D02*
X9027190Y-12260010D01*
X9027190Y-12220010D02*
X8987190Y-12260010D01*
X9025160Y-12085900D02*
X9065160Y-12125900D01*
X9065160Y-12085900D02*
X9025160Y-12125900D01*
X9060290Y-13804310D02*
X9100290Y-13844310D01*
X9100290Y-13804310D02*
X9060290Y-13844310D01*
X9060960Y-10688600D02*
X9100960Y-10728600D01*
X9100960Y-10688600D02*
X9060960Y-10728600D01*
X9067590Y-11267270D02*
X9107590Y-11307270D01*
X9107590Y-11267270D02*
X9067590Y-11307270D01*
X9091240Y-11944670D02*
X9131240Y-11984670D01*
X9131240Y-11944670D02*
X9091240Y-11984670D01*
X9162610Y-11292180D02*
X9202610Y-11332180D01*
X9202610Y-11292180D02*
X9162610Y-11332180D01*
X9178700Y-12084270D02*
X9218700Y-12124270D01*
X9218700Y-12084270D02*
X9178700Y-12124270D01*
X9195190Y-13845830D02*
X9235190Y-13885830D01*
X9235190Y-13845830D02*
X9195190Y-13885830D01*
X9217240Y-12515040D02*
X9257240Y-12555040D01*
X9257240Y-12515040D02*
X9217240Y-12555040D01*
X9244080Y-13086040D02*
X9284080Y-13126040D01*
X9284080Y-13086040D02*
X9244080Y-13126040D01*
X9247260Y-13459260D02*
X9287260Y-13499260D01*
X9287260Y-13459260D02*
X9247260Y-13499260D01*
X9247580Y-12018450D02*
X9287580Y-12058450D01*
X9287580Y-12018450D02*
X9247580Y-12058450D01*
X9256870Y-11549780D02*
X9296870Y-11589780D01*
X9296870Y-11549780D02*
X9256870Y-11589780D01*
X9305590Y-10173330D02*
X9345590Y-10213330D01*
X9345590Y-10173330D02*
X9305590Y-10213330D01*
X9352290Y-11582790D02*
X9392290Y-11622790D01*
X9392290Y-11582790D02*
X9352290Y-11622790D01*
X9506250Y-11921870D02*
X9546250Y-11961870D01*
X9546250Y-11921870D02*
X9506250Y-11961870D01*
X9507770Y-12387680D02*
X9547770Y-12427680D01*
X9547770Y-12387680D02*
X9507770Y-12427680D01*
X9508540Y-12674510D02*
X9548540Y-12714510D01*
X9548540Y-12674510D02*
X9508540Y-12714510D01*
X9509880Y-13035240D02*
X9549880Y-13075240D01*
X9549880Y-13035240D02*
X9509880Y-13075240D01*
X9513700Y-11499410D02*
X9553700Y-11539410D01*
X9553700Y-11499410D02*
X9513700Y-11539410D01*
X9561790Y-12213390D02*
X9601790Y-12253390D01*
X9601790Y-12213390D02*
X9561790Y-12253390D01*
X9571040Y-13456010D02*
X9611040Y-13496010D01*
X9611040Y-13456010D02*
X9571040Y-13496010D01*
X9603550Y-12674510D02*
X9643550Y-12714510D01*
X9643550Y-12674510D02*
X9603550Y-12714510D01*
X9626900Y-13559010D02*
X9666900Y-13599010D01*
X9666900Y-13559010D02*
X9626900Y-13599010D01*
X9632780Y-13034250D02*
X9672780Y-13074250D01*
X9672780Y-13034250D02*
X9632780Y-13074250D01*
X9710160Y-12436500D02*
X9750160Y-12476500D01*
X9750160Y-12436500D02*
X9710160Y-12476500D01*
X9736740Y-12664130D02*
X9776740Y-12704130D01*
X9776740Y-12664130D02*
X9736740Y-12704130D01*
X9796610Y-8706410D02*
X9836610Y-8746410D01*
X9836610Y-8706410D02*
X9796610Y-8746410D01*
X9909780Y-8685200D02*
X9949780Y-8725200D01*
X9949780Y-8685200D02*
X9909780Y-8725200D01*
X10114760Y-12595410D02*
X10154760Y-12635410D01*
X10154760Y-12595410D02*
X10114760Y-12635410D01*
X10159840Y-11821120D02*
X10199840Y-11861120D01*
X10199840Y-11821120D02*
X10159840Y-11861120D01*
X10232600Y-13004590D02*
X10272600Y-13044590D01*
X10272600Y-13004590D02*
X10232600Y-13044590D01*
X10244770Y-14827060D02*
X10284770Y-14867060D01*
X10284770Y-14827060D02*
X10244770Y-14867060D01*
X10331620Y-11964800D02*
X10371620Y-12004800D01*
X10371620Y-11964800D02*
X10331620Y-12004800D01*
X10355120Y-12974810D02*
X10395120Y-13014810D01*
X10395120Y-12974810D02*
X10355120Y-13014810D01*
X10379320Y-9304510D02*
X10419320Y-9344510D01*
X10419320Y-9304510D02*
X10379320Y-9344510D01*
X10463700Y-8177720D02*
X10503700Y-8217720D01*
X10503700Y-8177720D02*
X10463700Y-8217720D01*
X10535010Y-10997410D02*
X10575010Y-11037410D01*
X10575010Y-10997410D02*
X10535010Y-11037410D01*
X10588920Y-13494950D02*
X10628920Y-13534950D01*
X10628920Y-13494950D02*
X10588920Y-13534950D01*
X10589570Y-8655280D02*
X10629570Y-8695280D01*
X10629570Y-8655280D02*
X10589570Y-8695280D01*
X10599560Y-13266380D02*
X10639560Y-13306380D01*
X10639560Y-13266380D02*
X10599560Y-13306380D01*
X10627960Y-12273590D02*
X10667960Y-12313590D01*
X10667960Y-12273590D02*
X10627960Y-12313590D01*
X10651360Y-11958500D02*
X10691360Y-11998500D01*
X10691360Y-11958500D02*
X10651360Y-11998500D01*
X10688310Y-11806350D02*
X10728310Y-11846350D01*
X10728310Y-11806350D02*
X10688310Y-11846350D01*
X10812670Y-11965520D02*
X10852670Y-12005520D01*
X10852670Y-11965520D02*
X10812670Y-12005520D01*
X10843000Y-13656860D02*
X10883000Y-13696860D01*
X10883000Y-13656860D02*
X10843000Y-13696860D01*
X10885250Y-8363190D02*
X10925250Y-8403190D01*
X10925250Y-8363190D02*
X10885250Y-8403190D01*
X10906200Y-8164590D02*
X10946200Y-8204590D01*
X10946200Y-8164590D02*
X10906200Y-8204590D01*
X10982620Y-11647180D02*
X11022620Y-11687180D01*
X11022620Y-11647180D02*
X10982620Y-11687180D01*
X10999810Y-17842370D02*
X11039810Y-17882370D01*
X11039810Y-17842370D02*
X10999810Y-17882370D01*
X11005330Y-13897970D02*
X11045330Y-13937970D01*
X11045330Y-13897970D02*
X11005330Y-13937970D01*
X11055700Y-15753960D02*
X11095700Y-15793960D01*
X11095700Y-15753960D02*
X11055700Y-15793960D01*
X11066330Y-8227860D02*
X11106330Y-8267860D01*
X11106330Y-8227860D02*
X11066330Y-8267860D01*
X11105050Y-10743620D02*
X11145050Y-10783620D01*
X11145050Y-10743620D02*
X11105050Y-10783620D01*
X11116680Y-13137700D02*
X11156680Y-13177700D01*
X11156680Y-13137700D02*
X11116680Y-13177700D01*
X11347120Y-11732540D02*
X11387120Y-11772540D01*
X11387120Y-11732540D02*
X11347120Y-11772540D01*
X11390860Y-17821800D02*
X11430860Y-17861800D01*
X11430860Y-17821800D02*
X11390860Y-17861800D01*
D13*
X6745600Y-11027600D02*
G75*
G03*
X6745600Y-11027600I-40000J0D01*
G01*
X6745600Y-11527600D02*
G75*
G03*
X6745600Y-11527600I-40000J0D01*
G01*
X6796400Y-11891200D02*
G75*
G03*
X6796400Y-11891200I-40000J0D01*
G01*
X6796400Y-12391200D02*
G75*
G03*
X6796400Y-12391200I-40000J0D01*
G01*
X6796400Y-13008800D02*
G75*
G03*
X6796400Y-13008800I-40000J0D01*
G01*
X6796400Y-13508800D02*
G75*
G03*
X6796400Y-13508800I-40000J0D01*
G01*
X6796400Y-14173200D02*
G75*
G03*
X6796400Y-14173200I-40000J0D01*
G01*
X7046400Y-14173200D02*
G75*
G03*
X7046400Y-14173200I-40000J0D01*
G01*
X7206800Y-11125200D02*
G75*
G03*
X7206800Y-11125200I-40000J0D01*
G01*
X7706800Y-11125200D02*
G75*
G03*
X7706800Y-11125200I-40000J0D01*
G01*
X7761600Y-15798800D02*
G75*
G03*
X7761600Y-15798800I-40000J0D01*
G01*
X7761600Y-16814800D02*
G75*
G03*
X7761600Y-16814800I-40000J0D01*
G01*
X7964800Y-14583600D02*
G75*
G03*
X7964800Y-14583600I-40000J0D01*
G01*
X7964800Y-15083600D02*
G75*
G03*
X7964800Y-15083600I-40000J0D01*
G01*
X8426000Y-14376400D02*
G75*
G03*
X8426000Y-14376400I-40000J0D01*
G01*
X8629200Y-10972800D02*
G75*
G03*
X8629200Y-10972800I-40000J0D01*
G01*
X8926000Y-14376400D02*
G75*
G03*
X8926000Y-14376400I-40000J0D01*
G01*
X9129200Y-10972800D02*
G75*
G03*
X9129200Y-10972800I-40000J0D01*
G01*
X9246800Y-14224000D02*
G75*
G03*
X9246800Y-14224000I-40000J0D01*
G01*
X9746800Y-14224000D02*
G75*
G03*
X9746800Y-14224000I-40000J0D01*
G01*
X9895200Y-11176000D02*
G75*
G03*
X9895200Y-11176000I-40000J0D01*
G01*
X9895200Y-11426000D02*
G75*
G03*
X9895200Y-11426000I-40000J0D01*
G01*
X10047600Y-12450000D02*
G75*
G03*
X10047600Y-12450000I-40000J0D01*
G01*
X10047600Y-12950000D02*
G75*
G03*
X10047600Y-12950000I-40000J0D01*
G01*
X10051600Y-15036800D02*
G75*
G03*
X10051600Y-15036800I-40000J0D01*
G01*
X10551600Y-15036800D02*
G75*
G03*
X10551600Y-15036800I-40000J0D01*
G01*
D10*
X5689600Y-5995700D02*
X5689600Y-6095700D01*
X5639600Y-6045700D02*
X5739600Y-6045700D01*
X5689600Y-6249700D02*
X5689600Y-6349700D01*
X5639600Y-6299700D02*
X5739600Y-6299700D01*
X5689600Y-6503700D02*
X5689600Y-6603700D01*
X5639600Y-6553700D02*
X5739600Y-6553700D01*
X5689600Y-6757700D02*
X5689600Y-6857700D01*
X5639600Y-6807700D02*
X5739600Y-6807700D01*
X5689600Y-7011700D02*
X5689600Y-7111700D01*
X5639600Y-7061700D02*
X5739600Y-7061700D01*
X5689600Y-7265700D02*
X5689600Y-7365700D01*
X5639600Y-7315700D02*
X5739600Y-7315700D01*
X5689600Y-7519700D02*
X5689600Y-7619700D01*
X5639600Y-7569700D02*
X5739600Y-7569700D01*
X5689600Y-7773700D02*
X5689600Y-7873700D01*
X5639600Y-7823700D02*
X5739600Y-7823700D01*
X5689600Y-8027700D02*
X5689600Y-8127700D01*
X5639600Y-8077700D02*
X5739600Y-8077700D01*
X5689600Y-8281700D02*
X5689600Y-8381700D01*
X5639600Y-8331700D02*
X5739600Y-8331700D01*
X5689600Y-8535200D02*
X5689600Y-8635200D01*
X5639600Y-8585200D02*
X5739600Y-8585200D01*
X5689600Y-8789200D02*
X5689600Y-8889200D01*
X5639600Y-8839200D02*
X5739600Y-8839200D01*
X5689600Y-9043200D02*
X5689600Y-9143200D01*
X5639600Y-9093200D02*
X5739600Y-9093200D01*
X5689600Y-9297200D02*
X5689600Y-9397200D01*
X5639600Y-9347200D02*
X5739600Y-9347200D01*
X5689600Y-9551200D02*
X5689600Y-9651200D01*
X5639600Y-9601200D02*
X5739600Y-9601200D01*
X5689600Y-9805200D02*
X5689600Y-9905200D01*
X5639600Y-9855200D02*
X5739600Y-9855200D01*
X5689600Y-10059200D02*
X5689600Y-10159200D01*
X5639600Y-10109200D02*
X5739600Y-10109200D01*
X5689600Y-10313200D02*
X5689600Y-10413200D01*
X5639600Y-10363200D02*
X5739600Y-10363200D01*
X5689600Y-10567200D02*
X5689600Y-10667200D01*
X5639600Y-10617200D02*
X5739600Y-10617200D01*
X5689600Y-10821200D02*
X5689600Y-10921200D01*
X5639600Y-10871200D02*
X5739600Y-10871200D01*
X5689600Y-11075200D02*
X5689600Y-11175200D01*
X5639600Y-11125200D02*
X5739600Y-11125200D01*
X5689600Y-11329200D02*
X5689600Y-11429200D01*
X5639600Y-11379200D02*
X5739600Y-11379200D01*
X5689600Y-11583200D02*
X5689600Y-11683200D01*
X5639600Y-11633200D02*
X5739600Y-11633200D01*
X5689600Y-11837200D02*
X5689600Y-11937200D01*
X5639600Y-11887200D02*
X5739600Y-11887200D01*
X5689600Y-12091200D02*
X5689600Y-12191200D01*
X5639600Y-12141200D02*
X5739600Y-12141200D01*
X5689600Y-12345200D02*
X5689600Y-12445200D01*
X5639600Y-12395200D02*
X5739600Y-12395200D01*
X5689600Y-12599200D02*
X5689600Y-12699200D01*
X5639600Y-12649200D02*
X5739600Y-12649200D01*
X5689600Y-12853200D02*
X5689600Y-12953200D01*
X5639600Y-12903200D02*
X5739600Y-12903200D01*
X5689600Y-13107200D02*
X5689600Y-13207200D01*
X5639600Y-13157200D02*
X5739600Y-13157200D01*
X5689600Y-13361200D02*
X5689600Y-13461200D01*
X5639600Y-13411200D02*
X5739600Y-13411200D01*
X5689600Y-13615200D02*
X5689600Y-13715200D01*
X5639600Y-13665200D02*
X5739600Y-13665200D01*
X5689600Y-13869200D02*
X5689600Y-13969200D01*
X5639600Y-13919200D02*
X5739600Y-13919200D01*
X5689600Y-14123200D02*
X5689600Y-14223200D01*
X5639600Y-14173200D02*
X5739600Y-14173200D01*
X5689600Y-14377200D02*
X5689600Y-14477200D01*
X5639600Y-14427200D02*
X5739600Y-14427200D01*
X5689600Y-14631200D02*
X5689600Y-14731200D01*
X5639600Y-14681200D02*
X5739600Y-14681200D01*
X5689600Y-14885200D02*
X5689600Y-14985200D01*
X5639600Y-14935200D02*
X5739600Y-14935200D01*
X5689600Y-15139200D02*
X5689600Y-15239200D01*
X5639600Y-15189200D02*
X5739600Y-15189200D01*
X5689600Y-15393200D02*
X5689600Y-15493200D01*
X5639600Y-15443200D02*
X5739600Y-15443200D01*
X5689600Y-15647200D02*
X5689600Y-15747200D01*
X5639600Y-15697200D02*
X5739600Y-15697200D01*
X5689600Y-15901200D02*
X5689600Y-16001200D01*
X5639600Y-15951200D02*
X5739600Y-15951200D01*
X5689600Y-16155200D02*
X5689600Y-16255200D01*
X5639600Y-16205200D02*
X5739600Y-16205200D01*
X5689600Y-16409200D02*
X5689600Y-16509200D01*
X5639600Y-16459200D02*
X5739600Y-16459200D01*
X5689600Y-16663200D02*
X5689600Y-16763200D01*
X5639600Y-16713200D02*
X5739600Y-16713200D01*
X5689600Y-16917200D02*
X5689600Y-17017200D01*
X5639600Y-16967200D02*
X5739600Y-16967200D01*
X5689600Y-17171200D02*
X5689600Y-17271200D01*
X5639600Y-17221200D02*
X5739600Y-17221200D01*
X5689600Y-17425200D02*
X5689600Y-17525200D01*
X5639600Y-17475200D02*
X5739600Y-17475200D01*
X5689600Y-17679200D02*
X5689600Y-17779200D01*
X5639600Y-17729200D02*
X5739600Y-17729200D01*
X5689600Y-17933200D02*
X5689600Y-18033200D01*
X5639600Y-17983200D02*
X5739600Y-17983200D01*
X5689600Y-18187200D02*
X5689600Y-18287200D01*
X5639600Y-18237200D02*
X5739600Y-18237200D01*
X5689600Y-18441200D02*
X5689600Y-18541200D01*
X5639600Y-18491200D02*
X5739600Y-18491200D01*
X6628900Y-16053600D02*
X6628900Y-16153600D01*
X6578900Y-16103600D02*
X6678900Y-16103600D01*
X6882900Y-16053600D02*
X6882900Y-16153600D01*
X6832900Y-16103600D02*
X6932900Y-16103600D01*
X8382000Y-15825000D02*
X8382000Y-15925000D01*
X8332000Y-15875000D02*
X8432000Y-15875000D01*
X8636000Y-15825000D02*
X8636000Y-15925000D01*
X8586000Y-15875000D02*
X8686000Y-15875000D01*
X8890000Y-15825000D02*
X8890000Y-15925000D01*
X8840000Y-15875000D02*
X8940000Y-15875000D01*
X9144000Y-15825000D02*
X9144000Y-15925000D01*
X9094000Y-15875000D02*
X9194000Y-15875000D01*
X9398000Y-15825000D02*
X9398000Y-15925000D01*
X9348000Y-15875000D02*
X9448000Y-15875000D01*
X9652000Y-15825000D02*
X9652000Y-15925000D01*
X9602000Y-15875000D02*
X9702000Y-15875000D01*
X11277600Y-5995700D02*
X11277600Y-6095700D01*
X11227600Y-6045700D02*
X11327600Y-6045700D01*
X11277600Y-6249700D02*
X11277600Y-6349700D01*
X11227600Y-6299700D02*
X11327600Y-6299700D01*
X11277600Y-6503700D02*
X11277600Y-6603700D01*
X11227600Y-6553700D02*
X11327600Y-6553700D01*
X11277600Y-6757700D02*
X11277600Y-6857700D01*
X11227600Y-6807700D02*
X11327600Y-6807700D01*
X11277600Y-7011700D02*
X11277600Y-7111700D01*
X11227600Y-7061700D02*
X11327600Y-7061700D01*
X11277600Y-7265700D02*
X11277600Y-7365700D01*
X11227600Y-7315700D02*
X11327600Y-7315700D01*
X11277600Y-7519700D02*
X11277600Y-7619700D01*
X11227600Y-7569700D02*
X11327600Y-7569700D01*
X11277600Y-7773700D02*
X11277600Y-7873700D01*
X11227600Y-7823700D02*
X11327600Y-7823700D01*
X11277600Y-8027700D02*
X11277600Y-8127700D01*
X11227600Y-8077700D02*
X11327600Y-8077700D01*
X11277600Y-8281700D02*
X11277600Y-8381700D01*
X11227600Y-8331700D02*
X11327600Y-8331700D01*
X11277600Y-8535700D02*
X11277600Y-8635700D01*
X11227600Y-8585700D02*
X11327600Y-8585700D01*
X11277600Y-8789700D02*
X11277600Y-8889700D01*
X11227600Y-8839700D02*
X11327600Y-8839700D01*
X11277600Y-9043700D02*
X11277600Y-9143700D01*
X11227600Y-9093700D02*
X11327600Y-9093700D01*
X11277600Y-9297700D02*
X11277600Y-9397700D01*
X11227600Y-9347700D02*
X11327600Y-9347700D01*
X11277600Y-9551700D02*
X11277600Y-9651700D01*
X11227600Y-9601700D02*
X11327600Y-9601700D01*
X11277600Y-9805700D02*
X11277600Y-9905700D01*
X11227600Y-9855700D02*
X11327600Y-9855700D01*
X11277600Y-10059700D02*
X11277600Y-10159700D01*
X11227600Y-10109700D02*
X11327600Y-10109700D01*
X11277600Y-10313700D02*
X11277600Y-10413700D01*
X11227600Y-10363700D02*
X11327600Y-10363700D01*
X11277600Y-10567700D02*
X11277600Y-10667700D01*
X11227600Y-10617700D02*
X11327600Y-10617700D01*
X11277600Y-10821700D02*
X11277600Y-10921700D01*
X11227600Y-10871700D02*
X11327600Y-10871700D01*
X11277600Y-11075700D02*
X11277600Y-11175700D01*
X11227600Y-11125700D02*
X11327600Y-11125700D01*
X11277600Y-11329700D02*
X11277600Y-11429700D01*
X11227600Y-11379700D02*
X11327600Y-11379700D01*
X11277600Y-11583700D02*
X11277600Y-11683700D01*
X11227600Y-11633700D02*
X11327600Y-11633700D01*
X11277600Y-11837700D02*
X11277600Y-11937700D01*
X11227600Y-11887700D02*
X11327600Y-11887700D01*
X11277600Y-12091700D02*
X11277600Y-12191700D01*
X11227600Y-12141700D02*
X11327600Y-12141700D01*
X11277600Y-12345700D02*
X11277600Y-12445700D01*
X11227600Y-12395700D02*
X11327600Y-12395700D01*
X11277600Y-12599700D02*
X11277600Y-12699700D01*
X11227600Y-12649700D02*
X11327600Y-12649700D01*
X11277600Y-12853700D02*
X11277600Y-12953700D01*
X11227600Y-12903700D02*
X11327600Y-12903700D01*
X11277600Y-13107700D02*
X11277600Y-13207700D01*
X11227600Y-13157700D02*
X11327600Y-13157700D01*
X11277600Y-13361700D02*
X11277600Y-13461700D01*
X11227600Y-13411700D02*
X11327600Y-13411700D01*
X11277600Y-13615700D02*
X11277600Y-13715700D01*
X11227600Y-13665700D02*
X11327600Y-13665700D01*
X11277600Y-13869700D02*
X11277600Y-13969700D01*
X11227600Y-13919700D02*
X11327600Y-13919700D01*
X11277600Y-14123700D02*
X11277600Y-14223700D01*
X11227600Y-14173700D02*
X11327600Y-14173700D01*
X11277600Y-14377700D02*
X11277600Y-14477700D01*
X11227600Y-14427700D02*
X11327600Y-14427700D01*
X11277600Y-14631700D02*
X11277600Y-14731700D01*
X11227600Y-14681700D02*
X11327600Y-14681700D01*
X11277600Y-14885700D02*
X11277600Y-14985700D01*
X11227600Y-14935700D02*
X11327600Y-14935700D01*
X11277600Y-15139700D02*
X11277600Y-15239700D01*
X11227600Y-15189700D02*
X11327600Y-15189700D01*
X11277600Y-15393700D02*
X11277600Y-15493700D01*
X11227600Y-15443700D02*
X11327600Y-15443700D01*
X11277600Y-15647700D02*
X11277600Y-15747700D01*
X11227600Y-15697700D02*
X11327600Y-15697700D01*
X11277600Y-15901700D02*
X11277600Y-16001700D01*
X11227600Y-15951700D02*
X11327600Y-15951700D01*
X11277600Y-16155200D02*
X11277600Y-16255200D01*
X11227600Y-16205200D02*
X11327600Y-16205200D01*
X11277600Y-16409200D02*
X11277600Y-16509200D01*
X11227600Y-16459200D02*
X11327600Y-16459200D01*
X11277600Y-16663200D02*
X11277600Y-16763200D01*
X11227600Y-16713200D02*
X11327600Y-16713200D01*
X11277600Y-16917200D02*
X11277600Y-17017200D01*
X11227600Y-16967200D02*
X11327600Y-16967200D01*
X11277600Y-17171200D02*
X11277600Y-17271200D01*
X11227600Y-17221200D02*
X11327600Y-17221200D01*
X11277600Y-17425200D02*
X11277600Y-17525200D01*
X11227600Y-17475200D02*
X11327600Y-17475200D01*
X11277600Y-17679200D02*
X11277600Y-17779200D01*
X11227600Y-17729200D02*
X11327600Y-17729200D01*
X11277600Y-17933200D02*
X11277600Y-18033200D01*
X11227600Y-17983200D02*
X11327600Y-17983200D01*
X11277600Y-18187200D02*
X11277600Y-18287200D01*
X11227600Y-18237200D02*
X11327600Y-18237200D01*
X11277600Y-18441200D02*
X11277600Y-18541200D01*
X11227600Y-18491200D02*
X11327600Y-18491200D01*
D11*
X5535819Y-19162276D02*
X5535819Y-18962276D01*
X5583438Y-18962276D01*
X5612009Y-18971800D01*
X5631057Y-18990848D01*
X5640581Y-19009895D01*
X5650105Y-19047990D01*
X5650105Y-19076562D01*
X5640581Y-19114657D01*
X5631057Y-19133705D01*
X5612009Y-19152752D01*
X5583438Y-19162276D01*
X5535819Y-19162276D01*
X5735819Y-19162276D02*
X5735819Y-19028943D01*
X5735819Y-19067038D02*
X5745343Y-19047990D01*
X5754867Y-19038467D01*
X5773914Y-19028943D01*
X5792962Y-19028943D01*
X5859628Y-19162276D02*
X5859628Y-19028943D01*
X5859628Y-18962276D02*
X5850105Y-18971800D01*
X5859628Y-18981324D01*
X5869152Y-18971800D01*
X5859628Y-18962276D01*
X5859628Y-18981324D01*
X5983438Y-19162276D02*
X5964390Y-19152752D01*
X5954867Y-19133705D01*
X5954867Y-18962276D01*
X6088200Y-19162276D02*
X6069152Y-19152752D01*
X6059628Y-19133705D01*
X6059628Y-18962276D01*
X6316771Y-19162276D02*
X6316771Y-18962276D01*
X6383438Y-19105133D01*
X6450105Y-18962276D01*
X6450105Y-19162276D01*
X6631057Y-19162276D02*
X6631057Y-19057514D01*
X6621533Y-19038467D01*
X6602486Y-19028943D01*
X6564390Y-19028943D01*
X6545343Y-19038467D01*
X6631057Y-19152752D02*
X6612009Y-19162276D01*
X6564390Y-19162276D01*
X6545343Y-19152752D01*
X6535819Y-19133705D01*
X6535819Y-19114657D01*
X6545343Y-19095610D01*
X6564390Y-19086086D01*
X6612009Y-19086086D01*
X6631057Y-19076562D01*
X6726295Y-19028943D02*
X6726295Y-19228943D01*
X6726295Y-19038467D02*
X6745343Y-19028943D01*
X6783438Y-19028943D01*
X6802486Y-19038467D01*
X6812009Y-19047990D01*
X6821533Y-19067038D01*
X6821533Y-19124181D01*
X6812009Y-19143229D01*
X6802486Y-19152752D01*
X6783438Y-19162276D01*
X6745343Y-19162276D01*
X6726295Y-19152752D01*
X6907248Y-19143229D02*
X6916771Y-19152752D01*
X6907248Y-19162276D01*
X6897724Y-19152752D01*
X6907248Y-19143229D01*
X6907248Y-19162276D01*
X6907248Y-19038467D02*
X6916771Y-19047990D01*
X6907248Y-19057514D01*
X6897724Y-19047990D01*
X6907248Y-19038467D01*
X6907248Y-19057514D01*
D12*
X5238200Y-19471800D02*
X5278200Y-19511800D01*
X5278200Y-19471800D02*
X5238200Y-19511800D01*
D11*
X5573914Y-19382276D02*
X5592962Y-19382276D01*
X5612009Y-19391800D01*
X5621533Y-19401324D01*
X5631057Y-19420371D01*
X5640581Y-19458467D01*
X5640581Y-19506086D01*
X5631057Y-19544181D01*
X5621533Y-19563229D01*
X5612009Y-19572752D01*
X5592962Y-19582276D01*
X5573914Y-19582276D01*
X5554867Y-19572752D01*
X5545343Y-19563229D01*
X5535819Y-19544181D01*
X5526295Y-19506086D01*
X5526295Y-19458467D01*
X5535819Y-19420371D01*
X5545343Y-19401324D01*
X5554867Y-19391800D01*
X5573914Y-19382276D01*
X5726295Y-19563229D02*
X5735819Y-19572752D01*
X5726295Y-19582276D01*
X5716771Y-19572752D01*
X5726295Y-19563229D01*
X5726295Y-19582276D01*
X5907248Y-19448943D02*
X5907248Y-19582276D01*
X5859628Y-19372752D02*
X5812009Y-19515610D01*
X5935819Y-19515610D01*
X6050105Y-19382276D02*
X6069152Y-19382276D01*
X6088200Y-19391800D01*
X6097724Y-19401324D01*
X6107248Y-19420371D01*
X6116771Y-19458467D01*
X6116771Y-19506086D01*
X6107248Y-19544181D01*
X6097724Y-19563229D01*
X6088200Y-19572752D01*
X6069152Y-19582276D01*
X6050105Y-19582276D01*
X6031057Y-19572752D01*
X6021533Y-19563229D01*
X6012009Y-19544181D01*
X6002486Y-19506086D01*
X6002486Y-19458467D01*
X6012009Y-19420371D01*
X6021533Y-19401324D01*
X6031057Y-19391800D01*
X6050105Y-19382276D01*
X6240581Y-19382276D02*
X6259628Y-19382276D01*
X6278676Y-19391800D01*
X6288200Y-19401324D01*
X6297724Y-19420371D01*
X6307248Y-19458467D01*
X6307248Y-19506086D01*
X6297724Y-19544181D01*
X6288200Y-19563229D01*
X6278676Y-19572752D01*
X6259628Y-19582276D01*
X6240581Y-19582276D01*
X6221533Y-19572752D01*
X6212009Y-19563229D01*
X6202486Y-19544181D01*
X6192962Y-19506086D01*
X6192962Y-19458467D01*
X6202486Y-19420371D01*
X6212009Y-19401324D01*
X6221533Y-19391800D01*
X6240581Y-19382276D01*
X6392962Y-19582276D02*
X6392962Y-19448943D01*
X6392962Y-19467990D02*
X6402486Y-19458467D01*
X6421533Y-19448943D01*
X6450105Y-19448943D01*
X6469152Y-19458467D01*
X6478676Y-19477514D01*
X6478676Y-19582276D01*
X6478676Y-19477514D02*
X6488200Y-19458467D01*
X6507248Y-19448943D01*
X6535819Y-19448943D01*
X6554867Y-19458467D01*
X6564390Y-19477514D01*
X6564390Y-19582276D01*
X6659628Y-19582276D02*
X6659628Y-19448943D01*
X6659628Y-19467990D02*
X6669152Y-19458467D01*
X6688200Y-19448943D01*
X6716771Y-19448943D01*
X6735819Y-19458467D01*
X6745343Y-19477514D01*
X6745343Y-19582276D01*
X6745343Y-19477514D02*
X6754867Y-19458467D01*
X6773914Y-19448943D01*
X6802486Y-19448943D01*
X6821533Y-19458467D01*
X6831057Y-19477514D01*
X6831057Y-19582276D01*
X7221533Y-19372752D02*
X7050105Y-19629895D01*
X7478676Y-19382276D02*
X7497724Y-19382276D01*
X7516771Y-19391800D01*
X7526295Y-19401324D01*
X7535819Y-19420371D01*
X7545343Y-19458467D01*
X7545343Y-19506086D01*
X7535819Y-19544181D01*
X7526295Y-19563229D01*
X7516771Y-19572752D01*
X7497724Y-19582276D01*
X7478676Y-19582276D01*
X7459628Y-19572752D01*
X7450105Y-19563229D01*
X7440581Y-19544181D01*
X7431057Y-19506086D01*
X7431057Y-19458467D01*
X7440581Y-19420371D01*
X7450105Y-19401324D01*
X7459628Y-19391800D01*
X7478676Y-19382276D01*
X7631057Y-19563229D02*
X7640581Y-19572752D01*
X7631057Y-19582276D01*
X7621533Y-19572752D01*
X7631057Y-19563229D01*
X7631057Y-19582276D01*
X7764390Y-19382276D02*
X7783438Y-19382276D01*
X7802486Y-19391800D01*
X7812009Y-19401324D01*
X7821533Y-19420371D01*
X7831057Y-19458467D01*
X7831057Y-19506086D01*
X7821533Y-19544181D01*
X7812009Y-19563229D01*
X7802486Y-19572752D01*
X7783438Y-19582276D01*
X7764390Y-19582276D01*
X7745343Y-19572752D01*
X7735819Y-19563229D01*
X7726295Y-19544181D01*
X7716771Y-19506086D01*
X7716771Y-19458467D01*
X7726295Y-19420371D01*
X7735819Y-19401324D01*
X7745343Y-19391800D01*
X7764390Y-19382276D01*
X8021533Y-19582276D02*
X7907248Y-19582276D01*
X7964390Y-19582276D02*
X7964390Y-19382276D01*
X7945343Y-19410848D01*
X7926295Y-19429895D01*
X7907248Y-19439419D01*
X8202486Y-19382276D02*
X8107248Y-19382276D01*
X8097724Y-19477514D01*
X8107248Y-19467990D01*
X8126295Y-19458467D01*
X8173914Y-19458467D01*
X8192962Y-19467990D01*
X8202486Y-19477514D01*
X8212009Y-19496562D01*
X8212009Y-19544181D01*
X8202486Y-19563229D01*
X8192962Y-19572752D01*
X8173914Y-19582276D01*
X8126295Y-19582276D01*
X8107248Y-19572752D01*
X8097724Y-19563229D01*
X8278676Y-19382276D02*
X8412010Y-19382276D01*
X8326295Y-19582276D01*
X8478676Y-19382276D02*
X8478676Y-19420371D01*
X8554867Y-19382276D02*
X8554867Y-19420371D01*
X8850105Y-19658467D02*
X8840581Y-19648943D01*
X8821533Y-19620371D01*
X8812010Y-19601324D01*
X8802486Y-19572752D01*
X8792962Y-19525133D01*
X8792962Y-19487038D01*
X8802486Y-19439419D01*
X8812010Y-19410848D01*
X8821533Y-19391800D01*
X8840581Y-19363229D01*
X8850105Y-19353705D01*
X9031057Y-19582276D02*
X8916771Y-19582276D01*
X8973914Y-19582276D02*
X8973914Y-19382276D01*
X8954867Y-19410848D01*
X8935819Y-19429895D01*
X8916771Y-19439419D01*
X9145343Y-19467990D02*
X9126295Y-19458467D01*
X9116771Y-19448943D01*
X9107248Y-19429895D01*
X9107248Y-19420371D01*
X9116771Y-19401324D01*
X9126295Y-19391800D01*
X9145343Y-19382276D01*
X9183438Y-19382276D01*
X9202486Y-19391800D01*
X9212010Y-19401324D01*
X9221533Y-19420371D01*
X9221533Y-19429895D01*
X9212010Y-19448943D01*
X9202486Y-19458467D01*
X9183438Y-19467990D01*
X9145343Y-19467990D01*
X9126295Y-19477514D01*
X9116771Y-19487038D01*
X9107248Y-19506086D01*
X9107248Y-19544181D01*
X9116771Y-19563229D01*
X9126295Y-19572752D01*
X9145343Y-19582276D01*
X9183438Y-19582276D01*
X9202486Y-19572752D01*
X9212010Y-19563229D01*
X9221533Y-19544181D01*
X9221533Y-19506086D01*
X9212010Y-19487038D01*
X9202486Y-19477514D01*
X9183438Y-19467990D01*
X9288200Y-19382276D02*
X9421533Y-19382276D01*
X9335819Y-19582276D01*
X9650105Y-19582276D02*
X9650105Y-19382276D01*
X9735819Y-19582276D02*
X9735819Y-19477514D01*
X9726295Y-19458467D01*
X9707248Y-19448943D01*
X9678676Y-19448943D01*
X9659629Y-19458467D01*
X9650105Y-19467990D01*
X9859629Y-19582276D02*
X9840581Y-19572752D01*
X9831057Y-19563229D01*
X9821533Y-19544181D01*
X9821533Y-19487038D01*
X9831057Y-19467990D01*
X9840581Y-19458467D01*
X9859629Y-19448943D01*
X9888200Y-19448943D01*
X9907248Y-19458467D01*
X9916771Y-19467990D01*
X9926295Y-19487038D01*
X9926295Y-19544181D01*
X9916771Y-19563229D01*
X9907248Y-19572752D01*
X9888200Y-19582276D01*
X9859629Y-19582276D01*
X10040581Y-19582276D02*
X10021533Y-19572752D01*
X10012010Y-19553705D01*
X10012010Y-19382276D01*
X10192962Y-19572752D02*
X10173914Y-19582276D01*
X10135819Y-19582276D01*
X10116771Y-19572752D01*
X10107248Y-19553705D01*
X10107248Y-19477514D01*
X10116771Y-19458467D01*
X10135819Y-19448943D01*
X10173914Y-19448943D01*
X10192962Y-19458467D01*
X10202486Y-19477514D01*
X10202486Y-19496562D01*
X10107248Y-19515610D01*
X10278676Y-19572752D02*
X10297724Y-19582276D01*
X10335819Y-19582276D01*
X10354867Y-19572752D01*
X10364390Y-19553705D01*
X10364390Y-19544181D01*
X10354867Y-19525133D01*
X10335819Y-19515610D01*
X10307248Y-19515610D01*
X10288200Y-19506086D01*
X10278676Y-19487038D01*
X10278676Y-19477514D01*
X10288200Y-19458467D01*
X10307248Y-19448943D01*
X10335819Y-19448943D01*
X10354867Y-19458467D01*
X10431057Y-19658467D02*
X10440581Y-19648943D01*
X10459629Y-19620371D01*
X10469152Y-19601324D01*
X10478676Y-19572752D01*
X10488200Y-19525133D01*
X10488200Y-19487038D01*
X10478676Y-19439419D01*
X10469152Y-19410848D01*
X10459629Y-19391800D01*
X10440581Y-19363229D01*
X10431057Y-19353705D01*
D13*
X5278200Y-19755800D02*
G75*
G03*
X5278200Y-19755800I-40000J0D01*
G01*
D11*
X5573914Y-19646276D02*
X5592962Y-19646276D01*
X5612009Y-19655800D01*
X5621533Y-19665324D01*
X5631057Y-19684371D01*
X5640581Y-19722467D01*
X5640581Y-19770086D01*
X5631057Y-19808181D01*
X5621533Y-19827229D01*
X5612009Y-19836752D01*
X5592962Y-19846276D01*
X5573914Y-19846276D01*
X5554867Y-19836752D01*
X5545343Y-19827229D01*
X5535819Y-19808181D01*
X5526295Y-19770086D01*
X5526295Y-19722467D01*
X5535819Y-19684371D01*
X5545343Y-19665324D01*
X5554867Y-19655800D01*
X5573914Y-19646276D01*
X5726295Y-19827229D02*
X5735819Y-19836752D01*
X5726295Y-19846276D01*
X5716771Y-19836752D01*
X5726295Y-19827229D01*
X5726295Y-19846276D01*
X5850105Y-19731990D02*
X5831057Y-19722467D01*
X5821533Y-19712943D01*
X5812009Y-19693895D01*
X5812009Y-19684371D01*
X5821533Y-19665324D01*
X5831057Y-19655800D01*
X5850105Y-19646276D01*
X5888200Y-19646276D01*
X5907248Y-19655800D01*
X5916771Y-19665324D01*
X5926295Y-19684371D01*
X5926295Y-19693895D01*
X5916771Y-19712943D01*
X5907248Y-19722467D01*
X5888200Y-19731990D01*
X5850105Y-19731990D01*
X5831057Y-19741514D01*
X5821533Y-19751038D01*
X5812009Y-19770086D01*
X5812009Y-19808181D01*
X5821533Y-19827229D01*
X5831057Y-19836752D01*
X5850105Y-19846276D01*
X5888200Y-19846276D01*
X5907248Y-19836752D01*
X5916771Y-19827229D01*
X5926295Y-19808181D01*
X5926295Y-19770086D01*
X5916771Y-19751038D01*
X5907248Y-19741514D01*
X5888200Y-19731990D01*
X6050105Y-19646276D02*
X6069152Y-19646276D01*
X6088200Y-19655800D01*
X6097724Y-19665324D01*
X6107248Y-19684371D01*
X6116771Y-19722467D01*
X6116771Y-19770086D01*
X6107248Y-19808181D01*
X6097724Y-19827229D01*
X6088200Y-19836752D01*
X6069152Y-19846276D01*
X6050105Y-19846276D01*
X6031057Y-19836752D01*
X6021533Y-19827229D01*
X6012009Y-19808181D01*
X6002486Y-19770086D01*
X6002486Y-19722467D01*
X6012009Y-19684371D01*
X6021533Y-19665324D01*
X6031057Y-19655800D01*
X6050105Y-19646276D01*
X6240581Y-19646276D02*
X6259628Y-19646276D01*
X6278676Y-19655800D01*
X6288200Y-19665324D01*
X6297724Y-19684371D01*
X6307248Y-19722467D01*
X6307248Y-19770086D01*
X6297724Y-19808181D01*
X6288200Y-19827229D01*
X6278676Y-19836752D01*
X6259628Y-19846276D01*
X6240581Y-19846276D01*
X6221533Y-19836752D01*
X6212009Y-19827229D01*
X6202486Y-19808181D01*
X6192962Y-19770086D01*
X6192962Y-19722467D01*
X6202486Y-19684371D01*
X6212009Y-19665324D01*
X6221533Y-19655800D01*
X6240581Y-19646276D01*
X6392962Y-19846276D02*
X6392962Y-19712943D01*
X6392962Y-19731990D02*
X6402486Y-19722467D01*
X6421533Y-19712943D01*
X6450105Y-19712943D01*
X6469152Y-19722467D01*
X6478676Y-19741514D01*
X6478676Y-19846276D01*
X6478676Y-19741514D02*
X6488200Y-19722467D01*
X6507248Y-19712943D01*
X6535819Y-19712943D01*
X6554867Y-19722467D01*
X6564390Y-19741514D01*
X6564390Y-19846276D01*
X6659628Y-19846276D02*
X6659628Y-19712943D01*
X6659628Y-19731990D02*
X6669152Y-19722467D01*
X6688200Y-19712943D01*
X6716771Y-19712943D01*
X6735819Y-19722467D01*
X6745343Y-19741514D01*
X6745343Y-19846276D01*
X6745343Y-19741514D02*
X6754867Y-19722467D01*
X6773914Y-19712943D01*
X6802486Y-19712943D01*
X6821533Y-19722467D01*
X6831057Y-19741514D01*
X6831057Y-19846276D01*
X7221533Y-19636752D02*
X7050105Y-19893895D01*
X7478676Y-19646276D02*
X7497724Y-19646276D01*
X7516771Y-19655800D01*
X7526295Y-19665324D01*
X7535819Y-19684371D01*
X7545343Y-19722467D01*
X7545343Y-19770086D01*
X7535819Y-19808181D01*
X7526295Y-19827229D01*
X7516771Y-19836752D01*
X7497724Y-19846276D01*
X7478676Y-19846276D01*
X7459628Y-19836752D01*
X7450105Y-19827229D01*
X7440581Y-19808181D01*
X7431057Y-19770086D01*
X7431057Y-19722467D01*
X7440581Y-19684371D01*
X7450105Y-19665324D01*
X7459628Y-19655800D01*
X7478676Y-19646276D01*
X7631057Y-19827229D02*
X7640581Y-19836752D01*
X7631057Y-19846276D01*
X7621533Y-19836752D01*
X7631057Y-19827229D01*
X7631057Y-19846276D01*
X7764390Y-19646276D02*
X7783438Y-19646276D01*
X7802486Y-19655800D01*
X7812009Y-19665324D01*
X7821533Y-19684371D01*
X7831057Y-19722467D01*
X7831057Y-19770086D01*
X7821533Y-19808181D01*
X7812009Y-19827229D01*
X7802486Y-19836752D01*
X7783438Y-19846276D01*
X7764390Y-19846276D01*
X7745343Y-19836752D01*
X7735819Y-19827229D01*
X7726295Y-19808181D01*
X7716771Y-19770086D01*
X7716771Y-19722467D01*
X7726295Y-19684371D01*
X7735819Y-19665324D01*
X7745343Y-19655800D01*
X7764390Y-19646276D01*
X7897724Y-19646276D02*
X8021533Y-19646276D01*
X7954867Y-19722467D01*
X7983438Y-19722467D01*
X8002486Y-19731990D01*
X8012009Y-19741514D01*
X8021533Y-19760562D01*
X8021533Y-19808181D01*
X8012009Y-19827229D01*
X8002486Y-19836752D01*
X7983438Y-19846276D01*
X7926295Y-19846276D01*
X7907248Y-19836752D01*
X7897724Y-19827229D01*
X8212009Y-19846276D02*
X8097724Y-19846276D01*
X8154867Y-19846276D02*
X8154867Y-19646276D01*
X8135819Y-19674848D01*
X8116771Y-19693895D01*
X8097724Y-19703419D01*
X8392962Y-19646276D02*
X8297724Y-19646276D01*
X8288200Y-19741514D01*
X8297724Y-19731990D01*
X8316771Y-19722467D01*
X8364390Y-19722467D01*
X8383438Y-19731990D01*
X8392962Y-19741514D01*
X8402486Y-19760562D01*
X8402486Y-19808181D01*
X8392962Y-19827229D01*
X8383438Y-19836752D01*
X8364390Y-19846276D01*
X8316771Y-19846276D01*
X8297724Y-19836752D01*
X8288200Y-19827229D01*
X8478676Y-19646276D02*
X8478676Y-19684371D01*
X8554867Y-19646276D02*
X8554867Y-19684371D01*
X8850105Y-19922467D02*
X8840581Y-19912943D01*
X8821533Y-19884371D01*
X8812010Y-19865324D01*
X8802486Y-19836752D01*
X8792962Y-19789133D01*
X8792962Y-19751038D01*
X8802486Y-19703419D01*
X8812010Y-19674848D01*
X8821533Y-19655800D01*
X8840581Y-19627229D01*
X8850105Y-19617705D01*
X8916771Y-19665324D02*
X8926295Y-19655800D01*
X8945343Y-19646276D01*
X8992962Y-19646276D01*
X9012010Y-19655800D01*
X9021533Y-19665324D01*
X9031057Y-19684371D01*
X9031057Y-19703419D01*
X9021533Y-19731990D01*
X8907248Y-19846276D01*
X9031057Y-19846276D01*
X9202486Y-19646276D02*
X9164390Y-19646276D01*
X9145343Y-19655800D01*
X9135819Y-19665324D01*
X9116771Y-19693895D01*
X9107248Y-19731990D01*
X9107248Y-19808181D01*
X9116771Y-19827229D01*
X9126295Y-19836752D01*
X9145343Y-19846276D01*
X9183438Y-19846276D01*
X9202486Y-19836752D01*
X9212010Y-19827229D01*
X9221533Y-19808181D01*
X9221533Y-19760562D01*
X9212010Y-19741514D01*
X9202486Y-19731990D01*
X9183438Y-19722467D01*
X9145343Y-19722467D01*
X9126295Y-19731990D01*
X9116771Y-19741514D01*
X9107248Y-19760562D01*
X9459629Y-19846276D02*
X9459629Y-19646276D01*
X9545343Y-19846276D02*
X9545343Y-19741514D01*
X9535819Y-19722467D01*
X9516771Y-19712943D01*
X9488200Y-19712943D01*
X9469152Y-19722467D01*
X9459629Y-19731990D01*
X9669152Y-19846276D02*
X9650105Y-19836752D01*
X9640581Y-19827229D01*
X9631057Y-19808181D01*
X9631057Y-19751038D01*
X9640581Y-19731990D01*
X9650105Y-19722467D01*
X9669152Y-19712943D01*
X9697724Y-19712943D01*
X9716771Y-19722467D01*
X9726295Y-19731990D01*
X9735819Y-19751038D01*
X9735819Y-19808181D01*
X9726295Y-19827229D01*
X9716771Y-19836752D01*
X9697724Y-19846276D01*
X9669152Y-19846276D01*
X9850105Y-19846276D02*
X9831057Y-19836752D01*
X9821533Y-19817705D01*
X9821533Y-19646276D01*
X10002486Y-19836752D02*
X9983438Y-19846276D01*
X9945343Y-19846276D01*
X9926295Y-19836752D01*
X9916771Y-19817705D01*
X9916771Y-19741514D01*
X9926295Y-19722467D01*
X9945343Y-19712943D01*
X9983438Y-19712943D01*
X10002486Y-19722467D01*
X10012010Y-19741514D01*
X10012010Y-19760562D01*
X9916771Y-19779610D01*
X10088200Y-19836752D02*
X10107248Y-19846276D01*
X10145343Y-19846276D01*
X10164390Y-19836752D01*
X10173914Y-19817705D01*
X10173914Y-19808181D01*
X10164390Y-19789133D01*
X10145343Y-19779610D01*
X10116771Y-19779610D01*
X10097724Y-19770086D01*
X10088200Y-19751038D01*
X10088200Y-19741514D01*
X10097724Y-19722467D01*
X10116771Y-19712943D01*
X10145343Y-19712943D01*
X10164390Y-19722467D01*
X10240581Y-19922467D02*
X10250105Y-19912943D01*
X10269152Y-19884371D01*
X10278676Y-19865324D01*
X10288200Y-19836752D01*
X10297724Y-19789133D01*
X10297724Y-19751038D01*
X10288200Y-19703419D01*
X10278676Y-19674848D01*
X10269152Y-19655800D01*
X10250105Y-19627229D01*
X10240581Y-19617705D01*
D10*
X5228200Y-19969800D02*
X5228200Y-20069800D01*
X5178200Y-20019800D02*
X5278200Y-20019800D01*
D11*
X5640581Y-20110276D02*
X5526295Y-20110276D01*
X5583438Y-20110276D02*
X5583438Y-19910276D01*
X5564390Y-19938848D01*
X5545343Y-19957895D01*
X5526295Y-19967419D01*
X5726295Y-20091229D02*
X5735819Y-20100752D01*
X5726295Y-20110276D01*
X5716771Y-20100752D01*
X5726295Y-20091229D01*
X5726295Y-20110276D01*
X5859628Y-19910276D02*
X5878676Y-19910276D01*
X5897724Y-19919800D01*
X5907248Y-19929324D01*
X5916771Y-19948371D01*
X5926295Y-19986467D01*
X5926295Y-20034086D01*
X5916771Y-20072181D01*
X5907248Y-20091229D01*
X5897724Y-20100752D01*
X5878676Y-20110276D01*
X5859628Y-20110276D01*
X5840581Y-20100752D01*
X5831057Y-20091229D01*
X5821533Y-20072181D01*
X5812009Y-20034086D01*
X5812009Y-19986467D01*
X5821533Y-19948371D01*
X5831057Y-19929324D01*
X5840581Y-19919800D01*
X5859628Y-19910276D01*
X6050105Y-19910276D02*
X6069152Y-19910276D01*
X6088200Y-19919800D01*
X6097724Y-19929324D01*
X6107248Y-19948371D01*
X6116771Y-19986467D01*
X6116771Y-20034086D01*
X6107248Y-20072181D01*
X6097724Y-20091229D01*
X6088200Y-20100752D01*
X6069152Y-20110276D01*
X6050105Y-20110276D01*
X6031057Y-20100752D01*
X6021533Y-20091229D01*
X6012009Y-20072181D01*
X6002486Y-20034086D01*
X6002486Y-19986467D01*
X6012009Y-19948371D01*
X6021533Y-19929324D01*
X6031057Y-19919800D01*
X6050105Y-19910276D01*
X6240581Y-19910276D02*
X6259628Y-19910276D01*
X6278676Y-19919800D01*
X6288200Y-19929324D01*
X6297724Y-19948371D01*
X6307248Y-19986467D01*
X6307248Y-20034086D01*
X6297724Y-20072181D01*
X6288200Y-20091229D01*
X6278676Y-20100752D01*
X6259628Y-20110276D01*
X6240581Y-20110276D01*
X6221533Y-20100752D01*
X6212009Y-20091229D01*
X6202486Y-20072181D01*
X6192962Y-20034086D01*
X6192962Y-19986467D01*
X6202486Y-19948371D01*
X6212009Y-19929324D01*
X6221533Y-19919800D01*
X6240581Y-19910276D01*
X6392962Y-20110276D02*
X6392962Y-19976943D01*
X6392962Y-19995990D02*
X6402486Y-19986467D01*
X6421533Y-19976943D01*
X6450105Y-19976943D01*
X6469152Y-19986467D01*
X6478676Y-20005514D01*
X6478676Y-20110276D01*
X6478676Y-20005514D02*
X6488200Y-19986467D01*
X6507248Y-19976943D01*
X6535819Y-19976943D01*
X6554867Y-19986467D01*
X6564390Y-20005514D01*
X6564390Y-20110276D01*
X6659628Y-20110276D02*
X6659628Y-19976943D01*
X6659628Y-19995990D02*
X6669152Y-19986467D01*
X6688200Y-19976943D01*
X6716771Y-19976943D01*
X6735819Y-19986467D01*
X6745343Y-20005514D01*
X6745343Y-20110276D01*
X6745343Y-20005514D02*
X6754867Y-19986467D01*
X6773914Y-19976943D01*
X6802486Y-19976943D01*
X6821533Y-19986467D01*
X6831057Y-20005514D01*
X6831057Y-20110276D01*
X7221533Y-19900752D02*
X7050105Y-20157895D01*
X7478676Y-19910276D02*
X7497724Y-19910276D01*
X7516771Y-19919800D01*
X7526295Y-19929324D01*
X7535819Y-19948371D01*
X7545343Y-19986467D01*
X7545343Y-20034086D01*
X7535819Y-20072181D01*
X7526295Y-20091229D01*
X7516771Y-20100752D01*
X7497724Y-20110276D01*
X7478676Y-20110276D01*
X7459628Y-20100752D01*
X7450105Y-20091229D01*
X7440581Y-20072181D01*
X7431057Y-20034086D01*
X7431057Y-19986467D01*
X7440581Y-19948371D01*
X7450105Y-19929324D01*
X7459628Y-19919800D01*
X7478676Y-19910276D01*
X7631057Y-20091229D02*
X7640581Y-20100752D01*
X7631057Y-20110276D01*
X7621533Y-20100752D01*
X7631057Y-20091229D01*
X7631057Y-20110276D01*
X7764390Y-19910276D02*
X7783438Y-19910276D01*
X7802486Y-19919800D01*
X7812009Y-19929324D01*
X7821533Y-19948371D01*
X7831057Y-19986467D01*
X7831057Y-20034086D01*
X7821533Y-20072181D01*
X7812009Y-20091229D01*
X7802486Y-20100752D01*
X7783438Y-20110276D01*
X7764390Y-20110276D01*
X7745343Y-20100752D01*
X7735819Y-20091229D01*
X7726295Y-20072181D01*
X7716771Y-20034086D01*
X7716771Y-19986467D01*
X7726295Y-19948371D01*
X7735819Y-19929324D01*
X7745343Y-19919800D01*
X7764390Y-19910276D01*
X7897724Y-19910276D02*
X8021533Y-19910276D01*
X7954867Y-19986467D01*
X7983438Y-19986467D01*
X8002486Y-19995990D01*
X8012009Y-20005514D01*
X8021533Y-20024562D01*
X8021533Y-20072181D01*
X8012009Y-20091229D01*
X8002486Y-20100752D01*
X7983438Y-20110276D01*
X7926295Y-20110276D01*
X7907248Y-20100752D01*
X7897724Y-20091229D01*
X8116771Y-20110276D02*
X8154867Y-20110276D01*
X8173914Y-20100752D01*
X8183438Y-20091229D01*
X8202486Y-20062657D01*
X8212009Y-20024562D01*
X8212009Y-19948371D01*
X8202486Y-19929324D01*
X8192962Y-19919800D01*
X8173914Y-19910276D01*
X8135819Y-19910276D01*
X8116771Y-19919800D01*
X8107248Y-19929324D01*
X8097724Y-19948371D01*
X8097724Y-19995990D01*
X8107248Y-20015038D01*
X8116771Y-20024562D01*
X8135819Y-20034086D01*
X8173914Y-20034086D01*
X8192962Y-20024562D01*
X8202486Y-20015038D01*
X8212009Y-19995990D01*
X8383438Y-19976943D02*
X8383438Y-20110276D01*
X8335819Y-19900752D02*
X8288200Y-20043610D01*
X8412010Y-20043610D01*
X8478676Y-19910276D02*
X8478676Y-19948371D01*
X8554867Y-19910276D02*
X8554867Y-19948371D01*
X8850105Y-20186467D02*
X8840581Y-20176943D01*
X8821533Y-20148371D01*
X8812010Y-20129324D01*
X8802486Y-20100752D01*
X8792962Y-20053133D01*
X8792962Y-20015038D01*
X8802486Y-19967419D01*
X8812010Y-19938848D01*
X8821533Y-19919800D01*
X8840581Y-19891229D01*
X8850105Y-19881705D01*
X9031057Y-20110276D02*
X8916771Y-20110276D01*
X8973914Y-20110276D02*
X8973914Y-19910276D01*
X8954867Y-19938848D01*
X8935819Y-19957895D01*
X8916771Y-19967419D01*
X9154867Y-19910276D02*
X9173914Y-19910276D01*
X9192962Y-19919800D01*
X9202486Y-19929324D01*
X9212010Y-19948371D01*
X9221533Y-19986467D01*
X9221533Y-20034086D01*
X9212010Y-20072181D01*
X9202486Y-20091229D01*
X9192962Y-20100752D01*
X9173914Y-20110276D01*
X9154867Y-20110276D01*
X9135819Y-20100752D01*
X9126295Y-20091229D01*
X9116771Y-20072181D01*
X9107248Y-20034086D01*
X9107248Y-19986467D01*
X9116771Y-19948371D01*
X9126295Y-19929324D01*
X9135819Y-19919800D01*
X9154867Y-19910276D01*
X9335819Y-19995990D02*
X9316771Y-19986467D01*
X9307248Y-19976943D01*
X9297724Y-19957895D01*
X9297724Y-19948371D01*
X9307248Y-19929324D01*
X9316771Y-19919800D01*
X9335819Y-19910276D01*
X9373914Y-19910276D01*
X9392962Y-19919800D01*
X9402486Y-19929324D01*
X9412010Y-19948371D01*
X9412010Y-19957895D01*
X9402486Y-19976943D01*
X9392962Y-19986467D01*
X9373914Y-19995990D01*
X9335819Y-19995990D01*
X9316771Y-20005514D01*
X9307248Y-20015038D01*
X9297724Y-20034086D01*
X9297724Y-20072181D01*
X9307248Y-20091229D01*
X9316771Y-20100752D01*
X9335819Y-20110276D01*
X9373914Y-20110276D01*
X9392962Y-20100752D01*
X9402486Y-20091229D01*
X9412010Y-20072181D01*
X9412010Y-20034086D01*
X9402486Y-20015038D01*
X9392962Y-20005514D01*
X9373914Y-19995990D01*
X9650105Y-20110276D02*
X9650105Y-19910276D01*
X9735819Y-20110276D02*
X9735819Y-20005514D01*
X9726295Y-19986467D01*
X9707248Y-19976943D01*
X9678676Y-19976943D01*
X9659629Y-19986467D01*
X9650105Y-19995990D01*
X9859629Y-20110276D02*
X9840581Y-20100752D01*
X9831057Y-20091229D01*
X9821533Y-20072181D01*
X9821533Y-20015038D01*
X9831057Y-19995990D01*
X9840581Y-19986467D01*
X9859629Y-19976943D01*
X9888200Y-19976943D01*
X9907248Y-19986467D01*
X9916771Y-19995990D01*
X9926295Y-20015038D01*
X9926295Y-20072181D01*
X9916771Y-20091229D01*
X9907248Y-20100752D01*
X9888200Y-20110276D01*
X9859629Y-20110276D01*
X10040581Y-20110276D02*
X10021533Y-20100752D01*
X10012010Y-20081705D01*
X10012010Y-19910276D01*
X10192962Y-20100752D02*
X10173914Y-20110276D01*
X10135819Y-20110276D01*
X10116771Y-20100752D01*
X10107248Y-20081705D01*
X10107248Y-20005514D01*
X10116771Y-19986467D01*
X10135819Y-19976943D01*
X10173914Y-19976943D01*
X10192962Y-19986467D01*
X10202486Y-20005514D01*
X10202486Y-20024562D01*
X10107248Y-20043610D01*
X10278676Y-20100752D02*
X10297724Y-20110276D01*
X10335819Y-20110276D01*
X10354867Y-20100752D01*
X10364390Y-20081705D01*
X10364390Y-20072181D01*
X10354867Y-20053133D01*
X10335819Y-20043610D01*
X10307248Y-20043610D01*
X10288200Y-20034086D01*
X10278676Y-20015038D01*
X10278676Y-20005514D01*
X10288200Y-19986467D01*
X10307248Y-19976943D01*
X10335819Y-19976943D01*
X10354867Y-19986467D01*
X10431057Y-20186467D02*
X10440581Y-20176943D01*
X10459629Y-20148371D01*
X10469152Y-20129324D01*
X10478676Y-20100752D01*
X10488200Y-20053133D01*
X10488200Y-20015038D01*
X10478676Y-19967419D01*
X10469152Y-19938848D01*
X10459629Y-19919800D01*
X10440581Y-19891229D01*
X10431057Y-19881705D01*
M02*
