%TF.GenerationSoftware,KiCad,Pcbnew,6.0.11-2627ca5db0~126~ubuntu22.04.1*%
%TF.CreationDate,2023-04-21T14:56:34-05:00*%
%TF.ProjectId,xc2c128_breakout,78633263-3132-4385-9f62-7265616b6f75,rev?*%
%TF.SameCoordinates,Original*%
%TF.FileFunction,Paste,Top*%
%TF.FilePolarity,Positive*%
%FSLAX46Y46*%
G04 Gerber Fmt 4.6, Leading zero omitted, Abs format (unit mm)*
G04 Created by KiCad (PCBNEW 6.0.11-2627ca5db0~126~ubuntu22.04.1) date 2023-04-21 14:56:34*
%MOMM*%
%LPD*%
G01*
G04 APERTURE LIST*
G04 Aperture macros list*
%AMRoundRect*
0 Rectangle with rounded corners*
0 $1 Rounding radius*
0 $2 $3 $4 $5 $6 $7 $8 $9 X,Y pos of 4 corners*
0 Add a 4 corners polygon primitive as box body*
4,1,4,$2,$3,$4,$5,$6,$7,$8,$9,$2,$3,0*
0 Add four circle primitives for the rounded corners*
1,1,$1+$1,$2,$3*
1,1,$1+$1,$4,$5*
1,1,$1+$1,$6,$7*
1,1,$1+$1,$8,$9*
0 Add four rect primitives between the rounded corners*
20,1,$1+$1,$2,$3,$4,$5,0*
20,1,$1+$1,$4,$5,$6,$7,0*
20,1,$1+$1,$6,$7,$8,$9,0*
20,1,$1+$1,$8,$9,$2,$3,0*%
G04 Aperture macros list end*
%ADD10RoundRect,0.075000X-0.662500X-0.075000X0.662500X-0.075000X0.662500X0.075000X-0.662500X0.075000X0*%
%ADD11RoundRect,0.075000X-0.075000X-0.662500X0.075000X-0.662500X0.075000X0.662500X-0.075000X0.662500X0*%
%ADD12R,0.700000X1.100000*%
G04 APERTURE END LIST*
D10*
%TO.C,U2*%
X72649500Y-117488000D03*
X72649500Y-117988000D03*
X72649500Y-118488000D03*
X72649500Y-118988000D03*
X72649500Y-119488000D03*
X72649500Y-119988000D03*
X72649500Y-120488000D03*
X72649500Y-120988000D03*
X72649500Y-121488000D03*
X72649500Y-121988000D03*
X72649500Y-122488000D03*
X72649500Y-122988000D03*
X72649500Y-123488000D03*
X72649500Y-123988000D03*
X72649500Y-124488000D03*
X72649500Y-124988000D03*
X72649500Y-125488000D03*
X72649500Y-125988000D03*
X72649500Y-126488000D03*
X72649500Y-126988000D03*
X72649500Y-127488000D03*
X72649500Y-127988000D03*
X72649500Y-128488000D03*
X72649500Y-128988000D03*
X72649500Y-129488000D03*
X72649500Y-129988000D03*
X72649500Y-130488000D03*
X72649500Y-130988000D03*
X72649500Y-131488000D03*
X72649500Y-131988000D03*
X72649500Y-132488000D03*
X72649500Y-132988000D03*
X72649500Y-133488000D03*
X72649500Y-133988000D03*
X72649500Y-134488000D03*
X72649500Y-134988000D03*
D11*
X74562000Y-136900500D03*
X75062000Y-136900500D03*
X75562000Y-136900500D03*
X76062000Y-136900500D03*
X76562000Y-136900500D03*
X77062000Y-136900500D03*
X77562000Y-136900500D03*
X78062000Y-136900500D03*
X78562000Y-136900500D03*
X79062000Y-136900500D03*
X79562000Y-136900500D03*
X80062000Y-136900500D03*
X80562000Y-136900500D03*
X81062000Y-136900500D03*
X81562000Y-136900500D03*
X82062000Y-136900500D03*
X82562000Y-136900500D03*
X83062000Y-136900500D03*
X83562000Y-136900500D03*
X84062000Y-136900500D03*
X84562000Y-136900500D03*
X85062000Y-136900500D03*
X85562000Y-136900500D03*
X86062000Y-136900500D03*
X86562000Y-136900500D03*
X87062000Y-136900500D03*
X87562000Y-136900500D03*
X88062000Y-136900500D03*
X88562000Y-136900500D03*
X89062000Y-136900500D03*
X89562000Y-136900500D03*
X90062000Y-136900500D03*
X90562000Y-136900500D03*
X91062000Y-136900500D03*
X91562000Y-136900500D03*
X92062000Y-136900500D03*
D10*
X93974500Y-134988000D03*
X93974500Y-134488000D03*
X93974500Y-133988000D03*
X93974500Y-133488000D03*
X93974500Y-132988000D03*
X93974500Y-132488000D03*
X93974500Y-131988000D03*
X93974500Y-131488000D03*
X93974500Y-130988000D03*
X93974500Y-130488000D03*
X93974500Y-129988000D03*
X93974500Y-129488000D03*
X93974500Y-128988000D03*
X93974500Y-128488000D03*
X93974500Y-127988000D03*
X93974500Y-127488000D03*
X93974500Y-126988000D03*
X93974500Y-126488000D03*
X93974500Y-125988000D03*
X93974500Y-125488000D03*
X93974500Y-124988000D03*
X93974500Y-124488000D03*
X93974500Y-123988000D03*
X93974500Y-123488000D03*
X93974500Y-122988000D03*
X93974500Y-122488000D03*
X93974500Y-121988000D03*
X93974500Y-121488000D03*
X93974500Y-120988000D03*
X93974500Y-120488000D03*
X93974500Y-119988000D03*
X93974500Y-119488000D03*
X93974500Y-118988000D03*
X93974500Y-118488000D03*
X93974500Y-117988000D03*
X93974500Y-117488000D03*
D11*
X92062000Y-115575500D03*
X91562000Y-115575500D03*
X91062000Y-115575500D03*
X90562000Y-115575500D03*
X90062000Y-115575500D03*
X89562000Y-115575500D03*
X89062000Y-115575500D03*
X88562000Y-115575500D03*
X88062000Y-115575500D03*
X87562000Y-115575500D03*
X87062000Y-115575500D03*
X86562000Y-115575500D03*
X86062000Y-115575500D03*
X85562000Y-115575500D03*
X85062000Y-115575500D03*
X84562000Y-115575500D03*
X84062000Y-115575500D03*
X83562000Y-115575500D03*
X83062000Y-115575500D03*
X82562000Y-115575500D03*
X82062000Y-115575500D03*
X81562000Y-115575500D03*
X81062000Y-115575500D03*
X80562000Y-115575500D03*
X80062000Y-115575500D03*
X79562000Y-115575500D03*
X79062000Y-115575500D03*
X78562000Y-115575500D03*
X78062000Y-115575500D03*
X77562000Y-115575500D03*
X77062000Y-115575500D03*
X76562000Y-115575500D03*
X76062000Y-115575500D03*
X75562000Y-115575500D03*
X75062000Y-115575500D03*
X74562000Y-115575500D03*
%TD*%
D12*
%TO.C,U1*%
X72928000Y-149318000D03*
X71628000Y-149318000D03*
X70328000Y-149318000D03*
X70328000Y-151418000D03*
X72898000Y-151418000D03*
%TD*%
M02*
