%TF.GenerationSoftware,KiCad,Pcbnew,6.0.11-2627ca5db0~126~ubuntu22.04.1*%
%TF.CreationDate,2023-04-21T14:56:34-05:00*%
%TF.ProjectId,xc2c128_breakout,78633263-3132-4385-9f62-7265616b6f75,rev?*%
%TF.SameCoordinates,Original*%
%TF.FileFunction,Soldermask,Bot*%
%TF.FilePolarity,Negative*%
%FSLAX46Y46*%
G04 Gerber Fmt 4.6, Leading zero omitted, Abs format (unit mm)*
G04 Created by KiCad (PCBNEW 6.0.11-2627ca5db0~126~ubuntu22.04.1) date 2023-04-21 14:56:34*
%MOMM*%
%LPD*%
G01*
G04 APERTURE LIST*
%ADD10C,1.600000*%
%ADD11R,1.700000X1.700000*%
%ADD12O,1.700000X1.700000*%
%ADD13O,1.600000X1.600000*%
%ADD14R,1.600000X1.600000*%
G04 APERTURE END LIST*
D10*
%TO.C,C7*%
X67056000Y-110276000D03*
X67056000Y-115276000D03*
%TD*%
%TO.C,C8*%
X76668000Y-111252000D03*
X71668000Y-111252000D03*
%TD*%
%TO.C,C11*%
X105116000Y-150368000D03*
X100116000Y-150368000D03*
%TD*%
%TO.C,C4*%
X67564000Y-130088000D03*
X67564000Y-135088000D03*
%TD*%
%TO.C,C5*%
X100076000Y-124500000D03*
X100076000Y-129500000D03*
%TD*%
%TO.C,C2*%
X79248000Y-145836000D03*
X79248000Y-150836000D03*
%TD*%
D11*
%TO.C,J3*%
X96520000Y-158750000D03*
D12*
X93980000Y-158750000D03*
X91440000Y-158750000D03*
X88900000Y-158750000D03*
X86360000Y-158750000D03*
X83820000Y-158750000D03*
%TD*%
D10*
%TO.C,R1*%
X77216000Y-157988000D03*
D13*
X77216000Y-168148000D03*
%TD*%
D12*
%TO.C,J6*%
X56896000Y-85852000D03*
X56896000Y-88392000D03*
X56896000Y-90932000D03*
X56896000Y-93472000D03*
X56896000Y-96012000D03*
X56896000Y-98552000D03*
X56896000Y-101092000D03*
X56896000Y-103632000D03*
X56896000Y-106172000D03*
X56896000Y-108712000D03*
X56896000Y-111252000D03*
X56896000Y-113792000D03*
X56896000Y-116332000D03*
X56896000Y-118872000D03*
X56896000Y-121412000D03*
X56896000Y-123952000D03*
X56896000Y-126492000D03*
X56896000Y-129032000D03*
X56896000Y-131572000D03*
X56896000Y-134112000D03*
X56896000Y-136652000D03*
X56896000Y-139192000D03*
X56896000Y-141732000D03*
X56896000Y-144272000D03*
X56896000Y-146812000D03*
X56896000Y-149352000D03*
X56896000Y-151892000D03*
X56896000Y-154432000D03*
X56896000Y-156972000D03*
X56896000Y-159512000D03*
X56896000Y-162052000D03*
X56896000Y-164592000D03*
X56896000Y-167132000D03*
X56896000Y-169672000D03*
X56896000Y-172212000D03*
X56896000Y-174752000D03*
X56896000Y-177292000D03*
X56896000Y-179832000D03*
X56896000Y-182372000D03*
D11*
X56896000Y-184912000D03*
%TD*%
D10*
%TO.C,C6*%
X97068000Y-142240000D03*
X92068000Y-142240000D03*
%TD*%
D11*
%TO.C,J4*%
X66289000Y-161036000D03*
D12*
X68829000Y-161036000D03*
%TD*%
D11*
%TO.C,J2*%
X112776000Y-60457000D03*
D12*
X112776000Y-62997000D03*
X112776000Y-65537000D03*
X112776000Y-68077000D03*
X112776000Y-70617000D03*
X112776000Y-73157000D03*
X112776000Y-75697000D03*
X112776000Y-78237000D03*
X112776000Y-80777000D03*
X112776000Y-83317000D03*
X112776000Y-85857000D03*
X112776000Y-88397000D03*
X112776000Y-90937000D03*
X112776000Y-93477000D03*
X112776000Y-96017000D03*
X112776000Y-98557000D03*
X112776000Y-101097000D03*
X112776000Y-103637000D03*
X112776000Y-106177000D03*
X112776000Y-108717000D03*
X112776000Y-111257000D03*
X112776000Y-113797000D03*
X112776000Y-116337000D03*
X112776000Y-118877000D03*
X112776000Y-121417000D03*
X112776000Y-123957000D03*
X112776000Y-126497000D03*
X112776000Y-129037000D03*
X112776000Y-131577000D03*
X112776000Y-134117000D03*
X112776000Y-136657000D03*
X112776000Y-139197000D03*
X112776000Y-141737000D03*
X112776000Y-144277000D03*
X112776000Y-146817000D03*
X112776000Y-149357000D03*
X112776000Y-151897000D03*
X112776000Y-154437000D03*
X112776000Y-156977000D03*
X112776000Y-159517000D03*
%TD*%
D10*
%TO.C,C9*%
X67564000Y-123912000D03*
X67564000Y-118912000D03*
%TD*%
D14*
%TO.C,C3*%
X70064000Y-141732000D03*
D10*
X67564000Y-141732000D03*
%TD*%
D14*
%TO.C,C12*%
X98552000Y-114260000D03*
D10*
X98552000Y-111760000D03*
%TD*%
D12*
%TO.C,J1*%
X112776000Y-184912000D03*
X112776000Y-182372000D03*
X112776000Y-179832000D03*
X112776000Y-177292000D03*
X112776000Y-174752000D03*
X112776000Y-172212000D03*
X112776000Y-169672000D03*
X112776000Y-167132000D03*
X112776000Y-164592000D03*
D11*
X112776000Y-162052000D03*
%TD*%
D10*
%TO.C,C1*%
X88860000Y-143764000D03*
X83860000Y-143764000D03*
%TD*%
D12*
%TO.C,J5*%
X56896000Y-83317000D03*
X56896000Y-80777000D03*
X56896000Y-78237000D03*
X56896000Y-75697000D03*
X56896000Y-73157000D03*
X56896000Y-70617000D03*
X56896000Y-68077000D03*
X56896000Y-65537000D03*
X56896000Y-62997000D03*
D11*
X56896000Y-60457000D03*
%TD*%
D10*
%TO.C,C10*%
X85892000Y-109728000D03*
X90892000Y-109728000D03*
%TD*%
M02*
