M48
; DRILL file {KiCad 6.0.11-2627ca5db0~126~ubuntu22.04.1} date Fri 21 Apr 2023 02:56:26 PM CDT
; FORMAT={-:-/ absolute / inch / decimal}
; #@! TF.CreationDate,2023-04-21T14:56:26-05:00
; #@! TF.GenerationSoftware,Kicad,Pcbnew,6.0.11-2627ca5db0~126~ubuntu22.04.1
; #@! TF.FileFunction,Plated,1,2,PTH
FMAT,2
INCH
; #@! TA.AperFunction,Plated,PTH,ViaDrill
T1C0.0157
; #@! TA.AperFunction,Plated,PTH,ComponentDrill
T2C0.0315
; #@! TA.AperFunction,Plated,PTH,ComponentDrill
T3C0.0394
%
G90
G05
T1
X2.3101Y-5.0501
X2.3444Y-5.0153
X2.3581Y-5.0971
X2.3655Y-5.3002
X2.3805Y-4.9973
X2.3973Y-5.6334
X2.3999Y-5.0839
X2.4097Y-5.3982
X2.4098Y-5.4888
X2.4249Y-5.6598
X2.4285Y-4.6323
X2.4636Y-4.9143
X2.4732Y-4.8109
X2.476Y-5.1031
X2.4885Y-5.5777
X2.4921Y-4.1853
X2.5013Y-4.9246
X2.5332Y-4.1427
X2.5343Y-4.3384
X2.5343Y-4.236
X2.5812Y-5.4811
X2.5932Y-5.0517
X2.5942Y-5.5794
X2.5995Y-5.3581
X2.6348Y-4.4852
X2.64Y-6.2568
X2.647Y-5.3982
X2.6523Y-4.4158
X2.6834Y-6.2134
X2.695Y-4.3935
X2.72Y-5.0954
X2.7204Y-4.2825
X2.7256Y-4.6516
X2.7498Y-4.3244
X2.7538Y-5.2738
X2.7567Y-5.4118
X2.7571Y-4.5927
X2.7688Y-3.3214
X2.7797Y-5.2003
X2.7848Y-5.3413
X2.7855Y-4.8338
X2.7864Y-4.4798
X2.7912Y-5.274
X2.7965Y-3.2962
X2.804Y-4.2698
X2.8093Y-5.2236
X2.826Y-3.5385
X2.8296Y-5.3654
X2.8313Y-3.3519
X2.8515Y-3.3847
X2.8637Y-5.4249
X2.8637Y-5.7752
X2.9074Y-5.3736
X2.9173Y-5.5606
X2.9206Y-5.0013
X2.9355Y-4.3297
X2.9355Y-4.402
X2.949Y-4.674
X2.9691Y-4.6412
X2.9735Y-4.9154
X2.9776Y-5.2492
X2.981Y-4.4826
X2.9828Y-4.2438
X2.9921Y-5.3253
X2.997Y-3.6278
X3.0141Y-4.8932
X3.0464Y-4.6629
X3.0536Y-5.4406
X3.066Y-3.9566
X3.0776Y-4.0201
X3.0829Y-4.8649
X3.0914Y-3.8946
X3.0946Y-4.0559
X3.101Y-3.9387
X3.1048Y-3.8445
X3.1114Y-4.8368
X3.1324Y-5.4406
X3.1362Y-5.5508
X3.165Y-4.0424
X3.1667Y-4.9402
X3.173Y-4.0798
X3.1933Y-4.9132
X3.1989Y-5.2857
X3.1989Y-5.3231
X3.2276Y-4.4379
X3.2419Y-4.029
X3.2472Y-5.7508
X3.2472Y-6.9403
X3.2509Y-3.9819
X3.2591Y-5.601
X3.2646Y-4.8739
X3.2655Y-5.5113
X3.2669Y-5.4413
X3.269Y-5.2141
X3.291Y-5.3385
X3.2955Y-5.1877
X3.2973Y-5.4639
X3.3284Y-5.2077
X3.3292Y-4.7585
X3.3399Y-4.4986
X3.3489Y-6.0424
X3.3609Y-4.1494
X3.3655Y-5.1735
X3.3754Y-4.3736
X3.3812Y-4.7585
X3.3874Y-4.8892
X3.3875Y-4.4926
X3.396Y-4.4116
X3.4023Y-5.4793
X3.4029Y-5.1799
X3.408Y-5.3384
X3.4123Y-5.4409
X3.4186Y-4.7514
X3.4248Y-4.8869
X3.4261Y-3.8813
X3.4422Y-4.1379
X3.4571Y-4.7555
X3.4578Y-4.2651
X3.4686Y-4.3051
X3.483Y-5.554
X3.4957Y-4.8468
X3.4985Y-5.4693
X3.5083Y-4.7363
X3.5084Y-4.9622
X3.5132Y-3.8052
X3.5174Y-4.4915
X3.5261Y-5.5194
X3.5427Y-5.1036
X3.5457Y-4.7198
X3.5461Y-4.8189
X3.5611Y-4.7661
X3.5749Y-5.4426
X3.5752Y-4.216
X3.5778Y-4.4438
X3.5871Y-4.7105
X3.6152Y-4.4536
X3.6215Y-4.7655
X3.628Y-5.459
X3.6367Y-4.9351
X3.6473Y-5.1599
X3.6485Y-5.3068
X3.6487Y-4.7395
X3.6523Y-4.555
X3.6715Y-4.0131
X3.6899Y-4.568
X3.7505Y-4.7015
X3.7511Y-4.8849
X3.7514Y-4.9978
X3.7519Y-5.1399
X3.7534Y-4.5352
X3.7724Y-4.8163
X3.776Y-5.3055
X3.7888Y-4.9978
X3.798Y-5.3461
X3.8003Y-5.1395
X3.8308Y-4.9041
X3.8412Y-4.9938
X3.8648Y-3.4356
X3.9094Y-3.4272
X3.9901Y-4.9667
X4.0078Y-4.6619
X4.0365Y-5.1278
X4.0412Y-5.8453
X4.0754Y-4.7184
X4.0847Y-5.1161
X4.0942Y-3.6711
X4.1274Y-3.2274
X4.1555Y-4.3376
X4.1767Y-5.3208
X4.177Y-3.4155
X4.1809Y-5.2309
X4.1921Y-4.84
X4.2013Y-4.7159
X4.2159Y-4.656
X4.2648Y-4.7187
X4.2768Y-5.3846
X4.2934Y-3.3005
X4.3017Y-3.2223
X4.3317Y-4.5934
X4.3385Y-7.0324
X4.3407Y-5.4795
X4.3605Y-6.2102
X4.3647Y-3.2472
X4.3799Y-4.2376
X4.3845Y-5.1802
X4.4752Y-4.627
X4.4925Y-7.0243
T2
X2.64Y-4.3416
X2.64Y-4.5384
X2.66Y-4.6816
X2.66Y-4.8784
X2.66Y-5.1216
X2.66Y-5.3184
X2.66Y-5.58
X2.7584Y-5.58
X2.8216Y-4.38
X3.0184Y-4.38
X3.04Y-6.22
X3.04Y-6.62
X3.12Y-5.7416
X3.12Y-5.9384
X3.3016Y-5.66
X3.3816Y-4.32
X3.4984Y-5.66
X3.5784Y-4.32
X3.6247Y-5.6
X3.8216Y-5.6
X3.88Y-4.4
X3.88Y-4.4984
X3.94Y-4.9016
X3.94Y-5.0984
X3.9416Y-5.92
X4.1384Y-5.92
T3
X2.24Y-2.3802
X2.24Y-2.4802
X2.24Y-2.5802
X2.24Y-2.6802
X2.24Y-2.7802
X2.24Y-2.8802
X2.24Y-2.9802
X2.24Y-3.0802
X2.24Y-3.1802
X2.24Y-3.2802
X2.24Y-3.38
X2.24Y-3.48
X2.24Y-3.58
X2.24Y-3.68
X2.24Y-3.78
X2.24Y-3.88
X2.24Y-3.98
X2.24Y-4.08
X2.24Y-4.18
X2.24Y-4.28
X2.24Y-4.38
X2.24Y-4.48
X2.24Y-4.58
X2.24Y-4.68
X2.24Y-4.78
X2.24Y-4.88
X2.24Y-4.98
X2.24Y-5.08
X2.24Y-5.18
X2.24Y-5.28
X2.24Y-5.38
X2.24Y-5.48
X2.24Y-5.58
X2.24Y-5.68
X2.24Y-5.78
X2.24Y-5.88
X2.24Y-5.98
X2.24Y-6.08
X2.24Y-6.18
X2.24Y-6.28
X2.24Y-6.38
X2.24Y-6.48
X2.24Y-6.58
X2.24Y-6.68
X2.24Y-6.78
X2.24Y-6.88
X2.24Y-6.98
X2.24Y-7.08
X2.24Y-7.18
X2.24Y-7.28
X2.6098Y-6.34
X2.7098Y-6.34
X3.3Y-6.25
X3.4Y-6.25
X3.5Y-6.25
X3.6Y-6.25
X3.7Y-6.25
X3.8Y-6.25
X4.44Y-2.3802
X4.44Y-2.4802
X4.44Y-2.5802
X4.44Y-2.6802
X4.44Y-2.7802
X4.44Y-2.8802
X4.44Y-2.9802
X4.44Y-3.0802
X4.44Y-3.1802
X4.44Y-3.2802
X4.44Y-3.3802
X4.44Y-3.4802
X4.44Y-3.5802
X4.44Y-3.6802
X4.44Y-3.7802
X4.44Y-3.8802
X4.44Y-3.9802
X4.44Y-4.0802
X4.44Y-4.1802
X4.44Y-4.2802
X4.44Y-4.3802
X4.44Y-4.4802
X4.44Y-4.5802
X4.44Y-4.6802
X4.44Y-4.7802
X4.44Y-4.8802
X4.44Y-4.9802
X4.44Y-5.0802
X4.44Y-5.1802
X4.44Y-5.2802
X4.44Y-5.3802
X4.44Y-5.4802
X4.44Y-5.5802
X4.44Y-5.6802
X4.44Y-5.7802
X4.44Y-5.8802
X4.44Y-5.9802
X4.44Y-6.0802
X4.44Y-6.1802
X4.44Y-6.2802
X4.44Y-6.38
X4.44Y-6.48
X4.44Y-6.58
X4.44Y-6.68
X4.44Y-6.78
X4.44Y-6.88
X4.44Y-6.98
X4.44Y-7.08
X4.44Y-7.18
X4.44Y-7.28
T0
M30
