%TF.GenerationSoftware,KiCad,Pcbnew,6.0.11-2627ca5db0~126~ubuntu22.04.1*%
%TF.CreationDate,2023-04-21T14:56:34-05:00*%
%TF.ProjectId,xc2c128_breakout,78633263-3132-4385-9f62-7265616b6f75,rev?*%
%TF.SameCoordinates,Original*%
%TF.FileFunction,Copper,L1,Top*%
%TF.FilePolarity,Positive*%
%FSLAX46Y46*%
G04 Gerber Fmt 4.6, Leading zero omitted, Abs format (unit mm)*
G04 Created by KiCad (PCBNEW 6.0.11-2627ca5db0~126~ubuntu22.04.1) date 2023-04-21 14:56:34*
%MOMM*%
%LPD*%
G01*
G04 APERTURE LIST*
G04 Aperture macros list*
%AMRoundRect*
0 Rectangle with rounded corners*
0 $1 Rounding radius*
0 $2 $3 $4 $5 $6 $7 $8 $9 X,Y pos of 4 corners*
0 Add a 4 corners polygon primitive as box body*
4,1,4,$2,$3,$4,$5,$6,$7,$8,$9,$2,$3,0*
0 Add four circle primitives for the rounded corners*
1,1,$1+$1,$2,$3*
1,1,$1+$1,$4,$5*
1,1,$1+$1,$6,$7*
1,1,$1+$1,$8,$9*
0 Add four rect primitives between the rounded corners*
20,1,$1+$1,$2,$3,$4,$5,0*
20,1,$1+$1,$4,$5,$6,$7,0*
20,1,$1+$1,$6,$7,$8,$9,0*
20,1,$1+$1,$8,$9,$2,$3,0*%
G04 Aperture macros list end*
%TA.AperFunction,ComponentPad*%
%ADD10C,1.600000*%
%TD*%
%TA.AperFunction,SMDPad,CuDef*%
%ADD11RoundRect,0.075000X-0.662500X-0.075000X0.662500X-0.075000X0.662500X0.075000X-0.662500X0.075000X0*%
%TD*%
%TA.AperFunction,SMDPad,CuDef*%
%ADD12RoundRect,0.075000X-0.075000X-0.662500X0.075000X-0.662500X0.075000X0.662500X-0.075000X0.662500X0*%
%TD*%
%TA.AperFunction,ComponentPad*%
%ADD13R,1.700000X1.700000*%
%TD*%
%TA.AperFunction,ComponentPad*%
%ADD14O,1.700000X1.700000*%
%TD*%
%TA.AperFunction,ComponentPad*%
%ADD15O,1.600000X1.600000*%
%TD*%
%TA.AperFunction,SMDPad,CuDef*%
%ADD16R,0.700000X1.100000*%
%TD*%
%TA.AperFunction,ComponentPad*%
%ADD17R,1.600000X1.600000*%
%TD*%
%TA.AperFunction,ViaPad*%
%ADD18C,0.800000*%
%TD*%
%TA.AperFunction,Conductor*%
%ADD19C,0.180000*%
%TD*%
G04 APERTURE END LIST*
D10*
%TO.P,C7,1*%
%TO.N,GND*%
X67056000Y-110276000D03*
%TO.P,C7,2*%
%TO.N,CPLD_1.8V*%
X67056000Y-115276000D03*
%TD*%
%TO.P,C8,1*%
%TO.N,+3.3V*%
X76668000Y-111252000D03*
%TO.P,C8,2*%
%TO.N,GND*%
X71668000Y-111252000D03*
%TD*%
%TO.P,C11,1*%
%TO.N,GND*%
X105116000Y-150368000D03*
%TO.P,C11,2*%
%TO.N,CPLD_1.8V*%
X100116000Y-150368000D03*
%TD*%
%TO.P,C4,1*%
%TO.N,+3.3V*%
X67564000Y-130088000D03*
%TO.P,C4,2*%
%TO.N,GND*%
X67564000Y-135088000D03*
%TD*%
%TO.P,C5,1*%
%TO.N,GND*%
X100076000Y-124500000D03*
%TO.P,C5,2*%
%TO.N,CPLD_1.8V*%
X100076000Y-129500000D03*
%TD*%
%TO.P,C2,1*%
%TO.N,CPLD_1.8V*%
X79248000Y-145836000D03*
%TO.P,C2,2*%
%TO.N,GND*%
X79248000Y-150836000D03*
%TD*%
D11*
%TO.P,U2,1,VCC*%
%TO.N,CPLD_1.8V*%
X72649500Y-117488000D03*
%TO.P,U2,2,GTS2*%
%TO.N,P2*%
X72649500Y-117988000D03*
%TO.P,U2,3,GTS3*%
%TO.N,P3*%
X72649500Y-118488000D03*
%TO.P,U2,4,I/O*%
%TO.N,P4*%
X72649500Y-118988000D03*
%TO.P,U2,5,GTS0*%
%TO.N,P5*%
X72649500Y-119488000D03*
%TO.P,U2,6,GTS1*%
%TO.N,P6*%
X72649500Y-119988000D03*
%TO.P,U2,7,I/O*%
%TO.N,P7*%
X72649500Y-120488000D03*
%TO.P,U2,8,VCCaux*%
%TO.N,+3.3V*%
X72649500Y-120988000D03*
%TO.P,U2,9,I/O*%
%TO.N,P9*%
X72649500Y-121488000D03*
%TO.P,U2,10,I/O*%
%TO.N,P10*%
X72649500Y-121988000D03*
%TO.P,U2,11,I/O*%
%TO.N,P11*%
X72649500Y-122488000D03*
%TO.P,U2,12,I/O*%
%TO.N,P12*%
X72649500Y-122988000D03*
%TO.P,U2,13,I/O*%
%TO.N,P13*%
X72649500Y-123488000D03*
%TO.P,U2,14,I/O*%
%TO.N,P14*%
X72649500Y-123988000D03*
%TO.P,U2,15,I/O*%
%TO.N,P15*%
X72649500Y-124488000D03*
%TO.P,U2,16,I/O*%
%TO.N,P16*%
X72649500Y-124988000D03*
%TO.P,U2,17,I/O*%
%TO.N,P17*%
X72649500Y-125488000D03*
%TO.P,U2,18,NC*%
%TO.N,unconnected-(U2-Pad18)*%
X72649500Y-125988000D03*
%TO.P,U2,19,I/O*%
%TO.N,P19*%
X72649500Y-126488000D03*
%TO.P,U2,20,NC*%
%TO.N,unconnected-(U2-Pad20)*%
X72649500Y-126988000D03*
%TO.P,U2,21,I/O*%
%TO.N,P21*%
X72649500Y-127488000D03*
%TO.P,U2,22,I/O*%
%TO.N,P22*%
X72649500Y-127988000D03*
%TO.P,U2,23,I/O*%
%TO.N,P23*%
X72649500Y-128488000D03*
%TO.P,U2,24,I/O*%
%TO.N,P24*%
X72649500Y-128988000D03*
%TO.P,U2,25,I/O*%
%TO.N,P25*%
X72649500Y-129488000D03*
%TO.P,U2,26,I/O*%
%TO.N,P26*%
X72649500Y-129988000D03*
%TO.P,U2,27,VCCIO1*%
%TO.N,+3.3V*%
X72649500Y-130488000D03*
%TO.P,U2,28,I/O*%
%TO.N,P28*%
X72649500Y-130988000D03*
%TO.P,U2,29,GND*%
%TO.N,GND*%
X72649500Y-131488000D03*
%TO.P,U2,30,GCK0*%
%TO.N,P30*%
X72649500Y-131988000D03*
%TO.P,U2,31,NC*%
%TO.N,unconnected-(U2-Pad31)*%
X72649500Y-132488000D03*
%TO.P,U2,32,GCK1*%
%TO.N,P32*%
X72649500Y-132988000D03*
%TO.P,U2,33,NC*%
%TO.N,unconnected-(U2-Pad33)*%
X72649500Y-133488000D03*
%TO.P,U2,34,NC*%
%TO.N,unconnected-(U2-Pad34)*%
X72649500Y-133988000D03*
%TO.P,U2,35,CDRST*%
%TO.N,P35*%
X72649500Y-134488000D03*
%TO.P,U2,36,GND*%
%TO.N,GND*%
X72649500Y-134988000D03*
D12*
%TO.P,U2,37,VCC*%
%TO.N,CPLD_1.8V*%
X74562000Y-136900500D03*
%TO.P,U2,38,GCK2*%
%TO.N,P38*%
X75062000Y-136900500D03*
%TO.P,U2,39,DGE*%
%TO.N,P39*%
X75562000Y-136900500D03*
%TO.P,U2,40,I/O*%
%TO.N,P40*%
X76062000Y-136900500D03*
%TO.P,U2,41,I/O*%
%TO.N,P41*%
X76562000Y-136900500D03*
%TO.P,U2,42,NC*%
%TO.N,unconnected-(U2-Pad42)*%
X77062000Y-136900500D03*
%TO.P,U2,43,I/O*%
%TO.N,P43*%
X77562000Y-136900500D03*
%TO.P,U2,44,NC*%
%TO.N,unconnected-(U2-Pad44)*%
X78062000Y-136900500D03*
%TO.P,U2,45,I/O*%
%TO.N,P45*%
X78562000Y-136900500D03*
%TO.P,U2,46,NC*%
%TO.N,unconnected-(U2-Pad46)*%
X79062000Y-136900500D03*
%TO.P,U2,47,GND*%
%TO.N,GND*%
X79562000Y-136900500D03*
%TO.P,U2,48,NC*%
%TO.N,unconnected-(U2-Pad48)*%
X80062000Y-136900500D03*
%TO.P,U2,49,I/O*%
%TO.N,P49*%
X80562000Y-136900500D03*
%TO.P,U2,50,I/O*%
%TO.N,P50*%
X81062000Y-136900500D03*
%TO.P,U2,51,I/O*%
%TO.N,P51*%
X81562000Y-136900500D03*
%TO.P,U2,52,I/O*%
%TO.N,P52*%
X82062000Y-136900500D03*
%TO.P,U2,53,I/O*%
%TO.N,P53*%
X82562000Y-136900500D03*
%TO.P,U2,54,I/O*%
%TO.N,P54*%
X83062000Y-136900500D03*
%TO.P,U2,55,VCCIO1*%
%TO.N,+3.3V*%
X83562000Y-136900500D03*
%TO.P,U2,56,I/O*%
%TO.N,P56*%
X84062000Y-136900500D03*
%TO.P,U2,57,I/O*%
%TO.N,P57*%
X84562000Y-136900500D03*
%TO.P,U2,58,I/O*%
%TO.N,P58*%
X85062000Y-136900500D03*
%TO.P,U2,59,I/O*%
%TO.N,P59*%
X85562000Y-136900500D03*
%TO.P,U2,60,I/O*%
%TO.N,P60*%
X86062000Y-136900500D03*
%TO.P,U2,61,I/O*%
%TO.N,P61*%
X86562000Y-136900500D03*
%TO.P,U2,62,GND*%
%TO.N,GND*%
X87062000Y-136900500D03*
%TO.P,U2,63,TDI*%
%TO.N,Net-(J3-Pad5)*%
X87562000Y-136900500D03*
%TO.P,U2,64,I/O*%
%TO.N,P64*%
X88062000Y-136900500D03*
%TO.P,U2,65,TMS*%
%TO.N,Net-(J3-Pad6)*%
X88562000Y-136900500D03*
%TO.P,U2,66,NC*%
%TO.N,unconnected-(U2-Pad66)*%
X89062000Y-136900500D03*
%TO.P,U2,67,TCK*%
%TO.N,Net-(J3-Pad3)*%
X89562000Y-136900500D03*
%TO.P,U2,68,I/O*%
%TO.N,P68*%
X90062000Y-136900500D03*
%TO.P,U2,69,I/O*%
%TO.N,P69*%
X90562000Y-136900500D03*
%TO.P,U2,70,I/O*%
%TO.N,P70*%
X91062000Y-136900500D03*
%TO.P,U2,71,I/O*%
%TO.N,P71*%
X91562000Y-136900500D03*
%TO.P,U2,72,GND*%
%TO.N,GND*%
X92062000Y-136900500D03*
D11*
%TO.P,U2,73,VCCIO1*%
%TO.N,+3.3V*%
X93974500Y-134988000D03*
%TO.P,U2,74,I/O*%
%TO.N,P74*%
X93974500Y-134488000D03*
%TO.P,U2,75,NC*%
%TO.N,unconnected-(U2-Pad75)*%
X93974500Y-133988000D03*
%TO.P,U2,76,I/O*%
%TO.N,P76*%
X93974500Y-133488000D03*
%TO.P,U2,77,I/O*%
%TO.N,P77*%
X93974500Y-132988000D03*
%TO.P,U2,78,I/O*%
%TO.N,P78*%
X93974500Y-132488000D03*
%TO.P,U2,79,I/O*%
%TO.N,P79*%
X93974500Y-131988000D03*
%TO.P,U2,80,I/O*%
%TO.N,P80*%
X93974500Y-131488000D03*
%TO.P,U2,81,I/O*%
%TO.N,P81*%
X93974500Y-130988000D03*
%TO.P,U2,82,I/O*%
%TO.N,P82*%
X93974500Y-130488000D03*
%TO.P,U2,83,I/O*%
%TO.N,P83*%
X93974500Y-129988000D03*
%TO.P,U2,84,VCC*%
%TO.N,CPLD_1.8V*%
X93974500Y-129488000D03*
%TO.P,U2,85,I/O*%
%TO.N,P85*%
X93974500Y-128988000D03*
%TO.P,U2,86,I/O*%
%TO.N,P86*%
X93974500Y-128488000D03*
%TO.P,U2,87,I/O*%
%TO.N,P87*%
X93974500Y-127988000D03*
%TO.P,U2,88,I/O*%
%TO.N,P88*%
X93974500Y-127488000D03*
%TO.P,U2,89,GND*%
%TO.N,GND*%
X93974500Y-126988000D03*
%TO.P,U2,90,GND*%
X93974500Y-126488000D03*
%TO.P,U2,91,I/O*%
%TO.N,P91*%
X93974500Y-125988000D03*
%TO.P,U2,92,I/O*%
%TO.N,P92*%
X93974500Y-125488000D03*
%TO.P,U2,93,VCCIO1*%
%TO.N,+3.3V*%
X93974500Y-124988000D03*
%TO.P,U2,94,I/O*%
%TO.N,P94*%
X93974500Y-124488000D03*
%TO.P,U2,95,I/O*%
%TO.N,P95*%
X93974500Y-123988000D03*
%TO.P,U2,96,I/O*%
%TO.N,P96*%
X93974500Y-123488000D03*
%TO.P,U2,97,I/O*%
%TO.N,P97*%
X93974500Y-122988000D03*
%TO.P,U2,98,I/O*%
%TO.N,P98*%
X93974500Y-122488000D03*
%TO.P,U2,99,GND*%
%TO.N,GND*%
X93974500Y-121988000D03*
%TO.P,U2,100,I/O*%
%TO.N,P100*%
X93974500Y-121488000D03*
%TO.P,U2,101,I/O*%
%TO.N,P101*%
X93974500Y-120988000D03*
%TO.P,U2,102,I/O*%
%TO.N,P102*%
X93974500Y-120488000D03*
%TO.P,U2,103,I/O*%
%TO.N,P103*%
X93974500Y-119988000D03*
%TO.P,U2,104,I/O*%
%TO.N,P104*%
X93974500Y-119488000D03*
%TO.P,U2,105,I/O*%
%TO.N,P105*%
X93974500Y-118988000D03*
%TO.P,U2,106,NC*%
%TO.N,unconnected-(U2-Pad106)*%
X93974500Y-118488000D03*
%TO.P,U2,107,NC*%
%TO.N,unconnected-(U2-Pad107)*%
X93974500Y-117988000D03*
%TO.P,U2,108,GND*%
%TO.N,GND*%
X93974500Y-117488000D03*
D12*
%TO.P,U2,109,VCCIO2*%
%TO.N,+3.3V*%
X92062000Y-115575500D03*
%TO.P,U2,110,I/O*%
%TO.N,P110*%
X91562000Y-115575500D03*
%TO.P,U2,111,I/O*%
%TO.N,P111*%
X91062000Y-115575500D03*
%TO.P,U2,112,I/O*%
%TO.N,P112*%
X90562000Y-115575500D03*
%TO.P,U2,113,I/O*%
%TO.N,P113*%
X90062000Y-115575500D03*
%TO.P,U2,114,NC*%
%TO.N,unconnected-(U2-Pad114)*%
X89562000Y-115575500D03*
%TO.P,U2,115,I/O*%
%TO.N,P115*%
X89062000Y-115575500D03*
%TO.P,U2,116,I/O*%
%TO.N,P116*%
X88562000Y-115575500D03*
%TO.P,U2,117,I/O*%
%TO.N,P117*%
X88062000Y-115575500D03*
%TO.P,U2,118,I/O*%
%TO.N,P118*%
X87562000Y-115575500D03*
%TO.P,U2,119,I/O*%
%TO.N,P119*%
X87062000Y-115575500D03*
%TO.P,U2,120,I/O*%
%TO.N,P120*%
X86562000Y-115575500D03*
%TO.P,U2,121,I/O*%
%TO.N,P121*%
X86062000Y-115575500D03*
%TO.P,U2,122,TDO*%
%TO.N,Net-(J3-Pad4)*%
X85562000Y-115575500D03*
%TO.P,U2,123,GND*%
%TO.N,GND*%
X85062000Y-115575500D03*
%TO.P,U2,124,I/O*%
%TO.N,P124*%
X84562000Y-115575500D03*
%TO.P,U2,125,I/O*%
%TO.N,P125*%
X84062000Y-115575500D03*
%TO.P,U2,126,I/O*%
%TO.N,P126*%
X83562000Y-115575500D03*
%TO.P,U2,127,VCCIO2*%
%TO.N,+3.3V*%
X83062000Y-115575500D03*
%TO.P,U2,128,I/O*%
%TO.N,P128*%
X82562000Y-115575500D03*
%TO.P,U2,129,I/O*%
%TO.N,P129*%
X82062000Y-115575500D03*
%TO.P,U2,130,I/O*%
%TO.N,P130*%
X81562000Y-115575500D03*
%TO.P,U2,131,I/O*%
%TO.N,P131*%
X81062000Y-115575500D03*
%TO.P,U2,132,I/O*%
%TO.N,P132*%
X80562000Y-115575500D03*
%TO.P,U2,133,I/O*%
%TO.N,P133*%
X80062000Y-115575500D03*
%TO.P,U2,134,I/O*%
%TO.N,P134*%
X79562000Y-115575500D03*
%TO.P,U2,135,NC*%
%TO.N,unconnected-(U2-Pad135)*%
X79062000Y-115575500D03*
%TO.P,U2,136,I/O*%
%TO.N,P136*%
X78562000Y-115575500D03*
%TO.P,U2,137,NC*%
%TO.N,unconnected-(U2-Pad137)*%
X78062000Y-115575500D03*
%TO.P,U2,138,I/O*%
%TO.N,P138*%
X77562000Y-115575500D03*
%TO.P,U2,139,NC*%
%TO.N,unconnected-(U2-Pad139)*%
X77062000Y-115575500D03*
%TO.P,U2,140,I/O*%
%TO.N,P140*%
X76562000Y-115575500D03*
%TO.P,U2,141,VCCIO2*%
%TO.N,+3.3V*%
X76062000Y-115575500D03*
%TO.P,U2,142,NC*%
%TO.N,unconnected-(U2-Pad142)*%
X75562000Y-115575500D03*
%TO.P,U2,143,GSR*%
%TO.N,P143*%
X75062000Y-115575500D03*
%TO.P,U2,144,GND*%
%TO.N,GND*%
X74562000Y-115575500D03*
%TD*%
D13*
%TO.P,J3,1,Pin_1*%
%TO.N,+3.3V*%
X96520000Y-158750000D03*
D14*
%TO.P,J3,2,Pin_2*%
%TO.N,GND*%
X93980000Y-158750000D03*
%TO.P,J3,3,Pin_3*%
%TO.N,Net-(J3-Pad3)*%
X91440000Y-158750000D03*
%TO.P,J3,4,Pin_4*%
%TO.N,Net-(J3-Pad4)*%
X88900000Y-158750000D03*
%TO.P,J3,5,Pin_5*%
%TO.N,Net-(J3-Pad5)*%
X86360000Y-158750000D03*
%TO.P,J3,6,Pin_6*%
%TO.N,Net-(J3-Pad6)*%
X83820000Y-158750000D03*
%TD*%
D10*
%TO.P,R1,1*%
%TO.N,Net-(R1-Pad1)*%
X77216000Y-157988000D03*
D15*
%TO.P,R1,2*%
%TO.N,+3.3V*%
X77216000Y-168148000D03*
%TD*%
D14*
%TO.P,J6,40,Pin_40*%
%TO.N,P128*%
X56896000Y-85852000D03*
%TO.P,J6,39,Pin_39*%
%TO.N,P126*%
X56896000Y-88392000D03*
%TO.P,J6,38,Pin_38*%
%TO.N,P125*%
X56896000Y-90932000D03*
%TO.P,J6,37,Pin_37*%
%TO.N,P124*%
X56896000Y-93472000D03*
%TO.P,J6,36,Pin_36*%
%TO.N,P121*%
X56896000Y-96012000D03*
%TO.P,J6,35,Pin_35*%
%TO.N,P120*%
X56896000Y-98552000D03*
%TO.P,J6,34,Pin_34*%
%TO.N,P119*%
X56896000Y-101092000D03*
%TO.P,J6,33,Pin_33*%
%TO.N,P118*%
X56896000Y-103632000D03*
%TO.P,J6,32,Pin_32*%
%TO.N,P117*%
X56896000Y-106172000D03*
%TO.P,J6,31,Pin_31*%
%TO.N,P116*%
X56896000Y-108712000D03*
%TO.P,J6,30,Pin_30*%
%TO.N,P115*%
X56896000Y-111252000D03*
%TO.P,J6,29,Pin_29*%
%TO.N,P113*%
X56896000Y-113792000D03*
%TO.P,J6,28,Pin_28*%
%TO.N,P112*%
X56896000Y-116332000D03*
%TO.P,J6,27,Pin_27*%
%TO.N,P111*%
X56896000Y-118872000D03*
%TO.P,J6,26,Pin_26*%
%TO.N,P110*%
X56896000Y-121412000D03*
%TO.P,J6,25,Pin_25*%
%TO.N,P105*%
X56896000Y-123952000D03*
%TO.P,J6,24,Pin_24*%
%TO.N,P104*%
X56896000Y-126492000D03*
%TO.P,J6,23,Pin_23*%
%TO.N,P103*%
X56896000Y-129032000D03*
%TO.P,J6,22,Pin_22*%
%TO.N,P102*%
X56896000Y-131572000D03*
%TO.P,J6,21,Pin_21*%
%TO.N,P101*%
X56896000Y-134112000D03*
%TO.P,J6,20,Pin_20*%
%TO.N,P100*%
X56896000Y-136652000D03*
%TO.P,J6,19,Pin_19*%
%TO.N,P98*%
X56896000Y-139192000D03*
%TO.P,J6,18,Pin_18*%
%TO.N,P97*%
X56896000Y-141732000D03*
%TO.P,J6,17,Pin_17*%
%TO.N,P96*%
X56896000Y-144272000D03*
%TO.P,J6,16,Pin_16*%
%TO.N,P95*%
X56896000Y-146812000D03*
%TO.P,J6,15,Pin_15*%
%TO.N,P94*%
X56896000Y-149352000D03*
%TO.P,J6,14,Pin_14*%
%TO.N,P92*%
X56896000Y-151892000D03*
%TO.P,J6,13,Pin_13*%
%TO.N,P91*%
X56896000Y-154432000D03*
%TO.P,J6,12,Pin_12*%
%TO.N,P88*%
X56896000Y-156972000D03*
%TO.P,J6,11,Pin_11*%
%TO.N,P87*%
X56896000Y-159512000D03*
%TO.P,J6,10,Pin_10*%
%TO.N,P86*%
X56896000Y-162052000D03*
%TO.P,J6,9,Pin_9*%
%TO.N,P85*%
X56896000Y-164592000D03*
%TO.P,J6,8,Pin_8*%
%TO.N,P83*%
X56896000Y-167132000D03*
%TO.P,J6,7,Pin_7*%
%TO.N,P82*%
X56896000Y-169672000D03*
%TO.P,J6,6,Pin_6*%
%TO.N,P81*%
X56896000Y-172212000D03*
%TO.P,J6,5,Pin_5*%
%TO.N,P80*%
X56896000Y-174752000D03*
%TO.P,J6,4,Pin_4*%
%TO.N,P79*%
X56896000Y-177292000D03*
%TO.P,J6,3,Pin_3*%
%TO.N,P78*%
X56896000Y-179832000D03*
%TO.P,J6,2,Pin_2*%
%TO.N,P77*%
X56896000Y-182372000D03*
D13*
%TO.P,J6,1,Pin_1*%
%TO.N,P76*%
X56896000Y-184912000D03*
%TD*%
D10*
%TO.P,C6,1*%
%TO.N,+3.3V*%
X97068000Y-142240000D03*
%TO.P,C6,2*%
%TO.N,GND*%
X92068000Y-142240000D03*
%TD*%
D13*
%TO.P,J4,1,Pin_1*%
%TO.N,+3.3V*%
X66289000Y-161036000D03*
D14*
%TO.P,J4,2,Pin_2*%
%TO.N,GND*%
X68829000Y-161036000D03*
%TD*%
D13*
%TO.P,J2,1,Pin_1*%
%TO.N,P2*%
X112776000Y-60457000D03*
D14*
%TO.P,J2,2,Pin_2*%
%TO.N,P3*%
X112776000Y-62997000D03*
%TO.P,J2,3,Pin_3*%
%TO.N,P4*%
X112776000Y-65537000D03*
%TO.P,J2,4,Pin_4*%
%TO.N,P5*%
X112776000Y-68077000D03*
%TO.P,J2,5,Pin_5*%
%TO.N,P6*%
X112776000Y-70617000D03*
%TO.P,J2,6,Pin_6*%
%TO.N,P7*%
X112776000Y-73157000D03*
%TO.P,J2,7,Pin_7*%
%TO.N,P9*%
X112776000Y-75697000D03*
%TO.P,J2,8,Pin_8*%
%TO.N,P10*%
X112776000Y-78237000D03*
%TO.P,J2,9,Pin_9*%
%TO.N,P11*%
X112776000Y-80777000D03*
%TO.P,J2,10,Pin_10*%
%TO.N,P12*%
X112776000Y-83317000D03*
%TO.P,J2,11,Pin_11*%
%TO.N,P13*%
X112776000Y-85857000D03*
%TO.P,J2,12,Pin_12*%
%TO.N,P14*%
X112776000Y-88397000D03*
%TO.P,J2,13,Pin_13*%
%TO.N,P15*%
X112776000Y-90937000D03*
%TO.P,J2,14,Pin_14*%
%TO.N,P16*%
X112776000Y-93477000D03*
%TO.P,J2,15,Pin_15*%
%TO.N,P17*%
X112776000Y-96017000D03*
%TO.P,J2,16,Pin_16*%
%TO.N,P19*%
X112776000Y-98557000D03*
%TO.P,J2,17,Pin_17*%
%TO.N,P21*%
X112776000Y-101097000D03*
%TO.P,J2,18,Pin_18*%
%TO.N,P22*%
X112776000Y-103637000D03*
%TO.P,J2,19,Pin_19*%
%TO.N,P23*%
X112776000Y-106177000D03*
%TO.P,J2,20,Pin_20*%
%TO.N,P24*%
X112776000Y-108717000D03*
%TO.P,J2,21,Pin_21*%
%TO.N,P25*%
X112776000Y-111257000D03*
%TO.P,J2,22,Pin_22*%
%TO.N,P26*%
X112776000Y-113797000D03*
%TO.P,J2,23,Pin_23*%
%TO.N,P28*%
X112776000Y-116337000D03*
%TO.P,J2,24,Pin_24*%
%TO.N,P30*%
X112776000Y-118877000D03*
%TO.P,J2,25,Pin_25*%
%TO.N,P32*%
X112776000Y-121417000D03*
%TO.P,J2,26,Pin_26*%
%TO.N,P35*%
X112776000Y-123957000D03*
%TO.P,J2,27,Pin_27*%
%TO.N,P38*%
X112776000Y-126497000D03*
%TO.P,J2,28,Pin_28*%
%TO.N,P39*%
X112776000Y-129037000D03*
%TO.P,J2,29,Pin_29*%
%TO.N,P40*%
X112776000Y-131577000D03*
%TO.P,J2,30,Pin_30*%
%TO.N,P41*%
X112776000Y-134117000D03*
%TO.P,J2,31,Pin_31*%
%TO.N,P43*%
X112776000Y-136657000D03*
%TO.P,J2,32,Pin_32*%
%TO.N,P45*%
X112776000Y-139197000D03*
%TO.P,J2,33,Pin_33*%
%TO.N,P49*%
X112776000Y-141737000D03*
%TO.P,J2,34,Pin_34*%
%TO.N,P50*%
X112776000Y-144277000D03*
%TO.P,J2,35,Pin_35*%
%TO.N,P51*%
X112776000Y-146817000D03*
%TO.P,J2,36,Pin_36*%
%TO.N,P52*%
X112776000Y-149357000D03*
%TO.P,J2,37,Pin_37*%
%TO.N,P53*%
X112776000Y-151897000D03*
%TO.P,J2,38,Pin_38*%
%TO.N,P54*%
X112776000Y-154437000D03*
%TO.P,J2,39,Pin_39*%
%TO.N,P56*%
X112776000Y-156977000D03*
%TO.P,J2,40,Pin_40*%
%TO.N,P57*%
X112776000Y-159517000D03*
%TD*%
D10*
%TO.P,C9,1*%
%TO.N,GND*%
X67564000Y-123912000D03*
%TO.P,C9,2*%
%TO.N,CPLD_1.8V*%
X67564000Y-118912000D03*
%TD*%
D16*
%TO.P,U1,1,V_in*%
%TO.N,+3.3V*%
X72928000Y-149318000D03*
%TO.P,U1,2,GND*%
%TO.N,GND*%
X71628000Y-149318000D03*
%TO.P,U1,3,EN*%
%TO.N,Net-(R1-Pad1)*%
X70328000Y-149318000D03*
%TO.P,U1,4,NC*%
%TO.N,unconnected-(U1-Pad4)*%
X70328000Y-151418000D03*
%TO.P,U1,5,V_out*%
%TO.N,CPLD_1.8V*%
X72898000Y-151418000D03*
%TD*%
D17*
%TO.P,C3,1*%
%TO.N,CPLD_1.8V*%
X70064000Y-141732000D03*
D10*
%TO.P,C3,2*%
%TO.N,GND*%
X67564000Y-141732000D03*
%TD*%
D17*
%TO.P,C12,1*%
%TO.N,+3.3V*%
X98552000Y-114260000D03*
D10*
%TO.P,C12,2*%
%TO.N,GND*%
X98552000Y-111760000D03*
%TD*%
D14*
%TO.P,J1,10,Pin_10*%
%TO.N,P74*%
X112776000Y-184912000D03*
%TO.P,J1,9,Pin_9*%
%TO.N,P71*%
X112776000Y-182372000D03*
%TO.P,J1,8,Pin_8*%
%TO.N,P70*%
X112776000Y-179832000D03*
%TO.P,J1,7,Pin_7*%
%TO.N,P69*%
X112776000Y-177292000D03*
%TO.P,J1,6,Pin_6*%
%TO.N,P68*%
X112776000Y-174752000D03*
%TO.P,J1,5,Pin_5*%
%TO.N,P64*%
X112776000Y-172212000D03*
%TO.P,J1,4,Pin_4*%
%TO.N,P61*%
X112776000Y-169672000D03*
%TO.P,J1,3,Pin_3*%
%TO.N,P60*%
X112776000Y-167132000D03*
%TO.P,J1,2,Pin_2*%
%TO.N,P59*%
X112776000Y-164592000D03*
D13*
%TO.P,J1,1,Pin_1*%
%TO.N,P58*%
X112776000Y-162052000D03*
%TD*%
D10*
%TO.P,C1,2*%
%TO.N,GND*%
X88860000Y-143764000D03*
%TO.P,C1,1*%
%TO.N,+3.3V*%
X83860000Y-143764000D03*
%TD*%
D14*
%TO.P,J5,10,Pin_10*%
%TO.N,P129*%
X56896000Y-83317000D03*
%TO.P,J5,9,Pin_9*%
%TO.N,P130*%
X56896000Y-80777000D03*
%TO.P,J5,8,Pin_8*%
%TO.N,P131*%
X56896000Y-78237000D03*
%TO.P,J5,7,Pin_7*%
%TO.N,P132*%
X56896000Y-75697000D03*
%TO.P,J5,6,Pin_6*%
%TO.N,P133*%
X56896000Y-73157000D03*
%TO.P,J5,5,Pin_5*%
%TO.N,P134*%
X56896000Y-70617000D03*
%TO.P,J5,4,Pin_4*%
%TO.N,P136*%
X56896000Y-68077000D03*
%TO.P,J5,3,Pin_3*%
%TO.N,P138*%
X56896000Y-65537000D03*
%TO.P,J5,2,Pin_2*%
%TO.N,P140*%
X56896000Y-62997000D03*
D13*
%TO.P,J5,1,Pin_1*%
%TO.N,P143*%
X56896000Y-60457000D03*
%TD*%
D10*
%TO.P,C10,1*%
%TO.N,+3.3V*%
X85892000Y-109728000D03*
%TO.P,C10,2*%
%TO.N,GND*%
X90892000Y-109728000D03*
%TD*%
D18*
%TO.N,P128*%
X78170200Y-102109900D03*
%TO.N,P126*%
X78603500Y-103020500D03*
%TO.N,P125*%
X61205600Y-137114100D03*
X67233700Y-137114100D03*
X75631100Y-133329100D03*
%TO.N,P124*%
X84562000Y-120866900D03*
%TO.N,P121*%
X65866900Y-128312400D03*
X85882600Y-120866800D03*
%TO.N,P120*%
X86832800Y-120685000D03*
%TO.N,P119*%
X62819200Y-122196700D03*
X86043400Y-114111700D03*
%TO.N,P118*%
X80390800Y-102677600D03*
%TO.N,P117*%
X80594000Y-103627800D03*
%TO.N,P116*%
X87828200Y-108334500D03*
%TO.N,P115*%
X88103600Y-109349800D03*
%TO.N,P113*%
X90062000Y-119881800D03*
%TO.N,P112*%
X89341800Y-114083900D03*
%TO.N,P111*%
X90875900Y-112872700D03*
%TO.N,P110*%
X91826100Y-113121800D03*
%TO.N,P105*%
X59548100Y-127387800D03*
X93722900Y-116027900D03*
%TO.N,P104*%
X58675600Y-128271600D03*
X95262500Y-119418700D03*
%TO.N,P103*%
X92768700Y-115697800D03*
%TO.N,P102*%
X60464800Y-126930700D03*
X92675800Y-120384500D03*
%TO.N,P101*%
X91987000Y-121042700D03*
%TO.N,P100*%
X59896500Y-129467400D03*
X91112400Y-119646700D03*
%TO.N,P98*%
X61209200Y-139415600D03*
X65563000Y-139218700D03*
X103751200Y-129948100D03*
X110026200Y-116671800D03*
X95817900Y-122333900D03*
%TO.N,P97*%
X101798400Y-118411200D03*
X63533300Y-125085400D03*
%TO.N,P96*%
X60084800Y-134625000D03*
X60958000Y-129130600D03*
X90451600Y-121059000D03*
%TO.N,P95*%
X65893100Y-141716500D03*
X72738300Y-146689200D03*
X72738300Y-137793600D03*
X102526000Y-130245900D03*
X108326700Y-119855200D03*
X95277700Y-124076800D03*
%TO.N,P94*%
X92372400Y-125350400D03*
%TO.N,P92*%
X90071900Y-122400100D03*
%TO.N,P91*%
X62891600Y-129617700D03*
X89111800Y-120301800D03*
%TO.N,P88*%
X95285400Y-126945100D03*
%TO.N,P87*%
X60890200Y-143087400D03*
X88791600Y-123108600D03*
%TO.N,P86*%
X61592100Y-143759100D03*
X96235500Y-126945100D03*
%TO.N,P85*%
X63208700Y-141674100D03*
X86040600Y-124184700D03*
%TO.N,P83*%
X68157300Y-157820200D03*
X96527800Y-130542500D03*
%TO.N,P82*%
X95298800Y-130552400D03*
%TO.N,P81*%
X110198100Y-178623700D03*
%TO.N,P80*%
X67057100Y-158921700D03*
X92640800Y-131060400D03*
%TO.N,P79*%
X82478600Y-176283500D03*
X82478600Y-146071100D03*
X96469000Y-135790100D03*
%TO.N,P78*%
X89114300Y-126039400D03*
%TO.N,P77*%
X95910400Y-134760100D03*
%TO.N,P76*%
X89984500Y-129630400D03*
%TO.N,P129*%
X82572700Y-101139600D03*
X86257600Y-112055100D03*
X81982200Y-112722100D03*
%TO.N,P130*%
X78766300Y-100043600D03*
%TO.N,P131*%
X77875400Y-100497500D03*
%TO.N,P132*%
X78521300Y-98923500D03*
%TO.N,P133*%
X78863000Y-97650800D03*
%TO.N,P134*%
X76123000Y-92147000D03*
%TO.N,Net-(J3-Pad6)*%
X88862400Y-138919400D03*
%TO.N,Net-(J3-Pad5)*%
X88467600Y-141072700D03*
%TO.N,Net-(J3-Pad4)*%
X85484500Y-131406900D03*
%TO.N,Net-(J3-Pad3)*%
X89562000Y-140192100D03*
%TO.N,P57*%
X110757000Y-157739600D03*
X102647700Y-148470600D03*
%TO.N,P54*%
X83591900Y-135597600D03*
%TO.N,P53*%
X82980500Y-138210000D03*
%TO.N,P52*%
X82781700Y-142265900D03*
%TO.N,P51*%
X81251600Y-135207300D03*
%TO.N,P50*%
X81251600Y-134257100D03*
%TO.N,P49*%
X73848400Y-136490100D03*
X74099700Y-141238800D03*
X79659000Y-140989100D03*
%TO.N,P45*%
X83033100Y-132439300D03*
%TO.N,P43*%
X110253300Y-139179700D03*
X77562000Y-138192500D03*
%TO.N,P41*%
X108630000Y-136768600D03*
X83705000Y-131767400D03*
%TO.N,P40*%
X111366800Y-131577000D03*
X76000000Y-135263500D03*
%TO.N,P39*%
X106089200Y-135149500D03*
X84541600Y-132274600D03*
%TO.N,P38*%
X106195600Y-132863800D03*
X86434700Y-131568500D03*
%TO.N,P35*%
X70604000Y-132088300D03*
%TO.N,P32*%
X71357100Y-132679000D03*
%TO.N,P30*%
X107083100Y-118263500D03*
X106713600Y-119785000D03*
X69086900Y-129422400D03*
%TO.N,P28*%
X70735000Y-135668800D03*
X70896400Y-133959300D03*
X71915800Y-85138600D03*
X98166100Y-87264100D03*
X103516200Y-119848000D03*
%TO.N,P26*%
X86990800Y-124127800D03*
X87811400Y-120789700D03*
X75526300Y-124850600D03*
%TO.N,P25*%
X85736300Y-111088500D03*
X82345200Y-102336700D03*
X63300300Y-106305500D03*
%TO.N,P24*%
X90809600Y-107086000D03*
X87023800Y-98584000D03*
X64372000Y-107593200D03*
%TO.N,P23*%
X97567400Y-126841300D03*
X80435300Y-125480700D03*
X78306100Y-123569000D03*
X74182700Y-127032000D03*
%TO.N,P22*%
X111250500Y-107636200D03*
X64344500Y-105224500D03*
%TO.N,P21*%
X104837000Y-81977200D03*
X64370900Y-110195300D03*
%TO.N,P19*%
X99297800Y-87052000D03*
X71780200Y-89877100D03*
%TO.N,P17*%
X67367600Y-112161600D03*
X75762400Y-107793500D03*
X75716800Y-113857000D03*
%TO.N,P16*%
X68454000Y-111596100D03*
%TO.N,P15*%
X106095700Y-86752800D03*
X69098500Y-108776500D03*
%TO.N,P14*%
X76557600Y-124286400D03*
X79029100Y-122853800D03*
X81110700Y-124795600D03*
X106479600Y-122935900D03*
X103993200Y-93245100D03*
%TO.N,P13*%
X66924200Y-113924600D03*
X89234700Y-96651700D03*
X93255900Y-101933300D03*
%TO.N,P12*%
X109052500Y-83831900D03*
X71221100Y-108453700D03*
%TO.N,P11*%
X110863300Y-82478600D03*
X69231100Y-118150800D03*
%TO.N,P10*%
X109262000Y-81845900D03*
X69844900Y-109840700D03*
%TO.N,P9*%
X70029200Y-116653600D03*
%TO.N,P7*%
X72426900Y-85971400D03*
%TO.N,P6*%
X70775600Y-113785900D03*
%TO.N,P5*%
X77377800Y-118438300D03*
X113671200Y-117525400D03*
%TO.N,P4*%
X105550100Y-110174100D03*
X74904700Y-118720100D03*
%TO.N,P3*%
X70326800Y-84364000D03*
%TO.N,P2*%
X71031200Y-83723900D03*
%TO.N,P70*%
X92151900Y-138658300D03*
%TO.N,P69*%
X90802900Y-138243100D03*
%TO.N,P61*%
X114108600Y-178418000D03*
X86562000Y-135595600D03*
%TO.N,P60*%
X86672100Y-138199900D03*
%TO.N,P58*%
X85062000Y-153477300D03*
%TO.N,CPLD_1.8V*%
X82944900Y-139987500D03*
X70020900Y-137460400D03*
X66027500Y-136095400D03*
X61685100Y-117659600D03*
X70750800Y-122778300D03*
X75414200Y-117885900D03*
%TO.N,GND*%
X74562000Y-109974400D03*
X84833300Y-114264600D03*
X95337000Y-115194100D03*
X86418200Y-139174000D03*
X62575100Y-124822700D03*
X74562000Y-111810400D03*
X87430800Y-105102900D03*
X101347600Y-126154100D03*
X79562000Y-138190400D03*
%TO.N,+3.3V*%
X92672600Y-134792600D03*
X71872400Y-136282200D03*
X69946200Y-133954400D03*
X85367600Y-105395300D03*
X83751000Y-138783300D03*
X82920800Y-123797700D03*
X97301600Y-124565000D03*
%TD*%
D19*
%TO.N,Net-(R1-Pad1)*%
X77216000Y-156996100D02*
X77216000Y-157988000D01*
X70328000Y-150108100D02*
X77216000Y-156996100D01*
X70328000Y-149318000D02*
X70328000Y-150108100D01*
%TO.N,P128*%
X77940500Y-102339600D02*
X78170200Y-102109900D01*
X77940500Y-104626600D02*
X77940500Y-102339600D01*
X81672300Y-108358400D02*
X77940500Y-104626600D01*
X81672300Y-111506900D02*
X81672300Y-108358400D01*
X82671500Y-112506100D02*
X81672300Y-111506900D01*
X82671500Y-115466000D02*
X82671500Y-112506100D01*
X82562000Y-115575500D02*
X82671500Y-115466000D01*
%TO.N,P126*%
X82052400Y-106469400D02*
X78603500Y-103020500D01*
X82052400Y-110051500D02*
X82052400Y-106469400D01*
X83562000Y-111561100D02*
X82052400Y-110051500D01*
X83562000Y-115575500D02*
X83562000Y-111561100D01*
%TO.N,P125*%
X83862300Y-125097900D02*
X75631100Y-133329100D01*
X83862300Y-120331200D02*
X83862300Y-125097900D01*
X84062000Y-120131500D02*
X83862300Y-120331200D01*
X84062000Y-115575500D02*
X84062000Y-120131500D01*
X61205600Y-137114100D02*
X67233700Y-137114100D01*
%TO.N,P124*%
X84562000Y-115575500D02*
X84562000Y-120866900D01*
%TO.N,P121*%
X56896000Y-96012000D02*
X56896000Y-97102100D01*
X86062000Y-120687400D02*
X85882600Y-120866800D01*
X86062000Y-115575500D02*
X86062000Y-120687400D01*
X64833700Y-127279200D02*
X65866900Y-128312400D01*
X64833700Y-122838900D02*
X64833700Y-127279200D01*
X62325300Y-120330500D02*
X64833700Y-122838900D01*
X62325300Y-102380600D02*
X62325300Y-120330500D01*
X57046800Y-97102100D02*
X62325300Y-102380600D01*
X56896000Y-97102100D02*
X57046800Y-97102100D01*
%TO.N,P120*%
X86562000Y-120414200D02*
X86832800Y-120685000D01*
X86562000Y-115575500D02*
X86562000Y-120414200D01*
%TO.N,P119*%
X87062000Y-114889000D02*
X87062000Y-115575500D01*
X86284700Y-114111700D02*
X87062000Y-114889000D01*
X86043400Y-114111700D02*
X86284700Y-114111700D01*
X56896000Y-101092000D02*
X56896000Y-102182100D01*
X61045000Y-120422500D02*
X62819200Y-122196700D01*
X61045000Y-117394500D02*
X61045000Y-120422500D01*
X61995200Y-116444300D02*
X61045000Y-117394500D01*
X61995200Y-107145000D02*
X61995200Y-116444300D01*
X57032300Y-102182100D02*
X61995200Y-107145000D01*
X56896000Y-102182100D02*
X57032300Y-102182100D01*
%TO.N,P118*%
X87562000Y-114734300D02*
X87562000Y-115575500D01*
X86683500Y-113855800D02*
X87562000Y-114734300D01*
X86683500Y-113846500D02*
X86683500Y-113855800D01*
X85862300Y-113025300D02*
X86683500Y-113846500D01*
X85855700Y-113025300D02*
X85862300Y-113025300D01*
X82392100Y-109561700D02*
X85855700Y-113025300D01*
X82392100Y-106331400D02*
X82392100Y-109561700D01*
X79911800Y-103851100D02*
X82392100Y-106331400D01*
X79911800Y-103156600D02*
X79911800Y-103851100D01*
X80390800Y-102677600D02*
X79911800Y-103156600D01*
%TO.N,P117*%
X88062000Y-114767400D02*
X88062000Y-115575500D01*
X87013600Y-113719000D02*
X88062000Y-114767400D01*
X87013600Y-113709700D02*
X87013600Y-113719000D01*
X85999100Y-112695200D02*
X87013600Y-113709700D01*
X85992500Y-112695200D02*
X85999100Y-112695200D01*
X83738100Y-110440800D02*
X85992500Y-112695200D01*
X83738100Y-106771900D02*
X83738100Y-110440800D01*
X80594000Y-103627800D02*
X83738100Y-106771900D01*
%TO.N,P116*%
X87462900Y-108699800D02*
X87828200Y-108334500D01*
X87462900Y-113701400D02*
X87462900Y-108699800D01*
X88562000Y-114800500D02*
X87462900Y-113701400D01*
X88562000Y-115575500D02*
X88562000Y-114800500D01*
%TO.N,P115*%
X88103600Y-113875200D02*
X88103600Y-109349800D01*
X89062000Y-114833600D02*
X88103600Y-113875200D01*
X89062000Y-115575500D02*
X89062000Y-114833600D01*
%TO.N,P113*%
X90062000Y-115575500D02*
X90062000Y-119881800D01*
%TO.N,P112*%
X90562000Y-114879800D02*
X90562000Y-115575500D01*
X89766100Y-114083900D02*
X90562000Y-114879800D01*
X89341800Y-114083900D02*
X89766100Y-114083900D01*
%TO.N,P111*%
X91062000Y-113058800D02*
X90875900Y-112872700D01*
X91062000Y-115575500D02*
X91062000Y-113058800D01*
%TO.N,P110*%
X91562000Y-113385900D02*
X91826100Y-113121800D01*
X91562000Y-115575500D02*
X91562000Y-113385900D01*
%TO.N,P105*%
X56896000Y-123952000D02*
X56896000Y-125042100D01*
X92958700Y-116792100D02*
X93722900Y-116027900D01*
X92958700Y-118713400D02*
X92958700Y-116792100D01*
X93233300Y-118988000D02*
X92958700Y-118713400D01*
X93974500Y-118988000D02*
X93233300Y-118988000D01*
X57202400Y-125042100D02*
X59548100Y-127387800D01*
X56896000Y-125042100D02*
X57202400Y-125042100D01*
%TO.N,P104*%
X56896000Y-126492000D02*
X57986100Y-126492000D01*
X57986100Y-127582100D02*
X58675600Y-128271600D01*
X57986100Y-126492000D02*
X57986100Y-127582100D01*
X95193200Y-119488000D02*
X93974500Y-119488000D01*
X95262500Y-119418700D02*
X95193200Y-119488000D01*
%TO.N,P103*%
X92628600Y-115837900D02*
X92768700Y-115697800D01*
X92628600Y-119350700D02*
X92628600Y-115837900D01*
X93265900Y-119988000D02*
X92628600Y-119350700D01*
X93974500Y-119988000D02*
X93265900Y-119988000D01*
%TO.N,P102*%
X92779300Y-120488000D02*
X92675800Y-120384500D01*
X93974500Y-120488000D02*
X92779300Y-120488000D01*
X56896000Y-131572000D02*
X56896000Y-130481900D01*
X60464800Y-127408700D02*
X60464800Y-126930700D01*
X57391600Y-130481900D02*
X60464800Y-127408700D01*
X56896000Y-130481900D02*
X57391600Y-130481900D01*
%TO.N,P101*%
X93919800Y-121042700D02*
X91987000Y-121042700D01*
X93974500Y-120988000D02*
X93919800Y-121042700D01*
%TO.N,P100*%
X59896500Y-132697700D02*
X59896500Y-129467400D01*
X57032300Y-135561900D02*
X59896500Y-132697700D01*
X56896000Y-135561900D02*
X57032300Y-135561900D01*
X91112400Y-121133600D02*
X91112400Y-119646700D01*
X91663100Y-121684300D02*
X91112400Y-121133600D01*
X92540400Y-121684300D02*
X91663100Y-121684300D01*
X92736700Y-121488000D02*
X92540400Y-121684300D01*
X93974500Y-121488000D02*
X92736700Y-121488000D01*
X56896000Y-136652000D02*
X56896000Y-135561900D01*
%TO.N,P98*%
X110828900Y-122870400D02*
X103751200Y-129948100D01*
X110828900Y-117474500D02*
X110828900Y-122870400D01*
X110026200Y-116671800D02*
X110828900Y-117474500D01*
X95663800Y-122488000D02*
X95817900Y-122333900D01*
X93974500Y-122488000D02*
X95663800Y-122488000D01*
X65366100Y-139415600D02*
X65563000Y-139218700D01*
X61209200Y-139415600D02*
X65366100Y-139415600D01*
%TO.N,P97*%
X56896000Y-141732000D02*
X56896000Y-140641900D01*
X96629900Y-122988000D02*
X93974500Y-122988000D01*
X99182100Y-125540200D02*
X96629900Y-122988000D01*
X100580400Y-125540200D02*
X99182100Y-125540200D01*
X101798400Y-124322200D02*
X100580400Y-125540200D01*
X101798400Y-118411200D02*
X101798400Y-124322200D01*
X57008900Y-140641900D02*
X56896000Y-140641900D01*
X60253500Y-137397300D02*
X57008900Y-140641900D01*
X60253500Y-136733800D02*
X60253500Y-137397300D01*
X63533300Y-133454000D02*
X60253500Y-136733800D01*
X63533300Y-125085400D02*
X63533300Y-133454000D01*
%TO.N,P96*%
X60958000Y-133751800D02*
X60958000Y-129130600D01*
X60084800Y-134625000D02*
X60958000Y-133751800D01*
X92880600Y-123488000D02*
X90451600Y-121059000D01*
X93974500Y-123488000D02*
X92880600Y-123488000D01*
%TO.N,P95*%
X72738300Y-146689200D02*
X72738300Y-137793600D01*
X56896000Y-146812000D02*
X56896000Y-145721900D01*
X108326700Y-117465900D02*
X108326700Y-119855200D01*
X109810000Y-115982600D02*
X108326700Y-117465900D01*
X110318600Y-115982600D02*
X109810000Y-115982600D01*
X111196500Y-116860500D02*
X110318600Y-115982600D01*
X111196500Y-123463300D02*
X111196500Y-116860500D01*
X104059900Y-130599900D02*
X111196500Y-123463300D01*
X102880000Y-130599900D02*
X104059900Y-130599900D01*
X102526000Y-130245900D02*
X102880000Y-130599900D01*
X65169000Y-140992400D02*
X65893100Y-141716500D01*
X62022300Y-140992400D02*
X65169000Y-140992400D01*
X57292800Y-145721900D02*
X62022300Y-140992400D01*
X56896000Y-145721900D02*
X57292800Y-145721900D01*
X95188900Y-123988000D02*
X93974500Y-123988000D01*
X95277700Y-124076800D02*
X95188900Y-123988000D01*
%TO.N,P94*%
X93234800Y-124488000D02*
X92372400Y-125350400D01*
X93974500Y-124488000D02*
X93234800Y-124488000D01*
%TO.N,P92*%
X90071900Y-123955100D02*
X90071900Y-122400100D01*
X92144600Y-126027800D02*
X90071900Y-123955100D01*
X92674900Y-126027800D02*
X92144600Y-126027800D01*
X93214700Y-125488000D02*
X92674900Y-126027800D01*
X93974500Y-125488000D02*
X93214700Y-125488000D01*
%TO.N,P91*%
X56896000Y-154432000D02*
X56896000Y-153341900D01*
X62891600Y-132723500D02*
X62891600Y-129617700D01*
X57693100Y-137922000D02*
X62891600Y-132723500D01*
X56617300Y-137922000D02*
X57693100Y-137922000D01*
X55781500Y-138757800D02*
X56617300Y-137922000D01*
X55781500Y-152363700D02*
X55781500Y-138757800D01*
X56759700Y-153341900D02*
X55781500Y-152363700D01*
X56896000Y-153341900D02*
X56759700Y-153341900D01*
X89111800Y-122434300D02*
X89111800Y-120301800D01*
X89474700Y-122797200D02*
X89111800Y-122434300D01*
X89474700Y-123853100D02*
X89474700Y-122797200D01*
X91985000Y-126363400D02*
X89474700Y-123853100D01*
X92806200Y-126363400D02*
X91985000Y-126363400D01*
X93181600Y-125988000D02*
X92806200Y-126363400D01*
X93974500Y-125988000D02*
X93181600Y-125988000D01*
%TO.N,P88*%
X94742500Y-127488000D02*
X95285400Y-126945100D01*
X93974500Y-127488000D02*
X94742500Y-127488000D01*
%TO.N,P87*%
X56896000Y-159512000D02*
X56896000Y-158421900D01*
X60890200Y-154564000D02*
X60890200Y-143087400D01*
X57032300Y-158421900D02*
X60890200Y-154564000D01*
X56896000Y-158421900D02*
X57032300Y-158421900D01*
X93122000Y-127988000D02*
X93974500Y-127988000D01*
X88791600Y-123657600D02*
X93122000Y-127988000D01*
X88791600Y-123108600D02*
X88791600Y-123657600D01*
%TO.N,P86*%
X94692600Y-128488000D02*
X96235500Y-126945100D01*
X93974500Y-128488000D02*
X94692600Y-128488000D01*
X61592100Y-156402100D02*
X61592100Y-143759100D01*
X57032300Y-160961900D02*
X61592100Y-156402100D01*
X56896000Y-160961900D02*
X57032300Y-160961900D01*
X56896000Y-162052000D02*
X56896000Y-160961900D01*
%TO.N,P85*%
X63208700Y-157325500D02*
X63208700Y-141674100D01*
X57032300Y-163501900D02*
X63208700Y-157325500D01*
X56896000Y-163501900D02*
X57032300Y-163501900D01*
X56896000Y-164592000D02*
X56896000Y-163501900D01*
X86876800Y-125020900D02*
X86040600Y-124184700D01*
X89323900Y-125020900D02*
X86876800Y-125020900D01*
X93291000Y-128988000D02*
X89323900Y-125020900D01*
X93974500Y-128988000D02*
X93291000Y-128988000D01*
%TO.N,P83*%
X66889100Y-157820200D02*
X68157300Y-157820200D01*
X57986100Y-166723200D02*
X66889100Y-157820200D01*
X57986100Y-167132000D02*
X57986100Y-166723200D01*
X95863800Y-129878500D02*
X96527800Y-130542500D01*
X94084000Y-129878500D02*
X95863800Y-129878500D01*
X93974500Y-129988000D02*
X94084000Y-129878500D01*
X56896000Y-167132000D02*
X57986100Y-167132000D01*
%TO.N,P82*%
X95234400Y-130488000D02*
X95298800Y-130552400D01*
X93974500Y-130488000D02*
X95234400Y-130488000D01*
%TO.N,P81*%
X94741000Y-130988000D02*
X93974500Y-130988000D01*
X100105200Y-136352200D02*
X94741000Y-130988000D01*
X100105200Y-138272500D02*
X100105200Y-136352200D01*
X112576500Y-150743800D02*
X100105200Y-138272500D01*
X113183600Y-150743800D02*
X112576500Y-150743800D01*
X115409000Y-152969200D02*
X113183600Y-150743800D01*
X115409000Y-183911900D02*
X115409000Y-152969200D01*
X113301000Y-186019900D02*
X115409000Y-183911900D01*
X112308600Y-186019900D02*
X113301000Y-186019900D01*
X110198100Y-183909400D02*
X112308600Y-186019900D01*
X110198100Y-178623700D02*
X110198100Y-183909400D01*
%TO.N,P80*%
X93068400Y-131488000D02*
X93974500Y-131488000D01*
X92640800Y-131060400D02*
X93068400Y-131488000D01*
X56896000Y-174752000D02*
X56896000Y-173661900D01*
X66345400Y-158921700D02*
X67057100Y-158921700D01*
X58772500Y-166494600D02*
X66345400Y-158921700D01*
X58772500Y-171921800D02*
X58772500Y-166494600D01*
X57032400Y-173661900D02*
X58772500Y-171921800D01*
X56896000Y-173661900D02*
X57032400Y-173661900D01*
%TO.N,P79*%
X94697500Y-131988000D02*
X93974500Y-131988000D01*
X96598900Y-133889400D02*
X94697500Y-131988000D01*
X96598900Y-135660200D02*
X96598900Y-133889400D01*
X96469000Y-135790100D02*
X96598900Y-135660200D01*
X82478600Y-146071100D02*
X82478600Y-176283500D01*
%TO.N,P78*%
X91072900Y-127998000D02*
X89114300Y-126039400D01*
X91072900Y-130473700D02*
X91072900Y-127998000D01*
X93087200Y-132488000D02*
X91072900Y-130473700D01*
X93974500Y-132488000D02*
X93087200Y-132488000D01*
%TO.N,P77*%
X94658200Y-132988000D02*
X93974500Y-132988000D01*
X95910400Y-134240200D02*
X94658200Y-132988000D01*
X95910400Y-134760100D02*
X95910400Y-134240200D01*
%TO.N,P76*%
X89984500Y-130255500D02*
X89984500Y-129630400D01*
X93217000Y-133488000D02*
X89984500Y-130255500D01*
X93974500Y-133488000D02*
X93217000Y-133488000D01*
%TO.N,P129*%
X81982200Y-115495700D02*
X82062000Y-115575500D01*
X81982200Y-112722100D02*
X81982200Y-115495700D01*
X86361100Y-104928000D02*
X82572700Y-101139600D01*
X86361100Y-105991900D02*
X86361100Y-104928000D01*
X86932200Y-106563000D02*
X86361100Y-105991900D01*
X86932200Y-111380500D02*
X86932200Y-106563000D01*
X86257600Y-112055100D02*
X86932200Y-111380500D01*
%TO.N,P130*%
X81562000Y-113471800D02*
X81562000Y-115575500D01*
X81227000Y-113136800D02*
X81562000Y-113471800D01*
X81227000Y-108380000D02*
X81227000Y-113136800D01*
X77526100Y-104679100D02*
X81227000Y-108380000D01*
X77526100Y-101769100D02*
X77526100Y-104679100D01*
X78766300Y-100528900D02*
X77526100Y-101769100D01*
X78766300Y-100043600D02*
X78766300Y-100528900D01*
%TO.N,P131*%
X81062000Y-113561100D02*
X81062000Y-115575500D01*
X80731900Y-113231000D02*
X81062000Y-113561100D01*
X80731900Y-108351800D02*
X80731900Y-113231000D01*
X77113300Y-104733200D02*
X80731900Y-108351800D01*
X77113300Y-101259600D02*
X77113300Y-104733200D01*
X77875400Y-100497500D02*
X77113300Y-101259600D01*
%TO.N,P132*%
X80562000Y-113528000D02*
X80562000Y-115575500D01*
X80401800Y-113367800D02*
X80562000Y-113528000D01*
X80401800Y-108488600D02*
X80401800Y-113367800D01*
X76783200Y-104870000D02*
X80401800Y-108488600D01*
X76783200Y-100661600D02*
X76783200Y-104870000D01*
X78521300Y-98923500D02*
X76783200Y-100661600D01*
%TO.N,P133*%
X80062000Y-108615700D02*
X80062000Y-115575500D01*
X76453100Y-105006800D02*
X80062000Y-108615700D01*
X76453100Y-100060700D02*
X76453100Y-105006800D01*
X78863000Y-97650800D02*
X76453100Y-100060700D01*
%TO.N,P134*%
X76123000Y-105143600D02*
X76123000Y-92147000D01*
X79562000Y-108582600D02*
X76123000Y-105143600D01*
X79562000Y-115575500D02*
X79562000Y-108582600D01*
%TO.N,P136*%
X56896000Y-68077000D02*
X56896000Y-69167100D01*
X57851000Y-69167100D02*
X56896000Y-69167100D01*
X73727200Y-85043300D02*
X57851000Y-69167100D01*
X73727200Y-108364000D02*
X73727200Y-85043300D01*
X73237700Y-108853500D02*
X73727200Y-108364000D01*
X73237700Y-116391400D02*
X73237700Y-108853500D01*
X74078600Y-117232300D02*
X73237700Y-116391400D01*
X77660700Y-117232300D02*
X74078600Y-117232300D01*
X78561900Y-116331100D02*
X77660700Y-117232300D01*
X78561900Y-115575500D02*
X78561900Y-116331100D01*
X78562000Y-115575500D02*
X78561900Y-115575500D01*
%TO.N,P138*%
X56896000Y-65537000D02*
X56896000Y-66627100D01*
X57032400Y-66627100D02*
X56896000Y-66627100D01*
X74057300Y-83652000D02*
X57032400Y-66627100D01*
X74057300Y-108500800D02*
X74057300Y-83652000D01*
X73578300Y-108979800D02*
X74057300Y-108500800D01*
X73578300Y-116254200D02*
X73578300Y-108979800D01*
X74226300Y-116902200D02*
X73578300Y-116254200D01*
X76927400Y-116902200D02*
X74226300Y-116902200D01*
X77561900Y-116267700D02*
X76927400Y-116902200D01*
X77561900Y-115575500D02*
X77561900Y-116267700D01*
X77562000Y-115575500D02*
X77561900Y-115575500D01*
%TO.N,P140*%
X56896000Y-62997000D02*
X56896000Y-64087100D01*
X57032400Y-64087100D02*
X56896000Y-64087100D01*
X74387400Y-81442100D02*
X57032400Y-64087100D01*
X74387400Y-108637600D02*
X74387400Y-81442100D01*
X73908400Y-109116600D02*
X74387400Y-108637600D01*
X73908400Y-116105600D02*
X73908400Y-109116600D01*
X74374600Y-116571800D02*
X73908400Y-116105600D01*
X76274200Y-116571800D02*
X74374600Y-116571800D01*
X76562000Y-116284000D02*
X76274200Y-116571800D01*
X76562000Y-115575500D02*
X76562000Y-116284000D01*
%TO.N,P143*%
X56896000Y-60457000D02*
X56896000Y-61547100D01*
X75062000Y-112434600D02*
X75062000Y-115575500D01*
X75241500Y-112255100D02*
X75062000Y-112434600D01*
X75241500Y-108177800D02*
X75241500Y-112255100D01*
X75122300Y-108058600D02*
X75241500Y-108177800D01*
X75122300Y-79637100D02*
X75122300Y-108058600D01*
X57032300Y-61547100D02*
X75122300Y-79637100D01*
X56896000Y-61547100D02*
X57032300Y-61547100D01*
%TO.N,Net-(J3-Pad6)*%
X88562000Y-138619000D02*
X88862400Y-138919400D01*
X88562000Y-136900500D02*
X88562000Y-138619000D01*
%TO.N,Net-(J3-Pad5)*%
X87562000Y-137667300D02*
X87562000Y-136900500D01*
X87892100Y-137997400D02*
X87562000Y-137667300D01*
X87892100Y-140497200D02*
X87892100Y-137997400D01*
X88467600Y-141072700D02*
X87892100Y-140497200D01*
%TO.N,Net-(J3-Pad4)*%
X85242500Y-131164900D02*
X85484500Y-131406900D01*
X85242500Y-120601700D02*
X85242500Y-131164900D01*
X85562000Y-120282200D02*
X85242500Y-120601700D01*
X85562000Y-115575500D02*
X85562000Y-120282200D01*
%TO.N,Net-(J3-Pad3)*%
X89562000Y-136900500D02*
X89562000Y-140192100D01*
%TO.N,P57*%
X112776000Y-159517000D02*
X111685900Y-159517000D01*
X111685900Y-158668500D02*
X110757000Y-157739600D01*
X111685900Y-159517000D02*
X111685900Y-158668500D01*
X102647700Y-146252500D02*
X102647700Y-148470600D01*
X91299500Y-134904300D02*
X102647700Y-146252500D01*
X85854500Y-134904300D02*
X91299500Y-134904300D01*
X84562100Y-136196700D02*
X85854500Y-134904300D01*
X84562100Y-136900500D02*
X84562100Y-136196700D01*
X84562000Y-136900500D02*
X84562100Y-136900500D01*
%TO.N,P56*%
X112776000Y-156508700D02*
X112776000Y-156977000D01*
X102977800Y-146710500D02*
X112776000Y-156508700D01*
X102977800Y-146089100D02*
X102977800Y-146710500D01*
X91461800Y-134573100D02*
X102977800Y-146089100D01*
X85649200Y-134573100D02*
X91461800Y-134573100D01*
X84062000Y-136160300D02*
X85649200Y-134573100D01*
X84062000Y-136900500D02*
X84062000Y-136160300D01*
%TO.N,P54*%
X83062000Y-136127500D02*
X83591900Y-135597600D01*
X83062000Y-136900500D02*
X83062000Y-136127500D01*
%TO.N,P53*%
X82562000Y-137791500D02*
X82980500Y-138210000D01*
X82562000Y-136900500D02*
X82562000Y-137791500D01*
%TO.N,P52*%
X82062000Y-138199300D02*
X82062000Y-136900500D01*
X83585000Y-139722300D02*
X82062000Y-138199300D01*
X83585000Y-141462600D02*
X83585000Y-139722300D01*
X82781700Y-142265900D02*
X83585000Y-141462600D01*
%TO.N,P51*%
X81562000Y-135517700D02*
X81251600Y-135207300D01*
X81562000Y-136900500D02*
X81562000Y-135517700D01*
%TO.N,P50*%
X80592400Y-134916300D02*
X81251600Y-134257100D01*
X80592400Y-135694700D02*
X80592400Y-134916300D01*
X81062000Y-136164300D02*
X80592400Y-135694700D01*
X81062000Y-136900500D02*
X81062000Y-136164300D01*
%TO.N,P49*%
X74099700Y-136741400D02*
X73848400Y-136490100D01*
X74099700Y-141238800D02*
X74099700Y-136741400D01*
X80562000Y-140086100D02*
X79659000Y-140989100D01*
X80562000Y-136900500D02*
X80562000Y-140086100D01*
%TO.N,P45*%
X78562000Y-135968300D02*
X78562000Y-136900500D01*
X82091000Y-132439300D02*
X78562000Y-135968300D01*
X83033100Y-132439300D02*
X82091000Y-132439300D01*
%TO.N,P43*%
X77562000Y-136900500D02*
X77562000Y-138192500D01*
X111685900Y-137747100D02*
X110253300Y-139179700D01*
X111685900Y-136657000D02*
X111685900Y-137747100D01*
X112776000Y-136657000D02*
X111685900Y-136657000D01*
%TO.N,P41*%
X111281600Y-134117000D02*
X108630000Y-136768600D01*
X112776000Y-134117000D02*
X111281600Y-134117000D01*
X80983300Y-131767400D02*
X83705000Y-131767400D01*
X76562000Y-136188700D02*
X80983300Y-131767400D01*
X76562000Y-136900500D02*
X76562000Y-136188700D01*
%TO.N,P40*%
X112776000Y-131577000D02*
X111366800Y-131577000D01*
X76062000Y-135325500D02*
X76000000Y-135263500D01*
X76062000Y-136900500D02*
X76062000Y-135325500D01*
%TO.N,P39*%
X112776000Y-129037000D02*
X112776000Y-130127100D01*
X111111600Y-130127100D02*
X106089200Y-135149500D01*
X112776000Y-130127100D02*
X111111600Y-130127100D01*
X84514300Y-132247300D02*
X84541600Y-132274600D01*
X84514300Y-131649400D02*
X84514300Y-132247300D01*
X83981100Y-131116200D02*
X84514300Y-131649400D01*
X79242100Y-131116200D02*
X83981100Y-131116200D01*
X75359900Y-134998400D02*
X79242100Y-131116200D01*
X75359900Y-135528600D02*
X75359900Y-134998400D01*
X75562000Y-135730700D02*
X75359900Y-135528600D01*
X75562000Y-136900500D02*
X75562000Y-135730700D01*
%TO.N,P38*%
X112776000Y-126497000D02*
X111685900Y-126497000D01*
X111685900Y-127373500D02*
X106195600Y-132863800D01*
X111685900Y-126497000D02*
X111685900Y-127373500D01*
X85956200Y-132047000D02*
X86434700Y-131568500D01*
X85219400Y-132047000D02*
X85956200Y-132047000D01*
X84844400Y-131672000D02*
X85219400Y-132047000D01*
X84844400Y-131465700D02*
X84844400Y-131672000D01*
X84158000Y-130779300D02*
X84844400Y-131465700D01*
X79112100Y-130779300D02*
X84158000Y-130779300D01*
X75029800Y-134861600D02*
X79112100Y-130779300D01*
X75029800Y-136868300D02*
X75029800Y-134861600D01*
X75062000Y-136900500D02*
X75029800Y-136868300D01*
%TO.N,P35*%
X70604000Y-132895500D02*
X70604000Y-132088300D01*
X71027700Y-133319200D02*
X70604000Y-132895500D01*
X71161600Y-133319200D02*
X71027700Y-133319200D01*
X71536500Y-133694100D02*
X71161600Y-133319200D01*
X71536500Y-134134300D02*
X71536500Y-133694100D01*
X71890200Y-134488000D02*
X71536500Y-134134300D01*
X72649500Y-134488000D02*
X71890200Y-134488000D01*
%TO.N,P32*%
X71666100Y-132988000D02*
X71357100Y-132679000D01*
X72649500Y-132988000D02*
X71666100Y-132988000D01*
%TO.N,P30*%
X107083100Y-119415500D02*
X106713600Y-119785000D01*
X107083100Y-118263500D02*
X107083100Y-119415500D01*
X71652500Y-131988000D02*
X69086900Y-129422400D01*
X72649500Y-131988000D02*
X71652500Y-131988000D01*
%TO.N,P28*%
X103516100Y-119848000D02*
X103516200Y-119848000D01*
X103516100Y-111656200D02*
X103516100Y-119848000D01*
X103077400Y-111217500D02*
X103516100Y-111656200D01*
X103077400Y-92175400D02*
X103077400Y-111217500D01*
X98166100Y-87264100D02*
X103077400Y-92175400D01*
X71025400Y-135378400D02*
X70735000Y-135668800D01*
X73470700Y-135378400D02*
X71025400Y-135378400D01*
X73957600Y-134891500D02*
X73470700Y-135378400D01*
X73957600Y-131596000D02*
X73957600Y-134891500D01*
X73349600Y-130988000D02*
X73957600Y-131596000D01*
X72649500Y-130988000D02*
X73349600Y-130988000D01*
X62655400Y-94399000D02*
X71915800Y-85138600D01*
X62655400Y-120193700D02*
X62655400Y-94399000D01*
X65163800Y-122702100D02*
X62655400Y-120193700D01*
X65163800Y-124897800D02*
X65163800Y-122702100D01*
X66543000Y-126277000D02*
X65163800Y-124897800D01*
X66543000Y-129101100D02*
X66543000Y-126277000D01*
X66478600Y-129165500D02*
X66543000Y-129101100D01*
X66478600Y-131405000D02*
X66478600Y-129165500D01*
X69668100Y-134594500D02*
X66478600Y-131405000D01*
X70211400Y-134594500D02*
X69668100Y-134594500D01*
X70846500Y-133959400D02*
X70211400Y-134594500D01*
X70846500Y-133959300D02*
X70846500Y-133959400D01*
X70896400Y-133959300D02*
X70846500Y-133959300D01*
%TO.N,P26*%
X86990800Y-121610300D02*
X87811400Y-120789700D01*
X86990800Y-124127800D02*
X86990800Y-121610300D01*
X75526300Y-127869600D02*
X75526300Y-124850600D01*
X73407900Y-129988000D02*
X75526300Y-127869600D01*
X72649500Y-129988000D02*
X73407900Y-129988000D01*
%TO.N,P25*%
X70220900Y-129488000D02*
X72649500Y-129488000D01*
X65493900Y-124761000D02*
X70220900Y-129488000D01*
X65493900Y-122565300D02*
X65493900Y-124761000D01*
X62985500Y-120056900D02*
X65493900Y-122565300D01*
X62985500Y-106620300D02*
X62985500Y-120056900D01*
X63300300Y-106305500D02*
X62985500Y-106620300D01*
X84716600Y-104708100D02*
X82345200Y-102336700D01*
X84716600Y-110068800D02*
X84716600Y-104708100D01*
X85736300Y-111088500D02*
X84716600Y-110068800D01*
%TO.N,P24*%
X70187800Y-128988000D02*
X72649500Y-128988000D01*
X65824000Y-124624200D02*
X70187800Y-128988000D01*
X65824000Y-122428500D02*
X65824000Y-124624200D01*
X63315600Y-119920100D02*
X65824000Y-122428500D01*
X63315600Y-108649600D02*
X63315600Y-119920100D01*
X64372000Y-107593200D02*
X63315600Y-108649600D01*
X87023800Y-103300200D02*
X87023800Y-98584000D01*
X90809600Y-107086000D02*
X87023800Y-103300200D01*
%TO.N,P23*%
X112776000Y-106177000D02*
X112776000Y-107267100D01*
X112604500Y-107267100D02*
X112776000Y-107267100D01*
X107723200Y-112148400D02*
X112604500Y-107267100D01*
X107723200Y-118528700D02*
X107723200Y-112148400D01*
X107686600Y-118565300D02*
X107723200Y-118528700D01*
X107686600Y-122642200D02*
X107686600Y-118565300D01*
X103487500Y-126841300D02*
X107686600Y-122642200D01*
X97567400Y-126841300D02*
X103487500Y-126841300D01*
X74182700Y-127638700D02*
X74182700Y-127032000D01*
X73333400Y-128488000D02*
X74182700Y-127638700D01*
X72649500Y-128488000D02*
X73333400Y-128488000D01*
X78523600Y-123569000D02*
X78306100Y-123569000D01*
X80435300Y-125480700D02*
X78523600Y-123569000D01*
%TO.N,P22*%
X111250500Y-106116300D02*
X111250500Y-107636200D01*
X112639700Y-104727100D02*
X111250500Y-106116300D01*
X112776000Y-104727100D02*
X112639700Y-104727100D01*
X69654700Y-127988000D02*
X72649500Y-127988000D01*
X66154100Y-124487400D02*
X69654700Y-127988000D01*
X66154100Y-122291700D02*
X66154100Y-124487400D01*
X63645700Y-119783300D02*
X66154100Y-122291700D01*
X63645700Y-109691800D02*
X63645700Y-119783300D01*
X65027700Y-108309800D02*
X63645700Y-109691800D01*
X65027700Y-105907700D02*
X65027700Y-108309800D01*
X64344500Y-105224500D02*
X65027700Y-105907700D01*
X112776000Y-103637000D02*
X112776000Y-104727100D01*
%TO.N,P21*%
X69621600Y-127488000D02*
X72649500Y-127488000D01*
X66484200Y-124350600D02*
X69621600Y-127488000D01*
X66484200Y-122154900D02*
X66484200Y-124350600D01*
X63975800Y-119646500D02*
X66484200Y-122154900D01*
X63975800Y-110590400D02*
X63975800Y-119646500D01*
X64370900Y-110195300D02*
X63975800Y-110590400D01*
X112776000Y-101097000D02*
X112776000Y-100006900D01*
X104837000Y-89674500D02*
X104837000Y-81977200D01*
X112299200Y-97136700D02*
X104837000Y-89674500D01*
X112912800Y-97136700D02*
X112299200Y-97136700D01*
X113873200Y-98097100D02*
X112912800Y-97136700D01*
X113873200Y-99046000D02*
X113873200Y-98097100D01*
X112912300Y-100006900D02*
X113873200Y-99046000D01*
X112776000Y-100006900D02*
X112912300Y-100006900D01*
%TO.N,P19*%
X112776000Y-98557000D02*
X112776000Y-97466900D01*
X71678100Y-126488000D02*
X72649500Y-126488000D01*
X68724100Y-123534000D02*
X71678100Y-126488000D01*
X68724100Y-123461000D02*
X68724100Y-123534000D01*
X64636000Y-119372900D02*
X68724100Y-123461000D01*
X64636000Y-113887300D02*
X64636000Y-119372900D01*
X67001800Y-111521500D02*
X64636000Y-113887300D01*
X67302200Y-111521500D02*
X67001800Y-111521500D01*
X68458400Y-110365300D02*
X67302200Y-111521500D01*
X68458400Y-93198900D02*
X68458400Y-110365300D01*
X71780200Y-89877100D02*
X68458400Y-93198900D01*
X109712700Y-97466900D02*
X99297800Y-87052000D01*
X112776000Y-97466900D02*
X109712700Y-97466900D01*
%TO.N,P17*%
X71145000Y-125488000D02*
X72649500Y-125488000D01*
X69054200Y-123397200D02*
X71145000Y-125488000D01*
X69054200Y-123324200D02*
X69054200Y-123397200D01*
X64966100Y-119236100D02*
X69054200Y-123324200D01*
X64966100Y-114024100D02*
X64966100Y-119236100D01*
X66828600Y-112161600D02*
X64966100Y-114024100D01*
X67367600Y-112161600D02*
X66828600Y-112161600D01*
X75571700Y-113711900D02*
X75716800Y-113857000D01*
X75571700Y-107984200D02*
X75571700Y-113711900D01*
X75762400Y-107793500D02*
X75571700Y-107984200D01*
%TO.N,P16*%
X71111900Y-124988000D02*
X72649500Y-124988000D01*
X69384300Y-123260400D02*
X71111900Y-124988000D01*
X69384300Y-123187400D02*
X69384300Y-123260400D01*
X65296200Y-119099300D02*
X69384300Y-123187400D01*
X65296200Y-114160900D02*
X65296200Y-119099300D01*
X66544200Y-112912900D02*
X65296200Y-114160900D01*
X67573900Y-112912900D02*
X66544200Y-112912900D01*
X68454000Y-112032800D02*
X67573900Y-112912900D01*
X68454000Y-111596100D02*
X68454000Y-112032800D01*
%TO.N,P15*%
X110279900Y-90937000D02*
X106095700Y-86752800D01*
X112776000Y-90937000D02*
X110279900Y-90937000D01*
X71078800Y-124488000D02*
X72649500Y-124488000D01*
X69714400Y-123123600D02*
X71078800Y-124488000D01*
X69714400Y-123050600D02*
X69714400Y-123123600D01*
X65626300Y-118962500D02*
X69714400Y-123050600D01*
X65626300Y-114297700D02*
X65626300Y-118962500D01*
X66670300Y-113253700D02*
X65626300Y-114297700D01*
X67718000Y-113253700D02*
X66670300Y-113253700D01*
X69094100Y-111877600D02*
X67718000Y-113253700D01*
X69094100Y-111185300D02*
X69094100Y-111877600D01*
X68874700Y-110965900D02*
X69094100Y-111185300D01*
X68874700Y-109000300D02*
X68874700Y-110965900D01*
X69098500Y-108776500D02*
X68874700Y-109000300D01*
%TO.N,P14*%
X106479600Y-120456100D02*
X106479600Y-122935900D01*
X106479500Y-120456100D02*
X106479600Y-120456100D01*
X103993200Y-117969800D02*
X106479500Y-120456100D01*
X103993200Y-93245100D02*
X103993200Y-117969800D01*
X80970900Y-124795600D02*
X79029100Y-122853800D01*
X81110700Y-124795600D02*
X80970900Y-124795600D01*
X76259200Y-123988000D02*
X76557600Y-124286400D01*
X72649500Y-123988000D02*
X76259200Y-123988000D01*
%TO.N,P13*%
X70546700Y-123488000D02*
X72649500Y-123488000D01*
X70060300Y-123001600D02*
X70546700Y-123488000D01*
X70060300Y-122927700D02*
X70060300Y-123001600D01*
X65975900Y-118843300D02*
X70060300Y-122927700D01*
X65975900Y-114872900D02*
X65975900Y-118843300D01*
X66924200Y-113924600D02*
X65975900Y-114872900D01*
X89234700Y-97912100D02*
X89234700Y-96651700D01*
X93255900Y-101933300D02*
X89234700Y-97912100D01*
%TO.N,P12*%
X111171000Y-83831900D02*
X109052500Y-83831900D01*
X111685900Y-83317000D02*
X111171000Y-83831900D01*
X112776000Y-83317000D02*
X111685900Y-83317000D01*
X70326700Y-108453700D02*
X71221100Y-108453700D01*
X69204800Y-109575600D02*
X70326700Y-108453700D01*
X69204800Y-110105800D02*
X69204800Y-109575600D01*
X69424200Y-110325200D02*
X69204800Y-110105800D01*
X69424200Y-112341500D02*
X69424200Y-110325200D01*
X68577700Y-113188000D02*
X69424200Y-112341500D01*
X68577700Y-118448300D02*
X68577700Y-113188000D01*
X68836400Y-118707000D02*
X68577700Y-118448300D01*
X68836400Y-119942100D02*
X68836400Y-118707000D01*
X71882300Y-122988000D02*
X68836400Y-119942100D01*
X72649500Y-122988000D02*
X71882300Y-122988000D01*
%TO.N,P11*%
X112776000Y-80777000D02*
X111685900Y-80777000D01*
X69231100Y-119845900D02*
X69231100Y-118150800D01*
X71873200Y-122488000D02*
X69231100Y-119845900D01*
X72649500Y-122488000D02*
X71873200Y-122488000D01*
X111685900Y-81656000D02*
X110863300Y-82478600D01*
X111685900Y-80777000D02*
X111685900Y-81656000D01*
%TO.N,P10*%
X112776000Y-78237000D02*
X111685900Y-78237000D01*
X109262000Y-80660900D02*
X109262000Y-81845900D01*
X111685900Y-78237000D02*
X109262000Y-80660900D01*
X69754300Y-109931300D02*
X69844900Y-109840700D01*
X69754300Y-112478300D02*
X69754300Y-109931300D01*
X69389100Y-112843500D02*
X69754300Y-112478300D01*
X69389100Y-117403500D02*
X69389100Y-112843500D01*
X69871200Y-117885600D02*
X69389100Y-117403500D01*
X69871200Y-119919300D02*
X69871200Y-117885600D01*
X71939900Y-121988000D02*
X69871200Y-119919300D01*
X72649500Y-121988000D02*
X71939900Y-121988000D01*
%TO.N,P9*%
X70201300Y-116825700D02*
X70029200Y-116653600D01*
X70201300Y-119757500D02*
X70201300Y-116825700D01*
X71931800Y-121488000D02*
X70201300Y-119757500D01*
X72649500Y-121488000D02*
X71931800Y-121488000D01*
%TO.N,P7*%
X72426900Y-108238200D02*
X72426900Y-85971400D01*
X70101000Y-110564100D02*
X72426900Y-108238200D01*
X70101000Y-114125100D02*
X70101000Y-110564100D01*
X70669300Y-114693400D02*
X70101000Y-114125100D01*
X70669300Y-119211100D02*
X70669300Y-114693400D01*
X71946200Y-120488000D02*
X70669300Y-119211100D01*
X72649500Y-120488000D02*
X71946200Y-120488000D01*
%TO.N,P6*%
X70999400Y-114009700D02*
X70775600Y-113785900D01*
X70999400Y-119047900D02*
X70999400Y-114009700D01*
X71939500Y-119988000D02*
X70999400Y-119047900D01*
X72649500Y-119988000D02*
X71939500Y-119988000D01*
%TO.N,P5*%
X112776000Y-68077000D02*
X112776000Y-69167100D01*
X113355900Y-69167100D02*
X112776000Y-69167100D01*
X114558900Y-70370100D02*
X113355900Y-69167100D01*
X114558900Y-116637700D02*
X114558900Y-70370100D01*
X113671200Y-117525400D02*
X114558900Y-116637700D01*
X76328100Y-119488000D02*
X77377800Y-118438300D01*
X72649500Y-119488000D02*
X76328100Y-119488000D01*
%TO.N,P4*%
X112776000Y-65537000D02*
X112776000Y-66627100D01*
X105550100Y-109313100D02*
X105550100Y-110174100D01*
X112496200Y-102367000D02*
X105550100Y-109313100D01*
X113097400Y-102367000D02*
X112496200Y-102367000D01*
X114225800Y-101238600D02*
X113097400Y-102367000D01*
X114225800Y-70503900D02*
X114225800Y-101238600D01*
X113223200Y-69501300D02*
X114225800Y-70503900D01*
X112613800Y-69501300D02*
X113223200Y-69501300D01*
X111663900Y-68551400D02*
X112613800Y-69501300D01*
X111663900Y-67602900D02*
X111663900Y-68551400D01*
X112639700Y-66627100D02*
X111663900Y-67602900D01*
X112776000Y-66627100D02*
X112639700Y-66627100D01*
X74636800Y-118988000D02*
X74904700Y-118720100D01*
X72649500Y-118988000D02*
X74636800Y-118988000D01*
%TO.N,P3*%
X72114100Y-84364000D02*
X70326800Y-84364000D01*
X73067000Y-85316900D02*
X72114100Y-84364000D01*
X73067000Y-108065000D02*
X73067000Y-85316900D01*
X70590100Y-110541900D02*
X73067000Y-108065000D01*
X70590100Y-112424900D02*
X70590100Y-110541900D01*
X71471600Y-113306400D02*
X70590100Y-112424900D01*
X71471600Y-114428900D02*
X71471600Y-113306400D01*
X71329500Y-114571000D02*
X71471600Y-114428900D01*
X71329500Y-117910600D02*
X71329500Y-114571000D01*
X71906900Y-118488000D02*
X71329500Y-117910600D01*
X72649500Y-118488000D02*
X71906900Y-118488000D01*
%TO.N,P2*%
X71031200Y-83724000D02*
X71031200Y-83723900D01*
X71941000Y-83724000D02*
X71031200Y-83724000D01*
X73397100Y-85180100D02*
X71941000Y-83724000D01*
X73397100Y-108227200D02*
X73397100Y-85180100D01*
X72836500Y-108787800D02*
X73397100Y-108227200D01*
X72836500Y-115985100D02*
X72836500Y-108787800D01*
X71665600Y-117156000D02*
X72836500Y-115985100D01*
X71665600Y-117762700D02*
X71665600Y-117156000D01*
X71890900Y-117988000D02*
X71665600Y-117762700D01*
X72649500Y-117988000D02*
X71890900Y-117988000D01*
%TO.N,P74*%
X112776000Y-184912000D02*
X112776000Y-183821900D01*
X112912300Y-183821900D02*
X112776000Y-183821900D01*
X115078800Y-181655400D02*
X112912300Y-183821900D01*
X115078800Y-157711800D02*
X115078800Y-181655400D01*
X113074000Y-155707000D02*
X115078800Y-157711800D01*
X112490000Y-155707000D02*
X113074000Y-155707000D01*
X103308000Y-146525000D02*
X112490000Y-155707000D01*
X103308000Y-143534300D02*
X103308000Y-146525000D01*
X95828900Y-136055200D02*
X103308000Y-143534300D01*
X95828900Y-135621600D02*
X95828900Y-136055200D01*
X94695300Y-134488000D02*
X95828900Y-135621600D01*
X93974500Y-134488000D02*
X94695300Y-134488000D01*
%TO.N,P71*%
X112776000Y-182372000D02*
X112776000Y-181281900D01*
X91562000Y-137630000D02*
X91562000Y-136900500D01*
X91837800Y-137905800D02*
X91562000Y-137630000D01*
X92304800Y-137905800D02*
X91837800Y-137905800D01*
X92792000Y-138393000D02*
X92304800Y-137905800D01*
X92792000Y-139988000D02*
X92792000Y-138393000D01*
X108263500Y-155459500D02*
X92792000Y-139988000D01*
X109382200Y-155459500D02*
X108263500Y-155459500D01*
X112169700Y-158247000D02*
X109382200Y-155459500D01*
X113117900Y-158247000D02*
X112169700Y-158247000D01*
X114748700Y-159877800D02*
X113117900Y-158247000D01*
X114748700Y-179445500D02*
X114748700Y-159877800D01*
X112912300Y-181281900D02*
X114748700Y-179445500D01*
X112776000Y-181281900D02*
X112912300Y-181281900D01*
%TO.N,P70*%
X92123400Y-138658300D02*
X92151900Y-138658300D01*
X91062000Y-137596900D02*
X92123400Y-138658300D01*
X91062000Y-136900500D02*
X91062000Y-137596900D01*
%TO.N,P69*%
X90562000Y-138002200D02*
X90802900Y-138243100D01*
X90562000Y-136900500D02*
X90562000Y-138002200D01*
%TO.N,P68*%
X112776000Y-174752000D02*
X112776000Y-173661900D01*
X112912300Y-173661900D02*
X112776000Y-173661900D01*
X114291100Y-172283100D02*
X112912300Y-173661900D01*
X114291100Y-161490500D02*
X114291100Y-172283100D01*
X113701900Y-160901300D02*
X114291100Y-161490500D01*
X112549300Y-160901300D02*
X113701900Y-160901300D01*
X90062000Y-138414000D02*
X112549300Y-160901300D01*
X90062000Y-136900500D02*
X90062000Y-138414000D01*
%TO.N,P64*%
X112776000Y-172212000D02*
X112776000Y-171121900D01*
X88062000Y-137700400D02*
X88062000Y-136900500D01*
X88222200Y-137860600D02*
X88062000Y-137700400D01*
X88222200Y-139758600D02*
X88222200Y-137860600D01*
X89107700Y-140644100D02*
X88222200Y-139758600D01*
X89107700Y-140837400D02*
X89107700Y-140644100D01*
X111681300Y-163411000D02*
X89107700Y-140837400D01*
X113197600Y-163411000D02*
X111681300Y-163411000D01*
X113904400Y-164117800D02*
X113197600Y-163411000D01*
X113904400Y-170129800D02*
X113904400Y-164117800D01*
X112912300Y-171121900D02*
X113904400Y-170129800D01*
X112776000Y-171121900D02*
X112912300Y-171121900D01*
%TO.N,P61*%
X114108600Y-177051100D02*
X114108600Y-178418000D01*
X112899700Y-175842200D02*
X114108600Y-177051100D01*
X112306400Y-175842200D02*
X112899700Y-175842200D01*
X111650400Y-175186200D02*
X112306400Y-175842200D01*
X111650400Y-171751400D02*
X111650400Y-175186200D01*
X112639700Y-170762100D02*
X111650400Y-171751400D01*
X112776000Y-170762100D02*
X112639700Y-170762100D01*
X112776000Y-169672000D02*
X112776000Y-170762100D01*
X86562000Y-136900500D02*
X86562000Y-135595600D01*
%TO.N,P60*%
X86062000Y-137589800D02*
X86062000Y-136900500D01*
X86672100Y-138199900D02*
X86062000Y-137589800D01*
%TO.N,P59*%
X112776000Y-164592000D02*
X111685900Y-164592000D01*
X88806700Y-141712800D02*
X111685900Y-164592000D01*
X87958700Y-141712800D02*
X88806700Y-141712800D01*
X85562000Y-139316100D02*
X87958700Y-141712800D01*
X85562000Y-136900500D02*
X85562000Y-139316100D01*
%TO.N,P58*%
X85062000Y-153477300D02*
X85062000Y-136900500D01*
%TO.N,CPLD_1.8V*%
X72898000Y-151418000D02*
X72898000Y-150627900D01*
X70064000Y-141732000D02*
X70064000Y-142252000D01*
X70064000Y-142252000D02*
X70064000Y-142772100D01*
X70020900Y-142208900D02*
X70020900Y-137460400D01*
X70064000Y-142252000D02*
X70020900Y-142208900D01*
X67564000Y-115784000D02*
X67564000Y-118912000D01*
X67056000Y-115276000D02*
X67564000Y-115784000D01*
X67564000Y-119591500D02*
X70750800Y-122778300D01*
X67564000Y-118912000D02*
X67564000Y-119591500D01*
X79248000Y-143564800D02*
X79873300Y-142939500D01*
X79248000Y-145836000D02*
X79248000Y-143564800D01*
X74562000Y-137628200D02*
X74562000Y-136900500D01*
X79873300Y-142939500D02*
X74562000Y-137628200D01*
X75125800Y-117597500D02*
X75414200Y-117885900D01*
X72759000Y-117597500D02*
X75125800Y-117597500D01*
X72649500Y-117488000D02*
X72759000Y-117597500D01*
X72337800Y-150067700D02*
X72898000Y-150627900D01*
X72337800Y-147193900D02*
X72337800Y-150067700D01*
X70064000Y-144920100D02*
X72337800Y-147193900D01*
X70064000Y-142772100D02*
X70064000Y-144920100D01*
X61685100Y-120157200D02*
X61685100Y-117659600D01*
X64503600Y-122975700D02*
X61685100Y-120157200D01*
X64503600Y-134571500D02*
X64503600Y-122975700D01*
X66027500Y-136095400D02*
X64503600Y-134571500D01*
X82825300Y-139987500D02*
X82944900Y-139987500D01*
X79873300Y-142939500D02*
X82825300Y-139987500D01*
X100064000Y-129488000D02*
X93974500Y-129488000D01*
X100076000Y-129500000D02*
X100064000Y-129488000D01*
%TO.N,GND*%
X71628000Y-149318000D02*
X71628000Y-148527900D01*
X71628000Y-148527900D02*
X69872100Y-148527900D01*
X68829000Y-149571000D02*
X68829000Y-161036000D01*
X69872100Y-148527900D02*
X68829000Y-149571000D01*
X93980000Y-148884000D02*
X88860000Y-143764000D01*
X93980000Y-158750000D02*
X93980000Y-148884000D01*
X93974500Y-126488000D02*
X93974500Y-126988000D01*
X103638900Y-150368000D02*
X105116000Y-150368000D01*
X95122700Y-141851800D02*
X103638900Y-150368000D01*
X95122700Y-139961200D02*
X95122700Y-141851800D01*
X92062000Y-136900500D02*
X95122700Y-139961200D01*
X73390100Y-134988000D02*
X72649500Y-134988000D01*
X73627500Y-134750600D02*
X73390100Y-134988000D01*
X73627500Y-131762500D02*
X73627500Y-134750600D01*
X73353000Y-131488000D02*
X73627500Y-131762500D01*
X72649500Y-131488000D02*
X73353000Y-131488000D01*
X95262800Y-115268300D02*
X95262800Y-117488000D01*
X95337000Y-115194100D02*
X95262800Y-115268300D01*
X95262800Y-117488000D02*
X93974500Y-117488000D01*
X86635600Y-139174000D02*
X86418200Y-139174000D01*
X87346800Y-138462800D02*
X86635600Y-139174000D01*
X87346800Y-137919100D02*
X87346800Y-138462800D01*
X87062000Y-137634300D02*
X87346800Y-137919100D01*
X87062000Y-136900500D02*
X87062000Y-137634300D01*
X74562000Y-115575500D02*
X74562000Y-111810400D01*
X87430800Y-106266800D02*
X90892000Y-109728000D01*
X87430800Y-105102900D02*
X87430800Y-106266800D01*
X67564000Y-122767800D02*
X67564000Y-123912000D01*
X64305900Y-119509700D02*
X67564000Y-122767800D01*
X64305900Y-113026100D02*
X64305900Y-119509700D01*
X67056000Y-110276000D02*
X64305900Y-113026100D01*
X92062000Y-136216400D02*
X92062000Y-136900500D01*
X91754000Y-135908400D02*
X92062000Y-136216400D01*
X87360800Y-135908400D02*
X91754000Y-135908400D01*
X87062000Y-136207200D02*
X87360800Y-135908400D01*
X87062000Y-136900500D02*
X87062000Y-136207200D01*
X67564000Y-146219800D02*
X69872100Y-148527900D01*
X67564000Y-141732000D02*
X67564000Y-146219800D01*
X67664000Y-134988000D02*
X72649500Y-134988000D01*
X67564000Y-135088000D02*
X67664000Y-134988000D01*
X96755000Y-121179000D02*
X95935500Y-121179000D01*
X100076000Y-124500000D02*
X96755000Y-121179000D01*
X95126500Y-121988000D02*
X93974500Y-121988000D01*
X95935500Y-121179000D02*
X95126500Y-121988000D01*
X94837300Y-126488000D02*
X93974500Y-126488000D01*
X95124200Y-126201100D02*
X94837300Y-126488000D01*
X101300600Y-126201100D02*
X95124200Y-126201100D01*
X101347600Y-126154100D02*
X101300600Y-126201100D01*
X67873800Y-135397800D02*
X67564000Y-135088000D01*
X67873800Y-141422200D02*
X67873800Y-135397800D01*
X67564000Y-141732000D02*
X67873800Y-141422200D01*
X79562000Y-136900500D02*
X79562000Y-138190400D01*
X85062000Y-114493300D02*
X84833300Y-114264600D01*
X85062000Y-115575500D02*
X85062000Y-114493300D01*
X95935500Y-118160700D02*
X95262800Y-117488000D01*
X95935500Y-121179000D02*
X95935500Y-118160700D01*
X63024700Y-124373100D02*
X62575100Y-124822700D01*
X63790300Y-124373100D02*
X63024700Y-124373100D01*
X64173500Y-124756300D02*
X63790300Y-124373100D01*
X64173500Y-135164200D02*
X64173500Y-124756300D01*
X65744900Y-136735600D02*
X64173500Y-135164200D01*
X66324400Y-136735600D02*
X65744900Y-136735600D01*
X67564000Y-135496000D02*
X66324400Y-136735600D01*
X67564000Y-135088000D02*
X67564000Y-135496000D01*
X74562000Y-111810400D02*
X74562000Y-109974400D01*
%TO.N,+3.3V*%
X72928000Y-149318000D02*
X72928000Y-148527900D01*
X77216000Y-168148000D02*
X77216000Y-167107900D01*
X72649500Y-130488000D02*
X73627500Y-130488000D01*
X98552000Y-114260000D02*
X97511900Y-114260000D01*
X98552000Y-114260000D02*
X99592100Y-114260000D01*
X80288200Y-164035700D02*
X80288200Y-148527900D01*
X77216000Y-167107900D02*
X80288200Y-164035700D01*
X80288200Y-147335800D02*
X83860000Y-143764000D01*
X80288200Y-148527900D02*
X80288200Y-147335800D01*
X76668000Y-114016700D02*
X76668000Y-111252000D01*
X76062000Y-114622700D02*
X76668000Y-114016700D01*
X76062000Y-115575500D02*
X76062000Y-114622700D01*
X96878600Y-124988000D02*
X93974500Y-124988000D01*
X97301600Y-124565000D02*
X96878600Y-124988000D01*
X85367600Y-109203600D02*
X85367600Y-105395300D01*
X85892000Y-109728000D02*
X85367600Y-109203600D01*
X72928000Y-148527900D02*
X80288200Y-148527900D01*
X92868000Y-134988000D02*
X92672600Y-134792600D01*
X93974500Y-134988000D02*
X92868000Y-134988000D01*
X98607000Y-125870400D02*
X97301600Y-124565000D01*
X100717300Y-125870400D02*
X98607000Y-125870400D01*
X102438600Y-124149100D02*
X100717300Y-125870400D01*
X102438600Y-117106500D02*
X102438600Y-124149100D01*
X99592100Y-114260000D02*
X102438600Y-117106500D01*
X69946200Y-132470200D02*
X69946200Y-133954400D01*
X67564000Y-130088000D02*
X69946200Y-132470200D01*
X83620600Y-136959100D02*
X83562000Y-136900500D01*
X83620600Y-138652900D02*
X83620600Y-136959100D01*
X83751000Y-138783300D02*
X83620600Y-138652900D01*
X73047600Y-137197600D02*
X73047600Y-136282200D01*
X73378400Y-137528400D02*
X73047600Y-137197600D01*
X73378400Y-148077500D02*
X73378400Y-137528400D01*
X72928000Y-148527900D02*
X73378400Y-148077500D01*
X74287700Y-135042100D02*
X73047600Y-136282200D01*
X74287700Y-131148200D02*
X74287700Y-135042100D01*
X73627500Y-130488000D02*
X74287700Y-131148200D01*
X73047600Y-136282200D02*
X71872400Y-136282200D01*
X92062000Y-115499300D02*
X92062000Y-115575500D01*
X93301300Y-114260000D02*
X92062000Y-115499300D01*
X97511900Y-114260000D02*
X93301300Y-114260000D01*
X83915100Y-138947400D02*
X83751000Y-138783300D01*
X83915100Y-143708900D02*
X83915100Y-138947400D01*
X83860000Y-143764000D02*
X83915100Y-143708900D01*
X83062000Y-121563400D02*
X82472600Y-122152800D01*
X83062000Y-115575500D02*
X83062000Y-121563400D01*
X82920800Y-122601000D02*
X82472600Y-122152800D01*
X82920800Y-123797700D02*
X82920800Y-122601000D01*
X78374400Y-122152800D02*
X77197700Y-123329500D01*
X82472600Y-122152800D02*
X78374400Y-122152800D01*
X77197700Y-126917800D02*
X77197700Y-123329500D01*
X73627500Y-130488000D02*
X77197700Y-126917800D01*
X74856200Y-120988000D02*
X72649500Y-120988000D01*
X77197700Y-123329500D02*
X74856200Y-120988000D01*
%TD*%
M02*
